<svg xmlns="http://www.w3.org/2000/svg" viewBox="0 0 1684.31 1598.73" width="1684.31" height="1598.73" style="background-color: transparent;"><defs><style>@import url('https://fonts.googleapis.com/css2?family=Caveat+Brush&amp;family=Source+Code+Pro&amp;family=Source+Sans+Pro&amp;family=Crimson+Pro&amp;display=block');</style></defs><g id="ff545c26-99c2-47c2-04ca-7d96fd3fe99d_svg" class="tl-centered-g" transform="translate(16.00, 377.31) rotate(0.00, 70.19, 288.80)"><g opacity="1"><path d="M15.79,389.08 Q16.31,380.10 16.50,374.03 T16.84,355.64 17.09,332.01 17.27,311.78 17.40,297.01 17.12,288.46 16.83,285.35 17.01,284.59 17.38,283.90 17.90,283.31 18.55,282.86 19.28,282.59 20.06,282.49 20.84,282.59 21.57,282.86 22.22,283.31 22.74,283.90 23.11,284.59 23.29,285.36 23.75,289.27 25.37,299.45 28.34,310.69 32.03,320.84 35.86,331.18 40.49,340.24 44.97,347.97 47.37,345.19 47.41,326.97 43.81,293.13 36.49,240.28 28.01,180.49 19.76,127.74 12.54,84.24 6.77,51.24 2.70,29.41 0.35,17.39 -1.21,12.64 -1.91,11.17 -1.89,10.44 -1.69,9.73 -1.34,9.10 -0.84,8.56 -0.23,8.17 0.46,7.92 1.19,7.86 1.91,7.96 2.58,8.24 3.17,8.67 3.64,9.23 3.96,9.88 3.80,13.73 3.33,26.80 5.68,53.15 13.21,95.42 24.53,151.18 38.84,214.29 54.79,276.04 70.78,332.59 84.99,383.62 96.43,424.36 105.44,455.85 112.22,481.37 117.76,502.64 122.60,520.65 127.06,535.95 131.30,548.83 134.55,558.69 138.91,566.83 142.49,571.16 143.15,571.96 143.53,572.93 143.58,573.96 143.29,574.96 142.70,575.82 141.87,576.44 140.88,576.76 139.85,576.75 138.86,576.41 138.04,575.78 137.47,574.91 137.20,573.91 137.26,572.87 137.65,571.91 138.33,571.13 139.23,570.60 140.24,570.38 141.27,570.50 142.21,570.95 142.96,571.67 143.44,572.59 143.60,573.62 143.42,574.64 142.93,575.55 142.17,576.26 141.22,576.69 140.19,576.79 139.18,576.56 138.69,576.36 136.47,572.98 132.78,566.88 130.17,560.15 126.91,550.29 122.61,537.25 118.12,521.86 113.25,503.82 107.70,482.57 100.92,457.14 91.88,425.66 80.39,384.90 66.12,333.91 50.03,277.28 33.92,215.41 19.44,152.22 7.88,96.36 -0.00,53.56 -2.32,23.94 -1.91,11.17 -1.89,10.44 -1.69,9.73 -1.34,9.10 -0.84,8.56 -0.23,8.17 0.46,7.92 1.19,7.86 1.91,7.96 2.58,8.24 3.17,8.67 3.64,9.23 3.96,9.88 4.32,11.43 5.28,16.41 7.49,28.52 11.67,50.36 17.59,83.39 25.00,126.91 33.51,179.69 42.36,239.44 50.17,292.48 54.46,326.86 55.53,345.12 54.87,354.05 49.97,357.98 43.70,356.46 40.14,350.74 35.57,342.85 30.32,333.39 26.01,323.21 21.49,312.46 18.46,303.31 16.89,296.25 16.37,289.34 16.83,285.36 17.01,284.59 17.38,283.90 17.90,283.31 18.55,282.86 19.28,282.59 20.06,282.49 20.84,282.59 21.57,282.86 22.22,283.31 22.74,283.90 23.11,284.59 23.29,285.35 23.00,288.46 22.72,297.01 22.85,311.78 23.03,332.01 23.28,355.64 23.62,374.03 24.07,384.59 24.27,389.59 24.02,390.58 23.55,391.49 22.87,392.25 22.03,392.83 21.07,393.20 20.06,393.32 19.05,393.20 18.09,392.83 17.25,392.25 16.57,391.49 16.10,390.58 15.85,389.59 Z" fill="#7746f1" stroke="#7746f1" stroke-width="2.5" stroke-linejoin="round" stroke-linecap="round" pointer-events="none"/></g></g><g id="2d637bd0-0017-4bce-092c-5603d4583c67_svg" class="tl-centered-g" transform="translate(108.25, 553.80) rotate(0.00, 62.17, 46.13)"><g opacity="1"><path d="M15.85,30.94 Q9.96,37.73 8.66,40.31 T6.67,45.83 5.39,54.53 4.58,63.85 4.19,71.16 4.05,77.91 1.75,82.70 0.50,81.37 3.40,74.63 6.84,65.54 10.40,55.43 13.09,47.28 13.94,43.73 14.22,43.04 14.77,41.82 15.60,40.76 16.66,39.93 17.88,39.38 19.20,39.14 20.54,39.22 21.82,39.63 22.97,40.32 23.92,41.27 24.61,42.42 25.01,43.70 25.09,45.04 25.46,48.86 25.95,55.75 23.41,60.37 22.27,55.88 24.73,46.55 26.39,38.47 28.48,29.89 30.60,21.55 31.54,14.56 32.63,7.38 33.58,2.82 33.89,1.87 34.41,1.03 35.12,0.33 35.98,-0.18 36.94,-0.46 37.93,-0.51 38.91,-0.32 39.81,0.10 40.59,0.72 41.20,1.51 41.59,2.42 41.76,3.41 43.37,7.28 45.63,14.55 48.07,21.75 52.65,29.85 57.86,38.17 65.00,46.18 74.97,54.04 85.59,59.22 95.81,62.10 104.04,63.64 111.68,60.28 117.35,52.67 116.13,46.24 112.96,43.03 112.21,41.80 111.88,40.40 112.02,38.97 112.61,37.66 113.59,36.60 114.85,35.91 116.27,35.66 117.69,35.88 118.97,36.54 119.97,37.57 120.59,38.87 120.76,40.30 120.47,41.71 119.74,42.95 118.66,43.89 117.32,44.44 115.89,44.54 114.50,44.17 113.30,43.37 112.41,42.24 111.94,40.88 111.92,39.44 112.37,38.07 113.23,36.92 114.41,36.09 115.79,35.69 117.23,35.76 118.57,36.27 119.20,36.64 122.11,39.61 125.56,46.37 125.02,52.92 122.20,58.22 117.51,63.61 110.91,67.92 103.41,68.69 94.48,66.94 83.39,63.88 71.69,58.30 60.75,49.94 52.80,41.58 46.93,33.27 41.21,24.26 38.00,16.74 35.42,8.39 33.58,2.82 33.89,1.87 34.41,1.03 35.12,0.33 35.98,-0.18 36.94,-0.46 37.93,-0.51 38.91,-0.32 39.81,0.10 40.59,0.72 41.20,1.51 41.59,2.42 41.76,3.41 40.27,8.05 38.28,15.42 37.31,22.97 35.95,31.20 34.99,39.59 34.37,49.25 32.89,57.59 30.19,64.68 24.41,69.59 17.18,65.07 14.03,55.91 14.04,47.98 14.22,43.04 14.77,41.82 15.60,40.76 16.66,39.93 17.88,39.38 19.20,39.14 20.54,39.22 21.82,39.62 22.97,40.32 23.92,41.27 24.61,42.42 25.01,43.70 25.09,45.04 24.30,48.34 21.62,55.07 18.02,63.56 14.83,73.79 11.13,83.17 6.58,88.66 1.03,90.28 -3.01,85.37 -3.75,77.78 -3.66,70.93 -3.62,63.38 -3.30,56.16 -2.49,49.75 -0.97,42.99 1.65,35.97 5.77,29.00 8.61,24.80 9.49,24.08 10.53,23.59 11.64,23.36 12.79,23.40 13.88,23.72 14.87,24.29 15.70,25.08 16.31,26.04 16.67,27.13 16.77,28.27 16.58,29.39 16.14,30.45 Z" fill="#7746f1" stroke="#7746f1" stroke-width="2.5" stroke-linejoin="round" stroke-linecap="round" pointer-events="none"/></g></g><g id="44e6d2e9-b6ea-467f-3037-aabc9eed8007_svg" class="tl-centered-g" transform="translate(180.45, 493.63) rotate(0.00, 4.01, 224.62)"><g opacity="1"><path d="M11.57,0.00 Q11.24,8.98 11.11,17.74 T10.90,60.06 9.85,139.11 7.44,226.79 5.20,301.24 3.94,358.51 2.95,416.39 2.34,449.66 2.08,450.38 1.60,450.99 0.96,451.41 0.22,451.60 -0.55,451.55 -1.26,451.25 -1.83,450.75 -2.22,450.08 -2.37,449.33 -2.28,448.57 -1.94,447.88 -1.41,447.33 -0.72,446.98 0.04,446.87 0.79,447.00 1.47,447.37 1.99,447.94 2.30,448.64 2.37,449.41 2.19,450.15 1.78,450.81 1.19,451.29 0.47,451.57 -0.29,451.59 -1.03,451.38 -1.66,450.94 -2.11,450.32 -2.35,449.59 -2.40,449.20 -1.90,416.31 -0.99,358.41 0.14,301.10 2.22,226.66 4.40,139.06 5.14,60.06 4.93,17.74 4.63,4.49 4.52,-0.43 4.72,-1.25 5.12,-2.00 5.68,-2.64 6.38,-3.12 7.18,-3.42 8.02,-3.53 8.86,-3.42 9.66,-3.12 10.36,-2.64 10.92,-2.00 11.32,-1.25 11.52,-0.42 Z" fill="#7746f1" stroke="#7746f1" stroke-width="2.5" stroke-linejoin="round" stroke-linecap="round" pointer-events="none"/></g></g><g id="483e4d16-9910-4853-35f6-f654a280d7d0_svg" class="tl-centered-g" transform="translate(276.84, 681.59) rotate(353.29, 145.15, 93.86)"><g opacity="1"><path d="M86.01,2.70 Q83.90,2.71 82.16,2.58 T78.94,2.42 76.11,2.37 72.94,2.44 69.32,2.57 65.83,2.87 61.92,3.57 56.79,4.94 52.36,6.39 48.96,7.66 44.77,9.16 41.08,10.66 37.57,12.77 33.71,15.26 30.82,17.09 27.70,19.44 24.49,22.16 21.41,26.06 18.09,31.62 15.39,37.03 12.23,43.65 8.86,50.90 6.02,58.43 3.83,65.51 2.62,70.71 2.04,74.62 1.84,77.57 1.85,81.44 2.02,85.65 2.45,89.11 3.14,92.16 4.48,95.88 6.71,100.35 9.47,103.54 13.40,106.10 18.20,108.14 22.94,109.23 26.96,109.87 30.51,110.51 33.73,111.38 36.60,112.01 40.01,112.73 43.64,113.35 47.34,113.50 51.19,113.39 54.90,113.10 58.01,112.63 61.44,111.67 65.91,110.10 69.54,108.60 72.80,106.77 76.10,104.76 78.92,102.79 81.73,99.87 84.70,96.98 87.33,94.80 89.70,91.70 92.04,87.66 93.10,83.99 93.24,80.27 93.19,76.97 91.86,74.69 88.48,73.66 82.41,73.29 76.49,72.84 72.97,72.63 69.88,72.78 66.21,73.30 62.25,73.79 58.69,74.04 56.64,74.16 56.05,74.15 55.44,74.01 54.88,73.72 54.41,73.31 54.05,72.79 53.82,72.21 53.74,71.59 53.81,70.97 54.03,70.38 54.38,69.86 54.85,69.44 55.40,69.15 56.01,68.99 57.40,69.72 59.93,70.16 63.07,69.78 66.22,69.82 69.83,69.56 73.60,69.04 76.57,68.78 79.73,68.63 83.30,68.52 86.81,68.45 90.14,68.42 93.30,68.43 96.78,68.89 100.55,69.97 104.49,71.31 108.36,72.60 111.93,73.76 115.99,74.87 119.34,76.75 120.42,79.45 120.00,82.27 118.43,85.76 116.58,89.17 115.00,92.35 113.67,95.67 113.17,98.48 112.49,101.65 111.90,105.07 111.94,108.42 113.31,109.65 116.41,108.23 119.56,106.61 122.27,105.23 125.12,103.12 127.48,99.61 128.87,95.28 129.62,91.29 130.77,87.26 133.51,84.98 136.31,86.45 137.48,89.73 137.98,93.55 138.51,97.26 138.70,100.48 138.74,103.76 139.92,107.31 142.44,109.32 145.61,109.67 148.80,109.76 151.95,109.79 155.28,108.69 158.39,106.71 161.56,104.26 162.74,104.09 162.19,106.85 162.47,109.60 164.30,112.50 166.45,115.24 167.75,117.69 168.63,120.46 168.96,123.32 169.05,126.44 168.47,130.90 166.64,134.46 164.04,136.61 161.04,138.27 157.27,138.21 153.64,136.98 151.74,134.55 152.50,130.75 155.51,127.81 158.89,126.76 161.99,126.60 166.03,126.37 170.31,125.92 173.70,125.35 177.48,124.78 183.92,123.84 190.57,122.79 195.18,121.72 198.61,120.41 201.15,119.12 203.33,116.91 204.34,115.46 204.65,115.16 205.11,114.69 205.67,114.34 206.30,114.13 206.96,114.08 207.61,114.19 208.22,114.45 208.75,114.85 209.16,115.37 209.44,115.97 209.57,116.62 209.54,117.28 209.36,117.92 208.18,120.03 205.77,123.49 203.52,126.93 201.22,130.49 198.87,134.09 196.77,137.21 195.03,140.08 193.51,143.57 191.80,147.30 190.83,150.50 192.00,151.54 195.38,151.24 198.72,151.30 201.37,150.53 204.08,148.98 206.58,147.24 208.96,145.48 211.97,144.00 215.06,143.11 218.19,142.21 222.13,140.93 226.47,140.09 229.71,139.48 231.12,138.98 231.82,138.87 232.52,138.94 233.19,139.17 233.78,139.55 234.27,140.07 234.61,140.68 234.80,141.36 234.82,142.07 234.67,142.76 234.36,143.39 233.91,143.94 233.34,144.35 231.71,144.45 229.06,144.43 226.32,145.42 223.42,147.30 221.13,149.42 219.76,151.92 218.62,154.70 217.93,157.55 217.79,160.62 219.05,163.08 221.41,163.03 224.50,161.32 227.98,158.94 230.47,156.15 232.72,153.08 234.27,149.46 234.66,146.97 234.79,145.95 235.02,145.26 235.42,144.64 235.94,144.14 236.58,143.78 237.28,143.58 238.01,143.55 238.72,143.70 239.38,144.01 239.95,144.47 240.38,145.06 240.67,145.73 240.78,146.45 240.88,148.27 240.97,151.12 240.97,154.17 241.34,157.59 242.24,160.57 243.53,163.71 244.94,166.79 246.94,168.40 250.50,168.52 254.43,167.58 257.43,166.13 260.00,164.21 262.58,162.03 264.81,158.99 265.94,156.65 266.29,155.90 266.70,155.28 267.25,154.78 267.90,154.42 268.61,154.23 269.36,154.21 270.08,154.37 270.74,154.70 271.31,155.18 271.74,155.78 272.02,156.47 272.13,157.21 272.05,157.95 271.58,160.19 270.63,163.27 269.23,166.28 267.70,169.50 266.40,172.59 265.62,176.02 265.44,179.46 265.41,182.46 266.85,184.12 269.69,183.55 272.23,181.86 274.50,179.80 276.55,177.36 278.86,174.76 281.19,171.57 283.00,168.86 285.23,166.49 287.22,164.05 288.15,162.65 288.81,162.05 289.62,161.70 290.50,161.62 291.36,161.83 292.11,162.30 292.67,162.99 292.98,163.81 293.02,164.70 292.76,165.55 292.25,166.27 291.53,166.79 290.69,167.06 289.80,167.04 288.97,166.74 288.28,166.19 287.79,165.45 287.57,164.59 287.64,163.71 287.98,162.89 288.57,162.23 289.34,161.79 290.21,161.61 291.08,161.73 291.88,162.12 292.51,162.74 292.91,163.53 293.04,164.40 292.88,165.28 292.72,165.70 291.82,167.45 289.67,170.57 287.56,172.93 285.92,175.18 284.20,177.35 282.29,179.64 279.90,182.61 276.88,185.64 273.02,188.62 269.47,190.48 266.43,190.72 262.55,189.79 259.85,187.79 259.23,184.54 259.21,180.96 259.24,177.24 259.50,173.02 260.37,169.81 261.64,167.35 263.29,164.48 265.34,160.87 266.26,157.56 266.29,155.90 266.70,155.28 267.25,154.78 267.90,154.42 268.61,154.23 269.35,154.21 270.08,154.37 270.74,154.70 271.31,155.18 271.74,155.78 272.02,156.47 272.13,157.21 272.05,157.95 271.21,159.66 269.47,162.94 267.14,166.18 264.51,168.69 261.96,170.71 258.48,172.67 255.05,174.26 252.15,175.12 248.58,175.48 245.17,175.17 241.94,173.49 239.58,170.79 238.63,168.14 237.65,165.40 236.21,161.95 235.06,157.85 234.69,154.17 234.68,151.14 234.70,148.04 234.79,145.95 235.02,145.26 235.42,144.64 235.94,144.14 236.58,143.78 237.28,143.58 238.01,143.55 238.72,143.70 239.38,144.01 239.94,144.47 240.38,145.06 240.67,145.73 240.78,146.45 240.68,147.65 240.21,150.23 238.85,154.06 236.54,158.30 234.16,161.64 232.06,163.86 229.92,165.60 227.25,167.07 224.07,168.82 221.16,170.11 218.17,170.07 215.09,168.73 212.85,166.28 211.62,162.96 211.32,159.20 211.64,155.77 212.56,152.22 214.50,148.05 217.28,144.49 219.96,142.20 222.84,140.27 226.07,138.80 229.17,138.72 231.12,138.98 231.82,138.87 232.52,138.94 233.19,139.17 233.78,139.55 234.26,140.07 234.61,140.68 234.80,141.36 234.82,142.07 234.67,142.76 234.36,143.39 233.91,143.94 233.34,144.35 233.01,144.59 231.77,145.09 228.97,145.61 225.62,145.97 222.08,146.87 219.07,148.06 216.09,149.06 213.00,150.20 210.25,152.03 207.46,153.94 204.74,155.53 201.82,156.78 198.73,157.17 195.22,157.10 191.46,157.12 187.61,156.28 184.96,154.20 184.52,151.37 185.13,147.98 186.24,144.70 187.34,141.80 188.39,139.16 189.72,136.20 191.53,133.28 193.27,130.97 194.92,128.87 196.67,126.52 198.16,124.04 199.79,121.85 201.71,119.46 203.55,116.78 204.65,115.16 205.11,114.69 205.67,114.34 206.30,114.13 206.96,114.08 207.61,114.19 208.22,114.45 208.75,114.85 209.16,115.37 209.44,115.97 209.57,116.62 209.54,117.28 209.36,117.92 208.89,118.41 207.38,120.10 204.93,122.42 201.84,124.13 198.37,125.31 195.26,126.12 191.50,127.23 186.00,128.78 180.40,130.16 176.56,130.76 173.06,131.34 168.98,132.00 165.34,132.65 161.95,133.21 158.81,134.01 157.30,133.08 158.47,131.80 161.09,131.29 162.39,128.81 162.33,125.44 162.15,122.24 161.00,118.89 158.91,115.84 157.01,112.66 155.85,108.75 155.65,105.39 156.53,102.18 158.40,99.09 160.95,97.21 163.65,96.34 166.90,96.89 169.42,99.89 169.58,103.69 167.87,106.53 165.08,109.38 162.11,111.87 158.94,114.03 155.59,115.84 152.04,116.36 148.74,116.37 145.83,116.34 142.94,116.18 139.78,115.36 136.91,113.58 134.43,110.69 132.62,107.36 132.16,103.95 132.09,100.72 131.90,97.95 131.34,94.70 131.45,91.19 134.15,89.71 136.22,91.24 135.56,94.30 134.75,97.52 133.92,100.22 132.69,103.07 131.07,106.15 128.80,108.50 126.28,110.01 123.76,111.27 120.88,112.76 117.85,114.50 114.95,115.73 111.87,115.96 108.45,115.02 106.06,113.00 105.39,109.74 105.38,106.35 105.62,103.13 106.23,99.71 106.88,96.68 107.76,93.42 109.03,90.30 110.34,87.64 111.79,84.74 113.32,81.93 112.61,80.45 109.40,79.60 105.91,78.37 102.39,77.13 99.17,75.99 96.25,75.09 93.24,74.73 90.14,74.74 86.82,74.72 83.32,74.65 79.80,74.57 76.15,74.55 72.59,74.74 69.30,75.26 65.05,75.64 60.64,75.57 57.62,74.82 56.05,74.15 55.44,74.01 54.88,73.72 54.41,73.31 54.05,72.79 53.82,72.21 53.74,71.59 53.81,70.97 54.03,70.38 54.38,69.86 54.85,69.44 55.40,69.15 56.01,68.99 56.60,68.98 58.61,69.04 62.00,69.12 65.70,69.02 69.56,68.58 72.98,68.22 76.50,68.02 82.54,67.65 88.44,67.55 92.31,68.34 95.51,70.22 97.74,73.45 98.80,76.93 98.60,80.55 98.16,84.24 97.10,87.65 95.65,90.76 94.19,93.18 92.51,95.65 90.44,98.19 87.74,100.91 84.79,103.79 81.49,106.53 78.39,108.54 75.90,110.10 72.45,111.94 67.65,114.15 62.71,115.93 58.82,116.90 55.57,117.61 51.55,118.50 47.14,119.04 42.87,118.78 39.00,118.05 35.49,117.13 31.52,116.17 27.82,115.17 24.27,114.15 21.03,113.40 18.28,112.94 15.27,112.14 11.01,110.33 6.62,107.67 4.03,104.58 2.21,101.44 0.74,98.77 -0.32,96.13 -1.26,93.35 -1.94,90.60 -2.05,87.50 -1.69,83.51 -1.32,79.98 -0.94,77.24 -0.41,74.23 0.33,70.20 1.51,64.82 3.66,57.55 6.45,49.82 9.66,42.49 12.62,35.73 15.14,29.97 18.48,23.66 21.65,19.10 24.17,16.63 27.48,14.13 30.73,12.08 33.88,10.46 36.97,9.01 39.70,7.59 43.37,5.87 47.35,3.91 50.77,2.21 54.01,0.76 56.96,-0.52 60.52,-1.54 65.19,-2.34 69.32,-2.57 72.94,-2.44 76.11,-2.37 78.94,-2.42 82.16,-2.58 84.96,-2.70 86.33,-2.66 86.96,-2.50 87.53,-2.20 88.01,-1.78 88.38,-1.24 88.61,-0.64 88.69,0.00 88.61,0.64 88.38,1.24 88.01,1.78 87.53,2.20 86.96,2.50 86.33,2.66 Z" fill="#ff2133" stroke="#ff2133" stroke-width="1" stroke-linejoin="round" stroke-linecap="round" pointer-events="none"/></g></g><g id="4efc6598-ebd0-4c1c-37f1-ca935d96e8f7_svg" class="tl-centered-g" transform="translate(465.00, 798.56) rotate(353.29, 27.92, 9.08)"><g opacity="1"><path d="M2.96,-0.44 Q3.61,1.63 6.21,3.63 T10.45,6.60 15.32,8.73 20.96,10.82 25.82,12.68 29.88,14.02 34.69,14.73 40.31,15.47 45.14,16.16 49.17,16.46 53.35,16.70 56.12,16.94 56.49,17.09 56.80,17.35 57.01,17.70 57.09,18.10 57.05,18.50 56.87,18.87 56.59,19.16 56.23,19.35 55.83,19.41 55.43,19.34 55.08,19.15 54.80,18.86 54.63,18.49 54.59,18.08 54.68,17.69 54.89,17.34 55.20,17.08 55.58,16.93 55.98,16.92 56.37,17.03 56.71,17.26 56.95,17.58 57.08,17.96 57.08,18.37 56.94,18.75 56.70,19.08 56.36,19.30 55.97,19.41 55.76,19.43 53.17,19.31 48.95,18.99 44.82,18.58 39.99,18.00 34.20,17.37 29.06,16.59 24.90,15.21 20.01,13.55 14.06,11.62 8.68,9.62 3.31,5.66 -0.41,1.51 -0.63,0.22 -0.63,-0.22 -0.52,-0.65 -0.32,-1.04 -0.03,-1.37 0.34,-1.62 0.75,-1.77 1.18,-1.82 1.62,-1.77 2.03,-1.61 2.39,-1.36 2.68,-1.03 2.89,-0.64 Z" fill="#ff2133" stroke="#ff2133" stroke-width="1" stroke-linejoin="round" stroke-linecap="round" pointer-events="none"/></g></g><g id="ffae3429-d22d-4799-1455-ef8fb6e1d803_svg" class="tl-centered-g" transform="translate(565.38, 793.06) rotate(353.29, 31.77, 33.97)"><g opacity="1"><path d="M64.65,1.64 Q63.15,2.81 62.13,4.02 T60.19,6.28 56.79,9.63 52.41,14.47 48.59,19.61 45.08,24.21 42.02,27.62 39.29,30.32 37.10,32.63 35.16,35.08 32.94,37.90 30.72,40.21 28.57,42.04 25.70,44.53 22.93,47.38 20.83,49.65 18.66,51.94 16.70,54.29 14.77,56.48 12.74,58.91 10.66,61.61 8.00,64.54 3.99,68.23 1.11,70.55 0.22,70.77 -0.70,70.69 -1.54,70.32 -2.22,69.70 -2.66,68.90 -2.83,68.00 -2.70,67.09 -2.29,66.27 -1.64,65.63 -0.82,65.23 0.09,65.11 0.99,65.29 1.79,65.74 2.40,66.43 2.75,67.27 2.82,68.19 2.60,69.07 2.10,69.84 1.38,70.41 0.52,70.73 -0.40,70.75 -1.27,70.47 -2.01,69.93 -2.55,69.19 -2.81,68.31 -2.78,67.39 -2.46,66.53 -1.88,65.82 -1.53,65.51 -0.24,64.42 2.39,61.90 5.20,58.47 7.58,55.18 9.67,53.10 11.98,50.76 14.05,48.19 16.25,45.98 18.80,43.66 21.56,41.56 24.60,39.32 27.60,37.03 30.34,34.79 32.83,32.50 35.00,30.54 37.32,28.35 39.90,25.76 42.64,22.44 45.86,17.71 49.55,12.07 54.47,5.78 59.13,0.85 61.61,-1.17 62.65,-1.75 63.09,-1.92 63.56,-1.97 64.03,-1.90 64.48,-1.73 64.86,-1.46 65.17,-1.10 65.39,-0.67 65.50,-0.21 65.49,0.26 65.37,0.72 65.15,1.14 64.83,1.49 Z" fill="#ff2133" stroke="#ff2133" stroke-width="1" stroke-linejoin="round" stroke-linecap="round" pointer-events="none"/></g></g><g id="1780e79b-89f1-4048-254a-e26e77de7842_svg" class="tl-centered-g" transform="translate(596.46, 811.49) rotate(353.29, 33.35, 28.27)"><g opacity="1"><path d="M68.73,2.03 Q67.11,3.59 65.67,4.65 T63.32,6.91 61.15,9.80 58.94,12.80 56.71,16.09 54.64,19.21 52.05,21.95 48.74,24.56 45.80,26.35 42.23,27.84 38.40,29.58 35.32,31.33 32.78,32.97 29.98,35.16 26.61,37.58 23.59,39.79 20.59,42.07 16.91,44.34 13.87,46.17 11.67,48.02 9.32,50.09 6.92,52.41 4.22,55.82 2.41,58.33 1.71,59.00 0.83,59.42 -0.13,59.53 -1.09,59.33 -1.92,58.84 -2.56,58.10 -2.93,57.20 -2.99,56.23 -2.74,55.29 -2.20,54.48 -1.43,53.89 -0.51,53.57 0.46,53.56 1.38,53.86 2.16,54.44 2.72,55.24 2.98,56.18 2.94,57.15 2.59,58.06 1.97,58.80 1.14,59.31 0.19,59.53 -0.78,59.43 -1.66,59.03 -2.38,58.37 -2.84,57.52 -3.01,56.56 -2.86,55.60 -2.70,55.13 -1.79,53.80 0.07,51.12 2.06,48.57 4.10,46.48 6.41,44.55 9.21,42.29 12.24,40.26 14.95,38.80 17.28,37.24 20.09,35.01 23.33,32.54 26.26,30.31 29.09,28.01 32.77,25.84 36.80,23.63 40.24,21.99 43.47,20.73 46.19,19.05 48.65,16.83 51.20,13.79 53.40,11.02 55.51,8.20 57.32,5.42 59.35,2.75 61.87,0.39 63.90,-1.23 64.95,-2.24 65.53,-2.59 66.19,-2.80 66.87,-2.84 67.55,-2.72 68.17,-2.44 68.71,-2.01 69.14,-1.47 69.42,-0.85 69.54,-0.17 69.50,0.51 69.29,1.17 68.94,1.76 Z" fill="#ff2133" stroke="#ff2133" stroke-width="1" stroke-linejoin="round" stroke-linecap="round" pointer-events="none"/></g></g><g id="ddd21f0a-fd22-445b-0df3-468daeaa5398_svg" class="tl-centered-g" transform="translate(559.23, 800.20) rotate(353.29, 84.30, 33.49)"><g opacity="1"><path d="M0.75,-1.49 Q2.92,-0.57 5.90,1.03 T12.96,4.75 24.31,10.57 38.03,17.53 51.65,24.61 63.30,30.79 70.74,34.46 77.74,37.07 87.80,40.63 102.13,45.78 116.20,50.67 127.55,54.37 136.79,57.29 145.37,59.77 154.20,62.14 163.49,64.59 169.03,66.00 169.32,66.19 169.54,66.46 169.66,66.79 169.67,67.14 169.56,67.47 169.36,67.75 169.08,67.95 168.74,68.06 168.40,68.05 168.07,67.93 167.80,67.71 167.61,67.41 167.53,67.08 167.56,66.73 167.69,66.41 167.93,66.15 168.23,65.98 168.57,65.91 168.92,65.96 169.23,66.12 169.47,66.36 169.63,66.68 169.68,67.02 169.61,67.36 169.44,67.67 169.18,67.90 168.86,68.03 168.51,68.06 168.33,68.05 162.93,66.69 153.64,64.25 144.75,61.88 136.13,59.39 126.87,56.47 115.47,52.77 101.37,47.89 87.05,42.78 76.92,39.23 69.72,36.58 62.17,32.94 50.50,26.86 36.84,19.91 23.03,13.12 11.57,7.53 4.36,4.11 0.27,2.08 -0.91,1.38 -1.22,1.12 -1.45,0.79 -1.60,0.43 -1.65,0.03 -1.61,-0.37 -1.48,-0.74 -1.26,-1.07 -0.96,-1.34 -0.61,-1.53 -0.23,-1.64 0.17,-1.64 0.56,-1.55 Z" fill="#ff2133" stroke="#ff2133" stroke-width="1" stroke-linejoin="round" stroke-linecap="round" pointer-events="none"/></g></g><g id="2f5835ff-6f29-4ef8-37d9-fc83f5f90b1c_svg" class="tl-centered-g" transform="translate(186.04, 187.03) rotate(0.00, 166.66, 95.23)"><g opacity="1"><path d="M3.00,101.18 Q2.66,113.16 2.53,123.13 T2.97,143.20 3.84,161.61 4.94,174.35 6.72,180.89 7.75,183.29 7.75,183.88 7.61,184.46 7.34,184.99 6.95,185.44 6.47,185.79 5.91,186.00 5.32,186.08 4.73,186.02 4.17,185.81 3.68,185.48 3.28,185.04 2.99,184.51 3.01,181.39 3.32,172.57 4.29,158.54 5.53,142.12 6.23,126.46 6.63,112.48 6.87,100.76 7.01,91.62 7.09,83.91 7.86,76.75 11.16,70.34 17.84,64.65 26.24,59.60 33.60,56.15 39.38,55.24 43.20,59.12 44.16,68.81 42.51,82.30 38.86,95.14 35.50,104.17 33.04,110.00 31.07,115.43 29.20,121.82 24.88,126.44 18.94,128.12 18.70,129.84 23.38,133.31 28.03,137.26 32.36,141.87 36.74,145.92 41.05,148.38 45.16,150.00 51.87,148.77 59.85,144.47 66.17,139.19 71.78,135.36 77.00,137.43 80.10,142.74 83.13,145.86 89.82,144.88 97.19,138.19 101.84,128.28 104.61,119.43 104.71,113.66 101.31,111.16 96.19,110.55 92.78,107.80 94.23,99.11 98.27,83.47 101.87,64.07 104.62,46.63 106.89,34.84 108.64,28.85 109.23,26.90 109.52,26.38 109.93,25.94 110.43,25.62 110.99,25.43 111.58,25.37 112.17,25.46 112.72,25.69 113.20,26.04 113.58,26.50 113.84,27.03 113.97,27.61 113.95,28.21 116.03,32.14 118.81,42.53 120.46,60.19 122.64,82.44 125.15,102.00 127.20,115.48 129.54,123.43 131.17,126.42 131.14,127.00 130.96,127.56 130.66,128.07 130.25,128.48 129.74,128.79 129.18,128.96 128.60,129.00 128.02,128.90 127.49,128.66 127.02,128.29 126.66,127.83 126.42,127.30 127.69,123.94 131.08,116.94 135.59,108.18 140.09,98.72 144.99,91.70 149.89,90.08 153.87,92.93 157.45,99.78 159.91,109.12 161.90,116.13 163.10,118.83 163.07,119.37 162.92,119.88 162.65,120.34 162.27,120.72 161.81,121.01 161.30,121.17 160.77,121.21 160.24,121.12 159.75,120.90 159.32,120.57 158.99,120.15 158.76,119.67 160.42,117.52 163.86,112.41 166.68,106.04 168.34,100.41 169.09,97.19 169.41,96.14 169.69,95.61 170.10,95.16 170.59,94.81 171.16,94.60 171.76,94.53 172.36,94.60 172.92,94.81 173.42,95.16 173.82,95.61 174.10,96.15 174.25,96.73 174.25,97.34 173.76,101.64 172.92,110.59 172.31,120.30 173.45,122.77 175.80,118.04 177.43,113.32 180.43,110.03 184.67,110.06 188.61,114.03 192.36,119.00 197.25,112.30 201.73,93.06 204.46,75.96 206.68,66.32 207.72,62.33 208.07,61.05 208.34,60.55 208.72,60.12 209.19,59.79 209.73,59.59 210.30,59.53 210.87,59.60 211.40,59.80 211.87,60.13 212.25,60.56 212.52,61.07 212.65,61.63 212.65,62.20 213.52,64.76 215.49,74.01 217.78,87.40 220.92,97.81 224.66,104.15 226.55,106.70 226.64,107.15 226.63,107.61 226.50,108.06 226.27,108.46 225.95,108.79 225.56,109.04 225.13,109.19 224.67,109.23 224.21,109.16 223.78,108.98 223.41,108.71 223.12,108.35 224.74,105.63 228.50,94.19 231.79,74.20 234.48,56.83 237.19,48.45 238.57,46.12 238.79,45.67 239.11,45.28 239.52,44.98 239.99,44.79 240.49,44.72 240.99,44.76 241.47,44.93 241.89,45.21 242.24,45.58 242.48,46.02 242.62,46.50 242.63,47.01 243.91,52.31 246.68,67.16 248.95,88.38 250.20,112.10 250.87,135.85 251.25,155.62 250.76,168.05 248.24,174.40 242.85,175.52 234.09,170.95 223.38,164.34 214.34,159.45 209.26,156.93 207.58,156.01 207.17,155.67 206.85,155.25 206.64,154.77 206.55,154.24 206.59,153.72 206.76,153.21 207.04,152.77 207.42,152.40 207.88,152.13 208.39,151.99 208.92,151.96 209.44,152.07 211.83,149.32 223.70,135.46 246.81,107.02 274.26,72.65 310.15,27.31 332.16,-1.24 332.62,-1.54 333.15,-1.69 333.69,-1.66 334.20,-1.45 334.62,-1.09 334.90,-0.62 335.02,-0.08 334.95,0.46 334.72,0.96 334.34,1.36 333.85,1.61 333.31,1.70 332.77,1.61 332.29,1.35 331.91,0.94 331.68,0.44 331.63,-0.10 331.75,-0.64 332.03,-1.11 332.45,-1.46 332.96,-1.66 333.51,-1.69 334.04,-1.54 334.49,-1.23 334.82,-0.79 335.00,-0.26 334.99,0.28 334.82,0.80 334.68,1.05 312.84,29.46 276.97,74.81 249.51,109.25 226.28,137.89 212.13,152.59 207.58,156.01 207.17,155.67 206.85,155.25 206.64,154.77 206.55,154.24 206.59,153.72 206.76,153.21 207.04,152.77 207.42,152.40 207.88,152.13 208.39,151.99 208.92,151.96 209.44,152.07 210.98,153.30 216.05,156.20 225.36,161.12 235.83,167.45 243.78,171.07 247.36,167.75 247.79,155.69 247.39,135.95 246.68,112.29 245.41,88.77 243.12,67.89 240.07,52.32 238.57,46.12 238.79,45.67 239.11,45.28 239.52,44.98 239.99,44.79 240.49,44.72 240.99,44.76 241.47,44.93 241.89,45.21 242.24,45.58 242.48,46.02 242.62,46.50 242.63,47.01 241.08,49.35 238.26,57.50 235.76,74.89 230.51,96.35 226.55,106.70 226.64,107.15 226.63,107.61 226.50,108.06 226.27,108.46 225.95,108.79 225.56,109.04 225.13,109.19 224.67,109.23 224.21,109.16 223.78,108.98 223.41,108.71 223.12,108.35 221.22,105.82 217.31,99.04 213.83,88.12 211.35,74.95 209.09,64.79 208.07,61.05 208.34,60.55 208.72,60.12 209.19,59.79 209.73,59.59 210.30,59.53 210.87,59.60 211.40,59.80 211.87,60.13 212.25,60.56 212.52,61.07 212.65,61.63 212.65,62.20 212.04,63.41 210.78,67.26 208.85,76.65 206.47,93.96 203.05,113.76 199.08,124.80 193.72,125.71 188.19,122.40 183.77,118.82 180.10,120.05 175.31,126.98 169.82,128.09 168.14,120.13 168.49,110.06 169.02,100.63 169.41,96.14 169.69,95.61 170.10,95.16 170.59,94.81 171.16,94.60 171.76,94.53 172.36,94.60 172.92,94.81 173.42,95.16 173.82,95.61 174.10,96.15 174.25,96.73 174.25,97.34 173.73,98.34 172.54,101.64 170.69,107.81 166.32,114.98 163.10,118.83 163.07,119.36 162.92,119.88 162.65,120.34 162.27,120.72 161.81,121.01 161.30,121.17 160.77,121.21 160.24,121.12 159.75,120.90 159.32,120.57 158.99,120.15 158.76,119.67 157.59,116.98 155.62,110.31 153.30,102.15 148.73,96.93 143.61,100.39 139.25,110.00 134.02,120.50 131.17,126.42 131.14,127.00 130.96,127.56 130.66,128.07 130.25,128.48 129.74,128.79 129.18,128.96 128.60,129.00 128.02,128.90 127.49,128.66 127.02,128.29 126.66,127.83 126.42,127.30 125.75,126.65 124.75,123.77 123.56,116.04 121.41,102.51 118.73,82.84 116.35,60.60 114.56,43.54 112.77,34.51 110.40,29.42 109.23,26.90 109.52,26.38 109.93,25.94 110.43,25.62 110.99,25.43 111.58,25.37 112.17,25.46 112.72,25.69 113.20,26.04 113.58,26.50 113.84,27.03 113.97,27.61 113.95,28.21 113.11,30.09 111.27,35.70 109.45,47.31 107.22,64.97 104.21,85.02 100.50,99.70 101.83,105.24 107.58,108.99 109.81,114.36 108.89,120.64 106.21,130.29 100.99,141.80 93.65,150.07 86.59,152.92 80.80,152.05 76.71,149.09 73.80,143.55 69.55,142.98 62.86,149.31 55.50,154.44 49.16,156.90 42.71,156.08 36.15,152.74 31.51,149.07 28.65,145.45 24.54,141.74 18.76,137.86 13.14,132.55 10.49,127.28 12.62,123.18 17.48,121.01 22.40,120.63 25.44,117.10 27.32,111.89 29.63,108.30 32.13,102.93 35.35,94.11 38.77,81.87 40.30,69.25 39.16,60.90 34.98,59.27 27.99,62.55 20.06,67.26 14.05,72.01 11.25,77.24 10.63,83.94 10.60,91.66 10.53,100.82 10.39,112.57 10.12,126.61 9.60,142.39 8.63,158.76 8.02,172.75 7.87,180.91 7.75,183.29 7.75,183.88 7.61,184.46 7.34,184.99 6.95,185.44 6.47,185.79 5.91,186.00 5.32,186.08 4.73,186.02 4.17,185.81 3.68,185.48 3.28,185.04 2.99,184.51 2.38,181.88 0.94,174.82 -0.43,161.85 -1.63,143.35 -2.53,123.13 -2.83,107.17 -2.96,100.82 -2.79,100.12 -2.45,99.49 -1.98,98.95 -1.39,98.54 -0.71,98.28 0.00,98.20 0.71,98.28 1.39,98.54 1.98,98.95 2.45,99.49 2.79,100.12 2.96,100.82 Z" fill="#ffc936" stroke="#ffc936" stroke-width="1.75" stroke-linejoin="round" stroke-linecap="round" pointer-events="none"/></g></g><g id="2a73aad9-2bcc-48fc-3615-0242db747f19_svg" class="tl-centered-g" transform="translate(606.47, 377.56) rotate(0.00, 64.89, 141.38)"><g opacity="1"><path d="M2.49,0.00 Q2.28,6.22 2.20,30.76 T2.07,81.30 3.00,133.04 4.54,179.25 6.41,214.09 8.47,238.51 9.60,255.16 10.23,266.44 10.78,272.67 11.09,274.46 10.99,274.96 10.77,275.43 10.45,275.83 10.04,276.15 9.57,276.35 9.06,276.44 8.55,276.40 8.06,276.24 7.62,275.97 7.26,275.60 7.00,275.16 6.85,274.67 6.92,272.07 7.12,265.39 7.27,253.47 7.36,237.54 7.43,218.36 7.47,195.32 7.50,171.18 7.52,148.51 7.54,127.69 7.55,109.96 7.55,97.05 7.56,86.81 7.56,78.04 7.57,71.12 7.48,65.22 7.30,59.89 7.10,54.87 6.91,50.02 6.75,45.27 6.62,40.57 6.51,35.90 6.42,31.24 6.35,26.60 6.29,21.96 6.24,17.32 6.18,14.75 6.19,14.14 6.37,13.41 6.71,12.75 7.21,12.19 7.83,11.76 8.53,11.50 9.27,11.40 10.01,11.50 10.71,11.76 11.33,12.19 11.83,12.75 12.17,13.41 12.35,14.14 13.14,17.04 15.34,23.26 19.61,32.03 26.00,41.98 33.54,50.49 42.88,59.39 52.34,69.66 60.66,79.49 68.30,87.97 75.63,95.77 82.78,103.19 88.81,109.37 93.30,114.99 96.78,118.87 100.00,122.04 102.97,125.98 106.38,130.00 110.26,134.41 114.43,138.98 118.77,143.60 123.11,146.98 128.34,152.23 131.56,156.71 131.76,157.32 131.74,157.96 131.52,158.57 131.12,159.07 130.58,159.42 129.96,159.58 129.32,159.53 128.73,159.28 128.25,158.85 127.93,158.29 127.81,157.66 127.89,157.03 128.17,156.45 128.62,155.99 129.20,155.70 129.83,155.61 130.47,155.73 131.03,156.05 131.46,156.52 131.71,157.11 131.77,157.75 131.62,158.38 131.27,158.92 130.78,159.32 130.17,159.55 129.53,159.57 128.92,159.38 128.39,159.01 128.16,158.78 125.61,155.21 120.63,150.17 115.91,146.43 111.35,141.92 106.91,137.47 102.73,133.06 98.36,127.01 94.01,121.39 90.58,117.13 86.32,111.78 80.27,105.61 73.06,98.19 65.65,90.37 57.89,81.86 49.59,72.20 40.23,62.21 30.54,53.21 22.41,44.34 15.45,34.10 10.58,25.11 7.47,17.93 6.19,14.14 6.37,13.41 6.71,12.75 7.21,12.19 7.83,11.76 8.53,11.50 9.27,11.40 10.01,11.50 10.71,11.76 11.33,12.19 11.83,12.75 12.17,13.41 12.35,14.14 12.36,14.75 12.30,17.32 12.25,21.96 12.19,26.60 12.12,31.24 12.03,35.90 11.92,40.57 11.79,45.27 11.63,50.02 11.44,54.87 11.24,59.89 11.06,65.22 10.97,71.12 10.98,78.04 10.98,86.81 10.98,97.05 10.99,109.96 11.00,127.69 11.01,148.51 11.02,171.18 11.04,195.32 11.07,218.36 11.10,237.54 11.13,253.49 11.15,265.47 11.14,272.03 11.09,274.46 10.99,274.96 10.77,275.43 10.45,275.83 10.04,276.15 9.57,276.35 9.06,276.44 8.55,276.40 8.06,276.24 7.62,275.97 7.26,275.60 7.00,275.16 6.85,274.67 6.89,272.85 6.73,266.64 6.07,255.40 4.88,238.81 2.74,214.31 0.76,179.38 -0.93,133.12 -2.07,81.30 -2.20,30.76 -2.39,3.11 -2.46,-0.30 -2.31,-0.88 -2.04,-1.40 -1.64,-1.85 -1.15,-2.19 -0.59,-2.40 0.00,-2.47 0.59,-2.40 1.15,-2.19 1.64,-1.85 2.04,-1.40 2.31,-0.88 2.46,-0.30 Z" fill="#36b24d" stroke="#36b24d" stroke-width="1.75" stroke-linejoin="round" stroke-linecap="round" pointer-events="none"/></g></g><g id="3a26e929-1979-4f5c-3df5-9053daca30ef_svg" class="tl-centered-g" transform="translate(615.74, 382.19) rotate(0.00, 32.45, 76.48)"><g opacity="1"><path d="M-2.49,152.97 Q-2.27,144.63 2.02,132.67 T11.78,108.02 22.37,84.20 32.38,62.76 42.09,43.62 49.52,28.95 54.68,18.74 58.56,11.06 61.66,5.53 63.67,3.11 64.23,2.80 64.85,2.68 65.48,2.77 66.04,3.05 66.49,3.50 66.77,4.07 66.86,4.69 66.74,5.32 66.43,5.87 65.95,6.29 65.37,6.54 64.74,6.59 64.12,6.44 63.59,6.10 63.19,5.60 62.98,5.01 62.96,4.37 63.15,3.77 63.52,3.25 64.03,2.88 64.64,2.70 65.27,2.72 65.87,2.94 66.36,3.33 66.70,3.87 66.85,4.48 66.80,5.11 66.55,5.70 66.38,5.97 64.74,7.54 61.68,12.62 57.83,20.35 52.74,30.54 45.37,45.28 35.81,64.35 25.96,85.78 15.62,109.52 6.28,133.42 2.38,148.84 2.45,153.27 2.31,153.85 2.03,154.37 1.64,154.82 1.15,155.16 0.59,155.37 -0.00,155.44 -0.59,155.37 -1.15,155.16 -1.64,154.82 -2.03,154.37 -2.31,153.85 -2.45,153.27 Z" fill="#36b24d" stroke="#36b24d" stroke-width="1.75" stroke-linejoin="round" stroke-linecap="round" pointer-events="none"/></g></g><g id="ebc3940a-3a56-4653-0ccc-6d5397c546cf_svg" class="tl-centered-g" transform="translate(750.17, 386.83) rotate(0.00, 41.72, 53.31)"><g opacity="1"><path d="M2.78,23.18 Q2.49,39.77 2.38,46.43 T2.19,58.84 2.06,68.81 1.96,76.40 1.94,82.64 2.97,87.79 5.49,92.40 8.04,97.26 11.97,101.03 18.80,102.69 24.83,103.20 29.22,101.28 33.27,96.63 35.98,89.68 38.66,81.52 41.27,73.80 42.66,65.71 43.48,58.08 43.96,49.72 44.24,39.93 44.40,30.36 44.50,20.94 43.56,12.87 41.06,7.86 36.24,5.02 31.08,5.89 27.38,10.45 24.53,15.31 21.74,20.33 19.19,25.17 18.00,29.67 16.06,33.89 12.95,37.86 8.94,37.85 6.35,31.56 7.41,25.38 9.06,20.72 10.93,15.36 13.04,10.74 16.66,6.69 22.61,5.02 27.31,7.11 32.07,12.34 36.99,18.13 40.94,22.70 45.09,27.38 49.22,30.75 53.65,33.63 58.12,36.24 62.70,38.71 67.30,41.11 71.92,43.45 79.35,46.96 84.55,48.99 85.13,49.45 85.54,50.07 85.72,50.79 85.66,51.53 85.38,52.21 84.88,52.77 84.24,53.13 83.51,53.28 82.78,53.18 82.12,52.86 81.59,52.34 81.26,51.67 81.15,50.94 81.29,50.21 81.65,49.57 82.20,49.07 82.88,48.77 83.61,48.71 84.33,48.88 84.96,49.28 85.43,49.85 85.69,50.55 85.71,51.29 85.50,52.00 85.07,52.60 84.47,53.03 83.76,53.26 83.02,53.24 82.65,53.17 77.18,51.28 69.62,48.02 64.98,45.62 60.33,43.15 55.68,40.58 50.95,37.84 46.24,34.77 41.34,31.13 36.66,26.88 32.13,22.79 27.91,18.88 23.01,14.17 18.49,15.36 16.49,21.57 14.42,26.18 11.75,31.71 11.76,32.66 13.28,28.07 14.90,23.02 17.43,18.07 20.08,12.88 23.33,6.79 29.23,1.38 35.68,-0.01 40.43,2.23 44.22,6.07 46.97,12.34 48.03,20.94 47.99,30.41 47.90,40.02 47.73,49.93 47.38,58.45 46.72,66.36 45.43,75.12 43.18,82.91 40.81,91.54 38.14,99.95 34.61,105.12 29.83,108.19 24.50,109.18 19.81,108.73 15.21,107.88 10.73,106.27 6.82,103.37 4.33,99.22 1.88,94.25 -0.89,88.60 -1.94,82.69 -1.96,76.40 -2.06,68.81 -2.19,58.84 -2.38,46.43 -2.63,31.48 -2.74,22.85 -2.58,22.20 -2.27,21.61 -1.83,21.12 -1.28,20.74 -0.66,20.50 0.00,20.42 0.66,20.50 1.28,20.74 1.83,21.12 2.27,21.61 2.58,22.20 2.74,22.85 Z" fill="#36b24d" stroke="#36b24d" stroke-width="1.75" stroke-linejoin="round" stroke-linecap="round" pointer-events="none"/></g></g><g id="7be339e2-5d66-4b0b-1fd5-f87e90c65aa4_svg" class="tl-centered-g" transform="translate(805.79, 284.85) rotate(0.00, 27.81, 57.95)"><g opacity="1"><path d="M0.00,89.57 Q6.31,89.96 11.59,92.27 T20.41,95.78 28.15,98.76 35.76,102.61 41.92,105.74 46.65,108.53 50.03,108.72 51.70,104.96 52.10,100.50 52.51,94.96 52.88,88.79 53.01,83.28 53.15,77.13 53.33,70.63 52.46,64.20 51.00,57.55 50.17,50.47 49.73,43.43 49.42,37.49 49.24,31.09 49.19,24.43 49.08,18.69 48.89,13.44 48.85,5.45 48.97,-0.33 49.18,-0.96 49.58,-1.48 50.13,-1.86 50.76,-2.04 51.43,-2.00 52.04,-1.76 52.55,-1.33 52.89,-0.76 53.04,-0.11 52.97,0.54 52.69,1.15 52.23,1.63 51.65,1.94 50.99,2.05 50.34,1.94 49.75,1.63 49.30,1.15 49.02,0.55 48.94,-0.11 49.09,-0.75 49.43,-1.32 49.93,-1.75 50.55,-2.00 51.21,-2.04 51.85,-1.86 52.40,-1.49 52.80,-0.96 53.01,-0.33 53.07,-0.00 53.15,5.44 53.15,13.42 53.01,18.66 52.99,24.39 53.11,30.99 53.23,37.32 53.46,43.17 53.99,49.96 54.93,56.64 56.67,63.63 57.84,70.63 57.98,77.17 58.02,83.35 57.98,88.91 58.05,95.26 57.90,101.12 57.30,106.02 55.85,111.47 52.73,115.16 46.92,113.12 40.15,109.25 33.95,106.29 26.69,102.88 18.77,100.23 10.52,97.30 3.07,95.65 -0.38,95.80 -1.11,95.62 -1.77,95.27 -2.33,94.78 -2.76,94.16 -3.03,93.46 -3.12,92.71 -3.03,91.96 -2.76,91.26 -2.33,90.64 -1.77,90.15 -1.10,89.80 -0.38,89.62 Z" fill="#36b24d" stroke="#36b24d" stroke-width="1.75" stroke-linejoin="round" stroke-linecap="round" pointer-events="none"/></g></g><g id="0053e486-ab84-444b-038d-99411c4b92ee_svg" class="tl-centered-g" transform="translate(912.40, 178.24) rotate(0.00, 74.17, 92.71)"><g opacity="1"><path d="M3.19,101.98 Q2.80,110.28 2.65,114.64 T2.39,122.46 2.26,128.85 2.27,134.46 2.37,139.63 2.50,144.56 2.62,149.36 2.73,154.09 2.82,158.77 2.89,163.44 2.96,168.09 3.01,172.73 2.97,177.16 6.38,180.16 13.13,180.48 18.41,178.66 23.37,174.40 27.07,168.75 28.20,162.12 28.91,154.94 29.37,148.90 29.56,143.46 29.76,137.35 30.00,130.86 30.05,125.19 30.04,120.14 28.32,115.02 24.30,109.80 20.02,105.12 18.19,105.24 18.08,111.40 19.87,118.75 24.43,124.40 29.55,128.98 35.51,133.75 41.65,137.31 47.25,140.45 52.42,143.14 57.08,144.35 61.60,144.96 67.72,142.96 74.34,137.03 77.92,130.54 80.44,122.91 83.00,113.40 85.48,101.95 88.97,88.24 93.00,74.43 97.29,58.56 100.68,42.63 103.62,29.58 106.29,19.25 107.75,11.65 106.22,6.46 101.44,5.07 96.63,5.87 92.84,8.98 88.71,14.66 83.98,21.05 79.35,28.58 74.67,36.90 69.93,44.70 66.32,50.97 64.48,56.35 62.34,60.89 64.17,62.78 72.18,62.68 81.44,62.67 92.72,62.73 105.16,62.82 116.18,62.90 125.38,62.97 132.54,63.03 138.66,63.02 143.72,64.07 147.20,67.06 149.22,71.18 150.27,75.63 150.82,80.16 151.05,84.99 149.92,89.58 146.60,94.76 142.75,99.32 138.60,101.89 133.67,103.60 128.86,104.44 122.14,106.42 115.29,108.52 110.38,109.13 105.58,109.45 100.86,109.63 96.17,109.72 88.65,109.60 83.01,109.37 82.16,109.09 81.44,108.55 80.93,107.81 80.68,106.94 80.72,106.04 81.05,105.21 81.62,104.52 82.39,104.05 83.27,103.84 84.16,103.93 84.98,104.31 85.64,104.92 86.07,105.71 86.22,106.60 86.08,107.49 85.67,108.29 85.02,108.91 84.20,109.29 83.31,109.40 82.43,109.21 81.66,108.75 81.07,108.07 80.73,107.24 80.67,106.34 80.91,105.47 81.41,104.72 82.12,104.17 82.97,103.88 83.42,103.80 88.58,103.56 96.04,103.28 100.62,103.19 105.15,103.02 109.60,102.72 113.91,102.21 117.99,101.33 122.76,99.37 127.63,97.69 133.15,96.46 139.31,93.59 142.79,89.67 144.23,85.25 144.83,80.73 144.32,75.01 142.55,69.12 138.48,66.80 132.55,66.82 125.40,66.91 116.20,67.04 105.20,67.24 92.81,67.54 81.65,67.98 72.82,68.65 65.42,69.84 58.79,67.76 57.71,61.31 60.95,55.00 63.07,49.19 66.64,42.73 71.15,34.97 75.70,26.42 80.26,18.42 84.67,11.73 89.56,5.00 94.58,0.66 99.60,-0.48 104.65,-0.27 108.63,2.18 110.98,6.19 111.14,12.16 109.67,20.10 107.05,30.36 104.17,43.35 100.79,59.51 96.57,75.45 92.70,89.16 89.41,102.75 87.11,114.43 84.80,124.26 82.24,132.84 79.49,138.55 76.13,142.72 71.86,146.56 66.37,149.15 60.94,149.66 55.83,148.62 50.57,146.85 45.31,144.13 39.54,141.24 32.58,137.63 26.12,133.18 20.01,128.58 14.74,123.62 11.68,118.18 10.55,112.93 10.80,108.45 11.46,104.14 13.22,100.06 16.69,97.57 21.76,98.52 26.59,103.35 30.57,109.87 33.73,115.13 34.84,119.85 34.81,125.21 34.85,130.87 35.03,137.39 35.15,143.54 35.19,149.03 35.37,155.28 35.35,160.96 34.84,165.59 33.77,170.24 30.18,175.30 25.72,180.28 21.60,184.35 16.14,187.25 10.83,188.09 6.20,187.32 1.81,185.60 -1.61,182.26 -2.97,177.59 -3.01,172.73 -2.96,168.09 -2.89,163.44 -2.82,158.77 -2.73,154.09 -2.62,149.36 -2.50,144.56 -2.37,139.63 -2.27,134.46 -2.26,128.85 -2.39,122.46 -2.65,114.64 -2.99,106.13 -3.14,101.60 -2.96,100.86 -2.61,100.18 -2.10,99.61 -1.47,99.17 -0.76,98.90 0.00,98.81 0.76,98.90 1.47,99.18 2.10,99.61 2.61,100.18 2.96,100.86 3.14,101.60 Z" fill="#36b24d" stroke="#36b24d" stroke-width="1.75" stroke-linejoin="round" stroke-linecap="round" pointer-events="none"/></g></g><g id="c0faf1ee-d1bb-4499-2489-8614479ebbaf_svg" class="tl-centered-g" transform="translate(977.30, 16.00) rotate(0.00, 78.80, 104.30)"><g opacity="1"><path d="M2.49,0.00 Q2.28,6.18 7.32,20.00 T18.26,46.78 29.50,73.21 38.85,97.24 46.07,116.73 52.11,132.65 57.47,144.46 62.45,152.98 66.31,159.90 68.57,165.95 71.86,171.88 76.87,177.55 80.77,181.79 83.12,185.86 86.56,190.97 89.63,196.01 89.67,194.83 89.38,187.98 89.80,181.66 89.97,176.08 89.99,170.92 89.95,166.00 90.07,160.17 90.33,151.76 90.51,142.97 90.66,134.96 91.75,128.04 93.20,123.17 93.88,118.68 95.59,114.38 99.14,111.31 103.50,109.67 108.12,108.87 113.37,109.64 118.28,111.10 122.99,113.07 128.09,116.60 132.12,120.93 135.32,125.33 138.80,129.63 141.97,134.37 146.00,139.77 149.33,144.83 152.11,149.57 154.85,154.45 155.53,158.78 158.10,165.61 160.62,170.90 160.66,171.89 160.37,172.85 159.80,173.66 159.00,174.25 158.05,174.56 157.05,174.54 156.11,174.21 155.33,173.59 154.78,172.76 154.53,171.79 154.60,170.80 154.99,169.88 155.64,169.13 156.51,168.63 157.48,168.43 158.47,168.56 159.37,168.99 160.08,169.69 160.53,170.57 160.68,171.56 160.50,172.54 160.02,173.41 159.29,174.09 158.38,174.49 157.38,174.58 156.41,174.35 155.57,173.83 154.94,173.06 154.68,172.62 153.39,169.52 150.64,164.46 148.87,160.31 148.04,155.39 145.89,150.89 143.37,145.94 140.59,141.06 137.77,137.30 134.73,133.06 129.80,126.93 124.80,121.46 120.72,118.82 114.79,116.34 107.15,115.37 101.25,116.68 98.60,119.87 97.51,124.63 95.74,129.00 94.76,135.03 94.90,142.97 95.08,151.76 95.33,160.18 95.43,166.02 95.35,170.95 95.31,176.13 95.37,181.75 95.58,188.19 95.65,194.23 94.49,201.06 90.41,205.45 85.55,202.74 83.00,197.08 79.86,190.65 75.43,183.71 71.22,177.10 67.45,171.89 65.25,167.23 63.27,161.55 59.44,154.76 54.26,145.96 48.75,133.94 42.62,118.01 35.32,98.61 25.90,74.77 14.44,48.35 3.05,20.78 -2.38,3.14 -2.46,-0.30 -2.31,-0.88 -2.04,-1.40 -1.64,-1.85 -1.15,-2.19 -0.59,-2.40 0.00,-2.47 0.59,-2.40 1.15,-2.19 1.64,-1.85 2.04,-1.40 2.31,-0.88 2.46,-0.30 Z" fill="#36b24d" stroke="#36b24d" stroke-width="1.75" stroke-linejoin="round" stroke-linecap="round" pointer-events="none"/></g></g><g id="5ccf2531-075f-42cf-14f5-70054b7ae998_svg" class="tl-centered-g" transform="translate(879.51, 608.95) rotate(0.00, 112.22, 81.06)"><g opacity="1"><path d="M-3.39,156.60 Q4.39,138.11 16.03,121.57 T41.51,87.64 67.68,56.01 87.69,32.09 100.44,18.65 109.04,15.93 114.27,24.56 116.63,42.67 117.64,66.42 117.24,91.68 116.07,113.07 115.69,124.83 115.69,127.59 115.49,128.27 115.13,128.89 114.63,129.41 114.03,129.79 113.35,130.01 112.64,130.07 111.93,129.95 111.27,129.67 110.70,129.24 110.25,128.69 109.95,128.04 109.81,127.34 114.83,120.21 127.98,102.62 146.16,79.29 166.48,55.18 185.26,36.18 200.52,24.60 212.29,20.41 219.62,25.99 223.05,42.31 224.78,66.28 225.69,92.44 226.18,116.17 226.58,144.55 226.74,162.46 226.51,163.17 226.07,163.78 225.45,164.21 224.73,164.42 223.98,164.39 223.28,164.12 222.70,163.64 222.30,163.00 222.13,162.27 222.20,161.52 222.51,160.84 223.02,160.28 223.68,159.92 224.42,159.79 225.16,159.91 225.83,160.25 226.35,160.79 226.68,161.46 226.77,162.21 226.61,162.95 226.24,163.59 225.67,164.09 224.98,164.37 224.23,164.42 223.50,164.23 222.87,163.82 222.41,163.23 222.16,162.52 222.10,162.14 221.86,144.62 221.43,116.27 220.88,92.61 219.90,66.65 218.22,43.42 213.33,28.89 203.18,28.38 188.55,39.50 170.08,58.22 149.91,82.19 131.83,105.48 119.75,121.77 115.69,127.59 115.49,128.27 115.13,128.89 114.63,129.41 114.03,129.79 113.35,130.01 112.64,130.07 111.93,129.95 111.27,129.67 110.70,129.24 110.25,128.69 109.95,128.04 109.81,127.34 110.26,124.60 111.11,112.82 112.15,91.60 112.38,66.68 111.17,43.37 108.35,26.16 102.86,22.40 91.75,35.45 71.93,59.51 46.22,91.12 21.56,124.54 6.94,149.95 3.18,159.69 2.67,160.40 2.00,160.97 1.22,161.36 0.37,161.56 -0.50,161.54 -1.35,161.32 -2.11,160.90 -2.76,160.31 -3.24,159.58 -3.53,158.76 -3.62,157.89 -3.50,157.02 Z" fill="#ff9433" stroke="#ff9433" stroke-width="2.5" stroke-linejoin="round" stroke-linecap="round" pointer-events="none"/></g></g><g id="36260d6a-56c2-48bb-03fe-3c68a50696eb_svg" class="tl-centered-g" transform="translate(1040.41, 656.90) rotate(0.00, 76.90, 62.34)"><g opacity="1"><path d="M152.72,15.68 Q136.08,9.82 126.15,8.24 T102.34,5.74 74.52,7.07 48.30,14.19 28.43,24.46 16.78,33.75 14.97,41.64 24.54,49.61 41.55,56.86 58.69,63.93 70.54,73.34 70.63,84.01 57.21,94.80 39.42,105.48 20.24,118.47 9.40,126.70 8.70,126.94 7.96,126.94 7.26,126.71 6.67,126.26 6.25,125.65 6.05,124.94 6.09,124.20 6.36,123.52 6.84,122.95 7.47,122.57 8.19,122.41 8.93,122.49 9.60,122.79 10.13,123.30 10.48,123.95 10.60,124.68 10.49,125.41 10.14,126.06 9.61,126.57 8.94,126.89 8.20,126.97 7.48,126.81 6.85,126.43 6.37,125.87 6.09,125.18 6.05,124.45 6.25,123.73 6.66,123.12 6.92,122.85 17.69,114.62 37.05,101.50 54.25,91.29 67.14,81.13 67.70,74.07 56.85,68.22 39.63,61.15 21.40,52.91 10.96,42.93 13.31,31.79 26.04,20.12 46.91,9.28 74.23,1.77 102.92,0.17 127.55,2.45 146.44,6.60 155.23,9.43 155.92,9.86 156.48,10.44 156.88,11.14 157.11,11.92 157.14,12.73 156.98,13.53 156.63,14.26 156.12,14.89 155.48,15.37 154.73,15.69 153.93,15.82 153.12,15.76 Z" fill="#ff9433" stroke="#ff9433" stroke-width="2.5" stroke-linejoin="round" stroke-linecap="round" pointer-events="none"/></g></g><g id="12a3d72a-8ad2-4d78-0a4d-d9781746e843_svg" class="tl-centered-g" transform="translate(1062.69, 585.31) rotate(0.00, 247.31, 114.30)"><g opacity="1"><path d="M210.02,181.49 Q197.19,171.96 186.50,167.61 T160.59,158.92 128.66,152.19 95.30,148.44 65.15,149.99 44.57,159.63 36.66,172.65 49.27,183.78 86.71,191.45 137.98,194.91 185.83,194.07 218.71,190.84 236.72,188.22 243.05,186.56 243.96,185.77 244.59,185.82 245.19,186.02 245.73,186.35 246.16,186.81 246.48,187.35 246.66,187.96 246.68,188.59 246.56,189.21 246.29,189.78 245.89,190.27 245.39,190.65 244.80,190.90 238.94,190.72 227.46,189.31 211.10,187.57 186.63,188.45 157.52,194.43 131.42,205.04 115.11,215.53 109.55,220.01 108.99,220.16 108.42,220.17 107.85,220.05 107.34,219.79 106.90,219.42 106.56,218.95 106.34,218.42 106.26,217.85 106.31,217.28 106.51,216.73 106.82,216.25 107.24,215.86 122.04,217.98 163.27,212.35 215.94,191.75 259.01,168.41 279.18,151.75 282.52,145.61 283.05,145.44 283.61,145.40 284.16,145.49 284.67,145.71 285.12,146.05 285.47,146.48 285.70,146.99 285.81,147.54 285.79,148.10 285.63,148.63 285.35,149.12 284.96,149.52 278.44,150.30 257.00,153.91 219.46,161.38 172.59,170.17 128.95,176.89 103.89,180.61 97.71,181.93 97.16,181.87 96.65,181.67 96.19,181.36 95.82,180.95 95.56,180.46 95.43,179.92 95.43,179.37 95.56,178.83 95.81,178.34 96.18,177.92 96.63,177.61 97.15,177.41 105.69,170.86 131.99,154.07 169.23,133.46 202.63,115.78 218.36,104.06 220.17,99.61 220.71,99.48 221.26,99.48 221.80,99.61 222.29,99.87 222.70,100.23 223.02,100.69 223.21,101.20 223.28,101.75 223.22,102.30 223.02,102.82 222.71,103.27 222.29,103.64 210.29,104.41 177.79,114.49 133.41,138.48 88.32,167.54 52.19,192.00 30.34,207.38 22.92,212.99 22.40,213.18 21.85,213.24 21.31,213.16 20.79,212.96 20.34,212.65 19.98,212.23 19.73,211.74 19.60,211.20 19.61,210.65 19.74,210.11 20.01,209.63 20.38,209.22 31.88,206.31 74.24,193.83 148.52,169.37 236.01,135.42 321.46,95.32 428.05,36.23 493.81,-2.13 494.53,-2.27 495.26,-2.19 495.93,-1.87 496.46,-1.35 496.79,-0.70 496.90,0.03 496.77,0.75 496.42,1.40 495.88,1.90 495.21,2.20 494.47,2.27 493.76,2.10 493.13,1.72 492.66,1.15 492.40,0.46 492.37,-0.28 492.57,-0.98 492.99,-1.59 493.59,-2.03 494.29,-2.25 495.02,-2.24 495.72,-2.00 496.30,-1.54 496.70,-0.93 496.89,-0.22 496.84,0.52 496.56,1.20 496.08,1.75 495.79,1.99 430.26,40.28 323.42,99.49 237.67,139.72 149.96,173.76 75.46,198.28 33.70,210.47 22.92,212.99 22.40,213.18 21.85,213.24 21.31,213.16 20.79,212.96 20.34,212.65 19.98,212.23 19.73,211.74 19.60,211.20 19.61,210.65 19.74,210.11 20.01,209.63 20.38,209.22 27.76,203.56 49.61,188.17 85.82,163.67 131.25,134.42 176.67,110.10 209.06,100.07 220.17,99.61 220.71,99.48 221.26,99.48 221.80,99.61 222.29,99.87 222.70,100.23 223.02,100.69 223.21,101.20 223.28,101.75 223.22,102.30 223.02,102.82 222.71,103.27 222.29,103.64 220.82,107.79 205.10,119.50 171.47,137.50 134.54,157.92 107.38,175.00 97.71,181.93 97.16,181.87 96.65,181.67 96.19,181.36 95.82,180.95 95.56,180.46 95.43,179.92 95.43,179.37 95.56,178.83 95.81,178.34 96.18,177.92 96.63,177.61 97.15,177.41 103.32,176.02 128.26,172.32 171.73,165.61 218.56,156.82 256.37,149.30 277.02,145.99 282.52,145.61 283.05,145.44 283.61,145.40 284.16,145.49 284.67,145.71 285.12,146.05 285.47,146.48 285.70,146.99 285.81,147.54 285.79,148.10 285.63,148.63 285.35,149.11 284.96,149.52 281.78,155.59 261.41,172.39 217.65,196.15 163.64,217.00 122.90,222.45 109.55,220.01 108.99,220.16 108.42,220.17 107.85,220.05 107.34,219.79 106.90,219.42 106.56,218.95 106.34,218.42 106.26,217.85 106.31,217.28 106.51,216.73 106.82,216.25 107.24,215.86 112.75,211.29 129.50,200.52 156.51,189.49 186.48,183.23 211.72,182.15 228.09,183.57 238.65,185.13 243.96,185.77 244.59,185.82 245.19,186.01 245.72,186.35 246.16,186.81 246.48,187.35 246.66,187.96 246.68,188.59 246.56,189.21 246.29,189.78 245.89,190.27 245.39,190.65 244.81,190.90 244.16,191.28 237.73,192.63 219.21,195.46 185.95,198.74 137.65,199.59 85.61,196.00 47.15,187.54 33.50,172.85 42.02,155.97 64.63,145.15 95.83,143.34 129.76,146.98 162.39,153.63 189.36,162.41 207.35,171.45 214.25,176.26 214.78,176.87 215.15,177.60 215.33,178.39 215.32,179.20 215.11,179.98 214.72,180.69 214.17,181.29 213.50,181.74 212.74,182.01 211.93,182.10 211.13,181.99 210.37,181.69 Z" fill="#ff9433" stroke="#ff9433" stroke-width="2.5" stroke-linejoin="round" stroke-linecap="round" pointer-events="none"/></g></g><g id="452d9338-6bfe-4a34-0fe4-4d99f4684e50_svg" class="tl-centered-g" transform="translate(1280.47, 671.17) rotate(0.00, 0.50, 0.50)"><circle r="6" fill="#ff9433" stroke="#ff9433" pointer-events="all" opacity="1"/></g><g id="6125381d-042e-4bbe-3519-98adc0237c9f_svg" class="tl-centered-g" transform="translate(649.84, 943.09) rotate(0.00, 49.19, 105.89)"><g opacity="1"><path d="M3.52,204.83 Q1.94,204.83 2.30,203.27 T2.84,198.53 3.93,190.47 5.32,179.81 6.09,166.14 6.51,149.27 6.75,129.08 6.88,106.27 6.16,82.79 4.98,62.82 4.33,51.02 4.75,46.83 6.56,49.17 9.13,57.46 12.12,69.81 16.13,84.40 20.71,100.23 25.59,115.18 31.44,128.11 37.03,138.36 41.69,144.80 45.83,148.36 48.90,148.77 51.39,145.89 53.55,139.63 54.74,129.19 55.40,114.09 55.77,94.88 54.40,73.40 51.29,50.65 48.78,30.31 47.40,18.30 46.63,16.32 46.21,22.22 46.76,32.47 48.64,45.90 51.24,61.87 54.25,77.68 57.49,91.85 61.64,104.35 66.29,115.13 71.22,123.42 76.30,130.33 81.47,136.48 86.67,140.65 93.71,143.97 98.38,145.80 " fill="none" stroke="none" stroke-width="4" stroke-linejoin="round" stroke-linecap="round" pointer-events="none"/><path d="M3.52,204.83 Q1.94,204.83 2.30,203.27 T2.84,198.53 3.93,190.47 5.32,179.81 6.09,166.14 6.51,149.27 6.75,129.08 6.88,106.27 6.16,82.79 4.98,62.82 4.33,51.02 4.75,46.83 6.56,49.17 9.13,57.46 12.12,69.81 16.13,84.40 20.71,100.23 25.59,115.18 31.44,128.11 37.03,138.36 41.69,144.80 45.83,148.36 48.90,148.77 51.39,145.89 53.55,139.63 54.74,129.19 55.40,114.09 55.77,94.88 54.40,73.40 51.29,50.65 48.78,30.31 47.40,18.30 46.63,16.32 46.21,22.22 46.76,32.47 48.64,45.90 51.24,61.87 54.25,77.68 57.49,91.85 61.64,104.35 66.29,115.13 71.22,123.42 76.30,130.33 81.47,136.48 86.67,140.65 93.71,143.97 98.38,145.80 " fill="none" stroke="#4263eb" stroke-width="8.5" stroke-dasharray="none" stroke-dashoffset="none" stroke-linejoin="round" stroke-linecap="round" pointer-events="none"/></g></g><g id="fa40c25f-d79b-4ffb-275f-0992d35a4782_svg" class="tl-centered-g" transform="translate(537.42, 800.73) rotate(0.00, 282.85, 230.87)"><g opacity="1"><path d="M221.37,267.32 Q222.94,262.67 223.38,260.61 T224.05,256.62 223.64,252.87 222.62,249.24 222.06,247.23 221.75,247.68 221.58,249.48 221.49,252.03 222.22,254.99 223.41,258.18 224.86,260.72 227.23,262.89 230.10,264.88 233.27,265.19 236.59,263.04 240.00,258.75 243.46,252.49 246.16,244.36 247.65,235.99 248.47,228.26 248.93,223.22 249.18,221.98 249.32,223.63 249.40,227.65 249.44,232.20 250.24,237.04 251.47,242.05 252.93,246.37 255.32,250.31 258.21,253.27 261.38,254.13 265.49,252.27 269.33,248.13 272.23,241.18 274.63,231.13 275.95,220.14 276.68,210.18 276.30,202.35 275.30,196.47 273.96,192.44 271.65,190.99 268.81,191.75 265.66,193.72 263.14,196.36 261.74,199.37 261.76,202.59 263.34,205.92 265.78,209.32 269.49,213.53 274.69,218.18 280.70,223.08 287.17,229.67 293.89,237.98 299.18,247.23 302.10,257.00 303.71,266.28 304.60,273.74 303.52,278.63 300.56,281.34 297.35,281.28 293.22,277.36 288.59,268.99 283.66,255.81 277.80,238.44 272.20,217.18 266.75,192.24 261.38,165.25 257.62,140.24 255.54,120.21 255.18,106.80 256.56,100.18 258.90,98.07 261.76,100.01 265.70,105.75 271.80,114.36 279.11,125.32 287.07,137.60 295.41,150.60 303.94,163.22 313.37,174.07 323.30,183.18 332.72,190.54 341.86,196.15 351.62,199.26 360.94,200.19 368.45,199.16 374.18,196.26 378.13,193.11 380.31,189.81 380.73,187.20 378.60,185.77 373.49,184.97 365.17,184.53 355.07,185.07 343.98,186.92 332.35,189.50 321.21,192.48 311.91,196.46 305.98,200.98 302.71,205.03 301.69,208.83 304.27,212.48 309.62,216.05 316.51,219.57 325.82,222.30 336.47,223.80 347.07,224.63 357.65,223.54 366.63,220.61 373.96,216.66 379.58,212.14 382.69,208.09 383.62,205.07 383.34,204.18 383.98,203.69 385.90,201.09 388.53,195.00 391.55,183.87 394.80,167.62 397.38,146.21 397.23,119.61 394.01,90.17 388.30,61.47 381.20,37.84 374.14,21.69 367.89,13.54 362.85,12.14 358.50,15.25 355.31,23.19 354.33,36.12 355.36,52.59 358.30,70.23 363.85,88.52 371.63,106.39 380.65,121.70 391.13,133.27 402.43,141.21 413.39,146.38 424.94,148.45 436.83,148.05 447.33,146.26 457.07,142.95 467.16,138.02 476.66,132.19 485.06,126.63 492.07,122.79 497.50,119.89 499.72,118.29 497.80,118.96 492.81,122.43 484.55,129.01 472.91,137.30 459.40,146.55 446.44,156.31 435.35,165.60 427.64,173.06 424.18,177.95 423.83,179.88 426.79,179.40 433.92,176.80 444.93,171.48 458.88,164.66 475.23,156.23 493.70,146.13 511.77,137.44 528.05,131.09 541.76,126.81 551.69,125.21 557.18,126.66 556.28,132.12 547.91,142.13 531.50,156.20 505.14,174.86 466.99,198.37 416.03,226.89 353.29,260.52 284.82,296.97 217.12,334.19 154.55,370.30 101.91,401.13 61.81,424.37 34.94,440.32 20.09,449.91 15.82,452.87 22.89,448.29 40.17,436.45 65.43,419.03 97.47,398.53 154.10,362.24 193.25,336.75 " fill="none" stroke="none" stroke-width="4" stroke-linejoin="round" stroke-linecap="round" pointer-events="none"/><path d="M221.37,267.32 Q222.94,262.67 223.38,260.61 T224.05,256.62 223.64,252.87 222.62,249.24 222.06,247.23 221.75,247.68 221.58,249.48 221.49,252.03 222.22,254.99 223.41,258.18 224.86,260.72 227.23,262.89 230.10,264.88 233.27,265.19 236.59,263.04 240.00,258.75 243.46,252.49 246.16,244.36 247.65,235.99 248.47,228.26 248.93,223.22 249.18,221.98 249.32,223.63 249.40,227.65 249.44,232.20 250.24,237.04 251.47,242.05 252.93,246.37 255.32,250.31 258.21,253.27 261.38,254.13 265.49,252.27 269.33,248.13 272.23,241.18 274.63,231.13 275.95,220.14 276.68,210.18 276.30,202.35 275.30,196.47 273.96,192.44 271.65,190.99 268.81,191.75 265.66,193.72 263.14,196.36 261.74,199.37 261.76,202.59 263.34,205.92 265.78,209.32 269.49,213.53 274.69,218.18 280.70,223.08 287.17,229.67 293.89,237.98 299.18,247.23 302.10,257.00 303.71,266.28 304.60,273.74 303.52,278.63 300.56,281.34 297.35,281.28 293.22,277.36 288.59,268.99 283.66,255.81 277.80,238.44 272.20,217.18 266.75,192.24 261.38,165.25 257.62,140.24 255.54,120.21 255.18,106.80 256.56,100.18 258.90,98.07 261.76,100.01 265.70,105.75 271.80,114.36 279.11,125.32 287.07,137.60 295.41,150.60 303.94,163.22 313.37,174.07 323.30,183.18 332.72,190.54 341.86,196.15 351.62,199.26 360.94,200.19 368.45,199.16 374.18,196.26 378.13,193.11 380.31,189.81 380.73,187.20 378.60,185.77 373.49,184.97 365.17,184.53 355.07,185.07 343.98,186.92 332.35,189.50 321.21,192.48 311.91,196.46 305.98,200.98 302.71,205.03 301.69,208.83 304.27,212.48 309.62,216.05 316.51,219.57 325.82,222.30 336.47,223.80 347.07,224.63 357.65,223.54 366.63,220.61 373.96,216.66 379.58,212.14 382.69,208.09 383.62,205.07 383.34,204.18 383.98,203.69 385.90,201.09 388.53,195.00 391.55,183.87 394.80,167.62 397.38,146.21 397.23,119.61 394.01,90.17 388.30,61.47 381.20,37.84 374.14,21.69 367.89,13.54 362.85,12.14 358.50,15.25 355.31,23.19 354.33,36.12 355.36,52.59 358.30,70.23 363.85,88.52 371.63,106.39 380.65,121.70 391.13,133.27 402.43,141.21 413.39,146.38 424.94,148.45 436.83,148.05 447.33,146.26 457.07,142.95 467.16,138.02 476.66,132.19 485.06,126.63 492.07,122.79 497.50,119.89 499.72,118.29 497.80,118.96 492.81,122.43 484.55,129.01 472.91,137.30 459.40,146.55 446.44,156.31 435.35,165.60 427.64,173.06 424.18,177.95 423.83,179.88 426.79,179.40 433.92,176.80 444.93,171.48 458.88,164.66 475.23,156.23 493.70,146.13 511.77,137.44 528.05,131.09 541.76,126.81 551.69,125.21 557.18,126.66 556.28,132.12 547.91,142.13 531.50,156.20 505.14,174.86 466.99,198.37 416.03,226.89 353.29,260.52 284.82,296.97 217.12,334.19 154.55,370.30 101.91,401.13 61.81,424.37 34.94,440.32 20.09,449.91 15.82,452.87 22.89,448.29 40.17,436.45 65.43,419.03 97.47,398.53 154.10,362.24 193.25,336.75 " fill="none" stroke="#4263eb" stroke-width="8.5" stroke-dasharray="none" stroke-dashoffset="none" stroke-linejoin="round" stroke-linecap="round" pointer-events="none"/></g></g><g id="0f854ecd-a61d-4191-2149-f79d870918e2_svg" class="tl-centered-g" transform="translate(1052.53, 932.17) rotate(0.00, 106.76, 132.46)"><g opacity="1"><path d="M17.42,185.57 Q23.15,177.36 26.71,171.76 T34.41,158.56 43.04,142.37 52.20,124.69 61.63,106.01 71.02,87.56 79.58,70.82 86.69,56.44 91.80,45.74 94.89,39.18 96.33,36.72 96.78,36.42 97.13,36.00 97.58,35.69 98.08,35.49 98.62,35.41 99.16,35.47 99.67,35.66 100.12,35.96 100.49,36.36 100.75,36.84 100.89,37.37 100.89,37.91 100.77,38.44 100.04,44.44 98.19,56.11 95.51,69.44 92.62,85.48 89.63,104.62 86.18,126.13 81.88,148.37 76.51,170.62 70.15,191.68 62.84,210.72 55.21,227.04 47.77,239.89 40.82,249.26 34.51,255.89 28.29,260.46 22.12,263.28 16.25,264.91 11.02,265.94 5.35,266.67 -0.13,264.50 -1.95,259.35 0.12,253.34 4.82,245.30 12.65,234.01 24.18,219.46 40.11,201.13 60.82,178.35 84.56,152.89 109.39,126.74 133.19,100.83 154.25,76.24 172.02,53.96 186.19,35.12 196.59,20.57 206.47,6.68 212.34,-1.21 212.79,-1.53 213.31,-1.68 213.86,-1.66 214.37,-1.46 214.79,-1.12 215.08,-0.65 215.21,-0.12 215.16,0.43 214.94,0.93 214.57,1.33 214.09,1.60 213.55,1.69 213.00,1.61 212.52,1.36 212.13,0.97 211.90,0.48 211.83,-0.07 211.94,-0.60 212.21,-1.08 212.63,-1.44 213.13,-1.65 213.68,-1.69 214.21,-1.55 214.67,-1.25 215.00,-0.82 215.19,-0.30 215.19,0.25 215.03,0.77 214.90,1.02 209.27,8.67 199.41,22.57 188.98,37.21 174.77,56.15 156.95,78.55 135.86,103.27 112.08,129.28 87.36,155.48 63.77,181.01 43.30,203.85 27.74,222.19 16.75,236.68 9.64,247.82 5.08,257.05 5.61,261.86 10.41,261.93 15.36,261.37 20.75,260.11 26.33,257.70 32.07,253.52 38.09,247.20 44.82,238.16 52.10,225.57 59.62,209.48 66.82,190.67 73.09,169.79 78.38,147.70 82.60,125.56 85.96,104.05 88.84,84.81 91.57,68.69 94.02,55.39 95.62,45.44 96.39,38.99 96.78,36.42 97.13,36.00 97.58,35.69 98.08,35.49 98.62,35.41 99.16,35.47 99.67,35.66 100.12,35.96 100.49,36.36 100.75,36.84 100.89,37.37 100.89,37.91 100.77,38.44 99.79,38.98 97.89,41.13 94.93,47.23 89.83,57.99 82.74,72.42 74.23,89.18 64.91,107.66 55.56,126.42 46.51,144.20 37.98,160.62 30.40,174.14 24.25,184.11 21.37,188.56 20.93,188.96 20.40,189.25 19.83,189.40 19.23,189.41 18.65,189.28 18.12,189.01 17.67,188.62 17.32,188.13 17.10,187.58 17.02,186.99 17.08,186.40 17.28,185.84 Z" fill="#0e98ad" stroke="#0e98ad" stroke-width="1.75" stroke-linejoin="round" stroke-linecap="round" pointer-events="none"/></g></g><g id="2b9acf9b-5c91-49fb-1fa8-30877cbe2f5b_svg" class="tl-centered-g" transform="translate(1123.41, 1051.78) rotate(0.00, 112.97, 75.75)"><g opacity="1"><path d="M-1.71,47.27 Q2.71,44.17 6.14,41.66 T14.32,35.77 24.26,28.74 35.33,21.12 46.63,13.55 56.49,7.38 63.35,3.46 67.03,1.68 68.54,1.14 69.10,1.01 69.67,1.02 70.22,1.16 70.72,1.43 71.15,1.81 71.46,2.29 71.66,2.82 71.72,3.39 71.65,3.95 71.44,4.49 71.11,4.95 70.68,5.32 70.20,7.65 67.95,15.16 62.84,27.99 55.85,44.15 47.82,62.00 40.23,79.93 34.47,95.72 30.90,107.37 32.16,111.07 39.69,105.04 51.03,93.20 64.87,78.51 80.47,62.25 95.85,46.53 108.32,34.07 116.44,26.37 120.01,23.18 120.89,22.46 121.33,22.22 121.81,22.10 122.31,22.09 122.79,22.21 123.23,22.43 123.61,22.76 123.90,23.16 124.08,23.63 124.15,24.12 124.09,24.61 123.92,25.08 123.64,25.49 122.01,28.42 117.10,37.66 109.37,51.92 101.16,68.06 94.48,83.83 90.43,96.41 89.02,104.56 88.85,107.71 88.65,108.09 88.36,108.41 88.00,108.65 87.60,108.80 87.17,108.85 86.75,108.80 86.34,108.65 85.99,108.40 85.71,108.08 85.51,107.69 85.41,107.27 85.41,106.84 87.69,105.87 93.07,102.57 101.14,95.80 111.21,86.86 120.35,78.35 126.81,72.27 130.44,68.75 131.85,67.37 132.30,67.11 132.80,66.97 133.32,66.95 133.83,67.06 134.30,67.28 134.71,67.62 135.02,68.03 135.22,68.51 135.30,69.03 135.26,69.55 135.09,70.05 134.81,70.49 132.27,74.74 126.97,83.76 121.24,94.39 116.93,104.87 114.73,112.56 116.80,114.20 124.99,109.02 137.66,99.49 153.85,86.68 171.91,71.87 189.25,57.74 203.40,46.36 212.79,38.70 217.87,34.34 219.69,32.69 220.14,32.48 220.62,32.37 221.12,32.39 221.60,32.53 222.03,32.77 222.39,33.12 222.65,33.53 222.81,34.00 222.86,34.50 222.78,34.99 222.59,35.45 222.29,35.85 220.95,39.08 217.36,47.15 211.39,59.11 203.72,74.06 195.51,90.04 187.21,106.01 179.43,120.41 173.16,131.92 168.71,140.42 165.83,146.46 164.47,149.33 164.08,149.75 163.59,150.06 163.05,150.25 162.48,150.31 161.91,150.22 161.37,150.00 160.91,149.66 160.54,149.22 160.29,148.71 160.16,148.14 160.18,147.57 160.33,147.01 161.32,143.27 163.78,135.14 165.53,130.15 165.94,129.59 166.51,129.19 167.18,128.99 167.88,129.01 168.53,129.26 169.07,129.70 169.44,130.30 169.60,130.98 169.54,131.67 169.26,132.31 168.79,132.83 168.17,133.16 167.49,133.29 166.79,133.19 166.17,132.87 165.68,132.37 165.38,131.74 165.29,131.05 165.43,130.36 165.78,129.76 166.31,129.30 166.95,129.03 167.65,128.98 168.32,129.16 168.91,129.54 169.34,130.09 169.57,130.75 169.59,131.44 169.53,131.79 168.13,136.51 165.68,145.16 164.47,149.33 164.08,149.75 163.59,150.06 163.05,150.25 162.48,150.31 161.91,150.22 161.38,150.00 160.91,149.66 160.54,149.22 160.29,148.71 160.16,148.14 160.18,147.57 160.33,147.01 162.20,144.52 165.67,138.85 170.13,130.27 176.39,118.76 184.12,104.41 192.39,88.44 200.55,72.45 208.15,57.51 214.04,45.52 217.96,36.64 219.69,32.69 220.14,32.48 220.62,32.37 221.12,32.39 221.60,32.53 222.03,32.77 222.39,33.12 222.65,33.53 222.81,34.00 222.86,34.50 222.78,34.99 222.59,35.45 222.29,35.85 220.29,37.28 215.00,41.40 205.61,49.10 191.51,60.50 174.22,74.68 156.16,89.59 139.98,102.56 127.09,112.43 118.10,118.31 112.73,117.70 111.31,112.01 113.51,103.51 117.88,92.60 123.56,81.73 129.04,72.11 131.85,67.37 132.30,67.11 132.80,66.97 133.32,66.95 133.83,67.06 134.30,67.28 134.71,67.62 135.02,68.03 135.22,68.51 135.30,69.03 135.26,69.55 135.09,70.04 134.81,70.49 133.17,71.62 129.29,74.87 122.87,81.03 113.73,89.67 103.62,98.84 93.78,105.36 88.85,107.71 88.65,108.09 88.36,108.41 88.00,108.65 87.60,108.80 87.17,108.85 86.75,108.80 86.34,108.65 85.99,108.40 85.71,108.08 85.51,107.69 85.41,107.28 85.41,106.84 85.63,103.72 87.18,95.41 91.34,82.51 98.11,66.51 106.35,50.29 114.03,36.09 119.07,26.11 120.89,22.46 121.33,22.22 121.81,22.10 122.31,22.09 122.79,22.21 123.23,22.43 123.61,22.76 123.90,23.16 124.08,23.63 124.15,24.12 124.09,24.61 123.92,25.08 123.64,25.49 122.57,26.01 118.82,28.92 110.81,36.57 98.41,49.03 83.11,64.77 67.60,81.07 53.83,95.87 42.46,107.99 32.21,116.09 26.65,115.02 27.58,106.39 31.19,94.54 36.99,78.57 44.57,60.54 52.52,42.73 59.38,26.64 64.28,14.09 67.21,5.11 68.54,1.14 69.10,1.01 69.67,1.02 70.22,1.16 70.72,1.43 71.15,1.81 71.46,2.29 71.66,2.82 71.72,3.39 71.65,3.95 71.44,4.49 71.11,4.95 70.68,5.32 69.02,5.61 65.20,6.87 58.51,10.59 48.84,16.81 37.72,24.51 26.87,32.32 17.24,39.59 9.35,45.92 3.86,50.35 1.40,52.14 0.76,52.40 0.07,52.50 -0.62,52.44 -1.28,52.21 -1.86,51.83 -2.33,51.32 -2.67,50.71 -2.85,50.04 -2.87,49.34 -2.72,48.66 -2.41,48.04 -1.97,47.51 Z" fill="#0e98ad" stroke="#0e98ad" stroke-width="1.75" stroke-linejoin="round" stroke-linecap="round" pointer-events="none"/></g></g><g id="ffacb25d-9aac-4820-1954-129aa9ae5f96_svg" class="tl-centered-g" transform="translate(1053.42, 929.51) rotate(0.00, 307.44, 146.63)"><g opacity="1"><path d="M278.76,180.72 Q283.13,178.71 288.20,177.64 T300.64,175.84 316.42,174.74 333.04,174.18 347.84,174.50 358.43,175.94 364.30,179.70 364.54,184.54 357.64,189.17 343.35,194.51 321.03,200.30 291.89,206.83 260.56,213.78 229.76,220.38 200.02,226.02 172.02,229.92 147.03,230.09 126.72,224.52 111.64,212.66 101.64,194.72 96.16,171.95 96.77,146.27 105.93,119.35 123.63,93.25 148.99,69.25 180.55,48.04 213.11,31.55 240.87,20.85 260.27,15.36 270.11,16.18 270.20,23.80 260.15,38.37 240.99,60.11 212.97,88.71 177.05,122.76 137.38,158.42 98.01,192.98 63.00,224.54 36.98,250.64 21.49,269.12 15.10,280.32 13.81,284.50 13.50,284.77 13.13,284.95 12.73,285.03 12.32,285.02 11.93,284.92 11.57,284.72 11.28,284.44 11.05,284.10 10.92,283.71 10.88,283.30 10.94,282.90 11.09,282.52 14.89,282.40 27.15,279.00 51.49,267.48 91.86,245.66 149.86,212.00 223.15,168.42 305.91,121.12 390.15,78.31 467.29,45.71 558.73,15.34 614.67,-1.66 615.21,-1.65 615.72,-1.46 616.14,-1.12 616.43,-0.66 616.56,-0.13 616.52,0.41 616.30,0.91 615.94,1.31 615.47,1.58 614.93,1.68 614.39,1.60 613.91,1.36 613.52,0.98 613.28,0.49 613.21,-0.05 613.32,-0.58 613.58,-1.05 613.99,-1.42 614.49,-1.63 615.03,-1.67 615.56,-1.54 616.01,-1.25 616.35,-0.82 616.54,-0.31 616.55,0.23 616.39,0.75 616.07,1.19 615.63,1.51 615.39,1.63 559.82,18.56 468.61,48.85 391.69,81.36 307.61,124.09 224.91,171.37 151.59,214.98 93.50,248.72 52.93,270.67 27.66,282.39 16.13,285.16 13.81,284.50 13.50,284.77 13.13,284.95 12.73,285.03 12.32,285.02 11.93,284.92 11.57,284.72 11.28,284.44 11.05,284.10 10.92,283.71 10.88,283.30 10.94,282.90 11.09,282.52 12.33,278.34 18.82,266.99 34.53,248.23 60.68,221.98 95.71,190.37 135.03,155.81 174.60,120.18 210.38,86.19 238.20,57.68 256.96,36.32 265.74,22.13 260.71,18.54 242.07,24.02 214.63,34.58 182.44,50.85 151.32,71.71 126.42,95.15 109.11,120.45 100.13,146.38 99.47,171.17 104.60,193.09 113.81,210.10 127.76,221.30 147.08,226.64 171.55,226.44 199.35,222.51 229.00,216.83 259.75,210.14 291.04,203.07 319.97,196.41 341.76,190.56 355.88,184.12 357.75,179.67 347.76,178.51 333.22,178.43 316.81,179.29 301.52,180.76 290.03,182.91 283.38,185.10 280.86,186.18 280.17,186.31 279.46,186.27 278.79,186.07 278.19,185.70 277.69,185.21 277.32,184.61 277.11,183.94 277.07,183.23 277.19,182.54 277.48,181.90 277.91,181.34 278.46,180.91 Z" fill="#0e98ad" stroke="#0e98ad" stroke-width="1.75" stroke-linejoin="round" stroke-linecap="round" pointer-events="none"/></g></g><g id="1f4be964-1b07-49a5-2ced-644e86480123_svg" class="tl-centered-g" transform="translate(759.79, 1302.14) rotate(0.00, 0.50, 0.50)"><circle r="6" fill="#1d1d1d" stroke="#1d1d1d" pointer-events="all" opacity="1"/></g><g id="63eb41aa-6173-4b9a-375c-bc524a92b452_svg" class="tl-centered-g" transform="translate(674.32, 1257.54) rotate(0.00, 220.20, 157.95)"><g opacity="1"><path d="M97.09,45.53 Q93.87,49.88 94.19,55.06 T94.98,64.81 96.38,70.09 97.32,71.28 97.28,72.23 97.01,73.14 96.52,73.96 95.86,74.64 95.05,75.14 94.14,75.44 93.20,75.50 92.26,75.34 91.39,74.96 90.63,74.39 90.03,73.64 89.63,72.78 89.17,67.11 87.76,58.91 85.21,53.07 83.60,49.71 83.41,48.65 83.48,47.59 83.81,46.57 84.36,45.66 85.12,44.91 86.04,44.36 87.06,44.05 88.13,43.99 89.18,44.18 90.15,44.63 90.99,45.29 91.64,46.13 92.49,49.51 93.80,52.33 95.21,52.04 96.56,51.84 97.92,51.96 99.21,52.41 100.36,53.15 101.29,54.15 101.96,55.34 102.33,56.66 102.37,58.03 102.08,59.36 101.48,60.59 100.60,61.64 99.50,62.45 101.03,59.89 104.71,60.19 103.96,61.57 102.25,55.78 98.66,50.07 89.46,49.05 78.02,54.36 64.65,68.77 51.23,93.50 39.51,125.82 29.61,159.54 21.18,191.90 14.44,223.03 9.46,251.41 6.29,274.54 4.52,291.00 5.01,301.14 9.43,306.42 20.98,304.83 41.76,291.90 70.87,267.86 105.40,238.28 142.42,208.16 181.58,176.97 223.18,144.36 267.43,112.16 311.03,82.71 349.24,57.71 380.34,37.66 403.73,22.44 419.12,11.98 426.90,5.78 423.04,5.32 416.58,7.11 415.48,7.04 414.46,6.62 413.62,5.90 413.06,4.95 412.84,3.87 412.97,2.78 413.44,1.78 414.20,0.99 415.18,0.48 416.27,0.31 417.36,0.50 418.33,1.03 419.08,1.83 419.53,2.84 419.64,3.94 419.39,5.01 418.82,5.95 417.97,6.66 416.94,7.05 415.84,7.10 414.78,6.80 413.87,6.17 413.21,5.29 412.87,4.24 412.88,3.14 413.24,2.09 413.92,1.22 414.84,0.61 415.35,0.38 421.30,-1.25 430.06,-1.86 432.84,3.25 430.16,9.56 421.73,15.79 406.26,26.31 382.84,41.55 351.77,61.58 313.61,86.53 270.15,115.89 226.03,148.00 184.47,180.59 145.35,211.75 108.42,241.80 73.81,271.46 44.01,295.93 21.37,309.10 7.02,309.59 0.69,302.08 -0.23,290.58 1.48,273.90 4.59,250.57 9.49,221.97 16.11,190.60 24.34,158.02 34.06,123.85 45.81,90.48 59.82,64.06 75.02,47.58 89.72,40.63 102.04,40.79 110.35,45.80 113.77,53.72 113.54,61.59 110.83,68.23 105.92,72.10 99.69,71.06 94.93,66.18 94.03,57.66 95.21,52.04 96.56,51.84 97.92,51.96 99.21,52.41 100.36,53.15 101.29,54.15 101.96,55.34 102.33,56.66 102.37,58.03 102.08,59.36 101.48,60.59 100.60,61.64 99.50,62.45 98.23,63.38 94.74,64.36 88.37,61.71 84.28,54.45 83.60,49.71 83.41,48.66 83.48,47.59 83.81,46.57 84.36,45.66 85.12,44.91 86.04,44.36 87.06,44.05 88.13,43.99 89.18,44.18 90.15,44.63 90.99,45.29 91.64,46.13 91.41,46.11 92.41,49.46 95.21,56.91 96.90,65.66 97.32,71.28 97.28,72.23 97.01,73.14 96.52,73.96 95.86,74.64 95.05,75.14 94.15,75.44 93.20,75.50 92.26,75.34 91.39,74.96 90.63,74.39 90.03,73.64 89.63,72.78 89.28,72.30 87.52,66.48 85.64,53.13 87.01,42.76 89.12,39.49 90.01,38.68 91.06,38.10 92.23,37.79 93.43,37.77 94.60,38.04 95.68,38.59 96.59,39.37 97.29,40.35 97.74,41.47 97.90,42.66 97.78,43.86 97.37,44.99 Z" fill="#1d1d1d" stroke="#1d1d1d" stroke-width="2.5" stroke-linejoin="round" stroke-linecap="round" pointer-events="none"/></g></g><g id="48ad9093-c50c-4d59-3fda-ac9eaaa6f9f8_svg" class="tl-centered-g" transform="translate(774.66, 1261.26) rotate(0.00, 133.79, 160.74)"><g opacity="1"><path d="M-0.33,204.31 Q1.09,198.41 2.39,195.11 T5.23,187.93 9.29,178.15 15.29,164.83 21.92,149.17 27.62,133.47 31.57,120.65 33.35,112.00 30.26,114.25 24.70,127.92 21.03,144.71 18.60,161.05 17.67,173.72 19.88,181.28 25.77,183.68 33.83,179.78 41.99,169.88 48.61,156.16 53.54,141.11 57.08,126.97 59.87,114.97 61.84,106.27 63.10,100.23 63.69,97.43 63.78,97.24 63.90,97.08 64.06,96.95 64.25,96.86 64.45,96.82 64.66,96.83 64.85,96.89 65.03,97.00 65.18,97.14 65.29,97.31 65.35,97.51 65.36,97.72 65.50,100.82 65.73,110.53 65.85,126.77 65.49,147.39 63.66,170.89 59.80,195.58 55.25,220.44 51.53,244.52 48.65,266.14 46.21,284.74 44.02,299.21 41.51,309.01 38.23,315.13 33.66,317.79 28.58,315.69 24.21,307.98 21.07,294.85 19.77,276.33 21.58,253.14 27.59,226.94 37.19,199.54 49.59,171.92 63.94,145.80 78.96,123.03 93.53,104.17 106.62,90.37 117.27,81.85 125.90,77.50 132.73,77.20 138.31,81.47 140.45,81.49 136.38,75.44 127.44,73.73 118.68,78.97 111.89,89.14 105.19,102.64 99.83,117.11 96.46,130.05 95.02,139.94 98.63,145.87 105.72,143.74 112.04,132.86 118.57,118.52 124.28,103.53 128.27,90.72 131.37,81.83 133.49,77.75 134.30,76.99 134.52,76.69 134.80,76.45 135.14,76.28 135.50,76.20 135.87,76.20 136.24,76.30 136.56,76.48 136.84,76.73 137.05,77.04 137.17,77.39 137.21,77.76 137.16,78.13 137.76,82.29 138.49,90.24 138.91,97.78 143.21,97.08 149.71,86.95 154.93,74.08 159.92,61.11 164.35,50.57 168.55,43.35 173.06,39.29 178.42,43.00 183.41,52.18 187.77,58.77 192.77,62.66 198.46,63.14 204.27,59.45 210.01,52.96 215.35,46.02 220.52,40.41 226.44,36.38 233.87,32.17 242.88,25.06 257.38,9.99 267.16,-0.54 267.35,-0.64 267.57,-0.68 267.79,-0.65 267.99,-0.55 268.14,-0.39 268.24,-0.19 268.26,0.03 268.22,0.24 268.11,0.44 267.94,0.58 267.74,0.67 267.52,0.68 267.30,0.62 267.12,0.50 266.98,0.33 266.91,0.12 266.90,-0.10 266.97,-0.31 267.10,-0.49 267.28,-0.62 267.50,-0.68 267.72,-0.67 267.92,-0.59 268.09,-0.45 268.21,-0.26 268.26,-0.05 268.24,0.17 268.15,0.38 268.09,0.47 258.45,11.02 243.97,26.47 234.93,34.01 227.73,38.26 222.23,42.02 217.26,47.49 211.79,54.58 205.47,61.44 198.50,65.37 191.57,64.59 185.79,60.17 181.16,53.24 175.81,45.69 170.65,44.66 166.64,51.55 162.24,62.01 157.24,75.02 151.92,88.10 144.09,98.76 137.36,98.86 135.65,90.39 134.85,81.80 134.30,76.99 134.52,76.69 134.80,76.45 135.14,76.28 135.50,76.20 135.87,76.20 136.24,76.30 136.56,76.48 136.84,76.73 137.05,77.04 137.17,77.39 137.21,77.76 137.16,78.13 136.34,78.98 134.25,82.95 131.25,91.65 127.19,104.64 121.37,119.80 114.54,134.43 107.23,145.90 100.07,150.37 94.59,147.28 92.56,139.80 94.05,129.43 97.50,116.25 102.97,101.52 109.85,87.73 117.09,77.11 124.29,70.89 133.30,71.04 141.14,77.68 140.66,83.09 134.03,81.17 126.76,79.73 118.78,83.83 108.41,92.10 95.49,105.70 81.04,124.40 66.12,147.01 51.87,172.94 39.58,200.38 30.10,227.51 24.14,253.33 22.34,276.14 23.55,294.21 28.13,308.85 34.59,313.85 38.88,308.26 41.30,298.78 43.48,284.38 45.97,265.77 48.98,244.12 52.92,220.00 57.70,195.24 61.73,170.74 63.62,147.36 63.98,126.78 63.90,110.58 63.76,100.71 63.69,97.43 63.78,97.24 63.90,97.08 64.06,96.95 64.25,96.86 64.45,96.82 64.66,96.83 64.85,96.89 65.03,97.00 65.18,97.14 65.29,97.31 65.35,97.51 65.36,97.72 64.72,100.53 63.38,106.62 61.41,115.33 58.59,127.34 54.98,141.58 49.97,156.82 43.13,170.85 34.43,181.08 25.54,185.00 18.81,181.99 16.24,173.76 17.20,160.85 19.68,144.42 23.38,127.49 30.28,113.98 34.68,112.17 32.86,121.04 28.81,133.90 23.02,149.64 16.38,165.32 10.41,178.60 6.35,188.37 3.52,195.50 1.29,201.62 0.31,204.53 0.27,204.60 0.22,204.66 0.15,204.71 0.07,204.73 -0.01,204.74 -0.09,204.73 -0.17,204.70 -0.24,204.65 -0.29,204.58 -0.32,204.51 -0.34,204.43 -0.34,204.35 Z" fill="#1d1d1d" stroke="#1d1d1d" stroke-width="2.5" stroke-linejoin="round" stroke-linecap="round" pointer-events="none"/></g></g><g id="f8ff27a7-f755-4faa-3314-a79931569938_svg" class="tl-centered-g" transform="translate(988.35, 1391.33) rotate(0.00, 11.15, 17.66)"><g opacity="1"><path d="M20.07,40.65 Q10.42,35.70 7.36,33.89 T2.04,29.37 -1.19,21.54 -0.23,14.37 4.66,12.63 6.55,12.43 6.14,12.06 7.42,12.46 8.57,13.16 9.52,14.12 10.21,15.27 10.60,16.55 10.67,17.89 10.43,19.21 9.87,20.44 9.04,21.49 7.97,22.31 6.75,22.86 5.42,23.10 2.22,19.03 3.15,6.53 7.03,-2.54 8.06,-3.72 9.41,-4.51 10.94,-4.83 12.49,-4.65 13.91,-3.98 15.03,-2.89 15.75,-1.50 15.99,0.05 15.72,1.59 14.97,2.97 13.82,4.03 12.40,4.68 10.84,4.83 9.31,4.48 7.98,3.65 6.98,2.45 6.41,0.99 6.35,-0.57 6.78,-2.08 7.67,-3.36 8.93,-4.30 10.42,-4.78 11.98,-4.77 13.46,-4.25 14.70,-3.29 15.56,-1.98 15.97,-0.47 15.86,1.09 15.69,1.86 13.32,8.98 8.22,14.02 6.14,12.05 7.42,12.46 8.57,13.16 9.52,14.11 10.21,15.27 10.60,16.55 10.67,17.89 10.43,19.21 9.87,20.44 9.04,21.49 7.97,22.31 6.75,22.86 5.42,23.10 3.30,21.78 5.59,22.19 11.77,25.28 19.37,28.28 25.13,30.31 26.25,31.13 27.13,32.20 27.74,33.45 28.03,34.80 27.98,36.19 27.61,37.52 26.92,38.73 25.97,39.73 24.81,40.48 23.49,40.93 22.11,41.05 20.74,40.84 Z" fill="#1d1d1d" stroke="#1d1d1d" stroke-width="2.5" stroke-linejoin="round" stroke-linecap="round" pointer-events="none"/></g></g><g id="7a2c74ac-7574-4a98-3ba0-733058f1ed9d_svg" class="tl-centered-g" transform="translate(1055.25, 1369.03) rotate(0.00, 4.64, 8.36)"><g opacity="1"><path d="M-0.25,15.42 Q2.05,8.02 2.42,7.21 T3.02,5.78 3.60,4.60 4.45,3.60 5.51,2.83 6.73,2.34 8.03,2.15 9.34,2.28 10.58,2.72 11.67,3.44 12.57,4.40 13.20,5.55 13.55,6.82 13.58,8.13 11.66,11.91 5.19,16.93 -0.36,18.77 -2.18,18.35 -3.78,17.37 -4.98,15.94 -5.65,14.19 -5.74,12.33 -5.22,10.53 -4.16,8.99 -2.66,7.87 -0.89,7.29 0.98,7.31 2.75,7.92 4.23,9.06 5.27,10.62 5.75,12.42 5.63,14.29 4.93,16.02 3.70,17.44 2.09,18.39 0.26,18.77 -1.59,18.55 -3.28,17.76 -4.63,16.46 -5.49,14.80 -5.78,12.95 -5.46,11.11 -4.57,9.46 -3.20,8.19 -1.50,7.42 -0.58,7.17 1.11,6.79 3.02,5.78 3.60,4.60 4.45,3.60 5.51,2.83 6.73,2.34 8.03,2.15 9.34,2.28 10.58,2.71 11.67,3.44 12.57,4.40 13.20,5.55 13.55,6.82 13.58,8.13 12.96,9.62 11.91,14.24 11.15,18.69 10.52,19.97 9.60,21.06 8.44,21.90 7.12,22.44 5.70,22.64 4.28,22.50 2.94,22.03 1.74,21.24 0.77,20.19 0.08,18.95 -0.29,17.57 -0.32,16.14 Z" fill="#1d1d1d" stroke="#1d1d1d" stroke-width="2.5" stroke-linejoin="round" stroke-linecap="round" pointer-events="none"/></g></g></svg>