<svg width="304" height="172" viewBox="0 0 304 172" fill="none" xmlns="http://www.w3.org/2000/svg">
<path d="M159.224 171.624V169.224C159.224 167.951 158.719 166.73 157.819 165.83C156.918 164.93 155.697 164.424 154.424 164.424H144.824C143.551 164.424 142.33 164.93 141.43 165.83C140.53 166.73 140.024 167.951 140.024 169.224V171.624" stroke="#F26DAA" stroke-width="2.4" stroke-linecap="round" stroke-linejoin="round"/>
<path d="M149.624 159.624C152.275 159.624 154.424 157.475 154.424 154.824C154.424 152.173 152.275 150.024 149.624 150.024C146.973 150.024 144.824 152.173 144.824 154.824C144.824 157.475 146.973 159.624 149.624 159.624Z" stroke="#F26DAA" stroke-width="2.4" stroke-linecap="round" stroke-linejoin="round"/>
<path d="M257 93.0244L257 108.024C257 112.443 253.418 116.024 249 116.024L171 116.024C166.582 116.024 163 119.606 163 124.024L163 139.024" stroke="url(#paint0_linear_445_17372)" stroke-width="2" stroke-linecap="round" stroke-dasharray="1 4"/>
<path d="M45 93.0244L45 108.024C45 112.443 48.5817 116.024 53 116.024L129 116.024C133.418 116.024 137 119.606 137 124.024L137 139.024" stroke="url(#paint1_linear_445_17372)" stroke-width="2" stroke-linecap="round" stroke-dasharray="1 4"/>
<path d="M149.641 93.0244L149.641 138.54" stroke="url(#paint2_linear_445_17372)" stroke-width="2" stroke-linecap="round" stroke-dasharray="1 4"/>
<g filter="url(#filter0_d_445_17372)">
<rect x="104" y="96" width="96" height="96" rx="9.6" transform="rotate(-90 104 96)" fill="#FBFCFC"/>
<rect x="105.2" y="94.8" width="93.6" height="93.6" rx="8.4" transform="rotate(-90 105.2 94.8)" stroke="#C6C9CE" stroke-width="2.4"/>
</g>
<path d="M153.809 45.792C153.685 45.5666 153.531 45.3596 153.35 45.1767L151.287 43.142C151.075 42.9263 150.825 42.752 150.549 42.628C150.115 42.4344 149.633 42.3767 149.165 42.4624C148.698 42.5482 148.268 42.7733 147.931 43.1083C147.215 43.8124 145.906 45.0969 143.543 47.4308C139.026 51.8995 130.638 59.3894 126.845 62.5838C126.653 62.7437 126.498 62.9415 126.387 63.1648C126.276 63.388 126.213 63.6318 126.202 63.8807C126.19 64.1296 126.23 64.3782 126.32 64.6107C126.41 64.8432 126.546 65.0546 126.722 65.2315L131.109 69.6665C131.286 69.8437 131.497 69.9824 131.73 70.074C131.963 70.1656 132.212 70.208 132.462 70.1986C132.712 70.1892 132.958 70.1282 133.183 70.0194C133.408 69.9106 133.609 69.7564 133.772 69.5664C137.061 65.7005 144.604 57.3063 149.07 52.8938C151.364 50.6375 152.649 49.3418 153.377 48.6264C153.738 48.2594 153.974 47.7879 154.052 47.2791C154.129 46.7702 154.044 46.2498 153.809 45.792ZM176.421 40.618L172.561 36.7938C172.502 36.7349 172.432 36.6887 172.355 36.6579C172.277 36.6272 172.194 36.6125 172.111 36.6149C172.028 36.6135 171.945 36.6286 171.868 36.6593C171.791 36.69 171.721 36.7357 171.661 36.7938C171.522 36.9333 171.353 37.0391 171.167 37.1029C170.981 37.1667 170.782 37.1867 170.587 37.1616C170.083 37.1064 169.546 36.9501 169.2 36.6149C168.412 35.8433 169.323 34.3249 168.63 33.3531C167.838 32.2896 166.971 31.2851 166.033 30.3477C165.239 29.5603 162.118 26.583 156.86 24.4392C155.182 23.7519 153.386 23.3989 151.573 23.3999C148.609 23.3999 146.33 24.7226 145.499 25.4819C144.837 26.0802 144.149 27.0307 144.149 27.0307C144.546 26.8858 144.952 26.7656 145.365 26.6708C146.225 26.4865 147.107 26.43 147.983 26.5032C149.734 26.6483 151.843 27.4693 152.975 28.3579C154.798 29.8201 155.582 31.7761 155.705 34.3001C155.795 36.1774 153.991 38.5473 152.28 40.4796C152.13 40.6496 152.051 40.8709 152.059 41.0977C152.067 41.3246 152.163 41.5394 152.325 41.6978L154.715 44.0857C154.881 44.25 155.105 44.3431 155.339 44.3452C155.573 44.3473 155.798 44.2583 155.968 44.0969C157.535 42.5774 159.465 40.8947 160.56 40.2209C161.654 39.5472 162.537 39.3571 162.961 39.311C163.795 39.2303 164.632 39.412 165.357 39.8306C165.485 39.9029 165.602 39.993 165.704 40.0983C166.43 40.8362 166.387 42.042 165.648 42.7686L165.423 42.9811C165.364 43.0387 165.318 43.1073 165.286 43.183C165.254 43.2587 165.238 43.34 165.238 43.4221C165.238 43.5041 165.254 43.5854 165.286 43.6611C165.318 43.7368 165.364 43.8054 165.423 43.863L169.282 47.6872C169.341 47.7455 169.412 47.7913 169.489 47.8219C169.566 47.8524 169.649 47.8671 169.732 47.8649C169.9 47.8673 170.061 47.8035 170.182 47.6872L176.421 41.5178C176.536 41.3963 176.6 41.2353 176.6 41.0679C176.6 40.9006 176.536 40.7396 176.421 40.618Z" stroke="#888E99" stroke-width="2.4" stroke-linecap="round" stroke-linejoin="round"/>
<g filter="url(#filter1_d_445_17372)">
<rect x="208" y="96" width="96" height="96" rx="9.6" transform="rotate(-90 208 96)" fill="#FBFCFC"/>
<rect x="209.2" y="94.8" width="93.6" height="93.6" rx="8.4" transform="rotate(-90 209.2 94.8)" stroke="#C6C9CE" stroke-width="2.4"/>
</g>
<path d="M257.809 45.792C257.685 45.5666 257.531 45.3596 257.35 45.1767L255.287 43.142C255.075 42.9263 254.825 42.752 254.549 42.628C254.115 42.4344 253.633 42.3767 253.165 42.4624C252.698 42.5482 252.268 42.7733 251.931 43.1082C251.215 43.8124 249.906 45.0969 247.543 47.4308C243.026 51.8995 234.638 59.3894 230.845 62.5838C230.653 62.7437 230.498 62.9415 230.387 63.1648C230.276 63.388 230.213 63.6318 230.202 63.8807C230.19 64.1296 230.23 64.3782 230.32 64.6107C230.41 64.8432 230.546 65.0546 230.722 65.2315L235.109 69.6665C235.286 69.8437 235.497 69.9824 235.73 70.074C235.963 70.1656 236.212 70.208 236.462 70.1986C236.712 70.1892 236.958 70.1282 237.183 70.0194C237.408 69.9106 237.609 69.7564 237.772 69.5664C241.061 65.7005 248.604 57.3063 253.07 52.8938C255.364 50.6375 256.649 49.3418 257.377 48.6264C257.738 48.2594 257.974 47.7879 258.052 47.2791C258.129 46.7702 258.044 46.2498 257.809 45.792ZM280.421 40.618L276.561 36.7938C276.502 36.7349 276.432 36.6887 276.355 36.6579C276.277 36.6272 276.194 36.6125 276.111 36.6149C276.028 36.6135 275.945 36.6286 275.868 36.6593C275.791 36.69 275.721 36.7357 275.661 36.7938C275.522 36.9333 275.353 37.0391 275.167 37.1029C274.981 37.1667 274.782 37.1867 274.587 37.1616C274.083 37.1064 273.546 36.9501 273.2 36.6149C272.412 35.8433 273.323 34.3249 272.63 33.3531C271.838 32.2896 270.971 31.2851 270.033 30.3477C269.239 29.5603 266.118 26.583 260.86 24.4392C259.182 23.7519 257.386 23.3989 255.573 23.3999C252.609 23.3999 250.33 24.7226 249.499 25.4819C248.837 26.0802 248.149 27.0307 248.149 27.0307C248.546 26.8858 248.952 26.7656 249.365 26.6708C250.225 26.4865 251.107 26.43 251.983 26.5032C253.734 26.6483 255.843 27.4693 256.975 28.3579C258.798 29.8201 259.582 31.7761 259.705 34.3001C259.795 36.1774 257.991 38.5473 256.28 40.4796C256.13 40.6496 256.051 40.8709 256.059 41.0977C256.067 41.3246 256.163 41.5394 256.325 41.6978L258.715 44.0857C258.881 44.25 259.105 44.3431 259.339 44.3452C259.573 44.3473 259.798 44.2583 259.968 44.0969C261.535 42.5774 263.465 40.8947 264.56 40.2209C265.654 39.5472 266.537 39.3571 266.961 39.311C267.795 39.2303 268.632 39.412 269.357 39.8306C269.485 39.9029 269.602 39.993 269.704 40.0983C270.43 40.8362 270.387 42.042 269.648 42.7686L269.423 42.9811C269.364 43.0387 269.318 43.1073 269.286 43.183C269.254 43.2587 269.238 43.34 269.238 43.4221C269.238 43.5041 269.254 43.5854 269.286 43.6611C269.318 43.7368 269.364 43.8054 269.423 43.863L273.282 47.6872C273.341 47.7455 273.412 47.7913 273.489 47.8219C273.566 47.8524 273.649 47.8671 273.732 47.8649C273.9 47.8673 274.061 47.8034 274.182 47.6872L280.421 41.5178C280.536 41.3963 280.6 41.2353 280.6 41.0679C280.6 40.9006 280.536 40.7396 280.421 40.618Z" stroke="#888E99" stroke-width="2.4" stroke-linecap="round" stroke-linejoin="round"/>
<g filter="url(#filter2_d_445_17372)">
<rect y="96" width="96" height="96" rx="9.6" transform="rotate(-90 0 96)" fill="#FBFCFC"/>
<rect x="1.2" y="94.8" width="93.6" height="93.6" rx="8.4" transform="rotate(-90 1.2 94.8)" stroke="#C6C9CE" stroke-width="2.4"/>
</g>
<path d="M49.8092 45.792C49.6854 45.5666 49.531 45.3596 49.3502 45.1767L47.2872 43.142C47.0753 42.9263 46.8251 42.752 46.5493 42.628C46.1153 42.4344 45.6329 42.3767 45.1655 42.4624C44.6981 42.5482 44.2676 42.7733 43.9305 43.1082C43.2151 43.8124 41.9057 45.0969 39.5435 47.4308C35.0259 51.8995 26.6376 59.3894 22.8445 62.5838C22.6534 62.7437 22.4976 62.9415 22.3869 63.1648C22.2763 63.388 22.2132 63.6318 22.2016 63.8807C22.1901 64.1296 22.2304 64.3782 22.32 64.6107C22.4095 64.8432 22.5464 65.0546 22.7219 65.2315L27.109 69.6665C27.2856 69.8437 27.497 69.9824 27.7299 70.074C27.9628 70.1656 28.2121 70.208 28.4622 70.1986C28.7122 70.1892 28.9576 70.1282 29.183 70.0194C29.4083 69.9106 29.6087 69.7564 29.7716 69.5664C33.0607 65.7005 40.6042 57.3063 45.07 52.8938C47.3637 50.6375 48.6494 49.3418 49.3772 48.6264C49.7382 48.2594 49.9742 47.7879 50.0518 47.2791C50.1293 46.7702 50.0444 46.2498 49.8092 45.792ZM72.4206 40.618L68.5611 36.7938C68.5022 36.7349 68.4319 36.6887 68.3545 36.6579C68.2772 36.6272 68.1944 36.6125 68.1111 36.6149C68.028 36.6135 67.9455 36.6286 67.8682 36.6593C67.791 36.69 67.7206 36.7357 67.6612 36.7938C67.5223 36.9333 67.3532 37.0391 67.1669 37.1029C66.9806 37.1667 66.7822 37.1867 66.5869 37.1616C66.083 37.1064 65.5464 36.9501 65.1999 36.6149C64.4125 35.8433 65.3225 34.3249 64.6296 33.3531C63.8383 32.2896 62.9705 31.2851 62.0334 30.3477C61.2392 29.5603 58.1176 26.583 52.8599 24.4392C51.182 23.7519 49.3861 23.3989 47.5729 23.3999C44.6088 23.3999 42.3298 24.7226 41.4985 25.4819C40.8371 26.0802 40.1487 27.0307 40.1487 27.0307C40.5462 26.8858 40.9523 26.7656 41.3647 26.6708C42.2246 26.4865 43.107 26.43 43.9834 26.5032C45.7337 26.6483 47.8429 27.4693 48.9745 28.3579C50.798 29.8201 51.582 31.7761 51.7046 34.3001C51.7946 36.1774 49.9914 38.5473 48.2805 40.4796C48.1299 40.6496 48.0506 40.8709 48.059 41.0977C48.0674 41.3246 48.1628 41.5394 48.3255 41.6978L50.7147 44.0857C50.8812 44.25 51.1051 44.3431 51.339 44.3452C51.5729 44.3473 51.7985 44.2583 51.9679 44.0969C53.5348 42.5774 55.4651 40.8947 56.5597 40.2209C57.6542 39.5472 58.5372 39.3571 58.9613 39.311C59.7946 39.2303 60.6323 39.412 61.3573 39.8306C61.485 39.9029 61.6017 39.993 61.7038 40.0983C62.4304 40.8362 62.3866 42.042 61.6475 42.7686L61.4225 42.9811C61.364 43.0387 61.3176 43.1073 61.2859 43.183C61.2542 43.2587 61.2378 43.34 61.2378 43.4221C61.2378 43.5041 61.2542 43.5854 61.2859 43.6611C61.3176 43.7368 61.364 43.8054 61.4225 43.863L65.282 47.6872C65.3413 47.7455 65.4116 47.7913 65.4889 47.8219C65.5662 47.8524 65.6489 47.8671 65.732 47.8649C65.8995 47.8673 66.0613 47.8034 66.1819 47.6872L72.4206 41.5178C72.5356 41.3963 72.5997 41.2353 72.5997 41.0679C72.5997 40.9006 72.5356 40.7396 72.4206 40.618Z" stroke="#888E99" stroke-width="2.4" stroke-linecap="round" stroke-linejoin="round"/>
<defs>
<filter id="filter0_d_445_17372" x="94.4" y="-4.8" width="115.2" height="115.2" filterUnits="userSpaceOnUse" color-interpolation-filters="sRGB">
<feFlood flood-opacity="0" result="BackgroundImageFix"/>
<feColorMatrix in="SourceAlpha" type="matrix" values="0 0 0 0 0 0 0 0 0 0 0 0 0 0 0 0 0 0 127 0" result="hardAlpha"/>
<feOffset dy="4.8"/>
<feGaussianBlur stdDeviation="4.8"/>
<feComposite in2="hardAlpha" operator="out"/>
<feColorMatrix type="matrix" values="0 0 0 0 0.8375 0 0 0 0 0.812375 0 0 0 0 0.774688 0 0 0 0.2 0"/>
<feBlend mode="normal" in2="BackgroundImageFix" result="effect1_dropShadow_445_17372"/>
<feBlend mode="normal" in="SourceGraphic" in2="effect1_dropShadow_445_17372" result="shape"/>
</filter>
<filter id="filter1_d_445_17372" x="198.4" y="-4.8" width="115.2" height="115.2" filterUnits="userSpaceOnUse" color-interpolation-filters="sRGB">
<feFlood flood-opacity="0" result="BackgroundImageFix"/>
<feColorMatrix in="SourceAlpha" type="matrix" values="0 0 0 0 0 0 0 0 0 0 0 0 0 0 0 0 0 0 127 0" result="hardAlpha"/>
<feOffset dy="4.8"/>
<feGaussianBlur stdDeviation="4.8"/>
<feComposite in2="hardAlpha" operator="out"/>
<feColorMatrix type="matrix" values="0 0 0 0 0.8375 0 0 0 0 0.812375 0 0 0 0 0.774688 0 0 0 0.2 0"/>
<feBlend mode="normal" in2="BackgroundImageFix" result="effect1_dropShadow_445_17372"/>
<feBlend mode="normal" in="SourceGraphic" in2="effect1_dropShadow_445_17372" result="shape"/>
</filter>
<filter id="filter2_d_445_17372" x="-9.6" y="-4.8" width="115.2" height="115.2" filterUnits="userSpaceOnUse" color-interpolation-filters="sRGB">
<feFlood flood-opacity="0" result="BackgroundImageFix"/>
<feColorMatrix in="SourceAlpha" type="matrix" values="0 0 0 0 0 0 0 0 0 0 0 0 0 0 0 0 0 0 127 0" result="hardAlpha"/>
<feOffset dy="4.8"/>
<feGaussianBlur stdDeviation="4.8"/>
<feComposite in2="hardAlpha" operator="out"/>
<feColorMatrix type="matrix" values="0 0 0 0 0.8375 0 0 0 0 0.812375 0 0 0 0 0.774688 0 0 0 0.2 0"/>
<feBlend mode="normal" in2="BackgroundImageFix" result="effect1_dropShadow_445_17372"/>
<feBlend mode="normal" in="SourceGraphic" in2="effect1_dropShadow_445_17372" result="shape"/>
</filter>
<linearGradient id="paint0_linear_445_17372" x1="298.301" y1="93.0244" x2="298.301" y2="130.476" gradientUnits="userSpaceOnUse">
<stop offset="0.0104167" stop-color="#C6C9CE"/>
<stop offset="1" stop-color="#F26DAA"/>
</linearGradient>
<linearGradient id="paint1_linear_445_17372" x1="4.57733" y1="93.0244" x2="4.57733" y2="130.476" gradientUnits="userSpaceOnUse">
<stop offset="0.0104167" stop-color="#C6C9CE"/>
<stop offset="1" stop-color="#F26DAA"/>
</linearGradient>
<linearGradient id="paint2_linear_445_17372" x1="150.08" y1="93.0244" x2="150.08" y2="130.081" gradientUnits="userSpaceOnUse">
<stop offset="0.0104167" stop-color="#C6C9CE"/>
<stop offset="1" stop-color="#F26DAA"/>
</linearGradient>
</defs>
</svg>
