<svg width="378" height="200" viewBox="0 0 378 200" fill="none" xmlns="http://www.w3.org/2000/svg">
<g clip-path="url(#clip0_525_18724)">
<g filter="url(#filter0_d_525_18724)">
<rect x="376" y="96" width="96" height="96" rx="9.6" transform="rotate(-180 376 96)" fill="#FBFCFC"/>
<rect x="374.8" y="94.8" width="93.6" height="93.6" rx="8.4" transform="rotate(-180 374.8 94.8)" stroke="#C6C9CE" stroke-width="2.4"/>
</g>
<path d="M330.658 47.3921C330.535 47.1667 330.38 46.9597 330.199 46.7768L328.136 44.7421C327.924 44.5264 327.674 44.3521 327.398 44.2281C326.964 44.0345 326.482 43.9768 326.015 44.0625C325.547 44.1483 325.117 44.3734 324.78 44.7083C324.064 45.4125 322.755 46.697 320.393 49.0309C315.875 53.4996 307.487 60.9895 303.694 64.1839C303.503 64.3438 303.347 64.5416 303.236 64.7649C303.125 64.9881 303.062 65.2319 303.051 65.4808C303.039 65.7297 303.08 65.9783 303.169 66.2108C303.259 66.4433 303.395 66.6547 303.571 66.8316L307.958 71.2666C308.135 71.4438 308.346 71.5825 308.579 71.6741C308.812 71.7657 309.061 71.8081 309.311 71.7987C309.561 71.7893 309.807 71.7283 310.032 71.6195C310.257 71.5107 310.458 71.3565 310.621 71.1665C313.91 67.3006 321.453 58.9064 325.919 54.4939C328.213 52.2376 329.499 50.9419 330.226 50.2265C330.587 49.8595 330.823 49.388 330.901 48.8792C330.978 48.3703 330.894 47.8499 330.658 47.3921ZM353.27 42.2181L349.41 38.3938C349.351 38.335 349.281 38.2888 349.204 38.258C349.126 38.2273 349.043 38.2126 348.96 38.215C348.877 38.2136 348.795 38.2287 348.717 38.2594C348.64 38.2901 348.57 38.3358 348.51 38.3938C348.371 38.5334 348.202 38.6392 348.016 38.703C347.83 38.7668 347.631 38.7868 347.436 38.7617C346.932 38.7065 346.396 38.5502 346.049 38.215C345.262 37.4434 346.172 35.925 345.479 34.9532C344.687 33.8897 343.82 32.8852 342.882 31.9478C342.088 31.1604 338.967 28.1831 333.709 26.0393C332.031 25.352 330.235 24.999 328.422 25C325.458 25 323.179 26.3227 322.348 27.082C321.686 27.6803 320.998 28.6308 320.998 28.6308C321.395 28.4859 321.801 28.3657 322.214 28.2709C323.074 28.0866 323.956 28.0301 324.833 28.1033C326.583 28.2484 328.692 29.0694 329.824 29.958C331.647 31.4202 332.431 33.3762 332.554 35.9002C332.644 37.7775 330.841 40.1474 329.13 42.0797C328.979 42.2496 328.9 42.471 328.908 42.6978C328.917 42.9246 329.012 43.1395 329.175 43.2979L331.564 45.6858C331.73 45.8501 331.954 45.9432 332.188 45.9453C332.422 45.9474 332.648 45.8584 332.817 45.697C334.384 44.1775 336.314 42.4948 337.409 41.821C338.503 41.1473 339.386 40.9572 339.81 40.9111C340.644 40.8304 341.481 41.0121 342.206 41.4307C342.334 41.503 342.451 41.5931 342.553 41.6984C343.28 42.4363 343.236 43.6421 342.497 44.3687L342.272 44.5812C342.213 44.6388 342.167 44.7074 342.135 44.7831C342.103 44.8588 342.087 44.9401 342.087 45.0222C342.087 45.1042 342.103 45.1855 342.135 45.2612C342.167 45.3369 342.213 45.4055 342.272 45.4631L346.131 49.2873C346.19 49.3456 346.261 49.3914 346.338 49.422C346.415 49.4525 346.498 49.4671 346.581 49.465C346.749 49.4674 346.91 49.4035 347.031 49.2873L353.27 43.1179C353.385 42.9964 353.449 42.8354 353.449 42.668C353.449 42.5007 353.385 42.3397 353.27 42.2181Z" stroke="#888E99" stroke-width="2.4" stroke-linecap="round" stroke-linejoin="round"/>
<g filter="url(#filter1_d_525_18724)">
<rect x="376" y="200" width="96" height="96" rx="9.6" transform="rotate(-180 376 200)" fill="#FBFCFC"/>
<rect x="374.8" y="198.8" width="93.6" height="93.6" rx="8.4" transform="rotate(-180 374.8 198.8)" stroke="#C6C9CE" stroke-width="2.4"/>
</g>
<path d="M330.658 151.392C330.535 151.167 330.38 150.96 330.199 150.777L328.136 148.742C327.924 148.526 327.674 148.352 327.398 148.228C326.964 148.035 326.482 147.977 326.015 148.063C325.547 148.148 325.117 148.373 324.78 148.708C324.064 149.412 322.755 150.697 320.393 153.031C315.875 157.5 307.487 164.99 303.694 168.184C303.503 168.344 303.347 168.542 303.236 168.765C303.125 168.988 303.062 169.232 303.051 169.481C303.039 169.73 303.08 169.978 303.169 170.211C303.259 170.443 303.395 170.655 303.571 170.832L307.958 175.267C308.135 175.444 308.346 175.583 308.579 175.674C308.812 175.766 309.061 175.808 309.311 175.799C309.561 175.789 309.807 175.728 310.032 175.619C310.257 175.511 310.458 175.356 310.621 175.166C313.91 171.301 321.453 162.906 325.919 158.494C328.213 156.238 329.499 154.942 330.226 154.227C330.587 153.859 330.823 153.388 330.901 152.879C330.978 152.37 330.894 151.85 330.658 151.392ZM353.27 146.218L349.41 142.394C349.351 142.335 349.281 142.289 349.204 142.258C349.126 142.227 349.043 142.213 348.96 142.215C348.877 142.214 348.795 142.229 348.717 142.259C348.64 142.29 348.57 142.336 348.51 142.394C348.371 142.533 348.202 142.639 348.016 142.703C347.83 142.767 347.631 142.787 347.436 142.762C346.932 142.707 346.396 142.55 346.049 142.215C345.262 141.443 346.172 139.925 345.479 138.953C344.687 137.89 343.82 136.885 342.882 135.948C342.088 135.16 338.967 132.183 333.709 130.039C332.031 129.352 330.235 128.999 328.422 129C325.458 129 323.179 130.323 322.348 131.082C321.686 131.68 320.998 132.631 320.998 132.631C321.395 132.486 321.801 132.366 322.214 132.271C323.074 132.087 323.956 132.03 324.833 132.103C326.583 132.248 328.692 133.069 329.824 133.958C331.647 135.42 332.431 137.376 332.554 139.9C332.644 141.777 330.841 144.147 329.13 146.08C328.979 146.25 328.9 146.471 328.908 146.698C328.917 146.925 329.012 147.14 329.175 147.298L331.564 149.686C331.73 149.85 331.954 149.943 332.188 149.945C332.422 149.947 332.648 149.858 332.817 149.697C334.384 148.177 336.314 146.495 337.409 145.821C338.503 145.147 339.386 144.957 339.81 144.911C340.644 144.83 341.481 145.012 342.206 145.431C342.334 145.503 342.451 145.593 342.553 145.698C343.28 146.436 343.236 147.642 342.497 148.369L342.272 148.581C342.213 148.639 342.167 148.707 342.135 148.783C342.103 148.859 342.087 148.94 342.087 149.022C342.087 149.104 342.103 149.185 342.135 149.261C342.167 149.337 342.213 149.406 342.272 149.463L346.131 153.287C346.19 153.346 346.261 153.391 346.338 153.422C346.415 153.453 346.498 153.467 346.581 153.465C346.749 153.467 346.91 153.404 347.031 153.287L353.27 147.118C353.385 146.996 353.449 146.835 353.449 146.668C353.449 146.501 353.385 146.34 353.27 146.218Z" stroke="#888E99" stroke-width="2.4" stroke-linecap="round" stroke-linejoin="round"/>
<path d="M21.2 110.6V108.2C21.2 106.927 20.6943 105.706 19.7941 104.806C18.8939 103.906 17.673 103.4 16.4 103.4H6.8C5.52696 103.4 4.30606 103.906 3.40589 104.806C2.50571 105.706 2 106.927 2 108.2V110.6" stroke="#F26DAA" stroke-width="2.4" stroke-linecap="round" stroke-linejoin="round"/>
<path d="M11.5998 98.6C14.2508 98.6 16.3998 96.451 16.3998 93.8C16.3998 91.149 14.2508 89 11.5998 89C8.94884 89 6.7998 91.149 6.7998 93.8C6.7998 96.451 8.94884 98.6 11.5998 98.6Z" stroke="#F26DAA" stroke-width="2.4" stroke-linecap="round" stroke-linejoin="round"/>
<rect x="246.8" y="191.8" width="183.6" height="183.6" rx="8.4" transform="rotate(-180 246.8 191.8)" fill="#FCD5E9" fill-opacity="0.2" stroke="#F68AC3" stroke-width="2.4"/>
<path d="M62 101L30 101" stroke="#F26DAA" stroke-width="2" stroke-linecap="round" stroke-dasharray="1 4"/>
<path d="M114.4 55.5999C120.365 55.5999 125.2 53.9881 125.2 51.9999C125.2 50.0117 120.365 48.3999 114.4 48.3999C108.435 48.3999 103.6 50.0117 103.6 51.9999C103.6 53.9881 108.435 55.5999 114.4 55.5999Z" stroke="#F26DAA" stroke-width="2.4" stroke-linecap="round" stroke-linejoin="round"/>
<path d="M125.2 60.3999C125.2 62.3919 120.4 63.9999 114.4 63.9999C108.4 63.9999 103.6 62.3919 103.6 60.3999" stroke="#F26DAA" stroke-width="2.4" stroke-linecap="round" stroke-linejoin="round"/>
<path d="M103.6 52V68.8C103.6 70.792 108.4 72.4 114.4 72.4C120.4 72.4 125.2 70.792 125.2 68.8V52" stroke="#F26DAA" stroke-width="2.4" stroke-linecap="round" stroke-linejoin="round"/>
<g filter="url(#filter2_d_525_18724)">
<rect x="218" y="84" width="48" height="48" rx="9.6" transform="rotate(-180 218 84)" fill="#FCD5E9" fill-opacity="0.2" shape-rendering="crispEdges"/>
<rect x="218" y="84" width="48" height="48" rx="9.6" transform="rotate(-180 218 84)" stroke="#F26DAA" stroke-width="2.4" stroke-dasharray="4.8 4.8" shape-rendering="crispEdges"/>
</g>
<path d="M194.605 59.7961C194.543 59.6835 194.465 59.5799 194.375 59.4885L193.344 58.4711C193.238 58.3633 193.112 58.2761 192.975 58.2141C192.758 58.1174 192.516 58.0885 192.283 58.1314C192.049 58.1742 191.834 58.2868 191.665 58.4543C191.308 58.8063 190.653 59.4486 189.472 60.6155C187.213 62.8499 183.019 66.5948 181.122 68.192C181.027 68.272 180.949 68.3709 180.893 68.4825C180.838 68.5942 180.807 68.716 180.801 68.8405C180.795 68.9649 180.815 69.0892 180.86 69.2055C180.905 69.3218 180.973 69.4275 181.061 69.5159L183.254 71.7334C183.343 71.822 183.448 71.8914 183.565 71.9372C183.681 71.9829 183.806 72.0042 183.931 71.9995C184.056 71.9948 184.179 71.9642 184.291 71.9098C184.404 71.8554 184.504 71.7783 184.586 71.6833C186.23 69.7504 190.002 65.5533 192.235 63.3471C193.382 62.2189 194.025 61.571 194.389 61.2134C194.569 61.0298 194.687 60.7941 194.726 60.5397C194.765 60.2852 194.722 60.0251 194.605 59.7961ZM205.91 57.2091L203.98 55.297C203.951 55.2676 203.916 55.2445 203.877 55.2291C203.839 55.2137 203.797 55.2064 203.756 55.2076C203.714 55.2069 203.673 55.2144 203.634 55.2298C203.595 55.2451 203.56 55.268 203.531 55.297C203.461 55.3668 203.377 55.4197 203.283 55.4516C203.19 55.4835 203.091 55.4935 202.993 55.4809C202.741 55.4534 202.473 55.3752 202.3 55.2076C201.906 54.8218 202.361 54.0626 202.015 53.5767C201.619 53.0449 201.185 52.5427 200.717 52.074C200.32 51.6803 198.759 50.1917 196.13 49.1197C195.291 48.7761 194.393 48.5996 193.486 48.6001C192.004 48.6001 190.865 49.2615 190.449 49.6411C190.118 49.9403 189.774 50.4155 189.774 50.4155C189.973 50.343 190.176 50.2829 190.382 50.2355C190.812 50.1434 191.253 50.1152 191.692 50.1517C192.567 50.2243 193.621 50.6348 194.187 51.0791C195.099 51.8102 195.491 52.7882 195.552 54.0502C195.597 54.9888 194.696 56.1738 193.84 57.14C193.765 57.2249 193.725 57.3356 193.729 57.449C193.734 57.5624 193.781 57.6699 193.863 57.749L195.057 58.943C195.141 59.0252 195.252 59.0717 195.369 59.0728C195.486 59.0738 195.599 59.0293 195.684 58.9486C196.467 58.1888 197.433 57.3475 197.98 57.0106C198.527 56.6737 198.969 56.5787 199.181 56.5556C199.597 56.5153 200.016 56.6061 200.379 56.8155C200.442 56.8516 200.501 56.8967 200.552 56.9493C200.915 57.3182 200.893 57.9211 200.524 58.2844L200.411 58.3907C200.382 58.4195 200.359 58.4538 200.343 58.4917C200.327 58.5295 200.319 58.5701 200.319 58.6112C200.319 58.6522 200.327 58.6928 200.343 58.7307C200.359 58.7685 200.382 58.8029 200.411 58.8316L202.341 60.7438C202.371 60.7729 202.406 60.7958 202.444 60.8111C202.483 60.8264 202.524 60.8337 202.566 60.8326C202.65 60.8338 202.731 60.8019 202.791 60.7438L205.91 57.6591C205.968 57.5983 206 57.5178 206 57.4341C206 57.3504 205.968 57.2699 205.91 57.2091Z" stroke="#F26DAA" stroke-width="1.2" stroke-linecap="round" stroke-linejoin="round"/>
<g filter="url(#filter3_d_525_18724)">
<rect x="218" y="164" width="48" height="48" rx="9.6" transform="rotate(-180 218 164)" fill="#FCD5E9" fill-opacity="0.2" shape-rendering="crispEdges"/>
<rect x="218" y="164" width="48" height="48" rx="9.6" transform="rotate(-180 218 164)" stroke="#F26DAA" stroke-width="2.4" stroke-dasharray="4.8 4.8" shape-rendering="crispEdges"/>
</g>
<path d="M194.605 139.796C194.543 139.683 194.466 139.58 194.376 139.489L193.344 138.471C193.238 138.363 193.113 138.276 192.975 138.214C192.758 138.117 192.517 138.089 192.283 138.131C192.049 138.174 191.834 138.287 191.666 138.454C191.308 138.806 190.653 139.449 189.472 140.616C187.213 142.85 183.019 146.595 181.123 148.192C181.027 148.272 180.949 148.371 180.894 148.483C180.839 148.594 180.807 148.716 180.801 148.84C180.795 148.965 180.816 149.089 180.86 149.205C180.905 149.322 180.974 149.427 181.061 149.516L183.255 151.733C183.343 151.822 183.449 151.891 183.565 151.937C183.682 151.983 183.806 152.004 183.932 151.999C184.057 151.995 184.179 151.964 184.292 151.91C184.405 151.855 184.505 151.778 184.586 151.683C186.231 149.75 190.003 145.553 192.235 143.347C193.382 142.219 194.025 141.571 194.389 141.213C194.57 141.03 194.688 140.794 194.726 140.54C194.765 140.285 194.723 140.025 194.605 139.796ZM205.911 137.209L203.981 135.297C203.952 135.268 203.916 135.244 203.878 135.229C203.839 135.214 203.798 135.206 203.756 135.208C203.714 135.207 203.673 135.214 203.635 135.23C203.596 135.245 203.561 135.268 203.531 135.297C203.462 135.367 203.377 135.42 203.284 135.452C203.191 135.483 203.092 135.494 202.994 135.481C202.742 135.453 202.474 135.375 202.3 135.208C201.907 134.822 202.362 134.063 202.015 133.577C201.62 133.045 201.186 132.543 200.717 132.074C200.32 131.68 198.759 130.192 196.13 129.12C195.291 128.776 194.393 128.6 193.487 128.6C192.005 128.6 190.865 129.261 190.45 129.641C190.119 129.94 189.775 130.415 189.775 130.415C189.974 130.343 190.177 130.283 190.383 130.236C190.813 130.143 191.254 130.115 191.692 130.152C192.567 130.224 193.622 130.635 194.188 131.079C195.099 131.81 195.491 132.788 195.553 134.05C195.598 134.989 194.696 136.174 193.841 137.14C193.765 137.225 193.726 137.336 193.73 137.449C193.734 137.562 193.782 137.67 193.863 137.749L195.058 138.943C195.141 139.025 195.253 139.072 195.37 139.073C195.487 139.074 195.6 139.029 195.684 138.949C196.468 138.189 197.433 137.347 197.98 137.011C198.528 136.674 198.969 136.579 199.181 136.556C199.598 136.515 200.017 136.606 200.379 136.815C200.443 136.852 200.501 136.897 200.552 136.949C200.916 137.318 200.894 137.921 200.524 138.284L200.412 138.391C200.382 138.42 200.359 138.454 200.343 138.492C200.328 138.53 200.319 138.57 200.319 138.611C200.319 138.652 200.328 138.693 200.343 138.731C200.359 138.769 200.382 138.803 200.412 138.832L202.341 140.744C202.371 140.773 202.406 140.796 202.445 140.811C202.484 140.826 202.525 140.834 202.566 140.833C202.65 140.834 202.731 140.802 202.791 140.744L205.911 137.659C205.968 137.598 206 137.518 206 137.434C206 137.35 205.968 137.27 205.911 137.209Z" stroke="#F26DAA" stroke-width="1.2" stroke-linecap="round" stroke-linejoin="round"/>
<path d="M126.4 148.8C126.4 149.437 126.147 150.047 125.697 150.497C125.247 150.947 124.636 151.2 124 151.2H104.8C104.163 151.2 103.553 150.947 103.103 150.497C102.653 150.047 102.4 149.437 102.4 148.8V132C102.4 131.364 102.653 130.753 103.103 130.303C103.553 129.853 104.163 129.6 104.8 129.6H110.8L113.2 133.2H124C124.636 133.2 125.247 133.453 125.697 133.903C126.147 134.353 126.4 134.964 126.4 135.6V148.8Z" stroke="#F26DAA" stroke-width="2.4" stroke-linecap="round" stroke-linejoin="round"/>
<path d="M114.4 55.5999C120.365 55.5999 125.2 53.9881 125.2 51.9999C125.2 50.0117 120.365 48.3999 114.4 48.3999C108.435 48.3999 103.6 50.0117 103.6 51.9999C103.6 53.9881 108.435 55.5999 114.4 55.5999Z" stroke="#F26DAA" stroke-width="2.4" stroke-linecap="round" stroke-linejoin="round"/>
<path d="M125.2 60.3999C125.2 62.3919 120.4 63.9999 114.4 63.9999C108.4 63.9999 103.6 62.3919 103.6 60.3999" stroke="#F26DAA" stroke-width="2.4" stroke-linecap="round" stroke-linejoin="round"/>
<path d="M103.6 52V68.8C103.6 70.792 108.4 72.4 114.4 72.4C120.4 72.4 125.2 70.792 125.2 68.8V52" stroke="#F26DAA" stroke-width="2.4" stroke-linecap="round" stroke-linejoin="round"/>
<g filter="url(#filter4_d_525_18724)">
<rect x="218" y="84" width="48" height="48" rx="9.6" transform="rotate(-180 218 84)" fill="#FCD5E9" fill-opacity="0.2" shape-rendering="crispEdges"/>
<rect x="218" y="84" width="48" height="48" rx="9.6" transform="rotate(-180 218 84)" stroke="#F26DAA" stroke-width="2.4" stroke-dasharray="4.8 4.8" shape-rendering="crispEdges"/>
</g>
<path d="M280 59L221 59" stroke="url(#paint0_linear_525_18724)" stroke-width="2.4" stroke-linecap="round" stroke-dasharray="1 4"/>
<path d="M280 140H221" stroke="url(#paint1_linear_525_18724)" stroke-width="2.4" stroke-linecap="round" stroke-dasharray="1 4"/>
<path d="M194.605 59.7961C194.543 59.6835 194.465 59.5799 194.375 59.4885L193.344 58.4711C193.238 58.3633 193.112 58.2761 192.975 58.2141C192.758 58.1174 192.516 58.0885 192.283 58.1314C192.049 58.1742 191.834 58.2868 191.665 58.4543C191.308 58.8063 190.653 59.4486 189.472 60.6155C187.213 62.8499 183.019 66.5948 181.122 68.192C181.027 68.272 180.949 68.3709 180.893 68.4825C180.838 68.5942 180.807 68.716 180.801 68.8405C180.795 68.9649 180.815 69.0892 180.86 69.2055C180.905 69.3218 180.973 69.4275 181.061 69.5159L183.254 71.7334C183.343 71.822 183.448 71.8914 183.565 71.9372C183.681 71.9829 183.806 72.0042 183.931 71.9995C184.056 71.9948 184.179 71.9642 184.291 71.9098C184.404 71.8554 184.504 71.7783 184.586 71.6833C186.23 69.7504 190.002 65.5533 192.235 63.3471C193.382 62.2189 194.025 61.571 194.389 61.2134C194.569 61.0298 194.687 60.7941 194.726 60.5397C194.765 60.2852 194.722 60.0251 194.605 59.7961ZM205.91 57.2091L203.98 55.297C203.951 55.2676 203.916 55.2445 203.877 55.2291C203.839 55.2137 203.797 55.2064 203.756 55.2076C203.714 55.2069 203.673 55.2144 203.634 55.2298C203.595 55.2451 203.56 55.268 203.531 55.297C203.461 55.3668 203.377 55.4197 203.283 55.4516C203.19 55.4835 203.091 55.4935 202.993 55.4809C202.741 55.4534 202.473 55.3752 202.3 55.2076C201.906 54.8218 202.361 54.0626 202.015 53.5767C201.619 53.0449 201.185 52.5427 200.717 52.074C200.32 51.6803 198.759 50.1917 196.13 49.1197C195.291 48.7761 194.393 48.5996 193.486 48.6001C192.004 48.6001 190.865 49.2615 190.449 49.6411C190.118 49.9403 189.774 50.4155 189.774 50.4155C189.973 50.343 190.176 50.2829 190.382 50.2355C190.812 50.1434 191.253 50.1152 191.692 50.1517C192.567 50.2243 193.621 50.6348 194.187 51.0791C195.099 51.8102 195.491 52.7882 195.552 54.0502C195.597 54.9888 194.696 56.1738 193.84 57.14C193.765 57.2249 193.725 57.3356 193.729 57.449C193.734 57.5624 193.781 57.6699 193.863 57.749L195.057 58.943C195.141 59.0252 195.252 59.0717 195.369 59.0728C195.486 59.0738 195.599 59.0293 195.684 58.9486C196.467 58.1888 197.433 57.3475 197.98 57.0106C198.527 56.6737 198.969 56.5787 199.181 56.5556C199.597 56.5153 200.016 56.6061 200.379 56.8155C200.442 56.8516 200.501 56.8967 200.552 56.9493C200.915 57.3182 200.893 57.9211 200.524 58.2844L200.411 58.3907C200.382 58.4195 200.359 58.4538 200.343 58.4917C200.327 58.5295 200.319 58.5701 200.319 58.6112C200.319 58.6522 200.327 58.6928 200.343 58.7307C200.359 58.7685 200.382 58.8029 200.411 58.8316L202.341 60.7438C202.371 60.7729 202.406 60.7958 202.444 60.8111C202.483 60.8264 202.524 60.8337 202.566 60.8326C202.65 60.8338 202.731 60.8019 202.791 60.7438L205.91 57.6591C205.968 57.5983 206 57.5178 206 57.4341C206 57.3504 205.968 57.2699 205.91 57.2091Z" stroke="#F26DAA" stroke-width="1.2" stroke-linecap="round" stroke-linejoin="round"/>
<g filter="url(#filter5_d_525_18724)">
<rect x="218" y="164" width="48" height="48" rx="9.6" transform="rotate(-180 218 164)" fill="#FCD5E9" fill-opacity="0.2" shape-rendering="crispEdges"/>
<rect x="218" y="164" width="48" height="48" rx="9.6" transform="rotate(-180 218 164)" stroke="#F26DAA" stroke-width="2.4" stroke-dasharray="4.8 4.8" shape-rendering="crispEdges"/>
</g>
<path d="M194.605 139.796C194.543 139.683 194.466 139.58 194.376 139.489L193.344 138.471C193.238 138.363 193.113 138.276 192.975 138.214C192.758 138.117 192.517 138.089 192.283 138.131C192.049 138.174 191.834 138.287 191.666 138.454C191.308 138.806 190.653 139.449 189.472 140.616C187.213 142.85 183.019 146.595 181.123 148.192C181.027 148.272 180.949 148.371 180.894 148.483C180.839 148.594 180.807 148.716 180.801 148.84C180.795 148.965 180.816 149.089 180.86 149.205C180.905 149.322 180.974 149.427 181.061 149.516L183.255 151.733C183.343 151.822 183.449 151.891 183.565 151.937C183.682 151.983 183.806 152.004 183.932 151.999C184.057 151.995 184.179 151.964 184.292 151.91C184.405 151.855 184.505 151.778 184.586 151.683C186.231 149.75 190.003 145.553 192.235 143.347C193.382 142.219 194.025 141.571 194.389 141.213C194.57 141.03 194.688 140.794 194.726 140.54C194.765 140.285 194.723 140.025 194.605 139.796ZM205.911 137.209L203.981 135.297C203.952 135.268 203.916 135.244 203.878 135.229C203.839 135.214 203.798 135.206 203.756 135.208C203.714 135.207 203.673 135.214 203.635 135.23C203.596 135.245 203.561 135.268 203.531 135.297C203.462 135.367 203.377 135.42 203.284 135.452C203.191 135.483 203.092 135.494 202.994 135.481C202.742 135.453 202.474 135.375 202.3 135.208C201.907 134.822 202.362 134.063 202.015 133.577C201.62 133.045 201.186 132.543 200.717 132.074C200.32 131.68 198.759 130.192 196.13 129.12C195.291 128.776 194.393 128.6 193.487 128.6C192.005 128.6 190.865 129.261 190.45 129.641C190.119 129.94 189.775 130.415 189.775 130.415C189.974 130.343 190.177 130.283 190.383 130.236C190.813 130.143 191.254 130.115 191.692 130.152C192.567 130.224 193.622 130.635 194.188 131.079C195.099 131.81 195.491 132.788 195.553 134.05C195.598 134.989 194.696 136.174 193.841 137.14C193.765 137.225 193.726 137.336 193.73 137.449C193.734 137.562 193.782 137.67 193.863 137.749L195.058 138.943C195.141 139.025 195.253 139.072 195.37 139.073C195.487 139.074 195.6 139.029 195.684 138.949C196.468 138.189 197.433 137.347 197.98 137.011C198.528 136.674 198.969 136.579 199.181 136.556C199.598 136.515 200.017 136.606 200.379 136.815C200.443 136.852 200.501 136.897 200.552 136.949C200.916 137.318 200.894 137.921 200.524 138.284L200.412 138.391C200.382 138.42 200.359 138.454 200.343 138.492C200.328 138.53 200.319 138.57 200.319 138.611C200.319 138.652 200.328 138.693 200.343 138.731C200.359 138.769 200.382 138.803 200.412 138.832L202.341 140.744C202.371 140.773 202.406 140.796 202.445 140.811C202.484 140.826 202.525 140.834 202.566 140.833C202.65 140.834 202.731 140.802 202.791 140.744L205.911 137.659C205.968 137.598 206 137.518 206 137.434C206 137.35 205.968 137.27 205.911 137.209Z" stroke="#F26DAA" stroke-width="1.2" stroke-linecap="round" stroke-linejoin="round"/>
<path d="M126.4 148.8C126.4 149.437 126.147 150.047 125.697 150.497C125.247 150.947 124.636 151.2 124 151.2H104.8C104.163 151.2 103.553 150.947 103.103 150.497C102.653 150.047 102.4 149.437 102.4 148.8V132C102.4 131.364 102.653 130.753 103.103 130.303C103.553 129.853 104.163 129.6 104.8 129.6H110.8L113.2 133.2H124C124.636 133.2 125.247 133.453 125.697 133.903C126.147 134.353 126.4 134.964 126.4 135.6V148.8Z" stroke="#F26DAA" stroke-width="2.4" stroke-linecap="round" stroke-linejoin="round"/>
<g opacity="0.5">
<path d="M114 91L114 109" stroke="#F26DAA" stroke-width="2" stroke-linecap="round" stroke-linejoin="round"/>
<path d="M193 91L193 110" stroke="#F26DAA" stroke-width="2" stroke-linecap="round" stroke-linejoin="round"/>
<path d="M165 90L145 110" stroke="#F26DAA" stroke-width="2" stroke-linecap="round" stroke-linejoin="round"/>
<path d="M145 90L165 110" stroke="#F26DAA" stroke-width="2" stroke-linecap="round" stroke-linejoin="round"/>
<path d="M157 60L139 60" stroke="#F26DAA" stroke-width="2" stroke-linecap="round" stroke-linejoin="round"/>
<path d="M157 140L139 140" stroke="#F26DAA" stroke-width="2" stroke-linecap="round" stroke-linejoin="round"/>
</g>
</g>
<defs>
<filter id="filter0_d_525_18724" x="270.4" y="-4.8" width="115.2" height="115.2" filterUnits="userSpaceOnUse" color-interpolation-filters="sRGB">
<feFlood flood-opacity="0" result="BackgroundImageFix"/>
<feColorMatrix in="SourceAlpha" type="matrix" values="0 0 0 0 0 0 0 0 0 0 0 0 0 0 0 0 0 0 127 0" result="hardAlpha"/>
<feOffset dy="4.8"/>
<feGaussianBlur stdDeviation="4.8"/>
<feComposite in2="hardAlpha" operator="out"/>
<feColorMatrix type="matrix" values="0 0 0 0 0.8375 0 0 0 0 0.812375 0 0 0 0 0.774688 0 0 0 0.2 0"/>
<feBlend mode="normal" in2="BackgroundImageFix" result="effect1_dropShadow_525_18724"/>
<feBlend mode="normal" in="SourceGraphic" in2="effect1_dropShadow_525_18724" result="shape"/>
</filter>
<filter id="filter1_d_525_18724" x="270.4" y="99.2" width="115.2" height="115.2" filterUnits="userSpaceOnUse" color-interpolation-filters="sRGB">
<feFlood flood-opacity="0" result="BackgroundImageFix"/>
<feColorMatrix in="SourceAlpha" type="matrix" values="0 0 0 0 0 0 0 0 0 0 0 0 0 0 0 0 0 0 127 0" result="hardAlpha"/>
<feOffset dy="4.8"/>
<feGaussianBlur stdDeviation="4.8"/>
<feComposite in2="hardAlpha" operator="out"/>
<feColorMatrix type="matrix" values="0 0 0 0 0.8375 0 0 0 0 0.812375 0 0 0 0 0.774688 0 0 0 0.2 0"/>
<feBlend mode="normal" in2="BackgroundImageFix" result="effect1_dropShadow_525_18724"/>
<feBlend mode="normal" in="SourceGraphic" in2="effect1_dropShadow_525_18724" result="shape"/>
</filter>
<filter id="filter2_d_525_18724" x="159.2" y="30" width="69.6004" height="69.5999" filterUnits="userSpaceOnUse" color-interpolation-filters="sRGB">
<feFlood flood-opacity="0" result="BackgroundImageFix"/>
<feColorMatrix in="SourceAlpha" type="matrix" values="0 0 0 0 0 0 0 0 0 0 0 0 0 0 0 0 0 0 127 0" result="hardAlpha"/>
<feOffset dy="4.8"/>
<feGaussianBlur stdDeviation="4.8"/>
<feComposite in2="hardAlpha" operator="out"/>
<feColorMatrix type="matrix" values="0 0 0 0 0.8375 0 0 0 0 0.812375 0 0 0 0 0.774688 0 0 0 0.2 0"/>
<feBlend mode="normal" in2="BackgroundImageFix" result="effect1_dropShadow_525_18724"/>
<feBlend mode="normal" in="SourceGraphic" in2="effect1_dropShadow_525_18724" result="shape"/>
</filter>
<filter id="filter3_d_525_18724" x="159.2" y="110" width="69.6004" height="69.5999" filterUnits="userSpaceOnUse" color-interpolation-filters="sRGB">
<feFlood flood-opacity="0" result="BackgroundImageFix"/>
<feColorMatrix in="SourceAlpha" type="matrix" values="0 0 0 0 0 0 0 0 0 0 0 0 0 0 0 0 0 0 127 0" result="hardAlpha"/>
<feOffset dy="4.8"/>
<feGaussianBlur stdDeviation="4.8"/>
<feComposite in2="hardAlpha" operator="out"/>
<feColorMatrix type="matrix" values="0 0 0 0 0.8375 0 0 0 0 0.812375 0 0 0 0 0.774688 0 0 0 0.2 0"/>
<feBlend mode="normal" in2="BackgroundImageFix" result="effect1_dropShadow_525_18724"/>
<feBlend mode="normal" in="SourceGraphic" in2="effect1_dropShadow_525_18724" result="shape"/>
</filter>
<filter id="filter4_d_525_18724" x="159.2" y="30" width="69.6004" height="69.5999" filterUnits="userSpaceOnUse" color-interpolation-filters="sRGB">
<feFlood flood-opacity="0" result="BackgroundImageFix"/>
<feColorMatrix in="SourceAlpha" type="matrix" values="0 0 0 0 0 0 0 0 0 0 0 0 0 0 0 0 0 0 127 0" result="hardAlpha"/>
<feOffset dy="4.8"/>
<feGaussianBlur stdDeviation="4.8"/>
<feComposite in2="hardAlpha" operator="out"/>
<feColorMatrix type="matrix" values="0 0 0 0 0.8375 0 0 0 0 0.812375 0 0 0 0 0.774688 0 0 0 0.2 0"/>
<feBlend mode="normal" in2="BackgroundImageFix" result="effect1_dropShadow_525_18724"/>
<feBlend mode="normal" in="SourceGraphic" in2="effect1_dropShadow_525_18724" result="shape"/>
</filter>
<filter id="filter5_d_525_18724" x="159.2" y="110" width="69.6004" height="69.5999" filterUnits="userSpaceOnUse" color-interpolation-filters="sRGB">
<feFlood flood-opacity="0" result="BackgroundImageFix"/>
<feColorMatrix in="SourceAlpha" type="matrix" values="0 0 0 0 0 0 0 0 0 0 0 0 0 0 0 0 0 0 127 0" result="hardAlpha"/>
<feOffset dy="4.8"/>
<feGaussianBlur stdDeviation="4.8"/>
<feComposite in2="hardAlpha" operator="out"/>
<feColorMatrix type="matrix" values="0 0 0 0 0.8375 0 0 0 0 0.812375 0 0 0 0 0.774688 0 0 0 0.2 0"/>
<feBlend mode="normal" in2="BackgroundImageFix" result="effect1_dropShadow_525_18724"/>
<feBlend mode="normal" in="SourceGraphic" in2="effect1_dropShadow_525_18724" result="shape"/>
</filter>
<linearGradient id="paint0_linear_525_18724" x1="280" y1="60.4394" x2="231.965" y2="60.4392" gradientUnits="userSpaceOnUse">
<stop stop-color="#C6C9CE"/>
<stop offset="1" stop-color="#F26DAA"/>
</linearGradient>
<linearGradient id="paint1_linear_525_18724" x1="279.119" y1="151.515" x2="231.801" y2="151.515" gradientUnits="userSpaceOnUse">
<stop stop-color="#C6C9CE"/>
<stop offset="1" stop-color="#F26DAA"/>
</linearGradient>
<clipPath id="clip0_525_18724">
<rect width="378" height="200" fill="white"/>
</clipPath>
</defs>
</svg>
