<svg width="374" height="200" viewBox="0 0 374 200" fill="none" xmlns="http://www.w3.org/2000/svg">
<g clip-path="url(#clip0_445_17478)">
<rect width="374" height="200" fill="white"/>
<g filter="url(#filter0_d_445_17478)">
<rect x="374" y="96" width="96" height="96" rx="9.6" transform="rotate(-180 374 96)" fill="#FBFCFC"/>
<rect x="372.8" y="94.8" width="93.6" height="93.6" rx="8.4" transform="rotate(-180 372.8 94.8)" stroke="#C6C9CE" stroke-width="2.4"/>
</g>
<path d="M328.658 47.3921C328.535 47.1667 328.38 46.9597 328.199 46.7768L326.136 44.7421C325.924 44.5264 325.674 44.3521 325.398 44.2281C324.964 44.0345 324.482 43.9768 324.015 44.0625C323.547 44.1483 323.117 44.3734 322.78 44.7083C322.064 45.4125 320.755 46.697 318.393 49.0309C313.875 53.4996 305.487 60.9895 301.694 64.1839C301.503 64.3438 301.347 64.5416 301.236 64.7649C301.125 64.9881 301.062 65.2319 301.051 65.4808C301.039 65.7297 301.08 65.9783 301.169 66.2108C301.259 66.4433 301.395 66.6547 301.571 66.8316L305.958 71.2666C306.135 71.4438 306.346 71.5825 306.579 71.6741C306.812 71.7657 307.061 71.8081 307.311 71.7987C307.561 71.7893 307.807 71.7283 308.032 71.6195C308.257 71.5107 308.458 71.3565 308.621 71.1665C311.91 67.3006 319.453 58.9064 323.919 54.4939C326.213 52.2376 327.499 50.9419 328.226 50.2265C328.587 49.8595 328.823 49.388 328.901 48.8792C328.978 48.3703 328.894 47.8499 328.658 47.3921ZM351.27 42.2181L347.41 38.3938C347.351 38.335 347.281 38.2888 347.204 38.258C347.126 38.2273 347.043 38.2126 346.96 38.215C346.877 38.2136 346.795 38.2287 346.717 38.2594C346.64 38.2901 346.57 38.3358 346.51 38.3938C346.371 38.5334 346.202 38.6392 346.016 38.703C345.83 38.7668 345.631 38.7868 345.436 38.7617C344.932 38.7065 344.396 38.5502 344.049 38.215C343.262 37.4434 344.172 35.925 343.479 34.9532C342.687 33.8897 341.82 32.8852 340.882 31.9478C340.088 31.1604 336.967 28.1831 331.709 26.0393C330.031 25.352 328.235 24.999 326.422 25C323.458 25 321.179 26.3227 320.348 27.082C319.686 27.6803 318.998 28.6308 318.998 28.6308C319.395 28.4859 319.801 28.3657 320.214 28.2709C321.074 28.0866 321.956 28.0301 322.833 28.1033C324.583 28.2484 326.692 29.0694 327.824 29.958C329.647 31.4202 330.431 33.3762 330.554 35.9002C330.644 37.7775 328.841 40.1474 327.13 42.0797C326.979 42.2496 326.9 42.471 326.908 42.6978C326.917 42.9246 327.012 43.1395 327.175 43.2979L329.564 45.6858C329.73 45.8501 329.954 45.9432 330.188 45.9453C330.422 45.9474 330.648 45.8584 330.817 45.697C332.384 44.1775 334.314 42.4948 335.409 41.821C336.503 41.1473 337.386 40.9572 337.81 40.9111C338.644 40.8304 339.481 41.0121 340.206 41.4307C340.334 41.503 340.451 41.5931 340.553 41.6984C341.28 42.4363 341.236 43.6421 340.497 44.3687L340.272 44.5812C340.213 44.6388 340.167 44.7074 340.135 44.7831C340.103 44.8588 340.087 44.9401 340.087 45.0222C340.087 45.1042 340.103 45.1855 340.135 45.2612C340.167 45.3369 340.213 45.4055 340.272 45.4631L344.131 49.2873C344.19 49.3456 344.261 49.3914 344.338 49.422C344.415 49.4525 344.498 49.4671 344.581 49.465C344.749 49.4674 344.91 49.4035 345.031 49.2873L351.27 43.1179C351.385 42.9964 351.449 42.8354 351.449 42.668C351.449 42.5007 351.385 42.3397 351.27 42.2181Z" stroke="#888E99" stroke-width="2.4" stroke-linecap="round" stroke-linejoin="round"/>
<g filter="url(#filter1_d_445_17478)">
<rect x="374" y="200" width="96" height="96" rx="9.6" transform="rotate(-180 374 200)" fill="#FBFCFC"/>
<rect x="372.8" y="198.8" width="93.6" height="93.6" rx="8.4" transform="rotate(-180 372.8 198.8)" stroke="#C6C9CE" stroke-width="2.4"/>
</g>
<path d="M328.658 151.392C328.535 151.167 328.38 150.96 328.199 150.777L326.136 148.742C325.924 148.526 325.674 148.352 325.398 148.228C324.964 148.035 324.482 147.977 324.015 148.063C323.547 148.148 323.117 148.373 322.78 148.708C322.064 149.412 320.755 150.697 318.393 153.031C313.875 157.5 305.487 164.99 301.694 168.184C301.503 168.344 301.347 168.542 301.236 168.765C301.125 168.988 301.062 169.232 301.051 169.481C301.039 169.73 301.08 169.978 301.169 170.211C301.259 170.443 301.395 170.655 301.571 170.832L305.958 175.267C306.135 175.444 306.346 175.583 306.579 175.674C306.812 175.766 307.061 175.808 307.311 175.799C307.561 175.789 307.807 175.728 308.032 175.619C308.257 175.511 308.458 175.356 308.621 175.166C311.91 171.301 319.453 162.906 323.919 158.494C326.213 156.238 327.499 154.942 328.226 154.227C328.587 153.859 328.823 153.388 328.901 152.879C328.978 152.37 328.894 151.85 328.658 151.392ZM351.27 146.218L347.41 142.394C347.351 142.335 347.281 142.289 347.204 142.258C347.126 142.227 347.043 142.213 346.96 142.215C346.877 142.214 346.795 142.229 346.717 142.259C346.64 142.29 346.57 142.336 346.51 142.394C346.371 142.533 346.202 142.639 346.016 142.703C345.83 142.767 345.631 142.787 345.436 142.762C344.932 142.707 344.396 142.55 344.049 142.215C343.262 141.443 344.172 139.925 343.479 138.953C342.687 137.89 341.82 136.885 340.882 135.948C340.088 135.16 336.967 132.183 331.709 130.039C330.031 129.352 328.235 128.999 326.422 129C323.458 129 321.179 130.323 320.348 131.082C319.686 131.68 318.998 132.631 318.998 132.631C319.395 132.486 319.801 132.366 320.214 132.271C321.074 132.087 321.956 132.03 322.833 132.103C324.583 132.248 326.692 133.069 327.824 133.958C329.647 135.42 330.431 137.376 330.554 139.9C330.644 141.777 328.841 144.147 327.13 146.08C326.979 146.25 326.9 146.471 326.908 146.698C326.917 146.925 327.012 147.14 327.175 147.298L329.564 149.686C329.73 149.85 329.954 149.943 330.188 149.945C330.422 149.947 330.648 149.858 330.817 149.697C332.384 148.177 334.314 146.495 335.409 145.821C336.503 145.147 337.386 144.957 337.81 144.911C338.644 144.83 339.481 145.012 340.206 145.431C340.334 145.503 340.451 145.593 340.553 145.698C341.28 146.436 341.236 147.642 340.497 148.369L340.272 148.581C340.213 148.639 340.167 148.707 340.135 148.783C340.103 148.859 340.087 148.94 340.087 149.022C340.087 149.104 340.103 149.185 340.135 149.261C340.167 149.337 340.213 149.406 340.272 149.463L344.131 153.287C344.19 153.346 344.261 153.391 344.338 153.422C344.415 153.453 344.498 153.467 344.581 153.465C344.749 153.467 344.91 153.404 345.031 153.287L351.27 147.118C351.385 146.996 351.449 146.835 351.449 146.668C351.449 146.501 351.385 146.34 351.27 146.218Z" stroke="#888E99" stroke-width="2.4" stroke-linecap="round" stroke-linejoin="round"/>
<path d="M19.2 110.6V108.2C19.2 106.927 18.6943 105.706 17.7941 104.806C16.8939 103.906 15.673 103.4 14.4 103.4H4.8C3.52696 103.4 2.30606 103.906 1.40589 104.806C0.505713 105.706 0 106.927 0 108.2V110.6" stroke="#F26DAA" stroke-width="2.4" stroke-linecap="round" stroke-linejoin="round"/>
<path d="M9.5998 98.6C12.2508 98.6 14.3998 96.451 14.3998 93.8C14.3998 91.149 12.2508 89 9.5998 89C6.94884 89 4.7998 91.149 4.7998 93.8C4.7998 96.451 6.94884 98.6 9.5998 98.6Z" stroke="#F26DAA" stroke-width="2.4" stroke-linecap="round" stroke-linejoin="round"/>
<rect x="244.8" y="191.8" width="183.6" height="183.6" rx="8.4" transform="rotate(-180 244.8 191.8)" fill="#FCD5E9" fill-opacity="0.2" stroke="#F68AC3" stroke-width="2.4"/>
<path d="M60 101L28 101" stroke="#F26DAA" stroke-width="2" stroke-linecap="round" stroke-dasharray="1 4"/>
<path d="M112.4 55.5999C118.365 55.5999 123.2 53.9881 123.2 51.9999C123.2 50.0117 118.365 48.3999 112.4 48.3999C106.435 48.3999 101.6 50.0117 101.6 51.9999C101.6 53.9881 106.435 55.5999 112.4 55.5999Z" stroke="#F26DAA" stroke-width="2.4" stroke-linecap="round" stroke-linejoin="round"/>
<path d="M123.2 60.3999C123.2 62.3919 118.4 63.9999 112.4 63.9999C106.4 63.9999 101.6 62.3919 101.6 60.3999" stroke="#F26DAA" stroke-width="2.4" stroke-linecap="round" stroke-linejoin="round"/>
<path d="M101.6 52V68.8C101.6 70.792 106.4 72.4 112.4 72.4C118.4 72.4 123.2 70.792 123.2 68.8V52" stroke="#F26DAA" stroke-width="2.4" stroke-linecap="round" stroke-linejoin="round"/>
<g filter="url(#filter2_d_445_17478)">
<rect x="216" y="84" width="48" height="48" rx="9.6" transform="rotate(-180 216 84)" fill="#FCD5E9" fill-opacity="0.2" shape-rendering="crispEdges"/>
<rect x="216" y="84" width="48" height="48" rx="9.6" transform="rotate(-180 216 84)" stroke="#F26DAA" stroke-width="2.4" stroke-dasharray="4.8 4.8" shape-rendering="crispEdges"/>
</g>
<path d="M192.605 59.7961C192.543 59.6835 192.465 59.5799 192.375 59.4885L191.344 58.4711C191.238 58.3633 191.112 58.2761 190.975 58.2141C190.758 58.1174 190.516 58.0885 190.283 58.1314C190.049 58.1742 189.834 58.2868 189.665 58.4543C189.308 58.8063 188.653 59.4486 187.472 60.6155C185.213 62.8499 181.019 66.5948 179.122 68.192C179.027 68.272 178.949 68.3709 178.893 68.4825C178.838 68.5942 178.807 68.716 178.801 68.8405C178.795 68.9649 178.815 69.0892 178.86 69.2055C178.905 69.3218 178.973 69.4275 179.061 69.5159L181.254 71.7334C181.343 71.822 181.448 71.8914 181.565 71.9372C181.681 71.9829 181.806 72.0042 181.931 71.9995C182.056 71.9948 182.179 71.9642 182.291 71.9098C182.404 71.8554 182.504 71.7783 182.586 71.6833C184.23 69.7504 188.002 65.5533 190.235 63.3471C191.382 62.2189 192.025 61.571 192.389 61.2134C192.569 61.0298 192.687 60.7941 192.726 60.5397C192.765 60.2852 192.722 60.0251 192.605 59.7961ZM203.91 57.2091L201.98 55.297C201.951 55.2676 201.916 55.2445 201.877 55.2291C201.839 55.2137 201.797 55.2064 201.756 55.2076C201.714 55.2069 201.673 55.2144 201.634 55.2298C201.595 55.2451 201.56 55.268 201.531 55.297C201.461 55.3668 201.377 55.4197 201.283 55.4516C201.19 55.4835 201.091 55.4935 200.993 55.4809C200.741 55.4534 200.473 55.3752 200.3 55.2076C199.906 54.8218 200.361 54.0626 200.015 53.5767C199.619 53.0449 199.185 52.5427 198.717 52.074C198.32 51.6803 196.759 50.1917 194.13 49.1197C193.291 48.7761 192.393 48.5996 191.486 48.6001C190.004 48.6001 188.865 49.2615 188.449 49.6411C188.118 49.9403 187.774 50.4155 187.774 50.4155C187.973 50.343 188.176 50.2829 188.382 50.2355C188.812 50.1434 189.253 50.1152 189.692 50.1517C190.567 50.2243 191.621 50.6348 192.187 51.0791C193.099 51.8102 193.491 52.7882 193.552 54.0502C193.597 54.9888 192.696 56.1738 191.84 57.14C191.765 57.2249 191.725 57.3356 191.729 57.449C191.734 57.5624 191.781 57.6699 191.863 57.749L193.057 58.943C193.141 59.0252 193.252 59.0717 193.369 59.0728C193.486 59.0738 193.599 59.0293 193.684 58.9486C194.467 58.1888 195.433 57.3475 195.98 57.0106C196.527 56.6737 196.969 56.5787 197.181 56.5556C197.597 56.5153 198.016 56.6061 198.379 56.8155C198.442 56.8516 198.501 56.8967 198.552 56.9493C198.915 57.3182 198.893 57.9211 198.524 58.2844L198.411 58.3907C198.382 58.4195 198.359 58.4538 198.343 58.4917C198.327 58.5295 198.319 58.5701 198.319 58.6112C198.319 58.6522 198.327 58.6928 198.343 58.7307C198.359 58.7685 198.382 58.8029 198.411 58.8316L200.341 60.7438C200.371 60.7729 200.406 60.7958 200.444 60.8111C200.483 60.8264 200.524 60.8337 200.566 60.8326C200.65 60.8338 200.731 60.8019 200.791 60.7438L203.91 57.6591C203.968 57.5983 204 57.5178 204 57.4341C204 57.3504 203.968 57.2699 203.91 57.2091Z" stroke="#F26DAA" stroke-width="1.2" stroke-linecap="round" stroke-linejoin="round"/>
<g filter="url(#filter3_d_445_17478)">
<rect x="216" y="164" width="48" height="48" rx="9.6" transform="rotate(-180 216 164)" fill="#FCD5E9" fill-opacity="0.2" shape-rendering="crispEdges"/>
<rect x="216" y="164" width="48" height="48" rx="9.6" transform="rotate(-180 216 164)" stroke="#F26DAA" stroke-width="2.4" stroke-dasharray="4.8 4.8" shape-rendering="crispEdges"/>
</g>
<path d="M192.605 139.796C192.543 139.683 192.466 139.58 192.376 139.489L191.344 138.471C191.238 138.363 191.113 138.276 190.975 138.214C190.758 138.117 190.517 138.089 190.283 138.131C190.049 138.174 189.834 138.287 189.666 138.454C189.308 138.806 188.653 139.449 187.472 140.616C185.213 142.85 181.019 146.595 179.123 148.192C179.027 148.272 178.949 148.371 178.894 148.483C178.839 148.594 178.807 148.716 178.801 148.84C178.795 148.965 178.816 149.089 178.86 149.205C178.905 149.322 178.974 149.427 179.061 149.516L181.255 151.733C181.343 151.822 181.449 151.891 181.565 151.937C181.682 151.983 181.806 152.004 181.932 151.999C182.057 151.995 182.179 151.964 182.292 151.91C182.405 151.855 182.505 151.778 182.586 151.683C184.231 149.75 188.003 145.553 190.235 143.347C191.382 142.219 192.025 141.571 192.389 141.213C192.57 141.03 192.688 140.794 192.726 140.54C192.765 140.285 192.723 140.025 192.605 139.796ZM203.911 137.209L201.981 135.297C201.952 135.268 201.916 135.244 201.878 135.229C201.839 135.214 201.798 135.206 201.756 135.208C201.714 135.207 201.673 135.214 201.635 135.23C201.596 135.245 201.561 135.268 201.531 135.297C201.462 135.367 201.377 135.42 201.284 135.452C201.191 135.483 201.092 135.494 200.994 135.481C200.742 135.453 200.474 135.375 200.3 135.208C199.907 134.822 200.362 134.063 200.015 133.577C199.62 133.045 199.186 132.543 198.717 132.074C198.32 131.68 196.759 130.192 194.13 129.12C193.291 128.776 192.393 128.6 191.487 128.6C190.005 128.6 188.865 129.261 188.45 129.641C188.119 129.94 187.775 130.415 187.775 130.415C187.974 130.343 188.177 130.283 188.383 130.236C188.813 130.143 189.254 130.115 189.692 130.152C190.567 130.224 191.622 130.635 192.188 131.079C193.099 131.81 193.491 132.788 193.553 134.05C193.598 134.989 192.696 136.174 191.841 137.14C191.765 137.225 191.726 137.336 191.73 137.449C191.734 137.562 191.782 137.67 191.863 137.749L193.058 138.943C193.141 139.025 193.253 139.072 193.37 139.073C193.487 139.074 193.6 139.029 193.684 138.949C194.468 138.189 195.433 137.347 195.98 137.011C196.528 136.674 196.969 136.579 197.181 136.556C197.598 136.515 198.017 136.606 198.379 136.815C198.443 136.852 198.501 136.897 198.552 136.949C198.916 137.318 198.894 137.921 198.524 138.284L198.412 138.391C198.382 138.42 198.359 138.454 198.343 138.492C198.328 138.53 198.319 138.57 198.319 138.611C198.319 138.652 198.328 138.693 198.343 138.731C198.359 138.769 198.382 138.803 198.412 138.832L200.341 140.744C200.371 140.773 200.406 140.796 200.445 140.811C200.484 140.826 200.525 140.834 200.566 140.833C200.65 140.834 200.731 140.802 200.791 140.744L203.911 137.659C203.968 137.598 204 137.518 204 137.434C204 137.35 203.968 137.27 203.911 137.209Z" stroke="#F26DAA" stroke-width="1.2" stroke-linecap="round" stroke-linejoin="round"/>
<path d="M124.4 148.8C124.4 149.437 124.147 150.047 123.697 150.497C123.247 150.947 122.636 151.2 122 151.2H102.8C102.163 151.2 101.553 150.947 101.103 150.497C100.653 150.047 100.4 149.437 100.4 148.8V132C100.4 131.364 100.653 130.753 101.103 130.303C101.553 129.853 102.163 129.6 102.8 129.6H108.8L111.2 133.2H122C122.636 133.2 123.247 133.453 123.697 133.903C124.147 134.353 124.4 134.964 124.4 135.6V148.8Z" stroke="#F26DAA" stroke-width="2.4" stroke-linecap="round" stroke-linejoin="round"/>
<path d="M112.4 55.5999C118.365 55.5999 123.2 53.9881 123.2 51.9999C123.2 50.0117 118.365 48.3999 112.4 48.3999C106.435 48.3999 101.6 50.0117 101.6 51.9999C101.6 53.9881 106.435 55.5999 112.4 55.5999Z" stroke="#F26DAA" stroke-width="2.4" stroke-linecap="round" stroke-linejoin="round"/>
<path d="M123.2 60.3999C123.2 62.3919 118.4 63.9999 112.4 63.9999C106.4 63.9999 101.6 62.3919 101.6 60.3999" stroke="#F26DAA" stroke-width="2.4" stroke-linecap="round" stroke-linejoin="round"/>
<path d="M101.6 52V68.8C101.6 70.792 106.4 72.4 112.4 72.4C118.4 72.4 123.2 70.792 123.2 68.8V52" stroke="#F26DAA" stroke-width="2.4" stroke-linecap="round" stroke-linejoin="round"/>
<g filter="url(#filter4_d_445_17478)">
<rect x="216" y="84" width="48" height="48" rx="9.6" transform="rotate(-180 216 84)" fill="#FCD5E9" fill-opacity="0.2" shape-rendering="crispEdges"/>
<rect x="216" y="84" width="48" height="48" rx="9.6" transform="rotate(-180 216 84)" stroke="#F26DAA" stroke-width="2.4" stroke-dasharray="4.8 4.8" shape-rendering="crispEdges"/>
</g>
<path d="M278 59L219 59" stroke="url(#paint0_linear_445_17478)" stroke-width="2.4" stroke-linecap="round" stroke-dasharray="1 4"/>
<path d="M278 140H219" stroke="url(#paint1_linear_445_17478)" stroke-width="2.4" stroke-linecap="round" stroke-dasharray="1 4"/>
<path d="M192.605 59.7961C192.543 59.6835 192.465 59.5799 192.375 59.4885L191.344 58.4711C191.238 58.3633 191.112 58.2761 190.975 58.2141C190.758 58.1174 190.516 58.0885 190.283 58.1314C190.049 58.1742 189.834 58.2868 189.665 58.4543C189.308 58.8063 188.653 59.4486 187.472 60.6155C185.213 62.8499 181.019 66.5948 179.122 68.192C179.027 68.272 178.949 68.3709 178.893 68.4825C178.838 68.5942 178.807 68.716 178.801 68.8405C178.795 68.9649 178.815 69.0892 178.86 69.2055C178.905 69.3218 178.973 69.4275 179.061 69.5159L181.254 71.7334C181.343 71.822 181.448 71.8914 181.565 71.9372C181.681 71.9829 181.806 72.0042 181.931 71.9995C182.056 71.9948 182.179 71.9642 182.291 71.9098C182.404 71.8554 182.504 71.7783 182.586 71.6833C184.23 69.7504 188.002 65.5533 190.235 63.3471C191.382 62.2189 192.025 61.571 192.389 61.2134C192.569 61.0298 192.687 60.7941 192.726 60.5397C192.765 60.2852 192.722 60.0251 192.605 59.7961ZM203.91 57.2091L201.98 55.297C201.951 55.2676 201.916 55.2445 201.877 55.2291C201.839 55.2137 201.797 55.2064 201.756 55.2076C201.714 55.2069 201.673 55.2144 201.634 55.2298C201.595 55.2451 201.56 55.268 201.531 55.297C201.461 55.3668 201.377 55.4197 201.283 55.4516C201.19 55.4835 201.091 55.4935 200.993 55.4809C200.741 55.4534 200.473 55.3752 200.3 55.2076C199.906 54.8218 200.361 54.0626 200.015 53.5767C199.619 53.0449 199.185 52.5427 198.717 52.074C198.32 51.6803 196.759 50.1917 194.13 49.1197C193.291 48.7761 192.393 48.5996 191.486 48.6001C190.004 48.6001 188.865 49.2615 188.449 49.6411C188.118 49.9403 187.774 50.4155 187.774 50.4155C187.973 50.343 188.176 50.2829 188.382 50.2355C188.812 50.1434 189.253 50.1152 189.692 50.1517C190.567 50.2243 191.621 50.6348 192.187 51.0791C193.099 51.8102 193.491 52.7882 193.552 54.0502C193.597 54.9888 192.696 56.1738 191.84 57.14C191.765 57.2249 191.725 57.3356 191.729 57.449C191.734 57.5624 191.781 57.6699 191.863 57.749L193.057 58.943C193.141 59.0252 193.252 59.0717 193.369 59.0728C193.486 59.0738 193.599 59.0293 193.684 58.9486C194.467 58.1888 195.433 57.3475 195.98 57.0106C196.527 56.6737 196.969 56.5787 197.181 56.5556C197.597 56.5153 198.016 56.6061 198.379 56.8155C198.442 56.8516 198.501 56.8967 198.552 56.9493C198.915 57.3182 198.893 57.9211 198.524 58.2844L198.411 58.3907C198.382 58.4195 198.359 58.4538 198.343 58.4917C198.327 58.5295 198.319 58.5701 198.319 58.6112C198.319 58.6522 198.327 58.6928 198.343 58.7307C198.359 58.7685 198.382 58.8029 198.411 58.8316L200.341 60.7438C200.371 60.7729 200.406 60.7958 200.444 60.8111C200.483 60.8264 200.524 60.8337 200.566 60.8326C200.65 60.8338 200.731 60.8019 200.791 60.7438L203.91 57.6591C203.968 57.5983 204 57.5178 204 57.4341C204 57.3504 203.968 57.2699 203.91 57.2091Z" stroke="#F26DAA" stroke-width="1.2" stroke-linecap="round" stroke-linejoin="round"/>
<g filter="url(#filter5_d_445_17478)">
<rect x="216" y="164" width="48" height="48" rx="9.6" transform="rotate(-180 216 164)" fill="#FCD5E9" fill-opacity="0.2" shape-rendering="crispEdges"/>
<rect x="216" y="164" width="48" height="48" rx="9.6" transform="rotate(-180 216 164)" stroke="#F26DAA" stroke-width="2.4" stroke-dasharray="4.8 4.8" shape-rendering="crispEdges"/>
</g>
<path d="M192.605 139.796C192.543 139.683 192.466 139.58 192.376 139.489L191.344 138.471C191.238 138.363 191.113 138.276 190.975 138.214C190.758 138.117 190.517 138.089 190.283 138.131C190.049 138.174 189.834 138.287 189.666 138.454C189.308 138.806 188.653 139.449 187.472 140.616C185.213 142.85 181.019 146.595 179.123 148.192C179.027 148.272 178.949 148.371 178.894 148.483C178.839 148.594 178.807 148.716 178.801 148.84C178.795 148.965 178.816 149.089 178.86 149.205C178.905 149.322 178.974 149.427 179.061 149.516L181.255 151.733C181.343 151.822 181.449 151.891 181.565 151.937C181.682 151.983 181.806 152.004 181.932 151.999C182.057 151.995 182.179 151.964 182.292 151.91C182.405 151.855 182.505 151.778 182.586 151.683C184.231 149.75 188.003 145.553 190.235 143.347C191.382 142.219 192.025 141.571 192.389 141.213C192.57 141.03 192.688 140.794 192.726 140.54C192.765 140.285 192.723 140.025 192.605 139.796ZM203.911 137.209L201.981 135.297C201.952 135.268 201.916 135.244 201.878 135.229C201.839 135.214 201.798 135.206 201.756 135.208C201.714 135.207 201.673 135.214 201.635 135.23C201.596 135.245 201.561 135.268 201.531 135.297C201.462 135.367 201.377 135.42 201.284 135.452C201.191 135.483 201.092 135.494 200.994 135.481C200.742 135.453 200.474 135.375 200.3 135.208C199.907 134.822 200.362 134.063 200.015 133.577C199.62 133.045 199.186 132.543 198.717 132.074C198.32 131.68 196.759 130.192 194.13 129.12C193.291 128.776 192.393 128.6 191.487 128.6C190.005 128.6 188.865 129.261 188.45 129.641C188.119 129.94 187.775 130.415 187.775 130.415C187.974 130.343 188.177 130.283 188.383 130.236C188.813 130.143 189.254 130.115 189.692 130.152C190.567 130.224 191.622 130.635 192.188 131.079C193.099 131.81 193.491 132.788 193.553 134.05C193.598 134.989 192.696 136.174 191.841 137.14C191.765 137.225 191.726 137.336 191.73 137.449C191.734 137.562 191.782 137.67 191.863 137.749L193.058 138.943C193.141 139.025 193.253 139.072 193.37 139.073C193.487 139.074 193.6 139.029 193.684 138.949C194.468 138.189 195.433 137.347 195.98 137.011C196.528 136.674 196.969 136.579 197.181 136.556C197.598 136.515 198.017 136.606 198.379 136.815C198.443 136.852 198.501 136.897 198.552 136.949C198.916 137.318 198.894 137.921 198.524 138.284L198.412 138.391C198.382 138.42 198.359 138.454 198.343 138.492C198.328 138.53 198.319 138.57 198.319 138.611C198.319 138.652 198.328 138.693 198.343 138.731C198.359 138.769 198.382 138.803 198.412 138.832L200.341 140.744C200.371 140.773 200.406 140.796 200.445 140.811C200.484 140.826 200.525 140.834 200.566 140.833C200.65 140.834 200.731 140.802 200.791 140.744L203.911 137.659C203.968 137.598 204 137.518 204 137.434C204 137.35 203.968 137.27 203.911 137.209Z" stroke="#F26DAA" stroke-width="1.2" stroke-linecap="round" stroke-linejoin="round"/>
<path d="M124.4 148.8C124.4 149.437 124.147 150.047 123.697 150.497C123.247 150.947 122.636 151.2 122 151.2H102.8C102.163 151.2 101.553 150.947 101.103 150.497C100.653 150.047 100.4 149.437 100.4 148.8V132C100.4 131.364 100.653 130.753 101.103 130.303C101.553 129.853 102.163 129.6 102.8 129.6H108.8L111.2 133.2H122C122.636 133.2 123.247 133.453 123.697 133.903C124.147 134.353 124.4 134.964 124.4 135.6V148.8Z" stroke="#F26DAA" stroke-width="2.4" stroke-linecap="round" stroke-linejoin="round"/>
<g opacity="0.5">
<path d="M112 91L112 109" stroke="#F26DAA" stroke-width="2" stroke-linecap="round" stroke-linejoin="round"/>
<path d="M191 91L191 110" stroke="#F26DAA" stroke-width="2" stroke-linecap="round" stroke-linejoin="round"/>
<path d="M163 90L143 110" stroke="#F26DAA" stroke-width="2" stroke-linecap="round" stroke-linejoin="round"/>
<path d="M143 90L163 110" stroke="#F26DAA" stroke-width="2" stroke-linecap="round" stroke-linejoin="round"/>
<path d="M155 60L137 60" stroke="#F26DAA" stroke-width="2" stroke-linecap="round" stroke-linejoin="round"/>
<path d="M155 140L137 140" stroke="#F26DAA" stroke-width="2" stroke-linecap="round" stroke-linejoin="round"/>
</g>
</g>
<defs>
<filter id="filter0_d_445_17478" x="268.4" y="-4.8" width="115.2" height="115.2" filterUnits="userSpaceOnUse" color-interpolation-filters="sRGB">
<feFlood flood-opacity="0" result="BackgroundImageFix"/>
<feColorMatrix in="SourceAlpha" type="matrix" values="0 0 0 0 0 0 0 0 0 0 0 0 0 0 0 0 0 0 127 0" result="hardAlpha"/>
<feOffset dy="4.8"/>
<feGaussianBlur stdDeviation="4.8"/>
<feComposite in2="hardAlpha" operator="out"/>
<feColorMatrix type="matrix" values="0 0 0 0 0.8375 0 0 0 0 0.812375 0 0 0 0 0.774688 0 0 0 0.2 0"/>
<feBlend mode="normal" in2="BackgroundImageFix" result="effect1_dropShadow_445_17478"/>
<feBlend mode="normal" in="SourceGraphic" in2="effect1_dropShadow_445_17478" result="shape"/>
</filter>
<filter id="filter1_d_445_17478" x="268.4" y="99.2" width="115.2" height="115.2" filterUnits="userSpaceOnUse" color-interpolation-filters="sRGB">
<feFlood flood-opacity="0" result="BackgroundImageFix"/>
<feColorMatrix in="SourceAlpha" type="matrix" values="0 0 0 0 0 0 0 0 0 0 0 0 0 0 0 0 0 0 127 0" result="hardAlpha"/>
<feOffset dy="4.8"/>
<feGaussianBlur stdDeviation="4.8"/>
<feComposite in2="hardAlpha" operator="out"/>
<feColorMatrix type="matrix" values="0 0 0 0 0.8375 0 0 0 0 0.812375 0 0 0 0 0.774688 0 0 0 0.2 0"/>
<feBlend mode="normal" in2="BackgroundImageFix" result="effect1_dropShadow_445_17478"/>
<feBlend mode="normal" in="SourceGraphic" in2="effect1_dropShadow_445_17478" result="shape"/>
</filter>
<filter id="filter2_d_445_17478" x="157.2" y="29.9998" width="69.6004" height="69.6004" filterUnits="userSpaceOnUse" color-interpolation-filters="sRGB">
<feFlood flood-opacity="0" result="BackgroundImageFix"/>
<feColorMatrix in="SourceAlpha" type="matrix" values="0 0 0 0 0 0 0 0 0 0 0 0 0 0 0 0 0 0 127 0" result="hardAlpha"/>
<feOffset dy="4.8"/>
<feGaussianBlur stdDeviation="4.8"/>
<feComposite in2="hardAlpha" operator="out"/>
<feColorMatrix type="matrix" values="0 0 0 0 0.8375 0 0 0 0 0.812375 0 0 0 0 0.774688 0 0 0 0.2 0"/>
<feBlend mode="normal" in2="BackgroundImageFix" result="effect1_dropShadow_445_17478"/>
<feBlend mode="normal" in="SourceGraphic" in2="effect1_dropShadow_445_17478" result="shape"/>
</filter>
<filter id="filter3_d_445_17478" x="157.2" y="110" width="69.6004" height="69.6004" filterUnits="userSpaceOnUse" color-interpolation-filters="sRGB">
<feFlood flood-opacity="0" result="BackgroundImageFix"/>
<feColorMatrix in="SourceAlpha" type="matrix" values="0 0 0 0 0 0 0 0 0 0 0 0 0 0 0 0 0 0 127 0" result="hardAlpha"/>
<feOffset dy="4.8"/>
<feGaussianBlur stdDeviation="4.8"/>
<feComposite in2="hardAlpha" operator="out"/>
<feColorMatrix type="matrix" values="0 0 0 0 0.8375 0 0 0 0 0.812375 0 0 0 0 0.774688 0 0 0 0.2 0"/>
<feBlend mode="normal" in2="BackgroundImageFix" result="effect1_dropShadow_445_17478"/>
<feBlend mode="normal" in="SourceGraphic" in2="effect1_dropShadow_445_17478" result="shape"/>
</filter>
<filter id="filter4_d_445_17478" x="157.2" y="29.9998" width="69.6004" height="69.6004" filterUnits="userSpaceOnUse" color-interpolation-filters="sRGB">
<feFlood flood-opacity="0" result="BackgroundImageFix"/>
<feColorMatrix in="SourceAlpha" type="matrix" values="0 0 0 0 0 0 0 0 0 0 0 0 0 0 0 0 0 0 127 0" result="hardAlpha"/>
<feOffset dy="4.8"/>
<feGaussianBlur stdDeviation="4.8"/>
<feComposite in2="hardAlpha" operator="out"/>
<feColorMatrix type="matrix" values="0 0 0 0 0.8375 0 0 0 0 0.812375 0 0 0 0 0.774688 0 0 0 0.2 0"/>
<feBlend mode="normal" in2="BackgroundImageFix" result="effect1_dropShadow_445_17478"/>
<feBlend mode="normal" in="SourceGraphic" in2="effect1_dropShadow_445_17478" result="shape"/>
</filter>
<filter id="filter5_d_445_17478" x="157.2" y="110" width="69.6004" height="69.6004" filterUnits="userSpaceOnUse" color-interpolation-filters="sRGB">
<feFlood flood-opacity="0" result="BackgroundImageFix"/>
<feColorMatrix in="SourceAlpha" type="matrix" values="0 0 0 0 0 0 0 0 0 0 0 0 0 0 0 0 0 0 127 0" result="hardAlpha"/>
<feOffset dy="4.8"/>
<feGaussianBlur stdDeviation="4.8"/>
<feComposite in2="hardAlpha" operator="out"/>
<feColorMatrix type="matrix" values="0 0 0 0 0.8375 0 0 0 0 0.812375 0 0 0 0 0.774688 0 0 0 0.2 0"/>
<feBlend mode="normal" in2="BackgroundImageFix" result="effect1_dropShadow_445_17478"/>
<feBlend mode="normal" in="SourceGraphic" in2="effect1_dropShadow_445_17478" result="shape"/>
</filter>
<linearGradient id="paint0_linear_445_17478" x1="278" y1="60.4394" x2="229.965" y2="60.4392" gradientUnits="userSpaceOnUse">
<stop stop-color="#C6C9CE"/>
<stop offset="1" stop-color="#F26DAA"/>
</linearGradient>
<linearGradient id="paint1_linear_445_17478" x1="277.119" y1="151.515" x2="229.801" y2="151.515" gradientUnits="userSpaceOnUse">
<stop stop-color="#C6C9CE"/>
<stop offset="1" stop-color="#F26DAA"/>
</linearGradient>
<clipPath id="clip0_445_17478">
<rect width="374" height="200" fill="white"/>
</clipPath>
</defs>
</svg>
