<svg width="304" height="174" viewBox="0 0 304 174" fill="none" xmlns="http://www.w3.org/2000/svg">
<g clip-path="url(#clip0_525_18702)">
<path d="M159.224 172.624V170.224C159.224 168.951 158.719 167.731 157.819 166.83C156.918 165.93 155.697 165.424 154.424 165.424H144.824C143.551 165.424 142.33 165.93 141.43 166.83C140.53 167.731 140.024 168.951 140.024 170.224V172.624" stroke="#F26DAA" stroke-width="2.4" stroke-linecap="round" stroke-linejoin="round"/>
<path d="M149.624 160.625C152.275 160.625 154.424 158.476 154.424 155.825C154.424 153.174 152.275 151.025 149.624 151.025C146.973 151.025 144.824 153.174 144.824 155.825C144.824 158.476 146.973 160.625 149.624 160.625Z" stroke="#F26DAA" stroke-width="2.4" stroke-linecap="round" stroke-linejoin="round"/>
<path d="M257 94.0245L257 109.025C257 113.443 253.418 117.025 249 117.025L171 117.025C166.582 117.025 163 120.606 163 125.025L163 140.025" stroke="url(#paint0_linear_525_18702)" stroke-width="2" stroke-linecap="round" stroke-dasharray="1 4"/>
<path d="M45 94.0245L45 109.025C45 113.443 48.5817 117.025 53 117.025L129 117.025C133.418 117.025 137 120.606 137 125.025L137 140.025" stroke="url(#paint1_linear_525_18702)" stroke-width="2" stroke-linecap="round" stroke-dasharray="1 4"/>
<path d="M149.641 94.0245L149.641 139.54" stroke="url(#paint2_linear_525_18702)" stroke-width="2" stroke-linecap="round" stroke-dasharray="1 4"/>
<g filter="url(#filter0_d_525_18702)">
<rect x="104" y="97" width="96" height="96" rx="9.6" transform="rotate(-90 104 97)" fill="#FBFCFC"/>
<rect x="105.2" y="95.8" width="93.6" height="93.6" rx="8.4" transform="rotate(-90 105.2 95.8)" stroke="#C6C9CE" stroke-width="2.4"/>
</g>
<path d="M153.809 46.7922C153.685 46.5669 153.531 46.3598 153.35 46.177L151.287 44.1422C151.075 43.9265 150.825 43.7522 150.549 43.6282C150.115 43.4347 149.633 43.377 149.165 43.4627C148.698 43.5484 148.268 43.7735 147.931 44.1085C147.215 44.8126 145.906 46.0971 143.543 48.431C139.026 52.8998 130.638 60.3896 126.845 63.584C126.653 63.7439 126.498 63.9418 126.387 64.165C126.276 64.3883 126.213 64.6321 126.202 64.881C126.19 65.1299 126.23 65.3784 126.32 65.611C126.41 65.8435 126.546 66.0549 126.722 66.2317L131.109 70.6667C131.286 70.8439 131.497 70.9827 131.73 71.0743C131.963 71.1658 132.212 71.2083 132.462 71.1989C132.712 71.1895 132.958 71.1284 133.183 71.0196C133.408 70.9108 133.609 70.7566 133.772 70.5666C137.061 66.7008 144.604 58.3066 149.07 53.8941C151.364 51.6378 152.649 50.342 153.377 49.6267C153.738 49.2596 153.974 48.7882 154.052 48.2793C154.129 47.7704 154.044 47.2501 153.809 46.7922ZM176.421 41.6182L172.561 37.794C172.502 37.7351 172.432 37.6889 172.355 37.6582C172.277 37.6274 172.194 37.6128 172.111 37.6152C172.028 37.6138 171.945 37.6288 171.868 37.6595C171.791 37.6902 171.721 37.7359 171.661 37.794C171.522 37.9336 171.353 38.0394 171.167 38.1031C170.981 38.1669 170.782 38.187 170.587 38.1618C170.083 38.1067 169.546 37.9503 169.2 37.6152C168.412 36.8436 169.323 35.3251 168.63 34.3533C167.838 33.2898 166.971 32.2854 166.033 31.3479C165.239 30.5606 162.118 27.5833 156.86 25.4394C155.182 24.7521 153.386 24.3991 151.573 24.4001C148.609 24.4001 146.33 25.7229 145.499 26.4821C144.837 27.0805 144.149 28.0309 144.149 28.0309C144.546 27.886 144.952 27.7658 145.365 27.671C146.225 27.4867 147.107 27.4303 147.983 27.5034C149.734 27.6485 151.843 28.4696 152.975 29.3582C154.798 30.8204 155.582 32.7764 155.705 35.3004C155.795 37.1776 153.991 39.5475 152.28 41.4799C152.13 41.6498 152.051 41.8711 152.059 42.098C152.067 42.3248 152.163 42.5397 152.325 42.698L154.715 45.0859C154.881 45.2503 155.105 45.3434 155.339 45.3455C155.573 45.3476 155.798 45.2585 155.968 45.0972C157.535 43.5776 159.465 41.8949 160.56 41.2212C161.654 40.5475 162.537 40.3574 162.961 40.3112C163.795 40.2306 164.632 40.4122 165.357 40.8309C165.485 40.9031 165.602 40.9933 165.704 41.0986C166.43 41.8364 166.387 43.0422 165.648 43.7688L165.423 43.9814C165.364 44.039 165.318 44.1076 165.286 44.1833C165.254 44.259 165.238 44.3402 165.238 44.4223C165.238 44.5044 165.254 44.5856 165.286 44.6613C165.318 44.737 165.364 44.8057 165.423 44.8632L169.282 48.6875C169.341 48.7458 169.412 48.7916 169.489 48.8221C169.566 48.8527 169.649 48.8673 169.732 48.8652C169.9 48.8676 170.061 48.8037 170.182 48.6875L176.421 42.5181C176.536 42.3965 176.6 42.2355 176.6 42.0681C176.6 41.9008 176.536 41.7398 176.421 41.6182Z" stroke="#888E99" stroke-width="2.4" stroke-linecap="round" stroke-linejoin="round"/>
<g filter="url(#filter1_d_525_18702)">
<rect x="208" y="97" width="96" height="96" rx="9.6" transform="rotate(-90 208 97)" fill="#FBFCFC"/>
<rect x="209.2" y="95.8" width="93.6" height="93.6" rx="8.4" transform="rotate(-90 209.2 95.8)" stroke="#C6C9CE" stroke-width="2.4"/>
</g>
<path d="M257.809 46.7922C257.685 46.5669 257.531 46.3598 257.35 46.177L255.287 44.1422C255.075 43.9265 254.825 43.7522 254.549 43.6282C254.115 43.4347 253.633 43.377 253.165 43.4627C252.698 43.5484 252.268 43.7735 251.931 44.1085C251.215 44.8126 249.906 46.0971 247.543 48.431C243.026 52.8998 234.638 60.3896 230.845 63.584C230.653 63.7439 230.498 63.9418 230.387 64.165C230.276 64.3883 230.213 64.6321 230.202 64.881C230.19 65.1299 230.23 65.3784 230.32 65.611C230.41 65.8435 230.546 66.0549 230.722 66.2317L235.109 70.6667C235.286 70.8439 235.497 70.9827 235.73 71.0743C235.963 71.1658 236.212 71.2083 236.462 71.1989C236.712 71.1895 236.958 71.1284 237.183 71.0196C237.408 70.9108 237.609 70.7566 237.772 70.5666C241.061 66.7008 248.604 58.3066 253.07 53.8941C255.364 51.6378 256.649 50.342 257.377 49.6267C257.738 49.2596 257.974 48.7882 258.052 48.2793C258.129 47.7704 258.044 47.2501 257.809 46.7922ZM280.421 41.6182L276.561 37.794C276.502 37.7351 276.432 37.6889 276.355 37.6582C276.277 37.6274 276.194 37.6128 276.111 37.6152C276.028 37.6138 275.945 37.6288 275.868 37.6595C275.791 37.6902 275.721 37.7359 275.661 37.794C275.522 37.9336 275.353 38.0394 275.167 38.1031C274.981 38.1669 274.782 38.187 274.587 38.1618C274.083 38.1067 273.546 37.9503 273.2 37.6152C272.412 36.8436 273.323 35.3251 272.63 34.3533C271.838 33.2898 270.971 32.2854 270.033 31.3479C269.239 30.5606 266.118 27.5833 260.86 25.4394C259.182 24.7521 257.386 24.3991 255.573 24.4001C252.609 24.4001 250.33 25.7229 249.499 26.4821C248.837 27.0805 248.149 28.0309 248.149 28.0309C248.546 27.886 248.952 27.7658 249.365 27.671C250.225 27.4867 251.107 27.4303 251.983 27.5034C253.734 27.6485 255.843 28.4696 256.975 29.3582C258.798 30.8204 259.582 32.7764 259.705 35.3004C259.795 37.1776 257.991 39.5475 256.28 41.4799C256.13 41.6498 256.051 41.8711 256.059 42.098C256.067 42.3248 256.163 42.5397 256.325 42.698L258.715 45.0859C258.881 45.2503 259.105 45.3434 259.339 45.3455C259.573 45.3476 259.798 45.2585 259.968 45.0972C261.535 43.5776 263.465 41.8949 264.56 41.2212C265.654 40.5474 266.537 40.3574 266.961 40.3112C267.795 40.2306 268.632 40.4122 269.357 40.8309C269.485 40.9031 269.602 40.9933 269.704 41.0986C270.43 41.8364 270.387 43.0422 269.648 43.7688L269.423 43.9814C269.364 44.039 269.318 44.1076 269.286 44.1833C269.254 44.259 269.238 44.3402 269.238 44.4223C269.238 44.5044 269.254 44.5856 269.286 44.6613C269.318 44.737 269.364 44.8057 269.423 44.8632L273.282 48.6875C273.341 48.7458 273.412 48.7916 273.489 48.8221C273.566 48.8527 273.649 48.8673 273.732 48.8652C273.9 48.8676 274.061 48.8037 274.182 48.6875L280.421 42.5181C280.536 42.3965 280.6 42.2355 280.6 42.0681C280.6 41.9008 280.536 41.7398 280.421 41.6182Z" stroke="#888E99" stroke-width="2.4" stroke-linecap="round" stroke-linejoin="round"/>
<g filter="url(#filter2_d_525_18702)">
<rect y="97" width="96" height="96" rx="9.6" transform="rotate(-90 0 97)" fill="#FBFCFC"/>
<rect x="1.2" y="95.8" width="93.6" height="93.6" rx="8.4" transform="rotate(-90 1.2 95.8)" stroke="#C6C9CE" stroke-width="2.4"/>
</g>
<path d="M49.8092 46.7922C49.6854 46.5669 49.531 46.3598 49.3502 46.177L47.2872 44.1422C47.0753 43.9265 46.8251 43.7522 46.5493 43.6282C46.1153 43.4347 45.6329 43.377 45.1655 43.4627C44.6981 43.5484 44.2676 43.7735 43.9305 44.1085C43.2151 44.8126 41.9057 46.0971 39.5435 48.431C35.0259 52.8998 26.6376 60.3896 22.8445 63.584C22.6534 63.7439 22.4976 63.9418 22.3869 64.165C22.2763 64.3883 22.2132 64.6321 22.2016 64.881C22.1901 65.1299 22.2304 65.3784 22.32 65.611C22.4095 65.8435 22.5464 66.0549 22.7219 66.2317L27.109 70.6667C27.2856 70.8439 27.497 70.9827 27.7299 71.0743C27.9628 71.1658 28.2121 71.2083 28.4622 71.1989C28.7122 71.1895 28.9576 71.1284 29.183 71.0196C29.4083 70.9108 29.6087 70.7566 29.7716 70.5666C33.0607 66.7008 40.6042 58.3066 45.07 53.8941C47.3637 51.6378 48.6494 50.342 49.3772 49.6267C49.7382 49.2596 49.9742 48.7882 50.0518 48.2793C50.1293 47.7704 50.0444 47.2501 49.8092 46.7922ZM72.4206 41.6182L68.5611 37.794C68.5022 37.7351 68.4319 37.6889 68.3545 37.6582C68.2772 37.6274 68.1944 37.6128 68.1111 37.6152C68.028 37.6138 67.9455 37.6288 67.8682 37.6595C67.791 37.6902 67.7206 37.7359 67.6612 37.794C67.5223 37.9336 67.3532 38.0394 67.1669 38.1031C66.9806 38.1669 66.7822 38.187 66.5869 38.1618C66.083 38.1067 65.5464 37.9503 65.1999 37.6152C64.4125 36.8436 65.3225 35.3251 64.6296 34.3533C63.8383 33.2898 62.9705 32.2854 62.0334 31.3479C61.2392 30.5606 58.1176 27.5833 52.8599 25.4394C51.182 24.7521 49.3861 24.3991 47.5729 24.4001C44.6088 24.4001 42.3298 25.7229 41.4985 26.4821C40.8371 27.0805 40.1487 28.0309 40.1487 28.0309C40.5462 27.886 40.9523 27.7658 41.3647 27.671C42.2246 27.4867 43.107 27.4303 43.9834 27.5034C45.7337 27.6485 47.8429 28.4696 48.9745 29.3582C50.798 30.8204 51.582 32.7764 51.7046 35.3004C51.7946 37.1776 49.9914 39.5475 48.2805 41.4799C48.1299 41.6498 48.0506 41.8711 48.059 42.098C48.0674 42.3248 48.1628 42.5397 48.3255 42.698L50.7147 45.0859C50.8812 45.2503 51.1051 45.3434 51.339 45.3455C51.5729 45.3476 51.7985 45.2585 51.9679 45.0972C53.5348 43.5776 55.4651 41.8949 56.5597 41.2212C57.6542 40.5474 58.5372 40.3574 58.9613 40.3112C59.7946 40.2306 60.6323 40.4122 61.3573 40.8309C61.485 40.9031 61.6017 40.9933 61.7038 41.0986C62.4304 41.8364 62.3866 43.0422 61.6475 43.7688L61.4225 43.9814C61.364 44.039 61.3176 44.1076 61.2859 44.1833C61.2542 44.259 61.2378 44.3402 61.2378 44.4223C61.2378 44.5044 61.2542 44.5856 61.2859 44.6613C61.3176 44.737 61.364 44.8057 61.4225 44.8632L65.282 48.6875C65.3413 48.7458 65.4116 48.7916 65.4889 48.8221C65.5662 48.8527 65.6489 48.8673 65.732 48.8652C65.8995 48.8676 66.0613 48.8037 66.1819 48.6875L72.4206 42.5181C72.5356 42.3965 72.5997 42.2355 72.5997 42.0681C72.5997 41.9008 72.5356 41.7398 72.4206 41.6182Z" stroke="#888E99" stroke-width="2.4" stroke-linecap="round" stroke-linejoin="round"/>
</g>
<defs>
<filter id="filter0_d_525_18702" x="94.4" y="-3.8" width="115.2" height="115.2" filterUnits="userSpaceOnUse" color-interpolation-filters="sRGB">
<feFlood flood-opacity="0" result="BackgroundImageFix"/>
<feColorMatrix in="SourceAlpha" type="matrix" values="0 0 0 0 0 0 0 0 0 0 0 0 0 0 0 0 0 0 127 0" result="hardAlpha"/>
<feOffset dy="4.8"/>
<feGaussianBlur stdDeviation="4.8"/>
<feComposite in2="hardAlpha" operator="out"/>
<feColorMatrix type="matrix" values="0 0 0 0 0.8375 0 0 0 0 0.812375 0 0 0 0 0.774688 0 0 0 0.2 0"/>
<feBlend mode="normal" in2="BackgroundImageFix" result="effect1_dropShadow_525_18702"/>
<feBlend mode="normal" in="SourceGraphic" in2="effect1_dropShadow_525_18702" result="shape"/>
</filter>
<filter id="filter1_d_525_18702" x="198.4" y="-3.8" width="115.2" height="115.2" filterUnits="userSpaceOnUse" color-interpolation-filters="sRGB">
<feFlood flood-opacity="0" result="BackgroundImageFix"/>
<feColorMatrix in="SourceAlpha" type="matrix" values="0 0 0 0 0 0 0 0 0 0 0 0 0 0 0 0 0 0 127 0" result="hardAlpha"/>
<feOffset dy="4.8"/>
<feGaussianBlur stdDeviation="4.8"/>
<feComposite in2="hardAlpha" operator="out"/>
<feColorMatrix type="matrix" values="0 0 0 0 0.8375 0 0 0 0 0.812375 0 0 0 0 0.774688 0 0 0 0.2 0"/>
<feBlend mode="normal" in2="BackgroundImageFix" result="effect1_dropShadow_525_18702"/>
<feBlend mode="normal" in="SourceGraphic" in2="effect1_dropShadow_525_18702" result="shape"/>
</filter>
<filter id="filter2_d_525_18702" x="-9.6" y="-3.8" width="115.2" height="115.2" filterUnits="userSpaceOnUse" color-interpolation-filters="sRGB">
<feFlood flood-opacity="0" result="BackgroundImageFix"/>
<feColorMatrix in="SourceAlpha" type="matrix" values="0 0 0 0 0 0 0 0 0 0 0 0 0 0 0 0 0 0 127 0" result="hardAlpha"/>
<feOffset dy="4.8"/>
<feGaussianBlur stdDeviation="4.8"/>
<feComposite in2="hardAlpha" operator="out"/>
<feColorMatrix type="matrix" values="0 0 0 0 0.8375 0 0 0 0 0.812375 0 0 0 0 0.774688 0 0 0 0.2 0"/>
<feBlend mode="normal" in2="BackgroundImageFix" result="effect1_dropShadow_525_18702"/>
<feBlend mode="normal" in="SourceGraphic" in2="effect1_dropShadow_525_18702" result="shape"/>
</filter>
<linearGradient id="paint0_linear_525_18702" x1="298.301" y1="94.0245" x2="298.301" y2="131.476" gradientUnits="userSpaceOnUse">
<stop offset="0.0104167" stop-color="#C6C9CE"/>
<stop offset="1" stop-color="#F26DAA"/>
</linearGradient>
<linearGradient id="paint1_linear_525_18702" x1="4.57733" y1="94.0245" x2="4.57733" y2="131.476" gradientUnits="userSpaceOnUse">
<stop offset="0.0104167" stop-color="#C6C9CE"/>
<stop offset="1" stop-color="#F26DAA"/>
</linearGradient>
<linearGradient id="paint2_linear_525_18702" x1="150.08" y1="94.0245" x2="150.08" y2="131.082" gradientUnits="userSpaceOnUse">
<stop offset="0.0104167" stop-color="#C6C9CE"/>
<stop offset="1" stop-color="#F26DAA"/>
</linearGradient>
<clipPath id="clip0_525_18702">
<rect width="304" height="174" fill="white"/>
</clipPath>
</defs>
</svg>
