<svg width="405" height="216" viewBox="0 0 405 216" fill="none" xmlns="http://www.w3.org/2000/svg">
<g clip-path="url(#clip0_445_17371)">
<rect width="405" height="216" fill="white"/>
<path d="M19.2 41.5999V39.1999C19.2 37.9269 18.6943 36.706 17.7941 35.8058C16.8939 34.9056 15.673 34.3999 14.4 34.3999H4.8C3.52696 34.3999 2.30606 34.9056 1.40589 35.8058C0.505713 36.706 0 37.9269 0 39.1999V41.5999" stroke="#F26DAA" stroke-width="2.4" stroke-linecap="round" stroke-linejoin="round"/>
<path d="M9.5998 29.6C12.2508 29.6 14.3998 27.451 14.3998 24.8C14.3998 22.149 12.2508 20 9.5998 20C6.94884 20 4.7998 22.149 4.7998 24.8C4.7998 27.451 6.94884 29.6 9.5998 29.6Z" stroke="#F26DAA" stroke-width="2.4" stroke-linecap="round" stroke-linejoin="round"/>
<path d="M19.2488 118.6V116.2C19.2488 114.927 18.7431 113.706 17.8429 112.806C16.9428 111.906 15.7219 111.4 14.4488 111.4H4.84883C3.57579 111.4 2.35489 111.906 1.45472 112.806C0.554541 113.706 0.0488281 114.927 0.0488281 116.2V118.6" stroke="#F26DAA" stroke-width="2.4" stroke-linecap="round" stroke-linejoin="round"/>
<path d="M9.64863 106.6C12.2996 106.6 14.4486 104.451 14.4486 101.8C14.4486 99.149 12.2996 97 9.64863 97C6.99767 97 4.84863 99.149 4.84863 101.8C4.84863 104.451 6.99767 106.6 9.64863 106.6Z" stroke="#F26DAA" stroke-width="2.4" stroke-linecap="round" stroke-linejoin="round"/>
<path d="M19.2488 195.6V193.2C19.2488 191.927 18.7431 190.706 17.8429 189.806C16.9428 188.906 15.7219 188.4 14.4488 188.4H4.84883C3.57579 188.4 2.35489 188.906 1.45472 189.806C0.554541 190.706 0.0488281 191.927 0.0488281 193.2V195.6" stroke="#F26DAA" stroke-width="2.4" stroke-linecap="round" stroke-linejoin="round"/>
<path d="M9.64863 183.6C12.2996 183.6 14.4486 181.451 14.4486 178.8C14.4486 176.149 12.2996 174 9.64863 174C6.99767 174 4.84863 176.149 4.84863 178.8C4.84863 181.451 6.99767 183.6 9.64863 183.6Z" stroke="#F26DAA" stroke-width="2.4" stroke-linecap="round" stroke-linejoin="round"/>
<g filter="url(#filter0_d_445_17371)">
<path d="M37 35H51" stroke="#F26DAA" stroke-width="2" stroke-linecap="round" stroke-dasharray="1 4"/>
</g>
<g filter="url(#filter1_d_445_17371)">
<path d="M35 186.8H51" stroke="#F26DAA" stroke-width="2" stroke-linecap="round" stroke-dasharray="1 4"/>
</g>
<g filter="url(#filter2_d_445_17371)">
<path d="M35 110.4H51" stroke="#F26DAA" stroke-width="2" stroke-linecap="round" stroke-dasharray="1 4"/>
</g>
<g filter="url(#filter3_d_445_17371)">
<rect x="405" y="158" width="96" height="96" rx="9.6" transform="rotate(-180 405 158)" fill="#FBFCFC"/>
<rect x="403.8" y="156.8" width="93.6" height="93.6" rx="8.4" transform="rotate(-180 403.8 156.8)" stroke="#C6C9CE" stroke-width="2.4"/>
</g>
<path d="M358.21 109.592C358.086 109.367 357.931 109.16 357.751 108.977L355.688 106.942C355.476 106.727 355.225 106.552 354.95 106.428C354.516 106.235 354.033 106.177 353.566 106.263C353.098 106.348 352.668 106.574 352.331 106.909C351.615 107.613 350.306 108.897 347.944 111.231C343.426 115.7 335.038 123.19 331.245 126.384C331.054 126.544 330.898 126.742 330.787 126.965C330.677 127.188 330.614 127.432 330.602 127.681C330.59 127.93 330.631 128.178 330.72 128.411C330.81 128.644 330.947 128.855 331.122 129.032L335.509 133.467C335.686 133.644 335.897 133.783 336.13 133.874C336.363 133.966 336.612 134.008 336.863 133.999C337.113 133.99 337.358 133.928 337.583 133.82C337.809 133.711 338.009 133.557 338.172 133.367C341.461 129.501 349.005 121.107 353.47 116.694C355.764 114.438 357.05 113.142 357.778 112.427C358.139 112.06 358.375 111.588 358.452 111.079C358.53 110.57 358.445 110.05 358.21 109.592ZM380.821 104.418L376.961 100.594C376.903 100.535 376.832 100.489 376.755 100.458C376.678 100.427 376.595 100.413 376.512 100.415C376.428 100.414 376.346 100.429 376.269 100.46C376.191 100.49 376.121 100.536 376.062 100.594C375.923 100.734 375.754 100.839 375.567 100.903C375.381 100.967 375.183 100.987 374.987 100.962C374.483 100.907 373.947 100.75 373.6 100.415C372.813 99.6436 373.723 98.1252 373.03 97.1534C372.239 96.0899 371.371 95.0854 370.434 94.1479C369.64 93.3606 366.518 90.3833 361.26 88.2395C359.582 87.5522 357.786 87.1991 355.973 87.2002C353.009 87.2002 350.73 88.5229 349.899 89.2822C349.237 89.8805 348.549 90.831 348.549 90.831C348.947 90.6861 349.353 90.5659 349.765 90.471C350.625 90.2868 351.507 90.2303 352.384 90.3035C354.134 90.4486 356.243 91.2696 357.375 92.1582C359.198 93.6204 359.982 95.5764 360.105 98.1004C360.195 99.9777 358.392 102.348 356.681 104.28C356.53 104.45 356.451 104.671 356.459 104.898C356.468 105.125 356.563 105.34 356.726 105.498L359.115 107.886C359.282 108.05 359.505 108.143 359.739 108.146C359.973 108.148 360.199 108.059 360.368 107.897C361.935 106.378 363.866 104.695 364.96 104.021C366.055 103.347 366.938 103.157 367.362 103.111C368.195 103.031 369.033 103.212 369.758 103.631C369.885 103.703 370.002 103.793 370.104 103.899C370.831 104.636 370.787 105.842 370.048 106.569L369.823 106.781C369.764 106.839 369.718 106.908 369.686 106.983C369.655 107.059 369.638 107.14 369.638 107.222C369.638 107.304 369.655 107.386 369.686 107.461C369.718 107.537 369.764 107.606 369.823 107.663L373.682 111.488C373.742 111.546 373.812 111.592 373.889 111.622C373.967 111.653 374.049 111.667 374.132 111.665C374.3 111.668 374.462 111.604 374.582 111.488L380.821 105.318C380.936 105.197 381 105.036 381 104.868C381 104.701 380.936 104.54 380.821 104.418Z" stroke="#888E99" stroke-width="2.4" stroke-linecap="round" stroke-linejoin="round"/>
<path d="M215 31H254.5C258.918 31 262.5 34.5817 262.5 39V82C262.5 86.4183 266.082 90 270.5 90H310" stroke="url(#paint0_linear_445_17371)" stroke-width="2" stroke-linecap="round" stroke-dasharray="1 4"/>
<path d="M215 187H254.5C258.918 187 262.5 183.418 262.5 179V138C262.5 133.582 266.082 130 270.5 130H310" stroke="url(#paint1_linear_445_17371)" stroke-width="2" stroke-linecap="round" stroke-dasharray="1 4"/>
<path d="M215 110L309 110" stroke="url(#paint2_linear_445_17371)" stroke-width="2" stroke-linecap="round" stroke-dasharray="1 4"/>
<rect x="234.8" y="62.8" width="182.6" height="61.6" rx="8.4" transform="rotate(-180 234.8 62.8)" fill="#FCD5E9" fill-opacity="0.2" stroke="#F68AC3" stroke-width="2.4"/>
<g filter="url(#filter4_d_445_17371)">
<rect x="215" y="56" width="48" height="48" rx="9.6" transform="rotate(-180 215 56)" fill="#FCD5E9" fill-opacity="0.2" shape-rendering="crispEdges"/>
<rect x="215" y="56" width="48" height="48" rx="9.6" transform="rotate(-180 215 56)" stroke="#F26DAA" stroke-width="2.4" stroke-dasharray="4.8 4.8" shape-rendering="crispEdges"/>
</g>
<path d="M191.605 31.7961C191.543 31.6835 191.465 31.5799 191.375 31.4885L190.344 30.4711C190.238 30.3633 190.112 30.2761 189.975 30.2141C189.758 30.1174 189.516 30.0885 189.283 30.1314C189.049 30.1742 188.834 30.2868 188.665 30.4543C188.308 30.8063 187.653 31.4486 186.472 32.6155C184.213 34.8499 180.019 38.5948 178.122 40.192C178.027 40.272 177.949 40.3709 177.893 40.4825C177.838 40.5942 177.807 40.716 177.801 40.8405C177.795 40.9649 177.815 41.0892 177.86 41.2055C177.905 41.3218 177.973 41.4275 178.061 41.5159L180.254 43.7334C180.343 43.822 180.448 43.8914 180.565 43.9372C180.681 43.9829 180.806 44.0042 180.931 43.9995C181.056 43.9948 181.179 43.9642 181.291 43.9098C181.404 43.8554 181.504 43.7783 181.586 43.6833C183.23 41.7504 187.002 37.5533 189.235 35.3471C190.382 34.2189 191.025 33.571 191.389 33.2134C191.569 33.0298 191.687 32.7941 191.726 32.5397C191.765 32.2852 191.722 32.0251 191.605 31.7961ZM202.91 29.2091L200.98 27.297C200.951 27.2676 200.916 27.2445 200.877 27.2291C200.839 27.2137 200.797 27.2064 200.756 27.2076C200.714 27.2069 200.673 27.2144 200.634 27.2298C200.595 27.2451 200.56 27.268 200.531 27.297C200.461 27.3668 200.377 27.4197 200.283 27.4516C200.19 27.4835 200.091 27.4935 199.993 27.4809C199.741 27.4534 199.473 27.3752 199.3 27.2076C198.906 26.8218 199.361 26.0626 199.015 25.5767C198.619 25.0449 198.185 24.5427 197.717 24.074C197.32 23.6803 195.759 22.1917 193.13 21.1197C192.291 20.7761 191.393 20.5996 190.486 20.6001C189.004 20.6001 187.865 21.2615 187.449 21.6411C187.118 21.9403 186.774 22.4155 186.774 22.4155C186.973 22.343 187.176 22.2829 187.382 22.2355C187.812 22.1434 188.253 22.1152 188.692 22.1517C189.567 22.2243 190.621 22.6348 191.187 23.0791C192.099 23.8102 192.491 24.7882 192.552 26.0502C192.597 26.9888 191.696 28.1738 190.84 29.14C190.765 29.2249 190.725 29.3356 190.729 29.449C190.734 29.5624 190.781 29.6699 190.863 29.749L192.057 30.943C192.141 31.0252 192.252 31.0717 192.369 31.0728C192.486 31.0738 192.599 31.0293 192.684 30.9486C193.467 30.1888 194.433 29.3475 194.98 29.0106C195.527 28.6737 195.969 28.5787 196.181 28.5556C196.597 28.5153 197.016 28.6061 197.379 28.8155C197.442 28.8516 197.501 28.8967 197.552 28.9493C197.915 29.3182 197.893 29.9211 197.524 30.2844L197.411 30.3907C197.382 30.4195 197.359 30.4538 197.343 30.4917C197.327 30.5295 197.319 30.5701 197.319 30.6112C197.319 30.6522 197.327 30.6928 197.343 30.7307C197.359 30.7685 197.382 30.8029 197.411 30.8316L199.341 32.7438C199.371 32.7729 199.406 32.7958 199.444 32.8111C199.483 32.8264 199.524 32.8337 199.566 32.8326C199.65 32.8338 199.731 32.8019 199.791 32.7438L202.91 29.6591C202.968 29.5983 203 29.5178 203 29.4341C203 29.3504 202.968 29.2699 202.91 29.2091Z" stroke="#F26DAA" stroke-width="1.2" stroke-linecap="round" stroke-linejoin="round"/>
<path d="M144.4 39.8001C144.4 40.4366 144.147 41.0471 143.697 41.4972C143.247 41.9472 142.636 42.2001 142 42.2001H122.8C122.163 42.2001 121.553 41.9472 121.103 41.4972C120.653 41.0471 120.4 40.4366 120.4 39.8001V23.0001C120.4 22.3636 120.653 21.7531 121.103 21.303C121.553 20.853 122.163 20.6001 122.8 20.6001H128.8L131.2 24.2001H142C142.636 24.2001 143.247 24.453 143.697 24.903C144.147 25.3531 144.4 25.9636 144.4 26.6001V39.8001Z" stroke="#F26DAA" stroke-width="2.4" stroke-linecap="round" stroke-linejoin="round"/>
<path d="M84.4001 26.5999C90.3648 26.5999 95.2001 24.9881 95.2001 22.9999C95.2001 21.0117 90.3648 19.3999 84.4001 19.3999C78.4354 19.3999 73.6001 21.0117 73.6001 22.9999C73.6001 24.9881 78.4354 26.5999 84.4001 26.5999Z" stroke="#F26DAA" stroke-width="2.4" stroke-linecap="round" stroke-linejoin="round"/>
<path d="M95.2001 31.3999C95.2001 33.3919 90.4001 34.9999 84.4001 34.9999C78.4001 34.9999 73.6001 33.3919 73.6001 31.3999" stroke="#F26DAA" stroke-width="2.4" stroke-linecap="round" stroke-linejoin="round"/>
<path d="M73.6001 23V39.8C73.6001 41.792 78.4001 43.4 84.4001 43.4C90.4001 43.4 95.2001 41.792 95.2001 39.8V23" stroke="#F26DAA" stroke-width="2.4" stroke-linecap="round" stroke-linejoin="round"/>
<rect x="234.8" y="138.8" width="182.6" height="61.6" rx="8.4" transform="rotate(-180 234.8 138.8)" fill="#FCD5E9" fill-opacity="0.2" stroke="#F68AC3" stroke-width="2.4"/>
<g filter="url(#filter5_d_445_17371)">
<rect x="215" y="132" width="48" height="48" rx="9.6" transform="rotate(-180 215 132)" fill="#FCD5E9" fill-opacity="0.2" shape-rendering="crispEdges"/>
<rect x="215" y="132" width="48" height="48" rx="9.6" transform="rotate(-180 215 132)" stroke="#F26DAA" stroke-width="2.4" stroke-dasharray="4.8 4.8" shape-rendering="crispEdges"/>
</g>
<path d="M191.605 107.796C191.543 107.683 191.465 107.58 191.375 107.489L190.344 106.471C190.238 106.363 190.112 106.276 189.975 106.214C189.758 106.117 189.516 106.089 189.283 106.131C189.049 106.174 188.834 106.287 188.665 106.454C188.308 106.806 187.653 107.449 186.472 108.616C184.213 110.85 180.019 114.595 178.122 116.192C178.027 116.272 177.949 116.371 177.893 116.483C177.838 116.594 177.807 116.716 177.801 116.84C177.795 116.965 177.815 117.089 177.86 117.205C177.905 117.322 177.973 117.427 178.061 117.516L180.254 119.733C180.343 119.822 180.448 119.891 180.565 119.937C180.681 119.983 180.806 120.004 180.931 119.999C181.056 119.995 181.179 119.964 181.291 119.91C181.404 119.855 181.504 119.778 181.586 119.683C183.23 117.75 187.002 113.553 189.235 111.347C190.382 110.219 191.025 109.571 191.389 109.213C191.569 109.03 191.687 108.794 191.726 108.54C191.765 108.285 191.722 108.025 191.605 107.796ZM202.91 105.209L200.98 103.297C200.951 103.268 200.916 103.244 200.877 103.229C200.839 103.214 200.797 103.206 200.756 103.208C200.714 103.207 200.673 103.214 200.634 103.23C200.595 103.245 200.56 103.268 200.531 103.297C200.461 103.367 200.377 103.42 200.283 103.452C200.19 103.483 200.091 103.494 199.993 103.481C199.741 103.453 199.473 103.375 199.3 103.208C198.906 102.822 199.361 102.063 199.015 101.577C198.619 101.045 198.185 100.543 197.717 100.074C197.32 99.6803 195.759 98.1917 193.13 97.1197C192.291 96.7761 191.393 96.5996 190.486 96.6001C189.004 96.6001 187.865 97.2615 187.449 97.6411C187.118 97.9403 186.774 98.4155 186.774 98.4155C186.973 98.343 187.176 98.2829 187.382 98.2355C187.812 98.1434 188.253 98.1152 188.692 98.1517C189.567 98.2243 190.621 98.6348 191.187 99.0791C192.099 99.8102 192.491 100.788 192.552 102.05C192.597 102.989 191.696 104.174 190.84 105.14C190.765 105.225 190.725 105.336 190.729 105.449C190.734 105.562 190.781 105.67 190.863 105.749L192.057 106.943C192.141 107.025 192.252 107.072 192.369 107.073C192.486 107.074 192.599 107.029 192.684 106.949C193.467 106.189 194.433 105.347 194.98 105.011C195.527 104.674 195.969 104.579 196.181 104.556C196.597 104.515 197.016 104.606 197.379 104.815C197.442 104.852 197.501 104.897 197.552 104.949C197.915 105.318 197.893 105.921 197.524 106.284L197.411 106.391C197.382 106.42 197.359 106.454 197.343 106.492C197.327 106.53 197.319 106.57 197.319 106.611C197.319 106.652 197.327 106.693 197.343 106.731C197.359 106.769 197.382 106.803 197.411 106.832L199.341 108.744C199.371 108.773 199.406 108.796 199.444 108.811C199.483 108.826 199.524 108.834 199.566 108.833C199.65 108.834 199.731 108.802 199.791 108.744L202.91 105.659C202.968 105.598 203 105.518 203 105.434C203 105.35 202.968 105.27 202.91 105.209Z" stroke="#F26DAA" stroke-width="1.2" stroke-linecap="round" stroke-linejoin="round"/>
<path d="M144.4 115.8C144.4 116.437 144.147 117.047 143.697 117.497C143.247 117.947 142.636 118.2 142 118.2H122.8C122.163 118.2 121.553 117.947 121.103 117.497C120.653 117.047 120.4 116.437 120.4 115.8V99.0001C120.4 98.3636 120.653 97.7531 121.103 97.303C121.553 96.853 122.163 96.6001 122.8 96.6001H128.8L131.2 100.2H142C142.636 100.2 143.247 100.453 143.697 100.903C144.147 101.353 144.4 101.964 144.4 102.6V115.8Z" stroke="#F26DAA" stroke-width="2.4" stroke-linecap="round" stroke-linejoin="round"/>
<path d="M84.4001 102.6C90.3648 102.6 95.2001 100.988 95.2001 98.9999C95.2001 97.0117 90.3648 95.3999 84.4001 95.3999C78.4354 95.3999 73.6001 97.0117 73.6001 98.9999C73.6001 100.988 78.4354 102.6 84.4001 102.6Z" stroke="#F26DAA" stroke-width="2.4" stroke-linecap="round" stroke-linejoin="round"/>
<path d="M95.2001 107.4C95.2001 109.392 90.4001 111 84.4001 111C78.4001 111 73.6001 109.392 73.6001 107.4" stroke="#F26DAA" stroke-width="2.4" stroke-linecap="round" stroke-linejoin="round"/>
<path d="M73.6001 99V115.8C73.6001 117.792 78.4001 119.4 84.4001 119.4C90.4001 119.4 95.2001 117.792 95.2001 115.8V99" stroke="#F26DAA" stroke-width="2.4" stroke-linecap="round" stroke-linejoin="round"/>
<rect x="234.8" y="214.8" width="182.6" height="61.6" rx="8.4" transform="rotate(-180 234.8 214.8)" fill="#FCD5E9" fill-opacity="0.2" stroke="#F68AC3" stroke-width="2.4"/>
<g filter="url(#filter6_d_445_17371)">
<rect x="215" y="208" width="48" height="48" rx="9.6" transform="rotate(-180 215 208)" fill="#FCD5E9" fill-opacity="0.2" shape-rendering="crispEdges"/>
<rect x="215" y="208" width="48" height="48" rx="9.6" transform="rotate(-180 215 208)" stroke="#F26DAA" stroke-width="2.4" stroke-dasharray="4.8 4.8" shape-rendering="crispEdges"/>
</g>
<path d="M191.605 183.796C191.543 183.683 191.465 183.58 191.375 183.489L190.344 182.471C190.238 182.363 190.112 182.276 189.975 182.214C189.758 182.117 189.516 182.089 189.283 182.131C189.049 182.174 188.834 182.287 188.665 182.454C188.308 182.806 187.653 183.449 186.472 184.616C184.213 186.85 180.019 190.595 178.122 192.192C178.027 192.272 177.949 192.371 177.893 192.483C177.838 192.594 177.807 192.716 177.801 192.84C177.795 192.965 177.815 193.089 177.86 193.205C177.905 193.322 177.973 193.427 178.061 193.516L180.254 195.733C180.343 195.822 180.448 195.891 180.565 195.937C180.681 195.983 180.806 196.004 180.931 195.999C181.056 195.995 181.179 195.964 181.291 195.91C181.404 195.855 181.504 195.778 181.586 195.683C183.23 193.75 187.002 189.553 189.235 187.347C190.382 186.219 191.025 185.571 191.389 185.213C191.569 185.03 191.687 184.794 191.726 184.54C191.765 184.285 191.722 184.025 191.605 183.796ZM202.91 181.209L200.98 179.297C200.951 179.268 200.916 179.244 200.877 179.229C200.839 179.214 200.797 179.206 200.756 179.208C200.714 179.207 200.673 179.214 200.634 179.23C200.595 179.245 200.56 179.268 200.531 179.297C200.461 179.367 200.377 179.42 200.283 179.452C200.19 179.483 200.091 179.494 199.993 179.481C199.741 179.453 199.473 179.375 199.3 179.208C198.906 178.822 199.361 178.063 199.015 177.577C198.619 177.045 198.185 176.543 197.717 176.074C197.32 175.68 195.759 174.192 193.13 173.12C192.291 172.776 191.393 172.6 190.486 172.6C189.004 172.6 187.865 173.261 187.449 173.641C187.118 173.94 186.774 174.415 186.774 174.415C186.973 174.343 187.176 174.283 187.382 174.236C187.812 174.143 188.253 174.115 188.692 174.152C189.567 174.224 190.621 174.635 191.187 175.079C192.099 175.81 192.491 176.788 192.552 178.05C192.597 178.989 191.696 180.174 190.84 181.14C190.765 181.225 190.725 181.336 190.729 181.449C190.734 181.562 190.781 181.67 190.863 181.749L192.057 182.943C192.141 183.025 192.252 183.072 192.369 183.073C192.486 183.074 192.599 183.029 192.684 182.949C193.467 182.189 194.433 181.347 194.98 181.011C195.527 180.674 195.969 180.579 196.181 180.556C196.597 180.515 197.016 180.606 197.379 180.815C197.442 180.852 197.501 180.897 197.552 180.949C197.915 181.318 197.893 181.921 197.524 182.284L197.411 182.391C197.382 182.42 197.359 182.454 197.343 182.492C197.327 182.53 197.319 182.57 197.319 182.611C197.319 182.652 197.327 182.693 197.343 182.731C197.359 182.769 197.382 182.803 197.411 182.832L199.341 184.744C199.371 184.773 199.406 184.796 199.444 184.811C199.483 184.826 199.524 184.834 199.566 184.833C199.65 184.834 199.731 184.802 199.791 184.744L202.91 181.659C202.968 181.598 203 181.518 203 181.434C203 181.35 202.968 181.27 202.91 181.209Z" stroke="#F26DAA" stroke-width="1.2" stroke-linecap="round" stroke-linejoin="round"/>
<path d="M144.4 191.8C144.4 192.437 144.147 193.047 143.697 193.497C143.247 193.947 142.636 194.2 142 194.2H122.8C122.163 194.2 121.553 193.947 121.103 193.497C120.653 193.047 120.4 192.437 120.4 191.8V175C120.4 174.364 120.653 173.753 121.103 173.303C121.553 172.853 122.163 172.6 122.8 172.6H128.8L131.2 176.2H142C142.636 176.2 143.247 176.453 143.697 176.903C144.147 177.353 144.4 177.964 144.4 178.6V191.8Z" stroke="#F26DAA" stroke-width="2.4" stroke-linecap="round" stroke-linejoin="round"/>
<path d="M84.4001 178.6C90.3648 178.6 95.2001 176.988 95.2001 175C95.2001 173.012 90.3648 171.4 84.4001 171.4C78.4354 171.4 73.6001 173.012 73.6001 175C73.6001 176.988 78.4354 178.6 84.4001 178.6Z" stroke="#F26DAA" stroke-width="2.4" stroke-linecap="round" stroke-linejoin="round"/>
<path d="M95.2001 183.4C95.2001 185.392 90.4001 187 84.4001 187C78.4001 187 73.6001 185.392 73.6001 183.4" stroke="#F26DAA" stroke-width="2.4" stroke-linecap="round" stroke-linejoin="round"/>
<path d="M73.6001 175V191.8C73.6001 193.792 78.4001 195.4 84.4001 195.4C90.4001 195.4 95.2001 193.792 95.2001 191.8V175" stroke="#F26DAA" stroke-width="2.4" stroke-linecap="round" stroke-linejoin="round"/>
</g>
<defs>
<filter id="filter0_d_445_17371" x="26.4" y="29.2" width="35.2" height="21.2" filterUnits="userSpaceOnUse" color-interpolation-filters="sRGB">
<feFlood flood-opacity="0" result="BackgroundImageFix"/>
<feColorMatrix in="SourceAlpha" type="matrix" values="0 0 0 0 0 0 0 0 0 0 0 0 0 0 0 0 0 0 127 0" result="hardAlpha"/>
<feOffset dy="4.8"/>
<feGaussianBlur stdDeviation="4.8"/>
<feComposite in2="hardAlpha" operator="out"/>
<feColorMatrix type="matrix" values="0 0 0 0 0.8375 0 0 0 0 0.812375 0 0 0 0 0.774688 0 0 0 0.2 0"/>
<feBlend mode="normal" in2="BackgroundImageFix" result="effect1_dropShadow_445_17371"/>
<feBlend mode="normal" in="SourceGraphic" in2="effect1_dropShadow_445_17371" result="shape"/>
</filter>
<filter id="filter1_d_445_17371" x="24.4" y="181" width="37.2" height="21.2" filterUnits="userSpaceOnUse" color-interpolation-filters="sRGB">
<feFlood flood-opacity="0" result="BackgroundImageFix"/>
<feColorMatrix in="SourceAlpha" type="matrix" values="0 0 0 0 0 0 0 0 0 0 0 0 0 0 0 0 0 0 127 0" result="hardAlpha"/>
<feOffset dy="4.8"/>
<feGaussianBlur stdDeviation="4.8"/>
<feComposite in2="hardAlpha" operator="out"/>
<feColorMatrix type="matrix" values="0 0 0 0 0.8375 0 0 0 0 0.812375 0 0 0 0 0.774688 0 0 0 0.2 0"/>
<feBlend mode="normal" in2="BackgroundImageFix" result="effect1_dropShadow_445_17371"/>
<feBlend mode="normal" in="SourceGraphic" in2="effect1_dropShadow_445_17371" result="shape"/>
</filter>
<filter id="filter2_d_445_17371" x="24.4" y="104.6" width="37.2" height="21.2" filterUnits="userSpaceOnUse" color-interpolation-filters="sRGB">
<feFlood flood-opacity="0" result="BackgroundImageFix"/>
<feColorMatrix in="SourceAlpha" type="matrix" values="0 0 0 0 0 0 0 0 0 0 0 0 0 0 0 0 0 0 127 0" result="hardAlpha"/>
<feOffset dy="4.8"/>
<feGaussianBlur stdDeviation="4.8"/>
<feComposite in2="hardAlpha" operator="out"/>
<feColorMatrix type="matrix" values="0 0 0 0 0.8375 0 0 0 0 0.812375 0 0 0 0 0.774688 0 0 0 0.2 0"/>
<feBlend mode="normal" in2="BackgroundImageFix" result="effect1_dropShadow_445_17371"/>
<feBlend mode="normal" in="SourceGraphic" in2="effect1_dropShadow_445_17371" result="shape"/>
</filter>
<filter id="filter3_d_445_17371" x="299.4" y="57.2" width="115.2" height="115.2" filterUnits="userSpaceOnUse" color-interpolation-filters="sRGB">
<feFlood flood-opacity="0" result="BackgroundImageFix"/>
<feColorMatrix in="SourceAlpha" type="matrix" values="0 0 0 0 0 0 0 0 0 0 0 0 0 0 0 0 0 0 127 0" result="hardAlpha"/>
<feOffset dy="4.8"/>
<feGaussianBlur stdDeviation="4.8"/>
<feComposite in2="hardAlpha" operator="out"/>
<feColorMatrix type="matrix" values="0 0 0 0 0.8375 0 0 0 0 0.812375 0 0 0 0 0.774688 0 0 0 0.2 0"/>
<feBlend mode="normal" in2="BackgroundImageFix" result="effect1_dropShadow_445_17371"/>
<feBlend mode="normal" in="SourceGraphic" in2="effect1_dropShadow_445_17371" result="shape"/>
</filter>
<filter id="filter4_d_445_17371" x="156.2" y="1.9998" width="69.6004" height="69.6004" filterUnits="userSpaceOnUse" color-interpolation-filters="sRGB">
<feFlood flood-opacity="0" result="BackgroundImageFix"/>
<feColorMatrix in="SourceAlpha" type="matrix" values="0 0 0 0 0 0 0 0 0 0 0 0 0 0 0 0 0 0 127 0" result="hardAlpha"/>
<feOffset dy="4.8"/>
<feGaussianBlur stdDeviation="4.8"/>
<feComposite in2="hardAlpha" operator="out"/>
<feColorMatrix type="matrix" values="0 0 0 0 0.8375 0 0 0 0 0.812375 0 0 0 0 0.774688 0 0 0 0.2 0"/>
<feBlend mode="normal" in2="BackgroundImageFix" result="effect1_dropShadow_445_17371"/>
<feBlend mode="normal" in="SourceGraphic" in2="effect1_dropShadow_445_17371" result="shape"/>
</filter>
<filter id="filter5_d_445_17371" x="156.2" y="77.9998" width="69.6004" height="69.6004" filterUnits="userSpaceOnUse" color-interpolation-filters="sRGB">
<feFlood flood-opacity="0" result="BackgroundImageFix"/>
<feColorMatrix in="SourceAlpha" type="matrix" values="0 0 0 0 0 0 0 0 0 0 0 0 0 0 0 0 0 0 127 0" result="hardAlpha"/>
<feOffset dy="4.8"/>
<feGaussianBlur stdDeviation="4.8"/>
<feComposite in2="hardAlpha" operator="out"/>
<feColorMatrix type="matrix" values="0 0 0 0 0.8375 0 0 0 0 0.812375 0 0 0 0 0.774688 0 0 0 0.2 0"/>
<feBlend mode="normal" in2="BackgroundImageFix" result="effect1_dropShadow_445_17371"/>
<feBlend mode="normal" in="SourceGraphic" in2="effect1_dropShadow_445_17371" result="shape"/>
</filter>
<filter id="filter6_d_445_17371" x="156.2" y="154" width="69.6004" height="69.6004" filterUnits="userSpaceOnUse" color-interpolation-filters="sRGB">
<feFlood flood-opacity="0" result="BackgroundImageFix"/>
<feColorMatrix in="SourceAlpha" type="matrix" values="0 0 0 0 0 0 0 0 0 0 0 0 0 0 0 0 0 0 127 0" result="hardAlpha"/>
<feOffset dy="4.8"/>
<feGaussianBlur stdDeviation="4.8"/>
<feComposite in2="hardAlpha" operator="out"/>
<feColorMatrix type="matrix" values="0 0 0 0 0.8375 0 0 0 0 0.812375 0 0 0 0 0.774688 0 0 0 0.2 0"/>
<feBlend mode="normal" in2="BackgroundImageFix" result="effect1_dropShadow_445_17371"/>
<feBlend mode="normal" in="SourceGraphic" in2="effect1_dropShadow_445_17371" result="shape"/>
</filter>
<linearGradient id="paint0_linear_445_17371" x1="215" y1="5.07677" x2="292.345" y2="5.07677" gradientUnits="userSpaceOnUse">
<stop stop-color="#F26DAA"/>
<stop offset="1" stop-color="#C6C9CE"/>
</linearGradient>
<linearGradient id="paint1_linear_445_17371" x1="215" y1="212.044" x2="292.345" y2="212.044" gradientUnits="userSpaceOnUse">
<stop stop-color="#F26DAA"/>
<stop offset="1" stop-color="#C6C9CE"/>
</linearGradient>
<linearGradient id="paint2_linear_445_17371" x1="215" y1="109.561" x2="291.531" y2="109.561" gradientUnits="userSpaceOnUse">
<stop stop-color="#F26DAA"/>
<stop offset="1" stop-color="#C6C9CE"/>
</linearGradient>
<clipPath id="clip0_445_17371">
<rect width="405" height="216" fill="white"/>
</clipPath>
</defs>
</svg>
