<svg width="395" height="192" viewBox="0 0 395 192" fill="none" xmlns="http://www.w3.org/2000/svg">
<g clip-path="url(#clip0_445_17310)">
<rect width="395" height="192" fill="white"/>
<rect x="393.8" y="190.8" width="198.6" height="189.6" rx="8.4" transform="rotate(-180 393.8 190.8)" fill="#FBFCFC" stroke="#C6C9CE" stroke-width="2.4"/>
<path d="M19.2 39.5999V37.1999C19.2 35.9269 18.6943 34.706 17.7941 33.8058C16.8939 32.9056 15.673 32.3999 14.4 32.3999H4.8C3.52696 32.3999 2.30606 32.9056 1.40589 33.8058C0.505713 34.706 0 35.9269 0 37.1999V39.5999" stroke="#F26DAA" stroke-width="2.4" stroke-linecap="round" stroke-linejoin="round"/>
<path d="M9.5998 27.6C12.2508 27.6 14.3998 25.451 14.3998 22.8C14.3998 20.149 12.2508 18 9.5998 18C6.94884 18 4.7998 20.149 4.7998 22.8C4.7998 25.451 6.94884 27.6 9.5998 27.6Z" stroke="#F26DAA" stroke-width="2.4" stroke-linecap="round" stroke-linejoin="round"/>
<path d="M19.2488 101.2V98.8C19.2488 97.527 18.7431 96.3061 17.8429 95.4059C16.9428 94.5057 15.7219 94 14.4488 94H4.84883C3.57579 94 2.35489 94.5057 1.45472 95.4059C0.554541 96.3061 0.0488281 97.527 0.0488281 98.8V101.2" stroke="#F26DAA" stroke-width="2.4" stroke-linecap="round" stroke-linejoin="round"/>
<path d="M9.64863 89.2001C12.2996 89.2001 14.4486 87.0511 14.4486 84.4001C14.4486 81.7491 12.2996 79.6001 9.64863 79.6001C6.99767 79.6001 4.84863 81.7491 4.84863 84.4001C4.84863 87.0511 6.99767 89.2001 9.64863 89.2001Z" stroke="#F26DAA" stroke-width="2.4" stroke-linecap="round" stroke-linejoin="round"/>
<path d="M19.2488 162.8V160.4C19.2488 159.127 18.7431 157.906 17.8429 157.006C16.9428 156.106 15.7219 155.6 14.4488 155.6H4.84883C3.57579 155.6 2.35489 156.106 1.45472 157.006C0.554541 157.906 0.0488281 159.127 0.0488281 160.4V162.8" stroke="#F26DAA" stroke-width="2.4" stroke-linecap="round" stroke-linejoin="round"/>
<path d="M9.64863 150.8C12.2996 150.8 14.4486 148.651 14.4486 146C14.4486 143.349 12.2996 141.2 9.64863 141.2C6.99767 141.2 4.84863 143.349 4.84863 146C4.84863 148.651 6.99767 150.8 9.64863 150.8Z" stroke="#F26DAA" stroke-width="2.4" stroke-linecap="round" stroke-linejoin="round"/>
<g filter="url(#filter0_d_445_17310)">
<rect x="242" y="140" width="96" height="96" rx="9.6" transform="rotate(-180 242 140)" fill="#FBFCFC"/>
<rect x="240.8" y="138.8" width="93.6" height="93.6" rx="8.4" transform="rotate(-180 240.8 138.8)" stroke="#C6C9CE" stroke-width="2.4"/>
</g>
<path d="M195.21 91.5923C195.086 91.3669 194.931 91.1599 194.751 90.977L192.688 88.9423C192.476 88.7266 192.225 88.5523 191.95 88.4283C191.516 88.2347 191.033 88.177 190.566 88.2627C190.098 88.3485 189.668 88.5736 189.331 88.9085C188.615 89.6127 187.306 90.8972 184.944 93.2311C180.426 97.6998 172.038 105.19 168.245 108.384C168.054 108.544 167.898 108.742 167.787 108.965C167.677 109.188 167.614 109.432 167.602 109.681C167.59 109.93 167.631 110.178 167.72 110.411C167.81 110.644 167.947 110.855 168.122 111.032L172.509 115.467C172.686 115.644 172.897 115.783 173.13 115.874C173.363 115.966 173.612 116.008 173.863 115.999C174.113 115.99 174.358 115.928 174.583 115.82C174.809 115.711 175.009 115.557 175.172 115.367C178.461 111.501 186.005 103.107 190.47 98.6941C192.764 96.4378 194.05 95.1421 194.778 94.4267C195.139 94.0597 195.375 93.5882 195.452 93.0793C195.53 92.5705 195.445 92.0501 195.21 91.5923ZM217.821 86.4183L213.961 82.594C213.903 82.5352 213.832 82.489 213.755 82.4582C213.678 82.4275 213.595 82.4128 213.512 82.4152C213.428 82.4138 213.346 82.4289 213.269 82.4596C213.191 82.4903 213.121 82.536 213.062 82.594C212.923 82.7336 212.754 82.8394 212.567 82.9032C212.381 82.967 212.183 82.987 211.987 82.9618C211.483 82.9067 210.947 82.7504 210.6 82.4152C209.813 81.6436 210.723 80.1252 210.03 79.1534C209.239 78.0899 208.371 77.0854 207.434 76.1479C206.64 75.3606 203.518 72.3833 198.26 70.2395C196.582 69.5522 194.786 69.1991 192.973 69.2002C190.009 69.2002 187.73 70.5229 186.899 71.2822C186.237 71.8805 185.549 72.831 185.549 72.831C185.947 72.6861 186.353 72.5659 186.765 72.471C187.625 72.2868 188.507 72.2303 189.384 72.3035C191.134 72.4486 193.243 73.2696 194.375 74.1582C196.198 75.6204 196.982 77.5764 197.105 80.1004C197.195 81.9777 195.392 84.3476 193.681 86.2799C193.53 86.4498 193.451 86.6712 193.459 86.898C193.468 87.1248 193.563 87.3397 193.726 87.4981L196.115 89.886C196.282 90.0503 196.505 90.1434 196.739 90.1455C196.973 90.1476 197.199 90.0586 197.368 89.8972C198.935 88.3776 200.866 86.695 201.96 86.0212C203.055 85.3475 203.938 85.1574 204.362 85.1113C205.195 85.0306 206.033 85.2123 206.758 85.6309C206.885 85.7032 207.002 85.7933 207.104 85.8986C207.831 86.6365 207.787 87.8423 207.048 88.5689L206.823 88.7814C206.764 88.839 206.718 88.9076 206.686 88.9833C206.655 89.059 206.638 89.1403 206.638 89.2224C206.638 89.3044 206.655 89.3857 206.686 89.4614C206.718 89.5371 206.764 89.6057 206.823 89.6633L210.682 93.4875C210.742 93.5458 210.812 93.5916 210.889 93.6222C210.967 93.6527 211.049 93.6673 211.132 93.6652C211.3 93.6676 211.462 93.6037 211.582 93.4875L217.821 87.3181C217.936 87.1965 218 87.0355 218 86.8682C218 86.7008 217.936 86.5398 217.821 86.4183Z" stroke="#888E99" stroke-width="2.4" stroke-linecap="round" stroke-linejoin="round"/>
<path d="M271.8 66.4998C277.765 66.4998 282.6 64.888 282.6 62.8998C282.6 60.9116 277.765 59.2998 271.8 59.2998C265.835 59.2998 261 60.9116 261 62.8998C261 64.888 265.835 66.4998 271.8 66.4998Z" stroke="#7B7673" stroke-width="2.4" stroke-linecap="round" stroke-linejoin="round"/>
<path d="M282.6 71.2998C282.6 73.2918 277.8 74.8998 271.8 74.8998C265.8 74.8998 261 73.2918 261 71.2998" stroke="#7B7673" stroke-width="2.4" stroke-linecap="round" stroke-linejoin="round"/>
<path d="M261 62.8999V79.6999C261 81.6919 265.8 83.2999 271.8 83.2999C277.8 83.2999 282.6 81.6919 282.6 79.6999V62.8999" stroke="#7B7673" stroke-width="2.4" stroke-linecap="round" stroke-linejoin="round"/>
<path d="M262.2 108.5H281.4C282.72 108.5 283.8 109.58 283.8 110.9V125.3C283.8 126.62 282.72 127.7 281.4 127.7H262.2C260.88 127.7 259.8 126.62 259.8 125.3V110.9C259.8 109.58 260.88 108.5 262.2 108.5Z" stroke="#7B7673" stroke-width="2.4" stroke-linecap="round" stroke-linejoin="round"/>
<path d="M283.8 110.9L271.8 119.3L259.8 110.9" stroke="#7B7673" stroke-width="2.4" stroke-linecap="round" stroke-linejoin="round"/>
<path d="M328.2 125.973C328.2 126.61 327.947 127.22 327.497 127.67C327.047 128.121 326.436 128.373 325.8 128.373H306.6C305.963 128.373 305.353 128.121 304.903 127.67C304.453 127.22 304.2 126.61 304.2 125.973V109.173C304.2 108.537 304.453 107.926 304.903 107.476C305.353 107.026 305.963 106.773 306.6 106.773H312.6L315 110.373H325.8C326.436 110.373 327.047 110.626 327.497 111.076C327.947 111.526 328.2 112.137 328.2 112.773V125.973Z" stroke="#7B7673" stroke-width="2.4" stroke-linecap="round" stroke-linejoin="round"/>
<path d="M313.8 60.5H305.4V68.9H313.8V60.5Z" stroke="#7B7673" stroke-width="2.4" stroke-linecap="round" stroke-linejoin="round"/>
<path d="M327 60.5H318.6V68.9H327V60.5Z" stroke="#7B7673" stroke-width="2.4" stroke-linecap="round" stroke-linejoin="round"/>
<path d="M327 73.6997H318.6V82.0997H327V73.6997Z" stroke="#7B7673" stroke-width="2.4" stroke-linecap="round" stroke-linejoin="round"/>
<path d="M313.8 73.6997H305.4V82.0997H313.8V73.6997Z" stroke="#7B7673" stroke-width="2.4" stroke-linecap="round" stroke-linejoin="round"/>
<path d="M31 32H81C85.4183 32 89 35.5817 89 40V64C89 68.4183 92.5817 72 97 72H147" stroke="url(#paint0_linear_445_17310)" stroke-width="2" stroke-linecap="round" stroke-dasharray="1 4"/>
<path d="M29 153H80C84.4183 153 88 149.418 88 145V120C88 115.582 91.5817 112 96 112H147" stroke="url(#paint1_linear_445_17310)" stroke-width="2" stroke-linecap="round" stroke-dasharray="1 4"/>
<path d="M29 92H146" stroke="url(#paint2_linear_445_17310)" stroke-width="2" stroke-linecap="round" stroke-dasharray="1 4"/>
</g>
<defs>
<filter id="filter0_d_445_17310" x="136.4" y="39.2" width="115.2" height="115.2" filterUnits="userSpaceOnUse" color-interpolation-filters="sRGB">
<feFlood flood-opacity="0" result="BackgroundImageFix"/>
<feColorMatrix in="SourceAlpha" type="matrix" values="0 0 0 0 0 0 0 0 0 0 0 0 0 0 0 0 0 0 127 0" result="hardAlpha"/>
<feOffset dy="4.8"/>
<feGaussianBlur stdDeviation="4.8"/>
<feComposite in2="hardAlpha" operator="out"/>
<feColorMatrix type="matrix" values="0 0 0 0 0.8375 0 0 0 0 0.812375 0 0 0 0 0.774688 0 0 0 0.2 0"/>
<feBlend mode="normal" in2="BackgroundImageFix" result="effect1_dropShadow_445_17310"/>
<feBlend mode="normal" in="SourceGraphic" in2="effect1_dropShadow_445_17310" result="shape"/>
</filter>
<linearGradient id="paint0_linear_445_17310" x1="31" y1="14.4249" x2="125.442" y2="14.4249" gradientUnits="userSpaceOnUse">
<stop stop-color="#F26DAA"/>
<stop offset="1" stop-color="#C6C9CE"/>
</linearGradient>
<linearGradient id="paint1_linear_445_17310" x1="29" y1="171.014" x2="125.071" y2="171.014" gradientUnits="userSpaceOnUse">
<stop stop-color="#F26DAA"/>
<stop offset="1" stop-color="#C6C9CE"/>
</linearGradient>
<linearGradient id="paint2_linear_445_17310" x1="29" y1="91.5606" x2="124.257" y2="91.5612" gradientUnits="userSpaceOnUse">
<stop stop-color="#F26DAA"/>
<stop offset="1" stop-color="#C6C9CE"/>
</linearGradient>
<clipPath id="clip0_445_17310">
<rect width="395" height="192" fill="white"/>
</clipPath>
</defs>
</svg>
