<svg width="411" height="216" viewBox="0 0 411 216" fill="none" xmlns="http://www.w3.org/2000/svg">
<g clip-path="url(#clip0_525_18653)">
<path d="M22.2 41.6V39.2C22.2 37.927 21.6943 36.7061 20.7941 35.8059C19.8939 34.9057 18.673 34.4 17.4 34.4H7.8C6.52696 34.4 5.30606 34.9057 4.40589 35.8059C3.50571 36.7061 3 37.927 3 39.2V41.6" stroke="#F26DAA" stroke-width="2.4" stroke-linecap="round" stroke-linejoin="round"/>
<path d="M12.5998 29.6C15.2508 29.6 17.3998 27.451 17.3998 24.8C17.3998 22.149 15.2508 20 12.5998 20C9.94884 20 7.7998 22.149 7.7998 24.8C7.7998 27.451 9.94884 29.6 12.5998 29.6Z" stroke="#F26DAA" stroke-width="2.4" stroke-linecap="round" stroke-linejoin="round"/>
<path d="M22.2488 118.6V116.2C22.2488 114.927 21.7431 113.706 20.8429 112.806C19.9428 111.906 18.7219 111.4 17.4488 111.4H7.84883C6.57579 111.4 5.35489 111.906 4.45472 112.806C3.55454 113.706 3.04883 114.927 3.04883 116.2V118.6" stroke="#F26DAA" stroke-width="2.4" stroke-linecap="round" stroke-linejoin="round"/>
<path d="M12.6486 106.6C15.2996 106.6 17.4486 104.451 17.4486 101.8C17.4486 99.149 15.2996 97 12.6486 97C9.99767 97 7.84863 99.149 7.84863 101.8C7.84863 104.451 9.99767 106.6 12.6486 106.6Z" stroke="#F26DAA" stroke-width="2.4" stroke-linecap="round" stroke-linejoin="round"/>
<path d="M22.2488 195.6V193.2C22.2488 191.927 21.7431 190.706 20.8429 189.806C19.9428 188.906 18.7219 188.4 17.4488 188.4H7.84883C6.57579 188.4 5.35489 188.906 4.45472 189.806C3.55454 190.706 3.04883 191.927 3.04883 193.2V195.6" stroke="#F26DAA" stroke-width="2.4" stroke-linecap="round" stroke-linejoin="round"/>
<path d="M12.6486 183.6C15.2996 183.6 17.4486 181.451 17.4486 178.8C17.4486 176.149 15.2996 174 12.6486 174C9.99767 174 7.84863 176.149 7.84863 178.8C7.84863 181.451 9.99767 183.6 12.6486 183.6Z" stroke="#F26DAA" stroke-width="2.4" stroke-linecap="round" stroke-linejoin="round"/>
<g filter="url(#filter0_d_525_18653)">
<path d="M40 35H54" stroke="#F26DAA" stroke-width="2" stroke-linecap="round" stroke-dasharray="1 4"/>
</g>
<g filter="url(#filter1_d_525_18653)">
<path d="M38 186.8H54" stroke="#F26DAA" stroke-width="2" stroke-linecap="round" stroke-dasharray="1 4"/>
</g>
<g filter="url(#filter2_d_525_18653)">
<path d="M38 110.4H54" stroke="#F26DAA" stroke-width="2" stroke-linecap="round" stroke-dasharray="1 4"/>
</g>
<g filter="url(#filter3_d_525_18653)">
<rect x="408" y="158" width="96" height="96" rx="9.6" transform="rotate(-180 408 158)" fill="#FBFCFC"/>
<rect x="406.8" y="156.8" width="93.6" height="93.6" rx="8.4" transform="rotate(-180 406.8 156.8)" stroke="#C6C9CE" stroke-width="2.4"/>
</g>
<path d="M361.21 109.592C361.086 109.367 360.931 109.16 360.751 108.977L358.688 106.942C358.476 106.727 358.225 106.552 357.95 106.428C357.516 106.235 357.033 106.177 356.566 106.263C356.098 106.348 355.668 106.574 355.331 106.909C354.615 107.613 353.306 108.897 350.944 111.231C346.426 115.7 338.038 123.19 334.245 126.384C334.054 126.544 333.898 126.742 333.787 126.965C333.677 127.188 333.614 127.432 333.602 127.681C333.59 127.93 333.631 128.178 333.72 128.411C333.81 128.644 333.947 128.855 334.122 129.032L338.509 133.467C338.686 133.644 338.897 133.783 339.13 133.874C339.363 133.966 339.612 134.008 339.863 133.999C340.113 133.99 340.358 133.928 340.583 133.82C340.809 133.711 341.009 133.557 341.172 133.367C344.461 129.501 352.005 121.107 356.47 116.694C358.764 114.438 360.05 113.142 360.778 112.427C361.139 112.06 361.375 111.588 361.452 111.079C361.53 110.57 361.445 110.05 361.21 109.592ZM383.821 104.418L379.961 100.594C379.903 100.535 379.832 100.489 379.755 100.458C379.678 100.427 379.595 100.413 379.512 100.415C379.428 100.414 379.346 100.429 379.269 100.46C379.191 100.49 379.121 100.536 379.062 100.594C378.923 100.734 378.754 100.839 378.567 100.903C378.381 100.967 378.183 100.987 377.987 100.962C377.483 100.907 376.947 100.75 376.6 100.415C375.813 99.6436 376.723 98.1252 376.03 97.1534C375.239 96.0899 374.371 95.0854 373.434 94.1479C372.64 93.3606 369.518 90.3833 364.26 88.2395C362.582 87.5522 360.786 87.1991 358.973 87.2002C356.009 87.2002 353.73 88.5229 352.899 89.2822C352.237 89.8805 351.549 90.831 351.549 90.831C351.947 90.6861 352.353 90.5659 352.765 90.471C353.625 90.2868 354.507 90.2303 355.384 90.3035C357.134 90.4486 359.243 91.2696 360.375 92.1582C362.198 93.6204 362.982 95.5764 363.105 98.1004C363.195 99.9777 361.392 102.348 359.681 104.28C359.53 104.45 359.451 104.671 359.459 104.898C359.468 105.125 359.563 105.34 359.726 105.498L362.115 107.886C362.282 108.05 362.505 108.143 362.739 108.146C362.973 108.148 363.199 108.059 363.368 107.897C364.935 106.378 366.866 104.695 367.96 104.021C369.055 103.347 369.938 103.157 370.362 103.111C371.195 103.031 372.033 103.212 372.758 103.631C372.885 103.703 373.002 103.793 373.104 103.899C373.831 104.636 373.787 105.842 373.048 106.569L372.823 106.781C372.764 106.839 372.718 106.908 372.686 106.983C372.655 107.059 372.638 107.14 372.638 107.222C372.638 107.304 372.655 107.386 372.686 107.461C372.718 107.537 372.764 107.606 372.823 107.663L376.682 111.488C376.742 111.546 376.812 111.592 376.889 111.622C376.967 111.653 377.049 111.667 377.132 111.665C377.3 111.668 377.462 111.604 377.582 111.488L383.821 105.318C383.936 105.197 384 105.036 384 104.868C384 104.701 383.936 104.54 383.821 104.418Z" stroke="#888E99" stroke-width="2.4" stroke-linecap="round" stroke-linejoin="round"/>
<path d="M218 31H257.5C261.918 31 265.5 34.5817 265.5 39V82C265.5 86.4183 269.082 90 273.5 90H313" stroke="url(#paint0_linear_525_18653)" stroke-width="2" stroke-linecap="round" stroke-dasharray="1 4"/>
<path d="M218 187H257.5C261.918 187 265.5 183.418 265.5 179V138C265.5 133.582 269.082 130 273.5 130H313" stroke="url(#paint1_linear_525_18653)" stroke-width="2" stroke-linecap="round" stroke-dasharray="1 4"/>
<path d="M218 110L312 110" stroke="url(#paint2_linear_525_18653)" stroke-width="2" stroke-linecap="round" stroke-dasharray="1 4"/>
<rect x="237.8" y="62.8" width="182.6" height="61.6" rx="8.4" transform="rotate(-180 237.8 62.8)" fill="#FCD5E9" fill-opacity="0.2" stroke="#F68AC3" stroke-width="2.4"/>
<g filter="url(#filter4_d_525_18653)">
<rect x="218" y="56" width="48" height="48" rx="9.6" transform="rotate(-180 218 56)" fill="#FCD5E9" fill-opacity="0.2" shape-rendering="crispEdges"/>
<rect x="218" y="56" width="48" height="48" rx="9.6" transform="rotate(-180 218 56)" stroke="#F26DAA" stroke-width="2.4" stroke-dasharray="4.8 4.8" shape-rendering="crispEdges"/>
</g>
<path d="M194.605 31.7961C194.543 31.6835 194.465 31.5799 194.375 31.4885L193.344 30.4711C193.238 30.3633 193.112 30.2761 192.975 30.2141C192.758 30.1174 192.516 30.0885 192.283 30.1314C192.049 30.1742 191.834 30.2868 191.665 30.4543C191.308 30.8063 190.653 31.4486 189.472 32.6155C187.213 34.8499 183.019 38.5948 181.122 40.192C181.027 40.272 180.949 40.3709 180.893 40.4825C180.838 40.5942 180.807 40.716 180.801 40.8405C180.795 40.9649 180.815 41.0892 180.86 41.2055C180.905 41.3218 180.973 41.4275 181.061 41.5159L183.254 43.7334C183.343 43.822 183.448 43.8914 183.565 43.9372C183.681 43.9829 183.806 44.0042 183.931 43.9995C184.056 43.9948 184.179 43.9642 184.291 43.9098C184.404 43.8554 184.504 43.7783 184.586 43.6833C186.23 41.7504 190.002 37.5533 192.235 35.3471C193.382 34.2189 194.025 33.571 194.389 33.2134C194.569 33.0298 194.687 32.7941 194.726 32.5397C194.765 32.2852 194.722 32.0251 194.605 31.7961ZM205.91 29.2091L203.98 27.297C203.951 27.2676 203.916 27.2445 203.877 27.2291C203.839 27.2137 203.797 27.2064 203.756 27.2076C203.714 27.2069 203.673 27.2144 203.634 27.2298C203.595 27.2451 203.56 27.268 203.531 27.297C203.461 27.3668 203.377 27.4197 203.283 27.4516C203.19 27.4835 203.091 27.4935 202.993 27.4809C202.741 27.4534 202.473 27.3752 202.3 27.2076C201.906 26.8218 202.361 26.0626 202.015 25.5767C201.619 25.0449 201.185 24.5427 200.717 24.074C200.32 23.6803 198.759 22.1917 196.13 21.1197C195.291 20.7761 194.393 20.5996 193.486 20.6001C192.004 20.6001 190.865 21.2615 190.449 21.6411C190.118 21.9403 189.774 22.4155 189.774 22.4155C189.973 22.343 190.176 22.2829 190.382 22.2355C190.812 22.1434 191.253 22.1152 191.692 22.1517C192.567 22.2243 193.621 22.6348 194.187 23.0791C195.099 23.8102 195.491 24.7882 195.552 26.0502C195.597 26.9888 194.696 28.1738 193.84 29.14C193.765 29.2249 193.725 29.3356 193.729 29.449C193.734 29.5624 193.781 29.6699 193.863 29.749L195.057 30.943C195.141 31.0252 195.252 31.0717 195.369 31.0728C195.486 31.0738 195.599 31.0293 195.684 30.9486C196.467 30.1888 197.433 29.3475 197.98 29.0106C198.527 28.6737 198.969 28.5787 199.181 28.5556C199.597 28.5153 200.016 28.6061 200.379 28.8155C200.442 28.8516 200.501 28.8967 200.552 28.9493C200.915 29.3182 200.893 29.9211 200.524 30.2844L200.411 30.3907C200.382 30.4195 200.359 30.4538 200.343 30.4917C200.327 30.5295 200.319 30.5701 200.319 30.6112C200.319 30.6522 200.327 30.6928 200.343 30.7307C200.359 30.7685 200.382 30.8029 200.411 30.8316L202.341 32.7438C202.371 32.7729 202.406 32.7958 202.444 32.8111C202.483 32.8264 202.524 32.8337 202.566 32.8326C202.65 32.8338 202.731 32.8019 202.791 32.7438L205.91 29.6591C205.968 29.5983 206 29.5178 206 29.4341C206 29.3504 205.968 29.2699 205.91 29.2091Z" stroke="#F26DAA" stroke-width="1.2" stroke-linecap="round" stroke-linejoin="round"/>
<path d="M147.4 39.8C147.4 40.4365 147.147 41.0469 146.697 41.497C146.247 41.9471 145.636 42.2 145 42.2H125.8C125.163 42.2 124.553 41.9471 124.103 41.497C123.653 41.0469 123.4 40.4365 123.4 39.8V23C123.4 22.3635 123.653 21.753 124.103 21.3029C124.553 20.8528 125.163 20.6 125.8 20.6H131.8L134.2 24.2H145C145.636 24.2 146.247 24.4528 146.697 24.9029C147.147 25.353 147.4 25.9635 147.4 26.6V39.8Z" stroke="#F26DAA" stroke-width="2.4" stroke-linecap="round" stroke-linejoin="round"/>
<path d="M87.4001 26.6C93.3648 26.6 98.2001 24.9882 98.2001 23C98.2001 21.0118 93.3648 19.4 87.4001 19.4C81.4354 19.4 76.6001 21.0118 76.6001 23C76.6001 24.9882 81.4354 26.6 87.4001 26.6Z" stroke="#F26DAA" stroke-width="2.4" stroke-linecap="round" stroke-linejoin="round"/>
<path d="M98.2001 31.4C98.2001 33.392 93.4001 35 87.4001 35C81.4001 35 76.6001 33.392 76.6001 31.4" stroke="#F26DAA" stroke-width="2.4" stroke-linecap="round" stroke-linejoin="round"/>
<path d="M76.6001 23V39.8C76.6001 41.792 81.4001 43.4 87.4001 43.4C93.4001 43.4 98.2001 41.792 98.2001 39.8V23" stroke="#F26DAA" stroke-width="2.4" stroke-linecap="round" stroke-linejoin="round"/>
<rect x="237.8" y="138.8" width="182.6" height="61.6" rx="8.4" transform="rotate(-180 237.8 138.8)" fill="#FCD5E9" fill-opacity="0.2" stroke="#F68AC3" stroke-width="2.4"/>
<g filter="url(#filter5_d_525_18653)">
<rect x="218" y="132" width="48" height="48" rx="9.6" transform="rotate(-180 218 132)" fill="#FCD5E9" fill-opacity="0.2" shape-rendering="crispEdges"/>
<rect x="218" y="132" width="48" height="48" rx="9.6" transform="rotate(-180 218 132)" stroke="#F26DAA" stroke-width="2.4" stroke-dasharray="4.8 4.8" shape-rendering="crispEdges"/>
</g>
<path d="M194.605 107.796C194.543 107.683 194.465 107.58 194.375 107.489L193.344 106.471C193.238 106.363 193.112 106.276 192.975 106.214C192.758 106.117 192.516 106.089 192.283 106.131C192.049 106.174 191.834 106.287 191.665 106.454C191.308 106.806 190.653 107.449 189.472 108.616C187.213 110.85 183.019 114.595 181.122 116.192C181.027 116.272 180.949 116.371 180.893 116.483C180.838 116.594 180.807 116.716 180.801 116.84C180.795 116.965 180.815 117.089 180.86 117.205C180.905 117.322 180.973 117.427 181.061 117.516L183.254 119.733C183.343 119.822 183.448 119.891 183.565 119.937C183.681 119.983 183.806 120.004 183.931 119.999C184.056 119.995 184.179 119.964 184.291 119.91C184.404 119.855 184.504 119.778 184.586 119.683C186.23 117.75 190.002 113.553 192.235 111.347C193.382 110.219 194.025 109.571 194.389 109.213C194.569 109.03 194.687 108.794 194.726 108.54C194.765 108.285 194.722 108.025 194.605 107.796ZM205.91 105.209L203.98 103.297C203.951 103.268 203.916 103.244 203.877 103.229C203.839 103.214 203.797 103.206 203.756 103.208C203.714 103.207 203.673 103.214 203.634 103.23C203.595 103.245 203.56 103.268 203.531 103.297C203.461 103.367 203.377 103.42 203.283 103.452C203.19 103.483 203.091 103.494 202.993 103.481C202.741 103.453 202.473 103.375 202.3 103.208C201.906 102.822 202.361 102.063 202.015 101.577C201.619 101.045 201.185 100.543 200.717 100.074C200.32 99.6803 198.759 98.1917 196.13 97.1197C195.291 96.7761 194.393 96.5996 193.486 96.6001C192.004 96.6001 190.865 97.2615 190.449 97.6411C190.118 97.9403 189.774 98.4155 189.774 98.4155C189.973 98.343 190.176 98.2829 190.382 98.2355C190.812 98.1434 191.253 98.1152 191.692 98.1517C192.567 98.2243 193.621 98.6348 194.187 99.0791C195.099 99.8102 195.491 100.788 195.552 102.05C195.597 102.989 194.696 104.174 193.84 105.14C193.765 105.225 193.725 105.336 193.729 105.449C193.734 105.562 193.781 105.67 193.863 105.749L195.057 106.943C195.141 107.025 195.252 107.072 195.369 107.073C195.486 107.074 195.599 107.029 195.684 106.949C196.467 106.189 197.433 105.347 197.98 105.011C198.527 104.674 198.969 104.579 199.181 104.556C199.597 104.515 200.016 104.606 200.379 104.815C200.442 104.852 200.501 104.897 200.552 104.949C200.915 105.318 200.893 105.921 200.524 106.284L200.411 106.391C200.382 106.42 200.359 106.454 200.343 106.492C200.327 106.53 200.319 106.57 200.319 106.611C200.319 106.652 200.327 106.693 200.343 106.731C200.359 106.769 200.382 106.803 200.411 106.832L202.341 108.744C202.371 108.773 202.406 108.796 202.444 108.811C202.483 108.826 202.524 108.834 202.566 108.833C202.65 108.834 202.731 108.802 202.791 108.744L205.91 105.659C205.968 105.598 206 105.518 206 105.434C206 105.35 205.968 105.27 205.91 105.209Z" stroke="#F26DAA" stroke-width="1.2" stroke-linecap="round" stroke-linejoin="round"/>
<path d="M147.4 115.8C147.4 116.436 147.147 117.047 146.697 117.497C146.247 117.947 145.636 118.2 145 118.2H125.8C125.163 118.2 124.553 117.947 124.103 117.497C123.653 117.047 123.4 116.436 123.4 115.8V99C123.4 98.3635 123.653 97.753 124.103 97.3029C124.553 96.8528 125.163 96.6 125.8 96.6H131.8L134.2 100.2H145C145.636 100.2 146.247 100.453 146.697 100.903C147.147 101.353 147.4 101.963 147.4 102.6V115.8Z" stroke="#F26DAA" stroke-width="2.4" stroke-linecap="round" stroke-linejoin="round"/>
<path d="M87.4001 102.6C93.3648 102.6 98.2001 100.988 98.2001 99C98.2001 97.0118 93.3648 95.4 87.4001 95.4C81.4354 95.4 76.6001 97.0118 76.6001 99C76.6001 100.988 81.4354 102.6 87.4001 102.6Z" stroke="#F26DAA" stroke-width="2.4" stroke-linecap="round" stroke-linejoin="round"/>
<path d="M98.2001 107.4C98.2001 109.392 93.4001 111 87.4001 111C81.4001 111 76.6001 109.392 76.6001 107.4" stroke="#F26DAA" stroke-width="2.4" stroke-linecap="round" stroke-linejoin="round"/>
<path d="M76.6001 99V115.8C76.6001 117.792 81.4001 119.4 87.4001 119.4C93.4001 119.4 98.2001 117.792 98.2001 115.8V99" stroke="#F26DAA" stroke-width="2.4" stroke-linecap="round" stroke-linejoin="round"/>
<rect x="237.8" y="214.8" width="182.6" height="61.6" rx="8.4" transform="rotate(-180 237.8 214.8)" fill="#FCD5E9" fill-opacity="0.2" stroke="#F68AC3" stroke-width="2.4"/>
<g filter="url(#filter6_d_525_18653)">
<rect x="218" y="208" width="48" height="48" rx="9.6" transform="rotate(-180 218 208)" fill="#FCD5E9" fill-opacity="0.2" shape-rendering="crispEdges"/>
<rect x="218" y="208" width="48" height="48" rx="9.6" transform="rotate(-180 218 208)" stroke="#F26DAA" stroke-width="2.4" stroke-dasharray="4.8 4.8" shape-rendering="crispEdges"/>
</g>
<path d="M194.605 183.796C194.543 183.683 194.465 183.58 194.375 183.489L193.344 182.471C193.238 182.363 193.112 182.276 192.975 182.214C192.758 182.117 192.516 182.089 192.283 182.131C192.049 182.174 191.834 182.287 191.665 182.454C191.308 182.806 190.653 183.449 189.472 184.616C187.213 186.85 183.019 190.595 181.122 192.192C181.027 192.272 180.949 192.371 180.893 192.483C180.838 192.594 180.807 192.716 180.801 192.84C180.795 192.965 180.815 193.089 180.86 193.205C180.905 193.322 180.973 193.427 181.061 193.516L183.254 195.733C183.343 195.822 183.448 195.891 183.565 195.937C183.681 195.983 183.806 196.004 183.931 195.999C184.056 195.995 184.179 195.964 184.291 195.91C184.404 195.855 184.504 195.778 184.586 195.683C186.23 193.75 190.002 189.553 192.235 187.347C193.382 186.219 194.025 185.571 194.389 185.213C194.569 185.03 194.687 184.794 194.726 184.54C194.765 184.285 194.722 184.025 194.605 183.796ZM205.91 181.209L203.98 179.297C203.951 179.268 203.916 179.244 203.877 179.229C203.839 179.214 203.797 179.206 203.756 179.208C203.714 179.207 203.673 179.214 203.634 179.23C203.595 179.245 203.56 179.268 203.531 179.297C203.461 179.367 203.377 179.42 203.283 179.452C203.19 179.483 203.091 179.494 202.993 179.481C202.741 179.453 202.473 179.375 202.3 179.208C201.906 178.822 202.361 178.063 202.015 177.577C201.619 177.045 201.185 176.543 200.717 176.074C200.32 175.68 198.759 174.192 196.13 173.12C195.291 172.776 194.393 172.6 193.486 172.6C192.004 172.6 190.865 173.261 190.449 173.641C190.118 173.94 189.774 174.415 189.774 174.415C189.973 174.343 190.176 174.283 190.382 174.236C190.812 174.143 191.253 174.115 191.692 174.152C192.567 174.224 193.621 174.635 194.187 175.079C195.099 175.81 195.491 176.788 195.552 178.05C195.597 178.989 194.696 180.174 193.84 181.14C193.765 181.225 193.725 181.336 193.729 181.449C193.734 181.562 193.781 181.67 193.863 181.749L195.057 182.943C195.141 183.025 195.252 183.072 195.369 183.073C195.486 183.074 195.599 183.029 195.684 182.949C196.467 182.189 197.433 181.347 197.98 181.011C198.527 180.674 198.969 180.579 199.181 180.556C199.597 180.515 200.016 180.606 200.379 180.815C200.442 180.852 200.501 180.897 200.552 180.949C200.915 181.318 200.893 181.921 200.524 182.284L200.411 182.391C200.382 182.42 200.359 182.454 200.343 182.492C200.327 182.53 200.319 182.57 200.319 182.611C200.319 182.652 200.327 182.693 200.343 182.731C200.359 182.769 200.382 182.803 200.411 182.832L202.341 184.744C202.371 184.773 202.406 184.796 202.444 184.811C202.483 184.826 202.524 184.834 202.566 184.833C202.65 184.834 202.731 184.802 202.791 184.744L205.91 181.659C205.968 181.598 206 181.518 206 181.434C206 181.35 205.968 181.27 205.91 181.209Z" stroke="#F26DAA" stroke-width="1.2" stroke-linecap="round" stroke-linejoin="round"/>
<path d="M147.4 191.8C147.4 192.436 147.147 193.047 146.697 193.497C146.247 193.947 145.636 194.2 145 194.2H125.8C125.163 194.2 124.553 193.947 124.103 193.497C123.653 193.047 123.4 192.436 123.4 191.8V175C123.4 174.363 123.653 173.753 124.103 173.303C124.553 172.853 125.163 172.6 125.8 172.6H131.8L134.2 176.2H145C145.636 176.2 146.247 176.453 146.697 176.903C147.147 177.353 147.4 177.963 147.4 178.6V191.8Z" stroke="#F26DAA" stroke-width="2.4" stroke-linecap="round" stroke-linejoin="round"/>
<path d="M87.4001 178.6C93.3648 178.6 98.2001 176.988 98.2001 175C98.2001 173.012 93.3648 171.4 87.4001 171.4C81.4354 171.4 76.6001 173.012 76.6001 175C76.6001 176.988 81.4354 178.6 87.4001 178.6Z" stroke="#F26DAA" stroke-width="2.4" stroke-linecap="round" stroke-linejoin="round"/>
<path d="M98.2001 183.4C98.2001 185.392 93.4001 187 87.4001 187C81.4001 187 76.6001 185.392 76.6001 183.4" stroke="#F26DAA" stroke-width="2.4" stroke-linecap="round" stroke-linejoin="round"/>
<path d="M76.6001 175V191.8C76.6001 193.792 81.4001 195.4 87.4001 195.4C93.4001 195.4 98.2001 193.792 98.2001 191.8V175" stroke="#F26DAA" stroke-width="2.4" stroke-linecap="round" stroke-linejoin="round"/>
</g>
<defs>
<filter id="filter0_d_525_18653" x="29.4" y="29.2" width="35.2" height="21.2" filterUnits="userSpaceOnUse" color-interpolation-filters="sRGB">
<feFlood flood-opacity="0" result="BackgroundImageFix"/>
<feColorMatrix in="SourceAlpha" type="matrix" values="0 0 0 0 0 0 0 0 0 0 0 0 0 0 0 0 0 0 127 0" result="hardAlpha"/>
<feOffset dy="4.8"/>
<feGaussianBlur stdDeviation="4.8"/>
<feComposite in2="hardAlpha" operator="out"/>
<feColorMatrix type="matrix" values="0 0 0 0 0.8375 0 0 0 0 0.812375 0 0 0 0 0.774688 0 0 0 0.2 0"/>
<feBlend mode="normal" in2="BackgroundImageFix" result="effect1_dropShadow_525_18653"/>
<feBlend mode="normal" in="SourceGraphic" in2="effect1_dropShadow_525_18653" result="shape"/>
</filter>
<filter id="filter1_d_525_18653" x="27.4" y="181" width="37.2" height="21.2" filterUnits="userSpaceOnUse" color-interpolation-filters="sRGB">
<feFlood flood-opacity="0" result="BackgroundImageFix"/>
<feColorMatrix in="SourceAlpha" type="matrix" values="0 0 0 0 0 0 0 0 0 0 0 0 0 0 0 0 0 0 127 0" result="hardAlpha"/>
<feOffset dy="4.8"/>
<feGaussianBlur stdDeviation="4.8"/>
<feComposite in2="hardAlpha" operator="out"/>
<feColorMatrix type="matrix" values="0 0 0 0 0.8375 0 0 0 0 0.812375 0 0 0 0 0.774688 0 0 0 0.2 0"/>
<feBlend mode="normal" in2="BackgroundImageFix" result="effect1_dropShadow_525_18653"/>
<feBlend mode="normal" in="SourceGraphic" in2="effect1_dropShadow_525_18653" result="shape"/>
</filter>
<filter id="filter2_d_525_18653" x="27.4" y="104.6" width="37.2" height="21.2" filterUnits="userSpaceOnUse" color-interpolation-filters="sRGB">
<feFlood flood-opacity="0" result="BackgroundImageFix"/>
<feColorMatrix in="SourceAlpha" type="matrix" values="0 0 0 0 0 0 0 0 0 0 0 0 0 0 0 0 0 0 127 0" result="hardAlpha"/>
<feOffset dy="4.8"/>
<feGaussianBlur stdDeviation="4.8"/>
<feComposite in2="hardAlpha" operator="out"/>
<feColorMatrix type="matrix" values="0 0 0 0 0.8375 0 0 0 0 0.812375 0 0 0 0 0.774688 0 0 0 0.2 0"/>
<feBlend mode="normal" in2="BackgroundImageFix" result="effect1_dropShadow_525_18653"/>
<feBlend mode="normal" in="SourceGraphic" in2="effect1_dropShadow_525_18653" result="shape"/>
</filter>
<filter id="filter3_d_525_18653" x="302.4" y="57.2" width="115.2" height="115.2" filterUnits="userSpaceOnUse" color-interpolation-filters="sRGB">
<feFlood flood-opacity="0" result="BackgroundImageFix"/>
<feColorMatrix in="SourceAlpha" type="matrix" values="0 0 0 0 0 0 0 0 0 0 0 0 0 0 0 0 0 0 127 0" result="hardAlpha"/>
<feOffset dy="4.8"/>
<feGaussianBlur stdDeviation="4.8"/>
<feComposite in2="hardAlpha" operator="out"/>
<feColorMatrix type="matrix" values="0 0 0 0 0.8375 0 0 0 0 0.812375 0 0 0 0 0.774688 0 0 0 0.2 0"/>
<feBlend mode="normal" in2="BackgroundImageFix" result="effect1_dropShadow_525_18653"/>
<feBlend mode="normal" in="SourceGraphic" in2="effect1_dropShadow_525_18653" result="shape"/>
</filter>
<filter id="filter4_d_525_18653" x="159.2" y="2.00005" width="69.6004" height="69.5999" filterUnits="userSpaceOnUse" color-interpolation-filters="sRGB">
<feFlood flood-opacity="0" result="BackgroundImageFix"/>
<feColorMatrix in="SourceAlpha" type="matrix" values="0 0 0 0 0 0 0 0 0 0 0 0 0 0 0 0 0 0 127 0" result="hardAlpha"/>
<feOffset dy="4.8"/>
<feGaussianBlur stdDeviation="4.8"/>
<feComposite in2="hardAlpha" operator="out"/>
<feColorMatrix type="matrix" values="0 0 0 0 0.8375 0 0 0 0 0.812375 0 0 0 0 0.774688 0 0 0 0.2 0"/>
<feBlend mode="normal" in2="BackgroundImageFix" result="effect1_dropShadow_525_18653"/>
<feBlend mode="normal" in="SourceGraphic" in2="effect1_dropShadow_525_18653" result="shape"/>
</filter>
<filter id="filter5_d_525_18653" x="159.2" y="78" width="69.6004" height="69.5999" filterUnits="userSpaceOnUse" color-interpolation-filters="sRGB">
<feFlood flood-opacity="0" result="BackgroundImageFix"/>
<feColorMatrix in="SourceAlpha" type="matrix" values="0 0 0 0 0 0 0 0 0 0 0 0 0 0 0 0 0 0 127 0" result="hardAlpha"/>
<feOffset dy="4.8"/>
<feGaussianBlur stdDeviation="4.8"/>
<feComposite in2="hardAlpha" operator="out"/>
<feColorMatrix type="matrix" values="0 0 0 0 0.8375 0 0 0 0 0.812375 0 0 0 0 0.774688 0 0 0 0.2 0"/>
<feBlend mode="normal" in2="BackgroundImageFix" result="effect1_dropShadow_525_18653"/>
<feBlend mode="normal" in="SourceGraphic" in2="effect1_dropShadow_525_18653" result="shape"/>
</filter>
<filter id="filter6_d_525_18653" x="159.2" y="154" width="69.6004" height="69.5999" filterUnits="userSpaceOnUse" color-interpolation-filters="sRGB">
<feFlood flood-opacity="0" result="BackgroundImageFix"/>
<feColorMatrix in="SourceAlpha" type="matrix" values="0 0 0 0 0 0 0 0 0 0 0 0 0 0 0 0 0 0 127 0" result="hardAlpha"/>
<feOffset dy="4.8"/>
<feGaussianBlur stdDeviation="4.8"/>
<feComposite in2="hardAlpha" operator="out"/>
<feColorMatrix type="matrix" values="0 0 0 0 0.8375 0 0 0 0 0.812375 0 0 0 0 0.774688 0 0 0 0.2 0"/>
<feBlend mode="normal" in2="BackgroundImageFix" result="effect1_dropShadow_525_18653"/>
<feBlend mode="normal" in="SourceGraphic" in2="effect1_dropShadow_525_18653" result="shape"/>
</filter>
<linearGradient id="paint0_linear_525_18653" x1="218" y1="5.07677" x2="295.345" y2="5.07677" gradientUnits="userSpaceOnUse">
<stop stop-color="#F26DAA"/>
<stop offset="1" stop-color="#C6C9CE"/>
</linearGradient>
<linearGradient id="paint1_linear_525_18653" x1="218" y1="212.044" x2="295.345" y2="212.044" gradientUnits="userSpaceOnUse">
<stop stop-color="#F26DAA"/>
<stop offset="1" stop-color="#C6C9CE"/>
</linearGradient>
<linearGradient id="paint2_linear_525_18653" x1="218" y1="109.561" x2="294.531" y2="109.561" gradientUnits="userSpaceOnUse">
<stop stop-color="#F26DAA"/>
<stop offset="1" stop-color="#C6C9CE"/>
</linearGradient>
<clipPath id="clip0_525_18653">
<rect width="411" height="216" fill="white"/>
</clipPath>
</defs>
</svg>
