<svg width="400" height="192" viewBox="0 0 400 192" fill="none" xmlns="http://www.w3.org/2000/svg">
<rect x="396.8" y="190.8" width="198.6" height="189.6" rx="8.4" transform="rotate(-180 396.8 190.8)" fill="#FBFCFC" stroke="#C6C9CE" stroke-width="2.4"/>
<path d="M22.2 39.6V37.2C22.2 35.927 21.6943 34.7061 20.7941 33.8059C19.8939 32.9057 18.673 32.4 17.4 32.4H7.8C6.52696 32.4 5.30606 32.9057 4.40589 33.8059C3.50571 34.7061 3 35.927 3 37.2V39.6" stroke="#F26DAA" stroke-width="2.4" stroke-linecap="round" stroke-linejoin="round"/>
<path d="M12.5998 27.6C15.2508 27.6 17.3998 25.451 17.3998 22.8C17.3998 20.149 15.2508 18 12.5998 18C9.94884 18 7.7998 20.149 7.7998 22.8C7.7998 25.451 9.94884 27.6 12.5998 27.6Z" stroke="#F26DAA" stroke-width="2.4" stroke-linecap="round" stroke-linejoin="round"/>
<path d="M22.2488 101.2V98.8C22.2488 97.527 21.7431 96.3061 20.8429 95.4059C19.9428 94.5057 18.7219 94 17.4488 94H7.84883C6.57579 94 5.35489 94.5057 4.45472 95.4059C3.55454 96.3061 3.04883 97.527 3.04883 98.8V101.2" stroke="#F26DAA" stroke-width="2.4" stroke-linecap="round" stroke-linejoin="round"/>
<path d="M12.6486 89.2001C15.2996 89.2001 17.4486 87.0511 17.4486 84.4001C17.4486 81.7491 15.2996 79.6001 12.6486 79.6001C9.99767 79.6001 7.84863 81.7491 7.84863 84.4001C7.84863 87.0511 9.99767 89.2001 12.6486 89.2001Z" stroke="#F26DAA" stroke-width="2.4" stroke-linecap="round" stroke-linejoin="round"/>
<path d="M22.2488 162.8V160.4C22.2488 159.127 21.7431 157.906 20.8429 157.006C19.9428 156.106 18.7219 155.6 17.4488 155.6H7.84883C6.57579 155.6 5.35489 156.106 4.45472 157.006C3.55454 157.906 3.04883 159.127 3.04883 160.4V162.8" stroke="#F26DAA" stroke-width="2.4" stroke-linecap="round" stroke-linejoin="round"/>
<path d="M12.6486 150.8C15.2996 150.8 17.4486 148.651 17.4486 146C17.4486 143.349 15.2996 141.2 12.6486 141.2C9.99767 141.2 7.84863 143.349 7.84863 146C7.84863 148.651 9.99767 150.8 12.6486 150.8Z" stroke="#F26DAA" stroke-width="2.4" stroke-linecap="round" stroke-linejoin="round"/>
<g filter="url(#filter0_d_525_18625)">
<rect x="245" y="140" width="96" height="96" rx="9.6" transform="rotate(-180 245 140)" fill="#FBFCFC"/>
<rect x="243.8" y="138.8" width="93.6" height="93.6" rx="8.4" transform="rotate(-180 243.8 138.8)" stroke="#C6C9CE" stroke-width="2.4"/>
</g>
<path d="M198.21 91.5923C198.086 91.3669 197.931 91.1599 197.751 90.977L195.688 88.9423C195.476 88.7266 195.225 88.5523 194.95 88.4283C194.516 88.2347 194.033 88.177 193.566 88.2627C193.098 88.3485 192.668 88.5736 192.331 88.9085C191.615 89.6127 190.306 90.8972 187.944 93.2311C183.426 97.6998 175.038 105.19 171.245 108.384C171.054 108.544 170.898 108.742 170.787 108.965C170.677 109.188 170.614 109.432 170.602 109.681C170.59 109.93 170.631 110.178 170.72 110.411C170.81 110.644 170.947 110.855 171.122 111.032L175.509 115.467C175.686 115.644 175.897 115.783 176.13 115.874C176.363 115.966 176.612 116.008 176.863 115.999C177.113 115.99 177.358 115.928 177.583 115.82C177.809 115.711 178.009 115.557 178.172 115.367C181.461 111.501 189.005 103.107 193.47 98.6941C195.764 96.4378 197.05 95.1421 197.778 94.4267C198.139 94.0597 198.375 93.5882 198.452 93.0793C198.53 92.5705 198.445 92.0501 198.21 91.5923ZM220.821 86.4183L216.961 82.594C216.903 82.5352 216.832 82.489 216.755 82.4582C216.678 82.4275 216.595 82.4128 216.512 82.4152C216.428 82.4138 216.346 82.4289 216.269 82.4596C216.191 82.4903 216.121 82.536 216.062 82.594C215.923 82.7336 215.754 82.8394 215.567 82.9032C215.381 82.967 215.183 82.987 214.987 82.9618C214.483 82.9067 213.947 82.7504 213.6 82.4152C212.813 81.6436 213.723 80.1252 213.03 79.1534C212.239 78.0899 211.371 77.0854 210.434 76.1479C209.64 75.3606 206.518 72.3833 201.26 70.2395C199.582 69.5522 197.786 69.1991 195.973 69.2002C193.009 69.2002 190.73 70.5229 189.899 71.2822C189.237 71.8805 188.549 72.831 188.549 72.831C188.947 72.6861 189.353 72.5659 189.765 72.471C190.625 72.2868 191.507 72.2303 192.384 72.3035C194.134 72.4486 196.243 73.2696 197.375 74.1582C199.198 75.6204 199.982 77.5764 200.105 80.1004C200.195 81.9777 198.392 84.3476 196.681 86.2799C196.53 86.4498 196.451 86.6712 196.459 86.898C196.468 87.1248 196.563 87.3397 196.726 87.4981L199.115 89.886C199.282 90.0503 199.505 90.1434 199.739 90.1455C199.973 90.1476 200.199 90.0586 200.368 89.8972C201.935 88.3776 203.866 86.695 204.96 86.0212C206.055 85.3475 206.938 85.1574 207.362 85.1113C208.195 85.0306 209.033 85.2123 209.758 85.6309C209.885 85.7032 210.002 85.7933 210.104 85.8986C210.831 86.6365 210.787 87.8423 210.048 88.5689L209.823 88.7814C209.764 88.839 209.718 88.9076 209.686 88.9833C209.655 89.059 209.638 89.1403 209.638 89.2224C209.638 89.3044 209.655 89.3857 209.686 89.4614C209.718 89.5371 209.764 89.6057 209.823 89.6633L213.682 93.4875C213.742 93.5458 213.812 93.5916 213.889 93.6222C213.967 93.6527 214.049 93.6673 214.132 93.6652C214.3 93.6676 214.462 93.6037 214.582 93.4875L220.821 87.3181C220.936 87.1965 221 87.0355 221 86.8682C221 86.7008 220.936 86.5398 220.821 86.4183Z" stroke="#888E99" stroke-width="2.4" stroke-linecap="round" stroke-linejoin="round"/>
<path d="M274.8 66.4999C280.765 66.4999 285.6 64.8882 285.6 62.8999C285.6 60.9117 280.765 59.2999 274.8 59.2999C268.835 59.2999 264 60.9117 264 62.8999C264 64.8882 268.835 66.4999 274.8 66.4999Z" stroke="#7B7673" stroke-width="2.4" stroke-linecap="round" stroke-linejoin="round"/>
<path d="M285.6 71.2999C285.6 73.2919 280.8 74.8999 274.8 74.8999C268.8 74.8999 264 73.2919 264 71.2999" stroke="#7B7673" stroke-width="2.4" stroke-linecap="round" stroke-linejoin="round"/>
<path d="M264 62.8999V79.6999C264 81.6919 268.8 83.2999 274.8 83.2999C280.8 83.2999 285.6 81.6919 285.6 79.6999V62.8999" stroke="#7B7673" stroke-width="2.4" stroke-linecap="round" stroke-linejoin="round"/>
<path d="M265.2 108.5H284.4C285.72 108.5 286.8 109.58 286.8 110.9V125.3C286.8 126.62 285.72 127.7 284.4 127.7H265.2C263.88 127.7 262.8 126.62 262.8 125.3V110.9C262.8 109.58 263.88 108.5 265.2 108.5Z" stroke="#7B7673" stroke-width="2.4" stroke-linecap="round" stroke-linejoin="round"/>
<path d="M286.8 110.9L274.8 119.3L262.8 110.9" stroke="#7B7673" stroke-width="2.4" stroke-linecap="round" stroke-linejoin="round"/>
<path d="M331.2 125.973C331.2 126.61 330.947 127.22 330.497 127.67C330.047 128.12 329.436 128.373 328.8 128.373H309.6C308.963 128.373 308.353 128.12 307.903 127.67C307.453 127.22 307.2 126.61 307.2 125.973V109.173C307.2 108.537 307.453 107.926 307.903 107.476C308.353 107.026 308.963 106.773 309.6 106.773H315.6L318 110.373H328.8C329.436 110.373 330.047 110.626 330.497 111.076C330.947 111.526 331.2 112.137 331.2 112.773V125.973Z" stroke="#7B7673" stroke-width="2.4" stroke-linecap="round" stroke-linejoin="round"/>
<path d="M316.8 60.4999H308.4V68.8999H316.8V60.4999Z" stroke="#7B7673" stroke-width="2.4" stroke-linecap="round" stroke-linejoin="round"/>
<path d="M330 60.4999H321.6V68.8999H330V60.4999Z" stroke="#7B7673" stroke-width="2.4" stroke-linecap="round" stroke-linejoin="round"/>
<path d="M330 73.7H321.6V82.1H330V73.7Z" stroke="#7B7673" stroke-width="2.4" stroke-linecap="round" stroke-linejoin="round"/>
<path d="M316.8 73.7H308.4V82.1H316.8V73.7Z" stroke="#7B7673" stroke-width="2.4" stroke-linecap="round" stroke-linejoin="round"/>
<path d="M34 32H84C88.4183 32 92 35.5817 92 40V64C92 68.4183 95.5817 72 100 72H150" stroke="url(#paint0_linear_525_18625)" stroke-width="2" stroke-linecap="round" stroke-dasharray="1 4"/>
<path d="M32 153H83C87.4183 153 91 149.418 91 145V120C91 115.582 94.5817 112 99 112H150" stroke="url(#paint1_linear_525_18625)" stroke-width="2" stroke-linecap="round" stroke-dasharray="1 4"/>
<path d="M32 92H149" stroke="url(#paint2_linear_525_18625)" stroke-width="2" stroke-linecap="round" stroke-dasharray="1 4"/>
<defs>
<filter id="filter0_d_525_18625" x="139.4" y="39.2" width="115.2" height="115.2" filterUnits="userSpaceOnUse" color-interpolation-filters="sRGB">
<feFlood flood-opacity="0" result="BackgroundImageFix"/>
<feColorMatrix in="SourceAlpha" type="matrix" values="0 0 0 0 0 0 0 0 0 0 0 0 0 0 0 0 0 0 127 0" result="hardAlpha"/>
<feOffset dy="4.8"/>
<feGaussianBlur stdDeviation="4.8"/>
<feComposite in2="hardAlpha" operator="out"/>
<feColorMatrix type="matrix" values="0 0 0 0 0.8375 0 0 0 0 0.812375 0 0 0 0 0.774688 0 0 0 0.2 0"/>
<feBlend mode="normal" in2="BackgroundImageFix" result="effect1_dropShadow_525_18625"/>
<feBlend mode="normal" in="SourceGraphic" in2="effect1_dropShadow_525_18625" result="shape"/>
</filter>
<linearGradient id="paint0_linear_525_18625" x1="34" y1="14.4249" x2="128.442" y2="14.4249" gradientUnits="userSpaceOnUse">
<stop stop-color="#F26DAA"/>
<stop offset="1" stop-color="#C6C9CE"/>
</linearGradient>
<linearGradient id="paint1_linear_525_18625" x1="32" y1="171.014" x2="128.071" y2="171.014" gradientUnits="userSpaceOnUse">
<stop stop-color="#F26DAA"/>
<stop offset="1" stop-color="#C6C9CE"/>
</linearGradient>
<linearGradient id="paint2_linear_525_18625" x1="32" y1="91.5606" x2="127.257" y2="91.5612" gradientUnits="userSpaceOnUse">
<stop stop-color="#F26DAA"/>
<stop offset="1" stop-color="#C6C9CE"/>
</linearGradient>
</defs>
</svg>
