<svg width="1234" height="379" viewBox="0 0 1234 379" fill="none" xmlns="http://www.w3.org/2000/svg">
<g filter="url(#filter0_d_525_18801)">
<rect width="174" height="204" rx="9.6" transform="matrix(0.866025 0.5 0 1 831.104 25)" fill="white" fill-opacity="0.2" shape-rendering="crispEdges"/>
<rect width="174" height="204" rx="9.6" transform="matrix(0.866025 0.5 0 1 831.104 25)" fill="#FCD5E9" fill-opacity="0.2" shape-rendering="crispEdges"/>
<rect x="1.03923" y="1.8" width="171.6" height="201.6" rx="8.4" transform="matrix(0.866025 0.5 0 1 831.243 24.4804)" stroke="#F26DAA" stroke-width="2.4" stroke-dasharray="4.8 4.8" shape-rendering="crispEdges"/>
</g>
<path d="M925.655 307.589V294.907L927.619 296.041L931.12 308.178L931.242 308.249L934.744 300.154L936.707 301.288V313.97L935.155 313.074V303.766L935.04 303.7L931.813 311.145L930.55 310.415L927.33 299.249L927.208 299.178V308.486L925.655 307.589ZM940.133 304.698C939.562 304.368 939.097 303.564 939.097 302.914C939.097 302.254 939.562 301.986 940.133 302.316C940.696 302.641 941.168 303.45 941.168 304.109C941.168 304.759 940.696 305.023 940.133 304.698ZM939.303 315.469V305.924L940.947 306.873V316.418L939.303 315.469ZM946.831 320C944.418 318.606 942.941 315.855 942.941 312.771V312.753C942.941 309.729 944.41 308.688 946.823 310.081C948.901 311.281 950.142 313.351 950.37 315.337V315.381L948.787 314.476L948.779 314.445C948.597 313.399 947.927 312.309 946.831 311.676C945.453 310.881 944.623 311.667 944.623 313.724V313.742C944.623 315.851 945.468 317.622 946.831 318.409C947.866 319.006 948.505 318.831 948.772 317.956L948.787 317.921L950.37 318.835L950.355 318.905C950.058 320.588 948.878 321.182 946.831 320ZM952.243 322.939V313.395L953.894 314.348V315.79L954.016 315.86C954.313 315.021 955.082 314.867 956.185 315.504C956.452 315.658 956.741 315.869 956.908 316.009V317.767C956.612 317.525 956.33 317.319 956.018 317.139C954.754 316.409 953.894 316.809 953.894 318.189V323.893L952.243 322.939ZM961.772 328.626C959.344 327.224 957.86 324.495 957.86 321.419V321.401C957.86 318.334 959.352 317.314 961.772 318.712C964.185 320.105 965.677 322.838 965.677 325.915V325.932C965.677 329.008 964.193 330.023 961.772 328.626ZM961.772 327.035C963.188 327.853 963.995 327.07 963.995 324.961V324.943C963.995 322.825 963.188 321.12 961.772 320.303C960.349 319.481 959.55 320.259 959.55 322.377V322.395C959.55 324.513 960.349 326.213 961.772 327.035ZM970.655 333.754C968.661 332.603 967.397 330.792 967.237 329.101V329.092L968.889 330.045L968.897 330.059C969.102 330.898 969.703 331.729 970.685 332.295C971.705 332.884 972.413 332.757 972.413 331.975V331.957C972.413 331.359 972.025 330.731 971.066 329.922L969.749 328.811C968.189 327.497 967.466 326.262 967.466 324.864V324.855C967.466 323.194 968.805 322.772 970.678 323.854C972.565 324.943 973.776 326.732 973.92 328.371V328.38L972.345 327.47V327.453C972.185 326.692 971.599 325.853 970.67 325.317C969.764 324.794 969.11 324.935 969.11 325.699V325.717C969.11 326.314 969.49 326.903 970.419 327.694L971.728 328.793C973.319 330.142 974.08 331.364 974.08 332.744V332.761C974.08 334.528 972.619 334.888 970.655 333.754Z" fill="#F26DAA"/>
<g clip-path="url(#clip0_525_18801)">
<rect x="1.03923" y="1.8" width="137.6" height="49.6" rx="8.4" transform="matrix(0.866025 0.5 0 1 797.243 48.4804)" fill="#FCD5E9" fill-opacity="0.8" stroke="#F68AC3" stroke-width="2.4"/>
<g clip-path="url(#clip1_525_18801)">
<path d="M848.199 96.5V102.5L853.395 105.5" stroke="#F68AC3" stroke-width="2" stroke-linecap="round" stroke-linejoin="round"/>
<path d="M867.252 123.5V117.5L862.056 114.5" stroke="#F68AC3" stroke-width="2" stroke-linecap="round" stroke-linejoin="round"/>
<path d="M865.078 111.245C864.639 109.558 863.892 107.846 862.908 106.268C861.924 104.689 860.735 103.297 859.45 102.22C858.166 101.143 856.829 100.417 855.565 100.109C854.3 99.8013 853.148 99.922 852.218 100.46L848.199 102.5M867.252 117.5L863.233 119.54C862.303 120.078 861.151 120.199 859.886 119.891C858.622 119.583 857.285 118.857 856.001 117.78C854.716 116.703 853.527 115.31 852.543 113.732C851.559 112.154 850.812 110.442 850.373 108.755" stroke="#F68AC3" stroke-width="2" stroke-linecap="round" stroke-linejoin="round"/>
</g>
<rect x="1.03923" y="1.8" width="137.6" height="49.6" rx="8.4" transform="matrix(0.866025 0.5 0 1 797.243 108.48)" fill="#FCD5E9" fill-opacity="0.8" stroke="#F68AC3" stroke-width="2.4"/>
<g clip-path="url(#clip2_525_18801)">
<path d="M848.199 156.5V162.5L853.395 165.5" stroke="#F68AC3" stroke-width="2" stroke-linecap="round" stroke-linejoin="round"/>
<path d="M867.252 183.5V177.5L862.056 174.5" stroke="#F68AC3" stroke-width="2" stroke-linecap="round" stroke-linejoin="round"/>
<path d="M865.078 171.245C864.639 169.558 863.892 167.846 862.908 166.268C861.924 164.689 860.735 163.297 859.45 162.22C858.166 161.143 856.829 160.417 855.565 160.109C854.3 159.801 853.148 159.922 852.218 160.46L848.199 162.5M867.252 177.5L863.233 179.54C862.303 180.078 861.151 180.199 859.886 179.891C858.622 179.583 857.285 178.857 856.001 177.78C854.716 176.703 853.527 175.31 852.543 173.732C851.559 172.154 850.812 170.442 850.373 168.755" stroke="#F68AC3" stroke-width="2" stroke-linecap="round" stroke-linejoin="round"/>
</g>
<rect x="1.03923" y="1.8" width="137.6" height="49.6" rx="8.4" transform="matrix(0.866025 0.5 0 1 797.243 168.48)" fill="#FCD5E9" fill-opacity="0.8" stroke="#F68AC3" stroke-width="2.4"/>
<g clip-path="url(#clip3_525_18801)">
<path d="M848.199 216.5V222.5L853.395 225.5" stroke="#F68AC3" stroke-width="2" stroke-linecap="round" stroke-linejoin="round"/>
<path d="M867.252 243.5V237.5L862.056 234.5" stroke="#F68AC3" stroke-width="2" stroke-linecap="round" stroke-linejoin="round"/>
<path d="M865.078 231.245C864.639 229.558 863.892 227.846 862.908 226.268C861.924 224.689 860.735 223.297 859.45 222.22C858.166 221.143 856.829 220.417 855.565 220.109C854.3 219.801 853.148 219.922 852.218 220.46L848.199 222.5M867.252 237.5L863.233 239.54C862.303 240.078 861.151 240.199 859.886 239.891C858.622 239.583 857.285 238.857 856.001 237.78C854.716 236.703 853.527 235.31 852.543 233.732C851.559 232.154 850.812 230.442 850.373 228.755" stroke="#F68AC3" stroke-width="2" stroke-linecap="round" stroke-linejoin="round"/>
</g>
</g>
<g filter="url(#filter1_d_525_18801)">
<rect width="174" height="204" rx="9.6" transform="matrix(0.866025 0.5 0 1 626.414 25)" fill="white"/>
<rect width="174" height="204" rx="9.6" transform="matrix(0.866025 0.5 0 1 626.414 25)" fill="url(#paint0_linear_525_18801)" fill-opacity="0.12"/>
<rect x="1.03923" y="1.8" width="171.6" height="201.6" rx="8.4" transform="matrix(0.866025 0.5 0 1 626.553 24.4804)" stroke="white" stroke-width="2.4" stroke-dasharray="4.8 4.8"/>
<rect x="1.03923" y="1.8" width="171.6" height="201.6" rx="8.4" transform="matrix(0.866025 0.5 0 1 626.553 24.4804)" stroke="url(#paint1_linear_525_18801)" stroke-width="2.4" stroke-dasharray="4.8 4.8"/>
</g>
<path d="M736.569 316.598V303.916L740.535 306.205C743.792 308.086 745.703 311.509 745.703 315.491V315.508C745.703 319.534 743.808 320.777 740.535 318.888L736.569 316.598ZM738.274 315.886L740.344 317.082C742.643 318.409 743.967 317.477 743.967 314.533V314.515C743.967 311.597 742.62 309.105 740.344 307.792L738.274 306.596V315.886ZM750.064 324.548C748.489 323.638 747.324 321.858 747.324 320.127V320.109C747.324 318.404 748.435 318.053 750.407 319.05L752.645 320.193V319.349C752.645 318.303 752.074 317.394 750.955 316.748C750.041 316.22 749.44 316.26 749.242 316.822L749.235 316.853L747.644 315.935L747.651 315.877C747.849 314.427 749.151 314.133 751.031 315.218C753.109 316.418 754.281 318.29 754.281 320.294V326.824L752.645 325.879V324.526L752.515 324.451C752.028 325.137 751.16 325.181 750.064 324.548ZM748.968 320.997C748.968 321.876 749.615 322.768 750.506 323.282C751.739 323.994 752.645 323.585 752.645 322.355V321.538L750.628 320.522C749.486 319.942 748.968 320.118 748.968 320.979V320.997ZM759.731 330.032C757.912 328.982 757.166 327.813 757.166 325.976V320.448L755.872 319.701V318.198L757.166 318.945V316.537L758.848 317.508V319.916L760.622 320.94V322.443L758.848 321.419V326.49C758.848 327.519 759.183 328.134 759.997 328.604C760.249 328.749 760.393 328.824 760.622 328.929V330.45C760.355 330.349 760.051 330.217 759.731 330.032ZM764.816 333.064C763.24 332.155 762.075 330.375 762.075 328.644V328.626C762.075 326.921 763.187 326.569 765.158 327.567L767.396 328.709V327.866C767.396 326.82 766.825 325.91 765.706 325.264C764.793 324.737 764.191 324.776 763.993 325.339L763.986 325.37L762.395 324.451L762.403 324.394C762.601 322.944 763.902 322.649 765.782 323.735C767.86 324.935 769.032 326.807 769.032 328.811V335.341L767.396 334.396V333.042L767.266 332.968C766.779 333.653 765.912 333.697 764.816 333.064ZM763.719 329.514C763.719 330.393 764.366 331.285 765.257 331.799C766.49 332.511 767.396 332.102 767.396 330.872V330.054L765.379 329.039C764.237 328.459 763.719 328.635 763.719 329.496V329.514Z" fill="#4D73E0"/>
<rect x="1.03923" y="1.8" width="139.6" height="79.6" rx="8.4" transform="matrix(0.866025 0.5 0 1 592.553 138.48)" fill="#CCE2FD" fill-opacity="0.8" stroke="#4D73E0" stroke-width="2.4"/>
<rect x="1.03923" y="1.8" width="139.6" height="79.6" rx="8.4" transform="matrix(0.866025 0.5 0 1 592.553 48.4804)" fill="#F3E8FF" fill-opacity="0.8" stroke="#9333EA" stroke-width="2.4"/>
<path d="M649.371 129.884V115.792L654.276 118.624C656.568 119.947 657.946 122.091 657.946 124.249V124.269C657.946 125.733 657.008 126.51 655.807 126.051V126.217C657.456 127.374 658.555 129.356 658.555 131.192V131.212C658.555 133.683 656.991 134.283 654.386 132.779L649.371 129.884ZM653.836 120.157L651.265 118.673V122.882L653.515 124.181C655.189 125.147 656.06 124.928 656.06 123.561V123.541C656.06 122.213 655.24 120.968 653.836 120.157ZM653.895 126.07L651.265 124.552V129.19L654.005 130.772C655.714 131.759 656.619 131.471 656.619 129.957V129.938C656.619 128.424 655.68 127.101 653.895 126.07ZM663.3 138.102C661.549 137.091 660.255 135.113 660.255 133.189V133.17C660.255 131.275 661.49 130.885 663.68 131.993L666.167 133.263V132.325C666.167 131.163 665.532 130.152 664.289 129.435C663.274 128.849 662.606 128.893 662.386 129.518L662.378 129.552L660.61 128.531L660.619 128.468C660.839 126.856 662.285 126.529 664.374 127.735C666.683 129.068 667.985 131.148 667.985 133.375V140.631L666.167 139.581V138.077L666.023 137.994C665.482 138.756 664.518 138.805 663.3 138.102ZM662.082 134.156C662.082 135.133 662.801 136.124 663.79 136.695C665.16 137.486 666.167 137.032 666.167 135.665V134.757L663.926 133.629C662.657 132.984 662.082 133.18 662.082 134.137V134.156ZM673.914 144.259C671.698 142.979 670.294 140.968 670.116 139.088V139.078L671.952 140.138L671.96 140.152C672.188 141.085 672.856 142.008 673.947 142.638C675.081 143.292 675.867 143.15 675.867 142.281V142.262C675.867 141.598 675.436 140.899 674.37 140.001L672.907 138.766C671.173 137.306 670.37 135.934 670.37 134.381V134.371C670.37 132.525 671.859 132.057 673.939 133.258C676.036 134.469 677.381 136.456 677.542 138.277V138.287L675.791 137.276V137.257C675.614 136.412 674.962 135.479 673.931 134.884C672.924 134.303 672.197 134.459 672.197 135.309V135.328C672.197 135.992 672.62 136.646 673.651 137.525L675.106 138.746C676.874 140.245 677.719 141.603 677.719 143.136V143.155C677.719 145.118 676.096 145.519 673.914 144.259ZM683.766 149.947C681.077 148.395 679.453 145.338 679.453 141.979V141.969C679.453 138.658 681.111 137.398 683.673 138.878C686.236 140.357 687.809 143.404 687.809 146.588V147.33L681.297 143.57C681.331 145.621 682.295 147.359 683.809 148.233C684.984 148.912 685.686 148.644 685.906 148.224L685.94 148.165L687.707 149.176L687.691 149.254C687.386 150.475 686.117 151.305 683.766 149.947ZM683.682 140.621C682.43 139.898 681.483 140.338 681.322 142.071L685.991 144.767C685.847 142.789 684.925 141.339 683.682 140.621Z" fill="#9333EA"/>
<g clip-path="url(#clip4_525_18801)">
<path d="M632.598 212C632.598 212.637 632.379 213.121 631.989 213.346C631.6 213.571 631.071 213.518 630.52 213.2L613.892 203.6C613.341 203.282 612.812 202.724 612.422 202.049C612.032 201.373 611.813 200.637 611.813 200V183.2C611.813 182.564 612.032 182.08 612.422 181.854C612.812 181.629 613.341 181.682 613.892 182L619.088 185L621.167 189.8L630.52 195.2C631.071 195.518 631.6 196.076 631.989 196.752C632.379 197.427 632.598 198.164 632.598 198.8V212Z" stroke="#4D73E0" stroke-width="2.4" stroke-linecap="round" stroke-linejoin="round"/>
</g>
<path d="M649.371 219.884V205.792L653.777 208.336C657.397 210.426 659.519 214.229 659.519 218.653V218.673C659.519 223.146 657.413 224.527 653.777 222.428L649.371 219.884ZM651.265 219.093L653.565 220.421C656.12 221.896 657.591 220.86 657.591 217.589V217.569C657.591 214.327 656.094 211.559 653.565 210.099L651.265 208.771V219.093ZM661.879 227.105V216.5L663.714 217.56V219.161L663.849 219.239C664.179 218.307 665.033 218.136 666.26 218.844C666.556 219.015 666.877 219.249 667.063 219.405V221.358C666.733 221.09 666.42 220.86 666.074 220.66C664.67 219.85 663.714 220.294 663.714 221.827V228.165L661.879 227.105ZM669.77 219.161C669.135 218.795 668.619 217.901 668.619 217.179C668.619 216.446 669.135 216.148 669.77 216.515C670.395 216.876 670.92 217.774 670.92 218.507C670.92 219.229 670.395 219.522 669.77 219.161ZM668.848 231.129V220.523L670.674 221.578V232.184L668.848 231.129ZM675.876 235.187L672.552 222.662L674.497 223.785L676.789 233.565L676.933 233.648L679.216 226.51L681.145 227.623L677.829 236.314L675.876 235.187ZM686.49 241.52C683.8 239.967 682.176 236.91 682.176 233.551V233.541C682.176 230.23 683.834 228.971 686.397 230.45C688.959 231.93 690.532 234.977 690.532 238.16V238.902L684.02 235.143C684.054 237.193 685.018 238.932 686.532 239.806C687.707 240.484 688.409 240.216 688.629 239.796L688.663 239.737L690.431 240.748L690.414 240.826C690.109 242.047 688.841 242.877 686.49 241.52ZM686.405 232.193C685.153 231.471 684.206 231.91 684.045 233.644L688.714 236.339C688.57 234.361 687.648 232.911 686.405 232.193Z" fill="#4D73E0"/>
<g clip-path="url(#clip5_525_18801)">
<path d="M622.205 101.8C627.37 104.782 631.558 105.588 631.558 103.6C631.558 101.612 627.37 97.5823 622.205 94.6C617.039 91.6176 612.852 90.8117 612.852 92.8C612.852 94.7882 617.039 98.8176 622.205 101.8Z" stroke="#9333EA" stroke-width="2.4" stroke-linecap="round" stroke-linejoin="round"/>
<path d="M631.558 112C631.558 113.992 627.401 113.2 622.205 110.2C617.008 107.2 612.852 103.192 612.852 101.2" stroke="#9333EA" stroke-width="2.4" stroke-linecap="round" stroke-linejoin="round"/>
<path d="M612.852 92.8V109.6C612.852 111.592 617.008 115.6 622.205 118.6C627.401 121.6 631.558 122.392 631.558 120.4V103.6" stroke="#9333EA" stroke-width="2.4" stroke-linecap="round" stroke-linejoin="round"/>
</g>
<rect width="174.221" height="203" rx="10" transform="matrix(0.859406 0.511293 0 1 422.688 25)" fill="#F0EEEA"/>
<path opacity="0.5" d="M436.072 121.435C436.072 95.383 436.072 82.357 440.567 75.1525C444.195 69.3386 449.798 66.1525 456.649 66.0076C465.139 65.828 476.334 72.4881 498.723 85.8083L545.251 113.49C549.232 115.858 551.222 117.042 552.731 118.87C553.949 120.345 554.945 122.096 555.59 123.897C556.389 126.129 556.389 128.445 556.389 133.076V247.156C556.389 251.788 556.389 254.103 555.59 255.384C554.945 256.418 553.949 256.984 552.731 257.01C551.222 257.042 549.232 255.858 545.251 253.49L447.21 195.161C443.23 192.793 441.24 191.609 439.73 189.782C438.512 188.306 437.516 186.555 436.871 184.754C436.072 182.522 436.072 180.207 436.072 175.575V121.435Z" fill="url(#paint2_linear_525_18801)"/>
<path d="M440.003 216.113C438.087 214.973 436.859 213.115 436.742 211.384L436.736 211.291L438.029 212.06L438.034 212.139C438.105 213.076 438.922 214.136 440.055 214.811C441.136 215.454 441.906 215.283 441.906 214.367V214.36C441.906 213.601 441.448 212.837 440.326 211.889L439.397 211.104C437.676 209.656 436.936 208.286 436.936 206.83V206.823C436.942 205.125 438.211 204.704 440.008 205.773C441.806 206.843 442.981 208.724 443.075 210.312L443.081 210.411L441.806 209.652L441.794 209.557C441.683 208.683 441.019 207.701 439.991 207.096C438.998 206.505 438.264 206.608 438.264 207.538V207.545C438.264 208.276 438.71 209.02 439.809 209.947L440.731 210.735C442.511 212.239 443.24 213.506 443.24 214.969V214.976C443.24 216.863 441.976 217.287 440.003 216.113ZM444.826 221.217V211.319L446.101 212.077V213.246L446.195 213.302C446.565 212.709 447.264 212.64 448.157 213.171C449.767 214.129 450.801 216.241 450.801 218.579V218.592C450.801 220.944 449.778 221.812 448.157 220.848C447.281 220.327 446.535 219.384 446.195 218.381L446.101 218.326V221.976L444.826 221.217ZM447.798 219.37C448.862 220.002 449.502 219.413 449.502 217.82V217.806C449.502 216.207 448.862 214.862 447.798 214.229C446.735 213.597 446.077 214.183 446.077 215.769V215.782C446.077 217.368 446.735 218.737 447.798 219.37ZM454.085 224.374C452.868 223.651 451.97 222.255 451.97 220.908V220.894C451.97 219.568 452.827 219.306 454.349 220.102L456.076 221.013V220.357C456.076 219.544 455.636 218.83 454.772 218.316C454.067 217.897 453.603 217.922 453.45 218.357L453.444 218.381L452.216 217.65L452.222 217.606C452.375 216.48 453.38 216.264 454.831 217.128C456.434 218.082 457.339 219.55 457.339 221.108V226.188L456.076 225.436V224.383L455.976 224.324C455.6 224.852 454.931 224.878 454.085 224.374ZM453.239 221.601C453.239 222.285 453.738 222.985 454.425 223.394C455.377 223.961 456.076 223.652 456.076 222.695V222.059L454.519 221.249C453.638 220.786 453.239 220.918 453.239 221.588V221.601ZM461.822 228.998C459.959 227.89 458.82 225.735 458.82 223.336V223.322C458.82 220.971 459.954 220.176 461.816 221.283C463.42 222.238 464.377 223.86 464.554 225.407V225.442L463.332 224.721L463.326 224.697C463.185 223.882 462.668 223.028 461.822 222.524C460.758 221.892 460.118 222.495 460.118 224.095V224.108C460.118 225.749 460.77 227.135 461.822 227.761C462.621 228.236 463.114 228.106 463.32 227.428L463.332 227.401L464.554 228.128L464.542 228.183C464.313 229.489 463.402 229.938 461.822 228.998ZM468.678 233.077C466.809 231.965 465.682 229.811 465.682 227.459V227.452C465.682 225.135 466.833 224.268 468.613 225.327C470.393 226.386 471.486 228.534 471.486 230.762V231.282L466.962 228.59C466.986 230.026 467.655 231.252 468.707 231.877C469.524 232.363 470.011 232.182 470.164 231.89L470.188 231.849L471.415 232.573L471.404 232.627C471.192 233.479 470.311 234.048 468.678 233.077ZM468.619 226.548C467.749 226.03 467.091 226.329 466.98 227.541L470.223 229.471C470.123 228.085 469.483 227.061 468.619 226.548ZM475.786 237.162L478.847 229.119L480.269 229.965L483.33 241.65L481.943 240.825L481.179 237.705L477.936 235.776L477.167 237.984L475.786 237.162ZM479.505 231.24L478.289 234.755L480.827 236.265L479.605 231.299L479.505 231.24ZM484.657 244.915V235.016L485.932 235.775V236.944L486.026 237C486.396 236.406 487.095 236.337 487.988 236.868C489.598 237.826 490.632 239.938 490.632 242.276V242.29C490.632 244.641 489.61 245.51 487.988 244.545C487.113 244.024 486.367 243.081 486.026 242.079L485.932 242.023V245.673L484.657 244.915ZM487.63 243.067C488.693 243.7 489.334 243.11 489.334 241.517V241.503C489.334 239.904 488.693 238.559 487.63 237.926C486.567 237.294 485.909 237.88 485.909 239.466V239.479C485.909 241.065 486.567 242.434 487.63 243.067ZM492.165 249.382V239.483L493.44 240.242V241.41L493.534 241.466C493.904 240.873 494.603 240.804 495.496 241.335C497.106 242.293 498.14 244.405 498.14 246.743V246.756C498.14 249.108 497.118 249.976 495.496 249.012C494.621 248.491 493.875 247.548 493.534 246.545L493.44 246.49V250.14L492.165 249.382ZM495.138 247.534C496.201 248.166 496.842 247.577 496.842 245.984V245.97C496.842 244.371 496.201 243.026 495.138 242.393C494.075 241.761 493.417 242.347 493.417 243.933V243.946C493.417 245.532 494.075 246.901 495.138 247.534Z" fill="#494645"/>
<path d="M446.603 266.228V253.545L450.848 256.071C452.986 257.342 454.467 259.893 454.467 262.38V262.398C454.467 264.877 452.986 265.692 450.848 264.42L448.295 262.901V267.234L446.603 266.228ZM450.425 257.48L448.295 256.213V261.249L450.425 262.516C451.891 263.388 452.744 262.973 452.744 261.382V261.365C452.744 259.783 451.891 258.352 450.425 257.48ZM456.461 272.092V262.547L458.1 263.522V264.964L458.221 265.036C458.515 264.2 459.278 264.056 460.373 264.708C460.638 264.865 460.925 265.08 461.091 265.223V266.981C460.796 266.735 460.517 266.525 460.207 266.341C458.953 265.595 458.1 265.983 458.1 267.363V273.067L456.461 272.092ZM463.508 265.035C462.941 264.698 462.481 263.888 462.481 263.237C462.481 262.578 462.941 262.316 463.508 262.653C464.067 262.986 464.535 263.8 464.535 264.46C464.535 265.11 464.067 265.367 463.508 265.035ZM462.685 275.795V266.25L464.316 267.221V276.766L462.685 275.795ZM468.961 279.529L465.993 268.218L467.73 269.252L469.777 278.081L469.906 278.158L471.945 271.76L473.667 272.784L470.706 280.567L468.961 279.529ZM477.278 284.635C475.714 283.705 474.559 281.91 474.559 280.179V280.161C474.559 278.456 475.661 278.119 477.618 279.142L479.838 280.314V279.47C479.838 278.424 479.272 277.507 478.161 276.847C477.255 276.307 476.658 276.339 476.462 276.899L476.454 276.93L474.876 275.99L474.883 275.933C475.08 274.486 476.371 274.208 478.237 275.318C480.299 276.545 481.462 278.432 481.462 280.436V286.967L479.838 286V284.647L479.71 284.571C479.226 285.25 478.365 285.282 477.278 284.635ZM476.19 281.07C476.19 281.949 476.832 282.85 477.716 283.375C478.939 284.103 479.838 283.707 479.838 282.476V281.659L477.837 280.617C476.704 280.022 476.19 280.191 476.19 281.053V281.07ZM486.871 290.246C485.065 289.172 484.325 287.993 484.325 286.156V280.628L483.041 279.864V278.361L484.325 279.125V276.717L485.994 277.71V280.118L487.754 281.165V282.668L485.994 281.621V286.692C485.994 287.721 486.327 288.34 487.135 288.821C487.384 288.969 487.528 289.046 487.754 289.154V290.675C487.49 290.57 487.188 290.434 486.871 290.246ZM493.019 294.027C490.617 292.598 489.167 289.828 489.167 286.804V286.795C489.167 283.816 490.647 282.702 492.936 284.063C495.225 285.425 496.629 288.185 496.629 291.051V291.719L490.813 288.258C490.844 290.105 491.705 291.68 493.057 292.485C494.107 293.109 494.734 292.876 494.93 292.501L494.96 292.448L496.539 293.379L496.524 293.449C496.252 294.544 495.119 295.276 493.019 294.027ZM492.943 285.632C491.826 284.967 490.98 285.351 490.836 286.91L495.006 289.39C494.877 287.609 494.054 286.293 492.943 285.632ZM502.997 299.778V287.096L504.689 288.102V300.785L502.997 299.778ZM507.234 302.299V292.754L508.873 293.73V295.18L508.994 295.252C509.395 294.47 510.18 294.322 511.374 295.033C513.209 296.125 514.221 298.001 514.221 300.277V306.456L512.59 305.486V299.755C512.59 298.173 512.023 297.054 510.822 296.339C509.621 295.625 508.873 296.138 508.873 297.676V303.275L507.234 302.299ZM519.494 309.777C517.515 308.6 516.261 306.773 516.102 305.079V305.07L517.741 306.045L517.749 306.059C517.953 306.901 518.549 307.739 519.524 308.319C520.536 308.921 521.238 308.803 521.238 308.021V308.003C521.238 307.405 520.853 306.772 519.901 305.951L518.595 304.822C517.046 303.487 516.329 302.243 516.329 300.846V300.837C516.329 299.176 517.658 298.771 519.516 299.877C521.389 300.991 522.59 302.796 522.734 304.437V304.445L521.17 303.515V303.498C521.012 302.735 520.43 301.888 519.509 301.34C518.61 300.805 517.96 300.937 517.96 301.702V301.72C517.96 302.317 518.338 302.911 519.259 303.714L520.559 304.83C522.137 306.2 522.893 307.431 522.893 308.811V308.829C522.893 310.596 521.442 310.937 519.494 309.777ZM527.885 314.647C526.08 313.573 525.34 312.394 525.34 310.557V305.029L524.056 304.265V302.762L525.34 303.526V301.118L527.009 302.111V304.519L528.769 305.566V307.069L527.009 306.022V311.093C527.009 312.122 527.342 312.741 528.15 313.222C528.399 313.37 528.542 313.447 528.769 313.556V315.076C528.505 314.971 528.203 314.836 527.885 314.647ZM532.931 317.745C531.367 316.815 530.212 315.02 530.212 313.289V313.271C530.212 311.566 531.315 311.229 533.271 312.252L535.492 313.424V312.58C535.492 311.534 534.925 310.617 533.815 309.957C532.908 309.418 532.312 309.449 532.115 310.009L532.108 310.04L530.529 309.101L530.537 309.044C530.733 307.596 532.025 307.319 533.89 308.428C535.952 309.655 537.116 311.543 537.116 313.547V320.077L535.492 319.111V317.757L535.363 317.681C534.88 318.36 534.019 318.393 532.931 317.745ZM531.843 314.18C531.843 315.059 532.485 315.96 533.369 316.486C534.593 317.214 535.492 316.817 535.492 315.586V314.769L533.49 313.727C532.357 313.132 531.843 313.301 531.843 314.163V314.18ZM539.427 321.452V311.907L541.066 312.882V314.332L541.187 314.404C541.587 313.623 542.373 313.475 543.566 314.185C545.402 315.277 546.414 317.154 546.414 319.43V325.609L544.782 324.638V318.908C544.782 317.326 544.216 316.206 543.015 315.492C541.814 314.777 541.066 315.29 541.066 316.828V322.427L539.427 321.452ZM552.154 329.209C549.76 327.784 548.295 325.014 548.295 321.929V321.911C548.295 318.888 549.752 317.865 552.147 319.29C554.209 320.517 555.44 322.603 555.667 324.592V324.636L554.096 323.71L554.088 323.679C553.907 322.631 553.242 321.532 552.154 320.885C550.787 320.072 549.964 320.848 549.964 322.904V322.922C549.964 325.031 550.802 326.813 552.154 327.618C553.182 328.229 553.816 328.061 554.08 327.19L554.096 327.155L555.667 328.09L555.652 328.16C555.357 329.839 554.186 330.417 552.154 329.209ZM560.969 334.453C558.567 333.024 557.117 330.254 557.117 327.23V327.221C557.117 324.242 558.597 323.128 560.886 324.489C563.175 325.851 564.58 328.612 564.58 331.477V332.145L558.764 328.685C558.794 330.531 559.655 332.106 561.007 332.911C562.057 333.535 562.684 333.302 562.88 332.927L562.91 332.874L564.489 333.805L564.474 333.875C564.202 334.97 563.069 335.702 560.969 334.453ZM560.894 326.058C559.776 325.393 558.93 325.778 558.786 327.336L562.956 329.816C562.827 328.035 562.004 326.719 560.894 326.058Z" fill="#32302F"/>
<g opacity="0.5" filter="url(#filter2_d_525_18801)">
<path d="M268.628 236.4C267.987 236.03 267.373 235.676 266.785 235.335L266.783 236.533C265.429 235.748 264.207 235.031 263.099 234.353L263.13 233.172C261.752 232.328 260.58 231.563 259.57 230.818L259.427 231.924C258.015 230.883 256.867 229.854 255.91 228.707L256.401 227.934C255.94 227.381 255.535 226.802 255.17 226.17C254.805 225.537 254.505 224.898 254.258 224.222L253.342 224.261C252.828 222.858 252.511 221.35 252.315 219.606L253.344 220.035C253.204 218.788 253.128 217.391 253.086 215.775L252.048 215.211C252.014 213.913 252.004 212.496 252.001 210.931L253.041 211.528C253.039 210.848 253.039 210.14 253.039 209.4V206.979L252 206.379V201.538L253.039 202.138V197.297L252 196.697V191.856L253.039 192.456V187.615L252 187.015V182.174L253.039 182.774V177.932L252 177.332V172.491L253.039 173.091V168.25L252 167.65V162.809L253.039 163.409V158.568L252 157.968V153.126L253.039 153.726V148.885L252 148.285V143.444L253.039 144.044V139.203L252 138.603V133.762L253.039 134.362V129.521L252 128.921V124.079L253.039 124.679V119.838L252 119.238V114.397L253.039 114.997V110.156L252 109.556V104.715L253.039 105.315V100.474L252 99.8735V95.0323L253.039 95.6323V90.7911L252 90.1911V85.35L253.039 85.95V81.1088L252 80.5088V75.6676L253.039 76.2676V71.4265L252 70.8265V65.9853L253.039 66.5853V61.7441L252 61.1441V56.3029L253.039 56.9029V52.0618L252 51.4618V46.6206L253.039 47.2206V44.8C253.039 44.0599 253.039 43.3517 253.041 42.6733L252.001 42.0705C252.004 40.5094 252.014 39.1035 252.048 37.8436L253.086 38.4793C253.128 36.9112 253.204 35.6028 253.344 34.5171L252.315 33.7581C252.511 32.2399 252.828 31.0981 253.342 30.2891L254.258 31.3854C254.505 30.9955 254.805 30.7013 255.17 30.4905C255.535 30.2796 255.94 30.1676 256.401 30.1479L255.91 28.8068C256.867 28.766 258.015 29.0622 259.427 29.6519L259.57 30.9228C260.58 31.3445 261.752 31.9321 263.13 32.6805L263.099 31.463C264.207 32.0643 265.429 32.7585 266.783 33.5364L266.785 34.7378C267.373 35.0759 267.987 35.43 268.628 35.8L270.725 37.0107V35.8107L274.919 38.2321V39.4321L279.113 41.8536V40.6536L283.307 43.075V44.275L287.501 46.6964V45.4964L291.695 47.9179V49.1179L295.889 51.5393V50.3393L300.083 52.7607V53.9607L304.277 56.3821V55.1821L308.471 57.6036V58.8036L312.665 61.225V60.025L316.859 62.4464V63.6464L321.053 66.0679V64.8679L325.247 67.2893V68.4893L329.441 70.9107V69.7107L333.635 72.1321V73.3321L337.829 75.7536V74.5536L342.023 76.975V78.175L346.217 80.5964V79.3964L350.411 81.8179V83.0179L354.605 85.4393V84.2393L358.799 86.6607V87.8607L362.994 90.2821V89.0821L367.188 91.5036V92.7036L371.382 95.125V93.925L375.576 96.3464V97.5464L379.77 99.9679V98.7679L383.964 101.189V102.389L386.061 103.6C386.702 103.97 387.315 104.324 387.903 104.665L387.906 103.467C389.259 104.252 390.482 104.969 391.589 105.647L391.558 106.828C392.937 107.672 394.108 108.437 395.119 109.182L395.261 108.076C396.674 109.117 397.821 110.146 398.779 111.293L398.287 112.066C398.749 112.619 399.153 113.198 399.519 113.83C399.884 114.463 400.183 115.102 400.431 115.778L401.346 115.739C401.861 117.142 402.178 118.65 402.373 120.394L401.344 119.965C401.484 121.212 401.561 122.609 401.602 124.225L402.641 124.789C402.674 126.087 402.684 127.504 402.687 129.069L401.648 128.472C401.649 129.152 401.649 129.86 401.649 130.6V133.021L402.688 133.621V138.462L401.649 137.862V142.703L402.688 143.303V148.144L401.649 147.544V152.385L402.688 152.985V157.826L401.649 157.226V162.068L402.688 162.668V167.509L401.649 166.909V171.75L402.688 172.35V177.191L401.649 176.591V181.432L402.688 182.032V186.874L401.649 186.274V191.115L402.688 191.715V196.556L401.649 195.956V200.797L402.688 201.397V206.238L401.649 205.638V210.479L402.688 211.079V215.921L401.649 215.321V220.162L402.688 220.762V225.603L401.649 225.003V229.844L402.688 230.444V235.285L401.649 234.685V239.526L402.688 240.126V244.968L401.649 244.368V249.209L402.688 249.809V254.65L401.649 254.05V258.891L402.688 259.491V264.332L401.649 263.732V268.574L402.688 269.174V274.015L401.649 273.415V278.256L402.688 278.856V283.697L401.649 283.097V287.938L402.688 288.538V293.379L401.649 292.779V295.2C401.649 295.94 401.649 296.648 401.648 297.327L402.687 297.929C402.684 299.491 402.674 300.896 402.641 302.156L401.602 301.521C401.561 303.089 401.484 304.397 401.344 305.483L402.373 306.242C402.178 307.76 401.861 308.902 401.346 309.711L400.431 308.615C400.183 309.004 399.884 309.299 399.519 309.51C399.153 309.72 398.749 309.832 398.287 309.852L398.779 311.193C397.821 311.234 396.674 310.938 395.261 310.348L395.119 309.077C394.108 308.655 392.937 308.068 391.558 307.32L391.589 308.537C390.482 307.936 389.259 307.241 387.906 306.464L387.903 305.262C387.315 304.924 386.702 304.57 386.061 304.2L383.964 302.989V304.189L379.77 301.768V300.568L375.576 298.146V299.346L371.382 296.925V295.725L367.188 293.304V294.504L362.994 292.082V290.882L358.799 288.461V289.661L354.605 287.239V286.039L350.411 283.618V284.818L346.217 282.396V281.196L342.023 278.775V279.975L337.829 277.554V276.354L333.635 273.932V275.132L329.441 272.711V271.511L325.247 269.089V270.289L321.053 267.868V266.668L316.859 264.246V265.446L312.665 263.025V261.825L308.471 259.404V260.604L304.277 258.182V256.982L300.083 254.561V255.761L295.889 253.339V252.139L291.695 249.718V250.918L287.501 248.496V247.296L283.307 244.875V246.075L279.113 243.654V242.454L274.919 240.032V241.232L270.725 238.811V237.611L268.628 236.4Z" stroke="url(#paint3_linear_525_18801)" stroke-width="2.4" stroke-dasharray="4.8 4.8" shape-rendering="crispEdges"/>
</g>
<path opacity="0.3" d="M266.723 124.4C266.723 98.348 266.723 85.3219 271.252 78.0584C274.908 72.1968 280.554 68.9371 287.458 68.7021C296.013 68.411 307.294 74.924 329.856 87.95L376.743 115.02C380.754 117.336 382.759 118.494 384.28 120.302C385.507 121.761 386.511 123.499 387.161 125.292C387.966 127.513 387.966 129.829 387.966 134.46V248.54C387.966 253.171 387.966 255.487 387.161 256.779C386.511 257.821 385.507 258.4 384.28 258.442C382.759 258.494 380.754 257.336 376.743 255.02L277.946 197.98C273.935 195.664 271.93 194.506 270.409 192.698C269.182 191.239 268.178 189.501 267.528 187.708C266.723 185.487 266.723 183.171 266.723 178.54V124.4Z" fill="url(#paint4_linear_525_18801)"/>
<g clip-path="url(#clip6_525_18801)">
<path d="M327.777 186.5C340.332 193.749 350.51 187.872 350.51 173.375C350.51 158.878 340.332 141.249 327.777 134C315.222 126.751 305.044 132.628 305.044 147.125C305.044 161.622 315.222 179.251 327.777 186.5Z" stroke="white" stroke-width="2.4" stroke-linecap="round" stroke-linejoin="round"/>
<path d="M305.044 147.125L350.51 173.375" stroke="white" stroke-width="2.4" stroke-linecap="round" stroke-linejoin="round"/>
<path d="M327.777 134C333.463 144.471 336.695 155.665 336.87 165.5C336.695 175.132 333.463 182.595 327.777 186.5C322.091 176.029 318.859 164.835 318.684 155C318.859 145.368 322.091 137.905 327.777 134Z" stroke="white" stroke-width="2.4" stroke-linecap="round" stroke-linejoin="round"/>
</g>
<path d="M279.417 267.83V255.147L283.695 257.617C285.849 258.86 287.341 261.392 287.341 263.879V263.896C287.341 266.375 285.849 267.21 283.695 265.966L281.122 264.481V268.814L279.417 267.83ZM283.269 259.032L281.122 257.792V262.829L283.269 264.068C284.745 264.92 285.606 264.494 285.606 262.903V262.886C285.606 261.304 284.745 259.884 283.269 259.032ZM292.106 275.34C290.241 274.263 289.274 272.413 289.274 270.154V263.976L290.926 264.929V270.66C290.926 272.242 291.428 273.314 292.639 274.013C293.963 274.777 294.671 274.228 294.671 272.69V267.091L296.315 268.041V277.585L294.671 276.636V275.195L294.542 275.12C294.146 275.92 293.308 276.034 292.106 275.34ZM303.089 281.655C301.932 280.987 301.027 279.849 300.547 278.526L300.425 278.456V279.958L298.774 279.005V265.716L300.425 266.669V271.925L300.547 271.996C300.988 271.222 301.955 271.13 303.089 271.785C305.19 272.998 306.514 275.669 306.514 278.693V278.71C306.514 281.708 305.175 282.859 303.089 281.655ZM302.625 279.761C304.003 280.556 304.832 279.787 304.832 277.739V277.722C304.832 275.674 304.003 273.947 302.625 273.151C301.247 272.356 300.395 273.121 300.395 275.16V275.177C300.395 277.216 301.247 278.965 302.625 279.761ZM308.562 284.656V271.367L310.214 272.321V285.61L308.562 284.656ZM313.532 276.276C312.961 275.946 312.497 275.142 312.497 274.492C312.497 273.833 312.961 273.564 313.532 273.894C314.096 274.219 314.568 275.028 314.568 275.687C314.568 276.337 314.096 276.601 313.532 276.276ZM312.703 287.047V277.502L314.347 278.451V287.996L312.703 287.047ZM320.231 291.578C317.818 290.185 316.341 287.434 316.341 284.349V284.331C316.341 281.308 317.81 280.266 320.223 281.659C322.301 282.859 323.542 284.929 323.77 286.915V286.959L322.187 286.054L322.179 286.023C321.996 284.977 321.327 283.887 320.231 283.254C318.853 282.459 318.023 283.246 318.023 285.302V285.32C318.023 287.429 318.868 289.2 320.231 289.987C321.266 290.584 321.905 290.409 322.171 289.534L322.187 289.499L323.77 290.413L323.755 290.483C323.458 292.167 322.278 292.76 320.231 291.578ZM330.095 297.088V284.406L337.067 288.431V290.127L331.8 287.086V290.795L336.786 293.674V295.309L331.8 292.43V296.376L337.067 299.417V301.114L330.095 297.088ZM339.343 302.428V292.883L340.995 293.836V295.287L341.117 295.357C341.52 294.57 342.312 294.412 343.514 295.106C345.364 296.174 346.384 298.038 346.384 300.314V306.493L344.74 305.543V299.813C344.74 298.231 344.169 297.119 342.959 296.42C341.748 295.722 340.995 296.245 340.995 297.783V303.381L339.343 302.428ZM351.704 309.723C349.626 308.523 348.279 305.82 348.279 302.823V302.806C348.279 299.782 349.603 298.64 351.704 299.853C352.838 300.507 353.805 301.716 354.247 302.999L354.376 303.074V297.818L356.02 298.767V312.056L354.376 311.107V309.604L354.247 309.529C353.767 310.298 352.861 310.391 351.704 309.723ZM352.176 308.369C353.554 309.165 354.399 308.396 354.399 306.356V306.339C354.399 304.3 353.546 302.551 352.176 301.76C350.791 300.96 349.961 301.729 349.961 303.777V303.794C349.961 305.842 350.791 307.569 352.176 308.369ZM358.479 316.657V303.931L360.13 304.884V306.387L360.252 306.458C360.732 305.688 361.637 305.587 362.794 306.255C364.88 307.459 366.219 310.158 366.219 313.164V313.181C366.219 316.205 364.895 317.338 362.794 316.125C361.66 315.471 360.694 314.271 360.252 312.988L360.13 312.917V317.611L358.479 316.657ZM362.33 314.231C363.708 315.027 364.537 314.258 364.537 312.21V312.192C364.537 310.136 363.708 308.417 362.33 307.622C360.952 306.827 360.1 307.591 360.1 309.63V309.648C360.1 311.687 360.952 313.436 362.33 314.231ZM371.707 321.298C369.279 319.896 367.795 317.167 367.795 314.091V314.073C367.795 311.006 369.287 309.986 371.707 311.384C374.12 312.777 375.612 315.51 375.612 318.586V318.604C375.612 321.68 374.128 322.695 371.707 321.298ZM371.707 319.707C373.123 320.524 373.93 319.742 373.93 317.633V317.615C373.93 315.497 373.123 313.792 371.707 312.975C370.284 312.153 369.485 312.931 369.485 315.049V315.066C369.485 317.185 370.284 318.885 371.707 319.707ZM378.444 313.752C377.873 313.423 377.408 312.619 377.408 311.968C377.408 311.309 377.873 311.041 378.444 311.371C379.007 311.696 379.479 312.504 379.479 313.164C379.479 313.814 379.007 314.078 378.444 313.752ZM377.614 324.523V314.979L379.258 315.928V325.473L377.614 324.523ZM381.663 326.861V317.316L383.315 318.27V319.72L383.437 319.791C383.84 319.004 384.632 318.846 385.834 319.54C387.684 320.608 388.704 322.471 388.704 324.748V330.926L387.06 329.977V324.247C387.06 322.665 386.489 321.553 385.279 320.854C384.069 320.155 383.315 320.678 383.315 322.216V327.815L381.663 326.861ZM394.131 334.121C392.312 333.071 391.566 331.902 391.566 330.065V324.537L390.272 323.79V322.287L391.566 323.034V320.625L393.248 321.597V324.005L395.022 325.029V326.532L393.248 325.508V330.579C393.248 331.607 393.583 332.223 394.397 332.693C394.649 332.838 394.793 332.913 395.022 333.018V334.539C394.755 334.438 394.451 334.306 394.131 334.121Z" fill="url(#paint5_linear_525_18801)"/>
<path opacity="0.5" d="M358.872 276.891C356.918 275.763 355.737 273.507 355.737 271.02V271.009C355.737 268.517 356.946 267.652 358.872 268.764C360.802 269.879 362.002 272.14 362.002 274.627V274.637C362.002 277.119 360.811 278.01 358.872 276.891ZM358.872 275.827C360.146 276.563 360.937 275.838 360.937 274.022V274.012C360.937 272.18 360.142 270.561 358.872 269.828C357.602 269.094 356.802 269.793 356.802 271.624V271.635C356.802 273.45 357.579 275.081 358.872 275.827ZM363.3 281.204V273.426L364.309 274.009V274.927L364.384 274.97C364.677 274.5 365.23 274.439 365.937 274.847C367.212 275.583 368.031 277.232 368.031 279.069V279.079C368.031 280.927 367.221 281.62 365.937 280.879C365.244 280.479 364.654 279.745 364.384 278.961L364.309 278.918V281.786L363.3 281.204ZM365.654 279.721C366.496 280.207 367.003 279.737 367.003 278.486V278.475C367.003 277.218 366.496 276.168 365.654 275.682C364.812 275.196 364.291 275.663 364.291 276.909V276.92C364.291 278.166 364.812 279.235 365.654 279.721ZM371.152 283.83C370.04 283.188 369.584 282.474 369.584 281.351V277.973L368.793 277.516V276.598L369.584 277.054V275.583L370.612 276.176V277.648L371.696 278.274V279.192L370.612 278.566V281.666C370.612 282.294 370.817 282.67 371.314 282.957C371.468 283.046 371.556 283.092 371.696 283.156V284.085C371.533 284.023 371.347 283.943 371.152 283.83ZM373.398 278.215C373.05 278.013 372.766 277.522 372.766 277.124C372.766 276.721 373.05 276.558 373.398 276.759C373.743 276.958 374.031 277.452 374.031 277.855C374.031 278.252 373.743 278.413 373.398 278.215ZM372.891 284.797V278.964L373.896 279.544V285.377L372.891 284.797ZM377.506 287.574C376.022 286.717 375.115 285.049 375.115 283.169V283.159C375.115 281.284 376.026 280.661 377.506 281.515C378.98 282.366 379.892 284.037 379.892 285.917V285.927C379.892 287.807 378.985 288.428 377.506 287.574ZM377.506 286.602C378.371 287.101 378.864 286.623 378.864 285.334V285.323C378.864 284.029 378.371 282.987 377.506 282.487C376.636 281.985 376.147 282.46 376.147 283.755V283.766C376.147 285.06 376.636 286.099 377.506 286.602ZM381.097 289.534V283.701L382.106 284.284V285.17L382.18 285.213C382.427 284.732 382.911 284.636 383.646 285.06C384.776 285.713 385.399 286.851 385.399 288.242V292.018L384.395 291.438V287.936C384.395 286.969 384.046 286.29 383.306 285.863C382.566 285.436 382.106 285.756 382.106 286.696V290.117L381.097 289.534ZM388.195 293.729C387.232 293.173 386.52 292.085 386.52 291.027V291.017C386.52 289.975 387.199 289.76 388.404 290.369L389.772 291.068V290.552C389.772 289.913 389.423 289.357 388.739 288.962C388.181 288.64 387.813 288.664 387.692 289.008L387.688 289.027L386.716 288.465L386.72 288.43C386.841 287.544 387.637 287.364 388.786 288.028C390.055 288.761 390.772 289.905 390.772 291.129V295.12L389.772 294.543V293.716L389.693 293.67C389.395 294.089 388.865 294.116 388.195 293.729ZM387.525 291.559C387.525 292.096 387.92 292.641 388.465 292.956C389.218 293.391 389.772 293.141 389.772 292.389V291.889L388.539 291.269C387.841 290.915 387.525 291.022 387.525 291.548V291.559ZM392.242 295.969V287.848L393.251 288.43V296.552L392.242 295.969Z" fill="url(#paint6_linear_525_18801)"/>
<defs>
<filter id="filter0_d_525_18801" x="821.504" y="24.0031" width="169.888" height="302.594" filterUnits="userSpaceOnUse" color-interpolation-filters="sRGB">
<feFlood flood-opacity="0" result="BackgroundImageFix"/>
<feColorMatrix in="SourceAlpha" type="matrix" values="0 0 0 0 0 0 0 0 0 0 0 0 0 0 0 0 0 0 127 0" result="hardAlpha"/>
<feOffset dy="4.8"/>
<feGaussianBlur stdDeviation="4.8"/>
<feComposite in2="hardAlpha" operator="out"/>
<feColorMatrix type="matrix" values="0 0 0 0 0.8375 0 0 0 0 0.812375 0 0 0 0 0.774688 0 0 0 0.2 0"/>
<feBlend mode="normal" in2="BackgroundImageFix" result="effect1_dropShadow_525_18801"/>
<feBlend mode="normal" in="SourceGraphic" in2="effect1_dropShadow_525_18801" result="shape"/>
</filter>
<filter id="filter1_d_525_18801" x="616.814" y="24.0031" width="169.888" height="302.594" filterUnits="userSpaceOnUse" color-interpolation-filters="sRGB">
<feFlood flood-opacity="0" result="BackgroundImageFix"/>
<feColorMatrix in="SourceAlpha" type="matrix" values="0 0 0 0 0 0 0 0 0 0 0 0 0 0 0 0 0 0 127 0" result="hardAlpha"/>
<feOffset dy="4.8"/>
<feGaussianBlur stdDeviation="4.8"/>
<feComposite in2="hardAlpha" operator="out"/>
<feColorMatrix type="matrix" values="0 0 0 0 0.8375 0 0 0 0 0.812375 0 0 0 0 0.774688 0 0 0 0.2 0"/>
<feBlend mode="normal" in2="BackgroundImageFix" result="effect1_dropShadow_525_18801"/>
<feBlend mode="normal" in="SourceGraphic" in2="effect1_dropShadow_525_18801" result="shape"/>
</filter>
<filter id="filter2_d_525_18801" x="242.4" y="24.0031" width="169.888" height="301.594" filterUnits="userSpaceOnUse" color-interpolation-filters="sRGB">
<feFlood flood-opacity="0" result="BackgroundImageFix"/>
<feColorMatrix in="SourceAlpha" type="matrix" values="0 0 0 0 0 0 0 0 0 0 0 0 0 0 0 0 0 0 127 0" result="hardAlpha"/>
<feOffset dy="4.8"/>
<feGaussianBlur stdDeviation="4.8"/>
<feComposite in2="hardAlpha" operator="out"/>
<feColorMatrix type="matrix" values="0 0 0 0 0.8375 0 0 0 0 0.812375 0 0 0 0 0.774688 0 0 0 0.2 0"/>
<feBlend mode="normal" in2="BackgroundImageFix" result="effect1_dropShadow_525_18801"/>
<feBlend mode="normal" in="SourceGraphic" in2="effect1_dropShadow_525_18801" result="shape"/>
</filter>
<linearGradient id="paint0_linear_525_18801" x1="93.5308" y1="-37.7654" x2="93.5308" y2="240.735" gradientUnits="userSpaceOnUse">
<stop stop-color="#9333EA"/>
<stop offset="1" stop-color="#4D73E0"/>
</linearGradient>
<linearGradient id="paint1_linear_525_18801" x1="87" y1="0" x2="87" y2="204" gradientUnits="userSpaceOnUse">
<stop stop-color="#9333EA"/>
<stop offset="1" stop-color="#4D73E0"/>
</linearGradient>
<linearGradient id="paint2_linear_525_18801" x1="436.072" y1="188.535" x2="556.389" y2="120.116" gradientUnits="userSpaceOnUse">
<stop offset="0.147298" stop-color="#4D73E0"/>
<stop offset="0.490839" stop-color="#993EEB"/>
<stop offset="0.811666" stop-color="#FC19AD"/>
</linearGradient>
<linearGradient id="paint3_linear_525_18801" x1="252" y1="228" x2="418.113" y2="141.685" gradientUnits="userSpaceOnUse">
<stop offset="0.147298" stop-color="#4D73E0"/>
<stop offset="0.490839" stop-color="#993EEB"/>
<stop offset="0.811666" stop-color="#FC19AD"/>
</linearGradient>
<linearGradient id="paint4_linear_525_18801" x1="266.723" y1="191.5" x2="387.966" y2="121.5" gradientUnits="userSpaceOnUse">
<stop offset="0.147298" stop-color="#4D73E0"/>
<stop offset="0.490839" stop-color="#993EEB"/>
<stop offset="0.811666" stop-color="#FC19AD"/>
</linearGradient>
<linearGradient id="paint5_linear_525_18801" x1="277.98" y1="269" x2="293.108" y2="247.789" gradientUnits="userSpaceOnUse">
<stop offset="0.147298" stop-color="#4D73E0"/>
<stop offset="0.490839" stop-color="#993EEB"/>
<stop offset="0.811666" stop-color="#FC19AD"/>
</linearGradient>
<linearGradient id="paint6_linear_525_18801" x1="355.057" y1="278.5" x2="371.055" y2="262.305" gradientUnits="userSpaceOnUse">
<stop offset="0.147298" stop-color="#4D73E0"/>
<stop offset="0.490839" stop-color="#993EEB"/>
<stop offset="0.811666" stop-color="#FC19AD"/>
</linearGradient>
<clipPath id="clip0_525_18801">
<rect width="140" height="172" fill="white" transform="matrix(0.866025 0.5 0 1 797.104 49)"/>
</clipPath>
<clipPath id="clip1_525_18801">
<rect width="24" height="24" fill="white" transform="matrix(0.866025 0.5 0 1 847.333 92)"/>
</clipPath>
<clipPath id="clip2_525_18801">
<rect width="24" height="24" fill="white" transform="matrix(0.866025 0.5 0 1 847.333 152)"/>
</clipPath>
<clipPath id="clip3_525_18801">
<rect width="24" height="24" fill="white" transform="matrix(0.866025 0.5 0 1 847.333 212)"/>
</clipPath>
<clipPath id="clip4_525_18801">
<rect width="28.8" height="28.8" fill="white" transform="matrix(0.866025 0.5 0 1 609.734 176)"/>
</clipPath>
<clipPath id="clip5_525_18801">
<rect width="28.8" height="28.8" fill="white" transform="matrix(0.866025 0.5 0 1 609.734 85)"/>
</clipPath>
<clipPath id="clip6_525_18801">
<rect width="63" height="63" fill="white" transform="matrix(0.866025 0.5 0 1 300.497 113)"/>
</clipPath>
</defs>
</svg>
