<svg width="750" height="332" viewBox="0 0 750 332" fill="none" xmlns="http://www.w3.org/2000/svg">
<g filter="url(#filter0_d_525_18802)">
<rect width="174" height="204" rx="9.6" transform="matrix(0.866025 0.5 0 1 589.104 1)" fill="white" fill-opacity="0.2" shape-rendering="crispEdges"/>
<rect width="174" height="204" rx="9.6" transform="matrix(0.866025 0.5 0 1 589.104 1)" fill="#FCD5E9" fill-opacity="0.2" shape-rendering="crispEdges"/>
<rect x="1.03923" y="1.8" width="171.6" height="201.6" rx="8.4" transform="matrix(0.866025 0.5 0 1 589.243 0.480385)" stroke="#F26DAA" stroke-width="2.4" stroke-dasharray="4.8 4.8" shape-rendering="crispEdges"/>
</g>
<path d="M683.655 283.589V270.907L685.619 272.041L689.12 284.178L689.242 284.249L692.744 276.154L694.707 277.288V289.97L693.155 289.074V279.766L693.04 279.7L689.813 287.145L688.55 286.415L685.33 275.249L685.208 275.178V284.486L683.655 283.589ZM698.133 280.698C697.562 280.368 697.097 279.564 697.097 278.914C697.097 278.254 697.562 277.986 698.133 278.316C698.696 278.641 699.168 279.45 699.168 280.109C699.168 280.759 698.696 281.023 698.133 280.698ZM697.303 291.469V281.924L698.947 282.873V292.418L697.303 291.469ZM704.831 296C702.418 294.606 700.941 291.855 700.941 288.771V288.753C700.941 285.729 702.41 284.688 704.823 286.081C706.901 287.281 708.142 289.351 708.37 291.337V291.381L706.787 290.476L706.779 290.445C706.597 289.399 705.927 288.309 704.831 287.676C703.453 286.881 702.623 287.667 702.623 289.724V289.742C702.623 291.851 703.468 293.622 704.831 294.409C705.866 295.006 706.505 294.831 706.772 293.956L706.787 293.921L708.37 294.835L708.355 294.905C708.058 296.588 706.878 297.182 704.831 296ZM710.243 298.939V289.395L711.894 290.348V291.79L712.016 291.86C712.313 291.021 713.082 290.867 714.185 291.504C714.452 291.658 714.741 291.869 714.908 292.009V293.767C714.612 293.525 714.33 293.319 714.018 293.139C712.754 292.409 711.894 292.809 711.894 294.189V299.893L710.243 298.939ZM719.772 304.626C717.344 303.224 715.86 300.495 715.86 297.419V297.401C715.86 294.334 717.352 293.314 719.772 294.712C722.185 296.105 723.677 298.838 723.677 301.915V301.932C723.677 305.008 722.193 306.023 719.772 304.626ZM719.772 303.035C721.188 303.853 721.995 303.07 721.995 300.961V300.943C721.995 298.825 721.188 297.12 719.772 296.303C718.349 295.481 717.55 296.259 717.55 298.377V298.395C717.55 300.513 718.349 302.213 719.772 303.035ZM728.655 309.754C726.661 308.603 725.397 306.792 725.237 305.101V305.092L726.889 306.045L726.897 306.059C727.102 306.898 727.703 307.729 728.685 308.295C729.705 308.884 730.413 308.757 730.413 307.975V307.957C730.413 307.359 730.025 306.731 729.066 305.922L727.749 304.811C726.189 303.497 725.466 302.262 725.466 300.864V300.855C725.466 299.194 726.805 298.772 728.678 299.854C730.565 300.943 731.776 302.732 731.92 304.371V304.38L730.345 303.47V303.453C730.185 302.692 729.599 301.853 728.67 301.317C727.764 300.794 727.11 300.935 727.11 301.699V301.717C727.11 302.314 727.49 302.903 728.419 303.694L729.728 304.793C731.319 306.142 732.08 307.364 732.08 308.744V308.761C732.08 310.528 730.619 310.888 728.655 309.754Z" fill="#F26DAA"/>
<g clip-path="url(#clip0_525_18802)">
<rect x="1.03923" y="1.8" width="137.6" height="49.6" rx="8.4" transform="matrix(0.866025 0.5 0 1 555.243 24.4804)" fill="#FCD5E9" fill-opacity="0.8" stroke="#F68AC3" stroke-width="2.4"/>
<g clip-path="url(#clip1_525_18802)">
<path d="M606.199 72.5V78.5L611.395 81.5" stroke="#F68AC3" stroke-width="2" stroke-linecap="round" stroke-linejoin="round"/>
<path d="M625.252 99.5V93.5L620.056 90.5" stroke="#F68AC3" stroke-width="2" stroke-linecap="round" stroke-linejoin="round"/>
<path d="M623.078 87.245C622.639 85.5582 621.892 83.8458 620.908 82.2676C619.924 80.6895 618.735 79.297 617.45 78.2201C616.166 77.1432 614.829 76.4169 613.565 76.1091C612.3 75.8013 611.148 75.922 610.218 76.46L606.199 78.5M625.252 93.5L621.233 95.54C620.303 96.0779 619.151 96.1986 617.886 95.8908C616.622 95.583 615.285 94.8568 614.001 93.7798C612.716 92.7029 611.527 91.3104 610.543 89.7323C609.559 88.1541 608.812 86.4418 608.373 84.755" stroke="#F68AC3" stroke-width="2" stroke-linecap="round" stroke-linejoin="round"/>
</g>
<rect x="1.03923" y="1.8" width="137.6" height="49.6" rx="8.4" transform="matrix(0.866025 0.5 0 1 555.243 84.4804)" fill="#FCD5E9" fill-opacity="0.8" stroke="#F68AC3" stroke-width="2.4"/>
<g clip-path="url(#clip2_525_18802)">
<path d="M606.199 132.5V138.5L611.395 141.5" stroke="#F68AC3" stroke-width="2" stroke-linecap="round" stroke-linejoin="round"/>
<path d="M625.252 159.5V153.5L620.056 150.5" stroke="#F68AC3" stroke-width="2" stroke-linecap="round" stroke-linejoin="round"/>
<path d="M623.078 147.245C622.639 145.558 621.892 143.846 620.908 142.268C619.924 140.689 618.735 139.297 617.45 138.22C616.166 137.143 614.829 136.417 613.565 136.109C612.3 135.801 611.148 135.922 610.218 136.46L606.199 138.5M625.252 153.5L621.233 155.54C620.303 156.078 619.151 156.199 617.886 155.891C616.622 155.583 615.285 154.857 614.001 153.78C612.716 152.703 611.527 151.31 610.543 149.732C609.559 148.154 608.812 146.442 608.373 144.755" stroke="#F68AC3" stroke-width="2" stroke-linecap="round" stroke-linejoin="round"/>
</g>
<rect x="1.03923" y="1.8" width="137.6" height="49.6" rx="8.4" transform="matrix(0.866025 0.5 0 1 555.243 144.48)" fill="#FCD5E9" fill-opacity="0.8" stroke="#F68AC3" stroke-width="2.4"/>
<g clip-path="url(#clip3_525_18802)">
<path d="M606.199 192.5V198.5L611.395 201.5" stroke="#F68AC3" stroke-width="2" stroke-linecap="round" stroke-linejoin="round"/>
<path d="M625.252 219.5V213.5L620.056 210.5" stroke="#F68AC3" stroke-width="2" stroke-linecap="round" stroke-linejoin="round"/>
<path d="M623.078 207.245C622.639 205.558 621.892 203.846 620.908 202.268C619.924 200.689 618.735 199.297 617.45 198.22C616.166 197.143 614.829 196.417 613.565 196.109C612.3 195.801 611.148 195.922 610.218 196.46L606.199 198.5M625.252 213.5L621.233 215.54C620.303 216.078 619.151 216.199 617.886 215.891C616.622 215.583 615.285 214.857 614.001 213.78C612.716 212.703 611.527 211.31 610.543 209.732C609.559 208.154 608.812 206.442 608.373 204.755" stroke="#F68AC3" stroke-width="2" stroke-linecap="round" stroke-linejoin="round"/>
</g>
</g>
<g filter="url(#filter1_d_525_18802)">
<rect width="174" height="204" rx="9.6" transform="matrix(0.866025 0.5 0 1 384.414 1)" fill="white"/>
<rect width="174" height="204" rx="9.6" transform="matrix(0.866025 0.5 0 1 384.414 1)" fill="url(#paint0_linear_525_18802)" fill-opacity="0.12"/>
<rect x="1.03923" y="1.8" width="171.6" height="201.6" rx="8.4" transform="matrix(0.866025 0.5 0 1 384.553 0.480385)" stroke="white" stroke-width="2.4" stroke-dasharray="4.8 4.8"/>
<rect x="1.03923" y="1.8" width="171.6" height="201.6" rx="8.4" transform="matrix(0.866025 0.5 0 1 384.553 0.480385)" stroke="url(#paint1_linear_525_18802)" stroke-width="2.4" stroke-dasharray="4.8 4.8"/>
</g>
<path d="M494.569 292.598V279.916L498.535 282.205C501.792 284.086 503.703 287.509 503.703 291.491V291.508C503.703 295.534 501.808 296.777 498.535 294.888L494.569 292.598ZM496.274 291.886L498.344 293.082C500.643 294.409 501.967 293.477 501.967 290.533V290.515C501.967 287.597 500.62 285.105 498.344 283.792L496.274 282.596V291.886ZM508.064 300.548C506.489 299.638 505.324 297.858 505.324 296.127V296.109C505.324 294.404 506.435 294.053 508.407 295.05L510.645 296.193V295.349C510.645 294.303 510.074 293.394 508.955 292.748C508.041 292.22 507.44 292.26 507.242 292.822L507.235 292.853L505.644 291.935L505.651 291.877C505.849 290.427 507.151 290.133 509.031 291.218C511.109 292.418 512.281 294.29 512.281 296.294V302.824L510.645 301.879V300.526L510.515 300.451C510.028 301.137 509.16 301.181 508.064 300.548ZM506.968 296.997C506.968 297.876 507.615 298.768 508.506 299.282C509.739 299.994 510.645 299.585 510.645 298.355V297.538L508.628 296.522C507.486 295.942 506.968 296.118 506.968 296.979V296.997ZM517.731 306.032C515.912 304.982 515.166 303.813 515.166 301.976V296.448L513.872 295.701V294.198L515.166 294.945V292.537L516.848 293.508V295.916L518.622 296.94V298.443L516.848 297.419V302.49C516.848 303.519 517.183 304.134 517.997 304.604C518.249 304.749 518.393 304.824 518.622 304.929V306.45C518.355 306.349 518.051 306.217 517.731 306.032ZM522.816 309.064C521.24 308.155 520.075 306.375 520.075 304.644V304.626C520.075 302.921 521.187 302.569 523.158 303.567L525.396 304.709V303.866C525.396 302.82 524.825 301.91 523.706 301.264C522.793 300.737 522.191 300.776 521.993 301.339L521.986 301.37L520.395 300.451L520.403 300.394C520.601 298.944 521.902 298.649 523.782 299.735C525.86 300.935 527.032 302.807 527.032 304.811V311.341L525.396 310.396V309.042L525.266 308.968C524.779 309.653 523.912 309.697 522.816 309.064ZM521.719 305.514C521.719 306.393 522.366 307.285 523.257 307.799C524.49 308.511 525.396 308.102 525.396 306.872V306.054L523.379 305.039C522.237 304.459 521.719 304.635 521.719 305.496V305.514Z" fill="#4D73E0"/>
<rect x="1.03923" y="1.8" width="139.6" height="79.6" rx="8.4" transform="matrix(0.866025 0.5 0 1 350.553 114.48)" fill="#CCE2FD" fill-opacity="0.8" stroke="#4D73E0" stroke-width="2.4"/>
<rect x="1.03923" y="1.8" width="139.6" height="79.6" rx="8.4" transform="matrix(0.866025 0.5 0 1 350.553 24.4804)" fill="#F3E8FF" fill-opacity="0.8" stroke="#9333EA" stroke-width="2.4"/>
<path d="M407.371 105.884V91.792L412.276 94.624C414.568 95.9473 415.946 98.0908 415.946 100.249V100.269C415.946 101.733 415.008 102.51 413.807 102.051V102.217C415.456 103.374 416.555 105.356 416.555 107.192V107.212C416.555 109.683 414.991 110.283 412.386 108.779L407.371 105.884ZM411.836 96.1572L409.265 94.6729V98.8818L411.515 100.181C413.189 101.147 414.06 100.928 414.06 99.5605V99.541C414.06 98.2129 413.24 96.9678 411.836 96.1572ZM411.895 102.07L409.265 100.552V105.19L412.005 106.772C413.714 107.759 414.619 107.471 414.619 105.957V105.938C414.619 104.424 413.68 103.101 411.895 102.07ZM421.3 114.102C419.549 113.091 418.255 111.113 418.255 109.189V109.17C418.255 107.275 419.49 106.885 421.68 107.993L424.167 109.263V108.325C424.167 107.163 423.532 106.152 422.289 105.435C421.274 104.849 420.606 104.893 420.386 105.518L420.378 105.552L418.61 104.531L418.619 104.468C418.839 102.856 420.285 102.529 422.374 103.735C424.683 105.068 425.985 107.148 425.985 109.375V116.631L424.167 115.581V114.077L424.023 113.994C423.482 114.756 422.518 114.805 421.3 114.102ZM420.082 110.156C420.082 111.133 420.801 112.124 421.79 112.695C423.16 113.486 424.167 113.032 424.167 111.665V110.757L421.926 109.629C420.657 108.984 420.082 109.18 420.082 110.137V110.156ZM431.914 120.259C429.698 118.979 428.294 116.968 428.116 115.088V115.078L429.952 116.138L429.96 116.152C430.188 117.085 430.856 118.008 431.947 118.638C433.081 119.292 433.867 119.15 433.867 118.281V118.262C433.867 117.598 433.436 116.899 432.37 116.001L430.907 114.766C429.173 113.306 428.37 111.934 428.37 110.381V110.371C428.37 108.525 429.859 108.057 431.939 109.258C434.036 110.469 435.381 112.456 435.542 114.277V114.287L433.791 113.276V113.257C433.614 112.412 432.962 111.479 431.931 110.884C430.924 110.303 430.197 110.459 430.197 111.309V111.328C430.197 111.992 430.62 112.646 431.651 113.525L433.106 114.746C434.874 116.245 435.719 117.603 435.719 119.136V119.155C435.719 121.118 434.096 121.519 431.914 120.259ZM441.766 125.947C439.077 124.395 437.453 121.338 437.453 117.979V117.969C437.453 114.658 439.111 113.398 441.673 114.878C444.236 116.357 445.809 119.404 445.809 122.588V123.33L439.297 119.57C439.331 121.621 440.295 123.359 441.809 124.233C442.984 124.912 443.686 124.644 443.906 124.224L443.94 124.165L445.707 125.176L445.691 125.254C445.386 126.475 444.117 127.305 441.766 125.947ZM441.682 116.621C440.43 115.898 439.483 116.338 439.322 118.071L443.991 120.767C443.847 118.789 442.925 117.339 441.682 116.621Z" fill="#9333EA"/>
<g clip-path="url(#clip4_525_18802)">
<path d="M390.598 188C390.598 188.637 390.379 189.121 389.989 189.346C389.6 189.571 389.071 189.518 388.52 189.2L371.892 179.6C371.341 179.282 370.812 178.724 370.422 178.049C370.032 177.373 369.813 176.637 369.813 176V159.2C369.813 158.564 370.032 158.08 370.422 157.854C370.812 157.629 371.341 157.682 371.892 158L377.088 161L379.167 165.8L388.52 171.2C389.071 171.518 389.6 172.076 389.989 172.752C390.379 173.427 390.598 174.164 390.598 174.8V188Z" stroke="#4D73E0" stroke-width="2.4" stroke-linecap="round" stroke-linejoin="round"/>
</g>
<path d="M407.371 195.884V181.792L411.777 184.336C415.397 186.426 417.519 190.229 417.519 194.653V194.673C417.519 199.146 415.413 200.527 411.777 198.428L407.371 195.884ZM409.265 195.093L411.565 196.421C414.12 197.896 415.591 196.86 415.591 193.589V193.569C415.591 190.327 414.094 187.559 411.565 186.099L409.265 184.771V195.093ZM419.879 203.105V192.5L421.714 193.56V195.161L421.849 195.239C422.179 194.307 423.033 194.136 424.26 194.844C424.556 195.015 424.877 195.249 425.063 195.405V197.358C424.733 197.09 424.42 196.86 424.074 196.66C422.67 195.85 421.714 196.294 421.714 197.827V204.165L419.879 203.105ZM427.77 195.161C427.135 194.795 426.619 193.901 426.619 193.179C426.619 192.446 427.135 192.148 427.77 192.515C428.395 192.876 428.92 193.774 428.92 194.507C428.92 195.229 428.395 195.522 427.77 195.161ZM426.848 207.129V196.523L428.674 197.578V208.184L426.848 207.129ZM433.876 211.187L430.552 198.662L432.497 199.785L434.789 209.565L434.933 209.648L437.216 202.51L439.145 203.623L435.829 212.314L433.876 211.187ZM444.49 217.52C441.8 215.967 440.176 212.91 440.176 209.551V209.541C440.176 206.23 441.834 204.971 444.397 206.45C446.959 207.93 448.532 210.977 448.532 214.16V214.902L442.02 211.143C442.054 213.193 443.018 214.932 444.532 215.806C445.707 216.484 446.409 216.216 446.629 215.796L446.663 215.737L448.431 216.748L448.414 216.826C448.109 218.047 446.841 218.877 444.49 217.52ZM444.405 208.193C443.153 207.471 442.206 207.91 442.045 209.644L446.714 212.339C446.57 210.361 445.648 208.911 444.405 208.193Z" fill="#4D73E0"/>
<g clip-path="url(#clip5_525_18802)">
<path d="M380.205 77.8C385.37 80.7823 389.558 81.5882 389.558 79.6C389.558 77.6117 385.37 73.5823 380.205 70.6C375.039 67.6176 370.852 66.8117 370.852 68.8C370.852 70.7882 375.039 74.8176 380.205 77.8Z" stroke="#9333EA" stroke-width="2.4" stroke-linecap="round" stroke-linejoin="round"/>
<path d="M389.558 88C389.558 89.992 385.401 89.2 380.205 86.2C375.008 83.2 370.852 79.192 370.852 77.2" stroke="#9333EA" stroke-width="2.4" stroke-linecap="round" stroke-linejoin="round"/>
<path d="M370.852 68.8V85.6C370.852 87.592 375.008 91.6 380.205 94.6C385.401 97.6 389.558 98.392 389.558 96.4V79.6" stroke="#9333EA" stroke-width="2.4" stroke-linecap="round" stroke-linejoin="round"/>
</g>
<rect width="174.221" height="203" rx="10" transform="matrix(0.859406 0.511293 0 1 180.688 1)" fill="#F0EEEA"/>
<path opacity="0.5" d="M194.072 97.435C194.072 71.383 194.072 58.357 198.567 51.1525C202.195 45.3386 207.798 42.1525 214.649 42.0076C223.139 41.828 234.334 48.4881 256.723 61.8083L303.251 89.4897C307.232 91.8577 309.222 93.0418 310.731 94.8696C311.949 96.3446 312.945 98.0962 313.59 99.8972C314.389 102.129 314.389 104.445 314.389 109.076V223.156C314.389 227.788 314.389 230.103 313.59 231.384C312.945 232.418 311.949 232.984 310.731 233.01C309.222 233.042 307.232 231.858 303.251 229.49L205.21 171.161C201.23 168.793 199.24 167.609 197.73 165.782C196.512 164.306 195.516 162.555 194.871 160.754C194.072 158.522 194.072 156.207 194.072 151.575V97.435Z" fill="url(#paint2_linear_525_18802)"/>
<path d="M198.003 192.113C196.087 190.973 194.859 189.115 194.742 187.384L194.736 187.291L196.029 188.06L196.034 188.139C196.105 189.076 196.922 190.136 198.055 190.811C199.136 191.454 199.906 191.283 199.906 190.367V190.36C199.906 189.601 199.448 188.837 198.326 187.889L197.397 187.104C195.676 185.656 194.936 184.286 194.936 182.83V182.823C194.942 181.125 196.211 180.704 198.008 181.773C199.806 182.843 200.981 184.724 201.075 186.312L201.081 186.411L199.806 185.652L199.794 185.557C199.683 184.683 199.019 183.701 197.991 183.096C196.998 182.505 196.264 182.608 196.264 183.538V183.545C196.264 184.276 196.71 185.02 197.809 185.947L198.731 186.735C200.511 188.239 201.24 189.506 201.24 190.969V190.976C201.24 192.863 199.976 193.287 198.003 192.113ZM202.826 197.217V187.319L204.101 188.077V189.246L204.195 189.302C204.565 188.709 205.264 188.64 206.157 189.171C207.767 190.129 208.801 192.241 208.801 194.579V194.592C208.801 196.944 207.778 197.812 206.157 196.848C205.281 196.327 204.535 195.384 204.195 194.381L204.101 194.326V197.976L202.826 197.217ZM205.798 195.37C206.862 196.002 207.502 195.413 207.502 193.82V193.806C207.502 192.207 206.862 190.862 205.798 190.229C204.735 189.597 204.077 190.183 204.077 191.769V191.782C204.077 193.368 204.735 194.737 205.798 195.37ZM212.085 200.374C210.868 199.651 209.97 198.255 209.97 196.908V196.894C209.97 195.568 210.827 195.306 212.349 196.102L214.076 197.013V196.357C214.076 195.544 213.636 194.83 212.772 194.316C212.067 193.897 211.603 193.922 211.45 194.357L211.444 194.381L210.216 193.65L210.222 193.606C210.375 192.48 211.38 192.264 212.831 193.128C214.434 194.082 215.339 195.55 215.339 197.108V202.188L214.076 201.436V200.383L213.976 200.324C213.6 200.852 212.931 200.878 212.085 200.374ZM211.239 197.601C211.239 198.285 211.738 198.985 212.425 199.394C213.377 199.961 214.076 199.652 214.076 198.695V198.059L212.519 197.249C211.638 196.786 211.239 196.918 211.239 197.588V197.601ZM219.822 204.998C217.959 203.89 216.82 201.735 216.82 199.336V199.322C216.82 196.971 217.954 196.176 219.816 197.283C221.42 198.238 222.377 199.86 222.554 201.407V201.442L221.332 200.721L221.326 200.697C221.185 199.882 220.668 199.028 219.822 198.524C218.758 197.892 218.118 198.495 218.118 200.095V200.108C218.118 201.749 218.77 203.135 219.822 203.761C220.621 204.236 221.114 204.106 221.32 203.428L221.332 203.401L222.554 204.128L222.542 204.183C222.313 205.489 221.402 205.938 219.822 204.998ZM226.678 209.077C224.809 207.965 223.682 205.811 223.682 203.459V203.452C223.682 201.135 224.833 200.268 226.613 201.327C228.393 202.386 229.486 204.534 229.486 206.762V207.282L224.962 204.59C224.986 206.026 225.655 207.252 226.707 207.877C227.524 208.363 228.011 208.182 228.164 207.89L228.188 207.849L229.415 208.573L229.404 208.627C229.192 209.479 228.311 210.048 226.678 209.077ZM226.619 202.548C225.749 202.03 225.091 202.329 224.98 203.541L228.223 205.471C228.123 204.085 227.483 203.061 226.619 202.548ZM233.786 213.162L236.847 205.119L238.269 205.965L241.33 217.65L239.943 216.825L239.179 213.705L235.936 211.776L235.167 213.984L233.786 213.162ZM237.505 207.24L236.289 210.755L238.827 212.265L237.605 207.299L237.505 207.24ZM242.657 220.915V211.016L243.932 211.775V212.944L244.026 213C244.396 212.406 245.095 212.337 245.988 212.868C247.598 213.826 248.632 215.938 248.632 218.276V218.29C248.632 220.641 247.61 221.51 245.988 220.545C245.113 220.024 244.367 219.081 244.026 218.079L243.932 218.023V221.673L242.657 220.915ZM245.63 219.067C246.693 219.7 247.334 219.11 247.334 217.517V217.503C247.334 215.904 246.693 214.559 245.63 213.926C244.567 213.294 243.909 213.88 243.909 215.466V215.479C243.909 217.065 244.567 218.434 245.63 219.067ZM250.165 225.382V215.483L251.44 216.242V217.41L251.534 217.466C251.904 216.873 252.603 216.804 253.496 217.335C255.106 218.293 256.14 220.405 256.14 222.743V222.756C256.14 225.108 255.118 225.976 253.496 225.012C252.621 224.491 251.875 223.548 251.534 222.545L251.44 222.49V226.14L250.165 225.382ZM253.138 223.534C254.201 224.166 254.842 223.577 254.842 221.984V221.97C254.842 220.371 254.201 219.026 253.138 218.393C252.075 217.761 251.417 218.347 251.417 219.933V219.946C251.417 221.532 252.075 222.901 253.138 223.534Z" fill="#494645"/>
<path d="M204.603 242.228V229.545L208.848 232.071C210.986 233.342 212.467 235.893 212.467 238.38V238.398C212.467 240.877 210.986 241.692 208.848 240.42L206.295 238.901V243.234L204.603 242.228ZM208.425 233.48L206.295 232.213V237.249L208.425 238.516C209.891 239.388 210.744 238.973 210.744 237.382V237.365C210.744 235.783 209.891 234.352 208.425 233.48ZM214.461 248.092V238.547L216.1 239.522V240.964L216.221 241.036C216.515 240.2 217.278 240.056 218.373 240.708C218.638 240.865 218.925 241.08 219.091 241.223V242.981C218.796 242.735 218.517 242.525 218.207 242.341C216.953 241.595 216.1 241.983 216.1 243.363V249.067L214.461 248.092ZM221.508 241.035C220.941 240.698 220.481 239.888 220.481 239.237C220.481 238.578 220.941 238.316 221.508 238.653C222.067 238.986 222.535 239.8 222.535 240.46C222.535 241.11 222.067 241.367 221.508 241.035ZM220.685 251.795V242.25L222.316 243.221V252.766L220.685 251.795ZM226.961 255.529L223.993 244.218L225.73 245.252L227.777 254.081L227.906 254.158L229.945 247.76L231.667 248.784L228.706 256.567L226.961 255.529ZM235.278 260.635C233.714 259.705 232.559 257.91 232.559 256.179V256.161C232.559 254.456 233.661 254.119 235.618 255.142L237.838 256.314V255.47C237.838 254.424 237.272 253.507 236.161 252.847C235.255 252.307 234.658 252.339 234.462 252.899L234.454 252.93L232.876 251.99L232.883 251.933C233.08 250.486 234.371 250.208 236.237 251.318C238.299 252.545 239.462 254.432 239.462 256.436V262.967L237.838 262V260.647L237.71 260.571C237.226 261.25 236.365 261.282 235.278 260.635ZM234.19 257.07C234.19 257.949 234.832 258.85 235.716 259.375C236.939 260.103 237.838 259.707 237.838 258.476V257.659L235.837 256.617C234.704 256.022 234.19 256.191 234.19 257.053V257.07ZM244.871 266.246C243.065 265.172 242.325 263.993 242.325 262.156V256.628L241.041 255.864V254.361L242.325 255.125V252.717L243.994 253.71V256.118L245.754 257.165V258.668L243.994 257.621V262.692C243.994 263.721 244.327 264.34 245.135 264.821C245.384 264.969 245.528 265.046 245.754 265.154V266.675C245.49 266.57 245.188 266.434 244.871 266.246ZM251.019 270.027C248.617 268.598 247.167 265.828 247.167 262.804V262.795C247.167 259.816 248.647 258.702 250.936 260.063C253.225 261.425 254.629 264.185 254.629 267.051V267.719L248.813 264.258C248.844 266.105 249.705 267.68 251.057 268.485C252.107 269.109 252.734 268.876 252.93 268.501L252.96 268.448L254.539 269.379L254.524 269.449C254.252 270.544 253.119 271.276 251.019 270.027ZM250.943 261.632C249.826 260.967 248.98 261.351 248.836 262.91L253.006 265.39C252.877 263.609 252.054 262.293 250.943 261.632ZM260.997 275.778V263.096L262.689 264.102V276.785L260.997 275.778ZM265.234 278.299V268.754L266.873 269.73V271.18L266.994 271.252C267.395 270.47 268.18 270.322 269.374 271.033C271.209 272.125 272.221 274.001 272.221 276.277V282.456L270.59 281.486V275.755C270.59 274.173 270.023 273.054 268.822 272.339C267.621 271.625 266.873 272.138 266.873 273.676V279.275L265.234 278.299ZM277.494 285.777C275.515 284.6 274.261 282.773 274.102 281.079V281.07L275.741 282.045L275.749 282.059C275.953 282.901 276.549 283.739 277.524 284.319C278.536 284.921 279.238 284.803 279.238 284.021V284.003C279.238 283.405 278.853 282.772 277.901 281.951L276.595 280.822C275.046 279.487 274.329 278.243 274.329 276.846V276.837C274.329 275.176 275.658 274.771 277.516 275.877C279.389 276.991 280.59 278.796 280.734 280.437V280.445L279.17 279.515V279.498C279.012 278.735 278.43 277.888 277.509 277.34C276.61 276.805 275.96 276.937 275.96 277.702V277.72C275.96 278.317 276.338 278.911 277.259 279.714L278.559 280.83C280.137 282.2 280.893 283.431 280.893 284.811V284.829C280.893 286.596 279.442 286.937 277.494 285.777ZM285.885 290.647C284.08 289.573 283.34 288.394 283.34 286.557V281.029L282.056 280.265V278.762L283.34 279.526V277.118L285.009 278.111V280.519L286.769 281.566V283.069L285.009 282.022V287.093C285.009 288.122 285.342 288.741 286.15 289.222C286.399 289.37 286.542 289.447 286.769 289.556V291.076C286.505 290.971 286.203 290.836 285.885 290.647ZM290.931 293.745C289.367 292.815 288.212 291.02 288.212 289.289V289.271C288.212 287.566 289.315 287.229 291.271 288.252L293.492 289.424V288.58C293.492 287.534 292.925 286.617 291.815 285.957C290.908 285.418 290.312 285.449 290.115 286.009L290.108 286.04L288.529 285.101L288.537 285.044C288.733 283.596 290.025 283.319 291.89 284.428C293.952 285.655 295.116 287.543 295.116 289.547V296.077L293.492 295.111V293.757L293.363 293.681C292.88 294.36 292.019 294.393 290.931 293.745ZM289.843 290.18C289.843 291.059 290.485 291.96 291.369 292.486C292.593 293.214 293.492 292.817 293.492 291.586V290.769L291.49 289.727C290.357 289.132 289.843 289.301 289.843 290.163V290.18ZM297.427 297.452V287.907L299.066 288.882V290.332L299.187 290.404C299.587 289.623 300.373 289.475 301.566 290.185C303.402 291.277 304.414 293.154 304.414 295.43V301.609L302.782 300.638V294.908C302.782 293.326 302.216 292.206 301.015 291.492C299.814 290.777 299.066 291.29 299.066 292.828V298.427L297.427 297.452ZM310.154 305.209C307.76 303.784 306.295 301.014 306.295 297.929V297.911C306.295 294.888 307.752 293.865 310.147 295.29C312.209 296.517 313.44 298.603 313.667 300.592V300.636L312.096 299.71L312.088 299.679C311.907 298.631 311.242 297.532 310.154 296.885C308.787 296.072 307.964 296.848 307.964 298.904V298.922C307.964 301.031 308.802 302.813 310.154 303.618C311.182 304.229 311.816 304.061 312.08 303.19L312.096 303.155L313.667 304.09L313.652 304.16C313.357 305.839 312.186 306.417 310.154 305.209ZM318.969 310.453C316.567 309.024 315.117 306.254 315.117 303.23V303.221C315.117 300.242 316.597 299.128 318.886 300.489C321.175 301.851 322.58 304.612 322.58 307.477V308.145L316.764 304.685C316.794 306.531 317.655 308.106 319.007 308.911C320.057 309.535 320.684 309.302 320.88 308.927L320.91 308.874L322.489 309.805L322.474 309.875C322.202 310.97 321.069 311.702 318.969 310.453ZM318.894 302.058C317.776 301.393 316.93 301.778 316.786 303.336L320.956 305.816C320.827 304.035 320.004 302.719 318.894 302.058Z" fill="#32302F"/>
<g opacity="0.5" filter="url(#filter2_d_525_18802)">
<path d="M26.6277 212.4C25.9868 212.03 25.3735 211.676 24.7852 211.335L24.7829 212.533C23.4294 211.748 22.2068 211.031 21.0991 210.353L21.1302 209.172C19.7516 208.328 18.5801 207.563 17.5698 206.818L17.4272 207.924C16.0146 206.883 14.8672 205.854 13.9095 204.707L14.4011 203.934C13.9395 203.381 13.5352 202.802 13.1699 202.17C12.8047 201.537 12.5055 200.898 12.2577 200.222L11.3421 200.261C10.8279 198.858 10.5107 197.35 10.315 195.606L11.3444 196.035C11.2045 194.788 11.1276 193.391 11.0864 191.775L10.0476 191.211C10.0144 189.913 10.0044 188.496 10.0013 186.931L11.0406 187.528C11.0392 186.848 11.0392 186.14 11.0392 185.4V182.979L10 182.379V177.538L11.0392 178.138V173.297L10 172.697V167.856L11.0392 168.456V163.615L10 163.015V158.174L11.0392 158.774V153.932L10 153.332V148.491L11.0392 149.091V144.25L10 143.65V138.809L11.0392 139.409V134.568L10 133.968V129.126L11.0392 129.726V124.885L10 124.285V119.444L11.0392 120.044V115.203L10 114.603V109.762L11.0392 110.362V105.521L10 104.921V100.079L11.0392 100.679V95.8382L10 95.2382V90.397L11.0392 90.997V86.1559L10 85.5559V80.7147L11.0392 81.3147V76.4735L10 75.8735V71.0323L11.0392 71.6323V66.7911L10 66.1911V61.35L11.0392 61.95V57.1088L10 56.5088V51.6676L11.0392 52.2676V47.4265L10 46.8265V41.9853L11.0392 42.5853V37.7441L10 37.1441V32.3029L11.0392 32.9029V28.0618L10 27.4618V22.6206L11.0392 23.2206V20.8C11.0392 20.0599 11.0392 19.3517 11.0406 18.6733L10.0013 18.0705C10.0044 16.5094 10.0144 15.1035 10.0476 13.8436L11.0864 14.4793C11.1276 12.9112 11.2045 11.6028 11.3444 10.5171L10.315 9.75812C10.5107 8.23991 10.8279 7.09811 11.3421 6.28914L12.2577 7.38542C12.5055 6.99553 12.8047 6.70133 13.1699 6.49045C13.5352 6.27958 13.9395 6.16758 14.4011 6.1479L13.9095 4.80683C14.8672 4.76601 16.0146 5.06221 17.4272 5.65187L17.5698 6.92284C18.5801 7.34454 19.7516 7.93212 21.1302 8.68045L21.0991 7.46304C22.2068 8.06428 23.4294 8.75851 24.7829 9.53643L24.7852 10.7378C25.3735 11.0759 25.9868 11.43 26.6277 11.8L28.7247 13.0107V11.8107L32.9187 14.2321V15.4321L37.1128 17.8536V16.6536L41.3068 19.075V20.275L45.5009 22.6964V21.4964L49.6949 23.9179V25.1179L53.8889 27.5393V26.3393L58.083 28.7607V29.9607L62.277 32.3821V31.1821L66.471 33.6036V34.8036L70.6651 37.225V36.025L74.8591 38.4464V39.6464L79.0532 42.0679V40.8679L83.2472 43.2893V44.4893L87.4412 46.9107V45.7107L91.6353 48.1321V49.3321L95.8293 51.7536V50.5536L100.023 52.975V54.175L104.217 56.5964V55.3964L108.411 57.8179V59.0179L112.605 61.4393V60.2393L116.799 62.6607V63.8607L120.994 66.2821V65.0821L125.188 67.5036V68.7036L129.382 71.125V69.925L133.576 72.3464V73.5464L137.77 75.9679V74.7679L141.964 77.1893V78.3893L144.061 79.6C144.702 79.97 145.315 80.3241 145.903 80.6653L145.906 79.4666C147.259 80.2516 148.482 80.9691 149.589 81.6469L149.558 82.8284C150.937 83.672 152.108 84.4371 153.119 85.182L153.261 84.0756C154.674 85.1171 155.821 86.1459 156.779 87.2925L156.287 88.0659C156.749 88.6186 157.153 89.1975 157.519 89.8301C157.884 90.4628 158.183 91.1024 158.431 91.7785L159.346 91.7395C159.861 93.1422 160.178 94.6502 160.373 96.3944L159.344 95.9647C159.484 97.212 159.561 98.6091 159.602 100.225L160.641 100.789C160.674 102.087 160.684 103.504 160.687 105.069L159.648 104.472C159.649 105.152 159.649 105.86 159.649 106.6V109.021L160.688 109.621V114.462L159.649 113.862V118.703L160.688 119.303V124.144L159.649 123.544V128.385L160.688 128.985V133.826L159.649 133.226V138.068L160.688 138.668V143.509L159.649 142.909V147.75L160.688 148.35V153.191L159.649 152.591V157.432L160.688 158.032V162.874L159.649 162.274V167.115L160.688 167.715V172.556L159.649 171.956V176.797L160.688 177.397V182.238L159.649 181.638V186.479L160.688 187.079V191.921L159.649 191.321V196.162L160.688 196.762V201.603L159.649 201.003V205.844L160.688 206.444V211.285L159.649 210.685V215.526L160.688 216.126V220.968L159.649 220.368V225.209L160.688 225.809V230.65L159.649 230.05V234.891L160.688 235.491V240.332L159.649 239.732V244.574L160.688 245.174V250.015L159.649 249.415V254.256L160.688 254.856V259.697L159.649 259.097V263.938L160.688 264.538V269.379L159.649 268.779V271.2C159.649 271.94 159.649 272.648 159.648 273.327L160.687 273.929C160.684 275.491 160.674 276.896 160.641 278.156L159.602 277.521C159.561 279.089 159.484 280.397 159.344 281.483L160.373 282.242C160.178 283.76 159.861 284.902 159.346 285.711L158.431 284.615C158.183 285.004 157.884 285.299 157.519 285.51C157.153 285.72 156.749 285.832 156.287 285.852L156.779 287.193C155.821 287.234 154.674 286.938 153.261 286.348L153.119 285.077C152.108 284.655 150.937 284.068 149.558 283.32L149.589 284.537C148.482 283.936 147.259 283.241 145.906 282.464L145.903 281.262C145.315 280.924 144.702 280.57 144.061 280.2L141.964 278.989V280.189L137.77 277.768V276.568L133.576 274.146V275.346L129.382 272.925V271.725L125.188 269.304V270.504L120.994 268.082V266.882L116.799 264.461V265.661L112.605 263.239V262.039L108.411 259.618V260.818L104.217 258.396V257.196L100.023 254.775V255.975L95.8293 253.554V252.354L91.6353 249.932V251.132L87.4412 248.711V247.511L83.2472 245.089V246.289L79.0532 243.868V242.668L74.8591 240.246V241.446L70.6651 239.025V237.825L66.471 235.404V236.604L62.277 234.182V232.982L58.083 230.561V231.761L53.8889 229.339V228.139L49.6949 225.718V226.918L45.5009 224.496V223.296L41.3068 220.875V222.075L37.1128 219.654V218.454L32.9187 216.032V217.232L28.7247 214.811V213.611L26.6277 212.4Z" stroke="url(#paint3_linear_525_18802)" stroke-width="2.4" stroke-dasharray="4.8 4.8" shape-rendering="crispEdges"/>
</g>
<path opacity="0.3" d="M24.7227 100.4C24.7227 74.348 24.7227 61.3219 29.2524 54.0584C32.9079 48.1968 38.554 44.9371 45.458 44.7021C54.0133 44.411 65.2942 50.924 87.8559 63.95L134.743 91.02C138.754 93.3357 140.759 94.4936 142.28 96.3016C143.507 97.7606 144.511 99.4992 145.161 101.292C145.966 103.513 145.966 105.829 145.966 110.46V224.54C145.966 229.171 145.966 231.487 145.161 232.779C144.511 233.821 143.507 234.4 142.28 234.442C140.759 234.494 138.754 233.336 134.743 231.02L35.9463 173.98C31.9354 171.664 29.9299 170.506 28.4089 168.698C27.1816 167.239 26.1778 165.501 25.528 163.708C24.7227 161.487 24.7227 159.171 24.7227 154.54V100.4Z" fill="url(#paint4_linear_525_18802)"/>
<g clip-path="url(#clip6_525_18802)">
<path d="M85.7771 162.5C98.3323 169.749 108.51 163.872 108.51 149.375C108.51 134.878 98.3323 117.249 85.7771 110C73.2219 102.751 63.0439 108.628 63.0439 123.125C63.0439 137.622 73.2219 155.251 85.7771 162.5Z" stroke="white" stroke-width="2.4" stroke-linecap="round" stroke-linejoin="round"/>
<path d="M63.0439 123.125L108.51 149.375" stroke="white" stroke-width="2.4" stroke-linecap="round" stroke-linejoin="round"/>
<path d="M85.7769 110C91.4631 120.471 94.6945 131.665 94.8701 141.5C94.6945 151.132 91.4631 158.595 85.7769 162.5C80.0907 152.029 76.8592 140.835 76.6836 131C76.8592 121.368 80.0907 113.905 85.7769 110Z" stroke="white" stroke-width="2.4" stroke-linecap="round" stroke-linejoin="round"/>
</g>
<path d="M37.4174 243.83V231.147L41.6951 233.617C43.8491 234.86 45.341 237.392 45.341 239.879V239.896C45.341 242.375 43.8491 243.21 41.6951 241.966L39.1223 240.481V244.814L37.4174 243.83ZM41.2688 235.032L39.1223 233.792V238.829L41.2688 240.068C42.7454 240.92 43.6056 240.494 43.6056 238.903V238.886C43.6056 237.304 42.7454 235.884 41.2688 235.032ZM50.1058 251.34C48.241 250.263 47.2743 248.413 47.2743 246.154V239.976L48.926 240.929V246.66C48.926 248.242 49.4284 249.314 50.6386 250.013C51.963 250.777 52.6709 250.228 52.6709 248.69V243.091L54.315 244.041V253.585L52.6709 252.636V251.195L52.5415 251.12C52.1457 251.92 51.3084 252.034 50.1058 251.34ZM61.0893 257.655C59.9323 256.987 59.0266 255.849 58.547 254.526L58.4252 254.456V255.958L56.7735 255.005V241.716L58.4252 242.669V247.925L58.547 247.996C58.9885 247.222 59.9552 247.13 61.0893 247.785C63.1901 248.998 64.5145 251.669 64.5145 254.693V254.71C64.5145 257.708 63.1749 258.859 61.0893 257.655ZM60.625 255.761C62.0027 256.556 62.8323 255.787 62.8323 253.739V253.722C62.8323 251.674 62.0027 249.947 60.625 249.151C59.2473 248.356 58.3948 249.121 58.3948 251.16V251.177C58.3948 253.216 59.2473 254.965 60.625 255.761ZM66.562 260.656V247.367L68.2137 248.321V261.61L66.562 260.656ZM71.5323 252.276C70.9615 251.946 70.4972 251.142 70.4972 250.492C70.4972 249.833 70.9615 249.564 71.5323 249.894C72.0956 250.219 72.5675 251.028 72.5675 251.687C72.5675 252.337 72.0956 252.601 71.5323 252.276ZM70.7027 263.047V253.502L72.3468 254.451V263.996L70.7027 263.047ZM78.2305 267.578C75.8176 266.185 74.341 263.434 74.341 260.349V260.331C74.341 257.308 75.81 256.266 78.2229 257.659C80.3008 258.859 81.5415 260.929 81.7699 262.915V262.959L80.1867 262.054L80.1791 262.023C79.9964 260.977 79.3266 259.887 78.2305 259.254C76.8528 258.459 76.0232 259.246 76.0232 261.302V261.32C76.0232 263.429 76.868 265.2 78.2305 265.987C79.2657 266.584 79.905 266.409 80.1714 265.534L80.1867 265.499L81.7699 266.413L81.7546 266.483C81.4578 268.167 80.278 268.76 78.2305 267.578ZM88.0951 273.088V260.406L95.0673 264.431V266.127L89.8001 263.086V266.795L94.7856 269.674V271.309L89.8001 268.43V272.376L95.0673 275.417V277.114L88.0951 273.088ZM97.3431 278.428V268.883L98.9948 269.836V271.287L99.1166 271.357C99.52 270.57 100.312 270.412 101.514 271.106C103.364 272.174 104.384 274.038 104.384 276.314V282.493L102.74 281.543V275.813C102.74 274.231 102.169 273.119 100.959 272.42C99.7484 271.722 98.9948 272.245 98.9948 273.783V279.381L97.3431 278.428ZM109.704 285.723C107.626 284.523 106.279 281.82 106.279 278.823V278.806C106.279 275.782 107.603 274.64 109.704 275.853C110.838 276.507 111.805 277.716 112.247 278.999L112.376 279.074V273.818L114.02 274.767V288.056L112.376 287.107V285.604L112.247 285.529C111.767 286.298 110.861 286.391 109.704 285.723ZM110.176 284.369C111.554 285.165 112.399 284.396 112.399 282.356V282.339C112.399 280.3 111.546 278.551 110.176 277.76C108.791 276.96 107.961 277.729 107.961 279.777V279.794C107.961 281.842 108.791 283.569 110.176 284.369ZM116.479 292.657V279.931L118.13 280.884V282.387L118.252 282.458C118.732 281.688 119.637 281.587 120.794 282.255C122.88 283.459 124.219 286.158 124.219 289.164V289.181C124.219 292.205 122.895 293.338 120.794 292.125C119.66 291.471 118.694 290.271 118.252 288.988L118.13 288.917V293.611L116.479 292.657ZM120.33 290.231C121.708 291.027 122.537 290.258 122.537 288.21V288.192C122.537 286.136 121.708 284.417 120.33 283.622C118.952 282.827 118.1 283.591 118.1 285.63V285.648C118.1 287.687 118.952 289.436 120.33 290.231ZM129.707 297.298C127.279 295.896 125.795 293.167 125.795 290.091V290.073C125.795 287.006 127.287 285.986 129.707 287.384C132.12 288.777 133.612 291.51 133.612 294.586V294.604C133.612 297.68 132.128 298.695 129.707 297.298ZM129.707 295.707C131.123 296.524 131.93 295.742 131.93 293.633V293.615C131.93 291.497 131.123 289.792 129.707 288.975C128.284 288.153 127.485 288.931 127.485 291.049V291.066C127.485 293.185 128.284 294.885 129.707 295.707ZM136.444 289.752C135.873 289.423 135.408 288.619 135.408 287.968C135.408 287.309 135.873 287.041 136.444 287.371C137.007 287.696 137.479 288.504 137.479 289.164C137.479 289.814 137.007 290.078 136.444 289.752ZM135.614 300.523V290.979L137.258 291.928V301.473L135.614 300.523ZM139.663 302.861V293.316L141.315 294.27V295.72L141.437 295.791C141.84 295.004 142.632 294.846 143.834 295.54C145.684 296.608 146.704 298.471 146.704 300.748V306.926L145.06 305.977V300.247C145.06 298.665 144.489 297.553 143.279 296.854C142.069 296.155 141.315 296.678 141.315 298.216V303.815L139.663 302.861ZM152.131 310.121C150.312 309.071 149.566 307.902 149.566 306.065V300.537L148.272 299.79V298.287L149.566 299.034V296.625L151.248 297.597V300.005L153.022 301.029V302.532L151.248 301.508V306.579C151.248 307.607 151.583 308.223 152.397 308.693C152.649 308.838 152.793 308.913 153.022 309.018V310.539C152.755 310.438 152.451 310.306 152.131 310.121Z" fill="url(#paint5_linear_525_18802)"/>
<path opacity="0.5" d="M116.872 252.891C114.918 251.763 113.737 249.507 113.737 247.02V247.009C113.737 244.517 114.946 243.652 116.872 244.764C118.802 245.879 120.002 248.14 120.002 250.627V250.637C120.002 253.119 118.811 254.01 116.872 252.891ZM116.872 251.827C118.146 252.563 118.937 251.838 118.937 250.022V250.012C118.937 248.18 118.142 246.561 116.872 245.828C115.602 245.094 114.802 245.793 114.802 247.624V247.635C114.802 249.45 115.579 251.081 116.872 251.827ZM121.3 257.204V249.426L122.309 250.009V250.927L122.384 250.97C122.677 250.5 123.23 250.439 123.937 250.847C125.212 251.583 126.031 253.232 126.031 255.069V255.079C126.031 256.927 125.221 257.62 123.937 256.879C123.244 256.479 122.654 255.745 122.384 254.961L122.309 254.918V257.786L121.3 257.204ZM123.654 255.721C124.496 256.207 125.003 255.737 125.003 254.486V254.475C125.003 253.218 124.496 252.168 123.654 251.682C122.812 251.196 122.291 251.663 122.291 252.909V252.92C122.291 254.166 122.812 255.235 123.654 255.721ZM129.152 259.83C128.04 259.188 127.584 258.474 127.584 257.351V253.973L126.793 253.516V252.598L127.584 253.054V251.583L128.612 252.176V253.648L129.696 254.274V255.192L128.612 254.566V257.666C128.612 258.294 128.817 258.67 129.314 258.957C129.468 259.046 129.556 259.092 129.696 259.156V260.085C129.533 260.023 129.347 259.943 129.152 259.83ZM131.398 254.215C131.05 254.013 130.766 253.522 130.766 253.124C130.766 252.721 131.05 252.558 131.398 252.759C131.743 252.958 132.031 253.452 132.031 253.855C132.031 254.252 131.743 254.413 131.398 254.215ZM130.891 260.797V254.964L131.896 255.544V261.377L130.891 260.797ZM135.506 263.574C134.022 262.717 133.115 261.049 133.115 259.169V259.159C133.115 257.284 134.026 256.661 135.506 257.515C136.98 258.366 137.892 260.037 137.892 261.917V261.927C137.892 263.807 136.985 264.428 135.506 263.574ZM135.506 262.602C136.371 263.101 136.864 262.623 136.864 261.334V261.323C136.864 260.029 136.371 258.987 135.506 258.487C134.636 257.985 134.147 258.46 134.147 259.755V259.766C134.147 261.06 134.636 262.099 135.506 262.602ZM139.097 265.534V259.701L140.106 260.284V261.17L140.18 261.213C140.427 260.732 140.911 260.636 141.646 261.06C142.776 261.713 143.399 262.851 143.399 264.242V268.018L142.395 267.438V263.936C142.395 262.969 142.046 262.29 141.306 261.863C140.566 261.436 140.106 261.756 140.106 262.696V266.117L139.097 265.534ZM146.195 269.729C145.232 269.173 144.52 268.085 144.52 267.027V267.017C144.52 265.975 145.199 265.76 146.404 266.369L147.772 267.068V266.552C147.772 265.913 147.423 265.357 146.739 264.962C146.181 264.64 145.813 264.664 145.692 265.008L145.688 265.027L144.716 264.465L144.72 264.43C144.841 263.544 145.637 263.364 146.786 264.028C148.055 264.761 148.772 265.905 148.772 267.129V271.12L147.772 270.543V269.716L147.693 269.67C147.395 270.089 146.865 270.116 146.195 269.729ZM145.525 267.559C145.525 268.096 145.92 268.641 146.465 268.956C147.218 269.391 147.772 269.141 147.772 268.389V267.889L146.539 267.269C145.841 266.915 145.525 267.022 145.525 267.548V267.559ZM150.242 271.969V263.848L151.251 264.43V272.552L150.242 271.969Z" fill="url(#paint6_linear_525_18802)"/>
<defs>
<filter id="filter0_d_525_18802" x="579.504" y="0.0031004" width="169.888" height="302.594" filterUnits="userSpaceOnUse" color-interpolation-filters="sRGB">
<feFlood flood-opacity="0" result="BackgroundImageFix"/>
<feColorMatrix in="SourceAlpha" type="matrix" values="0 0 0 0 0 0 0 0 0 0 0 0 0 0 0 0 0 0 127 0" result="hardAlpha"/>
<feOffset dy="4.8"/>
<feGaussianBlur stdDeviation="4.8"/>
<feComposite in2="hardAlpha" operator="out"/>
<feColorMatrix type="matrix" values="0 0 0 0 0.8375 0 0 0 0 0.812375 0 0 0 0 0.774688 0 0 0 0.2 0"/>
<feBlend mode="normal" in2="BackgroundImageFix" result="effect1_dropShadow_525_18802"/>
<feBlend mode="normal" in="SourceGraphic" in2="effect1_dropShadow_525_18802" result="shape"/>
</filter>
<filter id="filter1_d_525_18802" x="374.814" y="0.0031004" width="169.888" height="302.594" filterUnits="userSpaceOnUse" color-interpolation-filters="sRGB">
<feFlood flood-opacity="0" result="BackgroundImageFix"/>
<feColorMatrix in="SourceAlpha" type="matrix" values="0 0 0 0 0 0 0 0 0 0 0 0 0 0 0 0 0 0 127 0" result="hardAlpha"/>
<feOffset dy="4.8"/>
<feGaussianBlur stdDeviation="4.8"/>
<feComposite in2="hardAlpha" operator="out"/>
<feColorMatrix type="matrix" values="0 0 0 0 0.8375 0 0 0 0 0.812375 0 0 0 0 0.774688 0 0 0 0.2 0"/>
<feBlend mode="normal" in2="BackgroundImageFix" result="effect1_dropShadow_525_18802"/>
<feBlend mode="normal" in="SourceGraphic" in2="effect1_dropShadow_525_18802" result="shape"/>
</filter>
<filter id="filter2_d_525_18802" x="0.4" y="0.0031004" width="169.888" height="301.594" filterUnits="userSpaceOnUse" color-interpolation-filters="sRGB">
<feFlood flood-opacity="0" result="BackgroundImageFix"/>
<feColorMatrix in="SourceAlpha" type="matrix" values="0 0 0 0 0 0 0 0 0 0 0 0 0 0 0 0 0 0 127 0" result="hardAlpha"/>
<feOffset dy="4.8"/>
<feGaussianBlur stdDeviation="4.8"/>
<feComposite in2="hardAlpha" operator="out"/>
<feColorMatrix type="matrix" values="0 0 0 0 0.8375 0 0 0 0 0.812375 0 0 0 0 0.774688 0 0 0 0.2 0"/>
<feBlend mode="normal" in2="BackgroundImageFix" result="effect1_dropShadow_525_18802"/>
<feBlend mode="normal" in="SourceGraphic" in2="effect1_dropShadow_525_18802" result="shape"/>
</filter>
<linearGradient id="paint0_linear_525_18802" x1="93.5308" y1="-37.7654" x2="93.5308" y2="240.735" gradientUnits="userSpaceOnUse">
<stop stop-color="#9333EA"/>
<stop offset="1" stop-color="#4D73E0"/>
</linearGradient>
<linearGradient id="paint1_linear_525_18802" x1="87" y1="0" x2="87" y2="204" gradientUnits="userSpaceOnUse">
<stop stop-color="#9333EA"/>
<stop offset="1" stop-color="#4D73E0"/>
</linearGradient>
<linearGradient id="paint2_linear_525_18802" x1="194.072" y1="164.535" x2="314.389" y2="96.1161" gradientUnits="userSpaceOnUse">
<stop offset="0.147298" stop-color="#4D73E0"/>
<stop offset="0.490839" stop-color="#993EEB"/>
<stop offset="0.811666" stop-color="#FC19AD"/>
</linearGradient>
<linearGradient id="paint3_linear_525_18802" x1="10" y1="204" x2="176.113" y2="117.685" gradientUnits="userSpaceOnUse">
<stop offset="0.147298" stop-color="#4D73E0"/>
<stop offset="0.490839" stop-color="#993EEB"/>
<stop offset="0.811666" stop-color="#FC19AD"/>
</linearGradient>
<linearGradient id="paint4_linear_525_18802" x1="24.7227" y1="167.5" x2="145.966" y2="97.5" gradientUnits="userSpaceOnUse">
<stop offset="0.147298" stop-color="#4D73E0"/>
<stop offset="0.490839" stop-color="#993EEB"/>
<stop offset="0.811666" stop-color="#FC19AD"/>
</linearGradient>
<linearGradient id="paint5_linear_525_18802" x1="35.9805" y1="245" x2="51.1081" y2="223.789" gradientUnits="userSpaceOnUse">
<stop offset="0.147298" stop-color="#4D73E0"/>
<stop offset="0.490839" stop-color="#993EEB"/>
<stop offset="0.811666" stop-color="#FC19AD"/>
</linearGradient>
<linearGradient id="paint6_linear_525_18802" x1="113.057" y1="254.5" x2="129.055" y2="238.305" gradientUnits="userSpaceOnUse">
<stop offset="0.147298" stop-color="#4D73E0"/>
<stop offset="0.490839" stop-color="#993EEB"/>
<stop offset="0.811666" stop-color="#FC19AD"/>
</linearGradient>
<clipPath id="clip0_525_18802">
<rect width="140" height="172" fill="white" transform="matrix(0.866025 0.5 0 1 555.104 25)"/>
</clipPath>
<clipPath id="clip1_525_18802">
<rect width="24" height="24" fill="white" transform="matrix(0.866025 0.5 0 1 605.333 68)"/>
</clipPath>
<clipPath id="clip2_525_18802">
<rect width="24" height="24" fill="white" transform="matrix(0.866025 0.5 0 1 605.333 128)"/>
</clipPath>
<clipPath id="clip3_525_18802">
<rect width="24" height="24" fill="white" transform="matrix(0.866025 0.5 0 1 605.333 188)"/>
</clipPath>
<clipPath id="clip4_525_18802">
<rect width="28.8" height="28.8" fill="white" transform="matrix(0.866025 0.5 0 1 367.734 152)"/>
</clipPath>
<clipPath id="clip5_525_18802">
<rect width="28.8" height="28.8" fill="white" transform="matrix(0.866025 0.5 0 1 367.734 61)"/>
</clipPath>
<clipPath id="clip6_525_18802">
<rect width="63" height="63" fill="white" transform="matrix(0.866025 0.5 0 1 58.4971 89)"/>
</clipPath>
</defs>
</svg>
