<svg width="749" height="334" viewBox="0 0 749 334" fill="none" xmlns="http://www.w3.org/2000/svg">
<g filter="url(#filter0_d_576_16898)">
<rect width="174" height="204" rx="9.6" transform="matrix(0.866025 0.5 0 1 588.104 3)" fill="white" fill-opacity="0.2" shape-rendering="crispEdges"/>
<rect width="174" height="204" rx="9.6" transform="matrix(0.866025 0.5 0 1 588.104 3)" fill="#FCD5E9" fill-opacity="0.2" shape-rendering="crispEdges"/>
<rect x="1.03923" y="1.8" width="171.6" height="201.6" rx="8.4" transform="matrix(0.866025 0.5 0 1 588.243 2.48038)" stroke="#F26DAA" stroke-width="2.4" stroke-dasharray="4.8 4.8" shape-rendering="crispEdges"/>
</g>
<path d="M682.655 285.589V272.907L684.619 274.041L688.12 286.178L688.242 286.249L691.744 278.154L693.707 279.288V291.97L692.155 291.074V281.766L692.04 281.7L688.813 289.145L687.55 288.415L684.33 277.249L684.208 277.178V286.486L682.655 285.589ZM697.133 282.698C696.562 282.368 696.097 281.564 696.097 280.914C696.097 280.254 696.562 279.986 697.133 280.316C697.696 280.641 698.168 281.45 698.168 282.109C698.168 282.759 697.696 283.023 697.133 282.698ZM696.303 293.469V283.924L697.947 284.873V294.418L696.303 293.469ZM703.831 298C701.418 296.606 699.941 293.855 699.941 290.771V290.753C699.941 287.729 701.41 286.688 703.823 288.081C705.901 289.281 707.142 291.351 707.37 293.337V293.381L705.787 292.476L705.779 292.445C705.597 291.399 704.927 290.309 703.831 289.676C702.453 288.881 701.623 289.667 701.623 291.724V291.742C701.623 293.851 702.468 295.622 703.831 296.409C704.866 297.006 705.505 296.831 705.772 295.956L705.787 295.921L707.37 296.835L707.355 296.905C707.058 298.588 705.878 299.182 703.831 298ZM709.243 300.939V291.395L710.894 292.348V293.79L711.016 293.86C711.313 293.021 712.082 292.867 713.185 293.504C713.452 293.658 713.741 293.869 713.908 294.009V295.767C713.612 295.525 713.33 295.319 713.018 295.139C711.754 294.409 710.894 294.809 710.894 296.189V301.893L709.243 300.939ZM718.772 306.626C716.344 305.224 714.86 302.495 714.86 299.419V299.401C714.86 296.334 716.352 295.314 718.772 296.712C721.185 298.105 722.677 300.838 722.677 303.915V303.932C722.677 307.008 721.193 308.023 718.772 306.626ZM718.772 305.035C720.188 305.853 720.995 305.07 720.995 302.961V302.943C720.995 300.825 720.188 299.12 718.772 298.303C717.349 297.481 716.55 298.259 716.55 300.377V300.395C716.55 302.513 717.349 304.213 718.772 305.035ZM727.655 311.754C725.661 310.603 724.397 308.792 724.237 307.101V307.092L725.889 308.045L725.897 308.059C726.102 308.898 726.703 309.729 727.685 310.295C728.705 310.884 729.413 310.757 729.413 309.975V309.957C729.413 309.359 729.025 308.731 728.066 307.922L726.749 306.811C725.189 305.497 724.466 304.262 724.466 302.864V302.855C724.466 301.194 725.805 300.772 727.678 301.854C729.565 302.943 730.776 304.732 730.92 306.371V306.38L729.345 305.47V305.453C729.185 304.692 728.599 303.853 727.67 303.317C726.764 302.794 726.11 302.935 726.11 303.699V303.717C726.11 304.314 726.49 304.903 727.419 305.694L728.728 306.793C730.319 308.142 731.08 309.364 731.08 310.744V310.761C731.08 312.528 729.619 312.888 727.655 311.754Z" fill="#F26DAA"/>
<g clip-path="url(#clip0_576_16898)">
<rect x="1.03923" y="1.8" width="137.6" height="49.6" rx="8.4" transform="matrix(0.866025 0.5 0 1 554.243 26.4804)" fill="#FCD5E9" fill-opacity="0.8" stroke="#F68AC3" stroke-width="2.4"/>
<g clip-path="url(#clip1_576_16898)">
<path d="M605.199 74.5V80.5L610.395 83.5" stroke="#F68AC3" stroke-width="2" stroke-linecap="round" stroke-linejoin="round"/>
<path d="M624.252 101.5V95.5L619.056 92.5" stroke="#F68AC3" stroke-width="2" stroke-linecap="round" stroke-linejoin="round"/>
<path d="M622.078 89.245C621.639 87.5582 620.892 85.8458 619.908 84.2676C618.924 82.6895 617.735 81.297 616.45 80.2201C615.166 79.1432 613.829 78.4169 612.565 78.1091C611.3 77.8013 610.148 77.922 609.218 78.46L605.199 80.5M624.252 95.5L620.233 97.54C619.303 98.0779 618.151 98.1986 616.886 97.8908C615.622 97.583 614.285 96.8568 613.001 95.7798C611.716 94.7029 610.527 93.3104 609.543 91.7323C608.559 90.1541 607.812 88.4418 607.373 86.755" stroke="#F68AC3" stroke-width="2" stroke-linecap="round" stroke-linejoin="round"/>
</g>
<rect x="1.03923" y="1.8" width="137.6" height="49.6" rx="8.4" transform="matrix(0.866025 0.5 0 1 554.243 86.4804)" fill="#FCD5E9" fill-opacity="0.8" stroke="#F68AC3" stroke-width="2.4"/>
<g clip-path="url(#clip2_576_16898)">
<path d="M605.199 134.5V140.5L610.395 143.5" stroke="#F68AC3" stroke-width="2" stroke-linecap="round" stroke-linejoin="round"/>
<path d="M624.252 161.5V155.5L619.056 152.5" stroke="#F68AC3" stroke-width="2" stroke-linecap="round" stroke-linejoin="round"/>
<path d="M622.078 149.245C621.639 147.558 620.892 145.846 619.908 144.268C618.924 142.689 617.735 141.297 616.45 140.22C615.166 139.143 613.829 138.417 612.565 138.109C611.3 137.801 610.148 137.922 609.218 138.46L605.199 140.5M624.252 155.5L620.233 157.54C619.303 158.078 618.151 158.199 616.886 157.891C615.622 157.583 614.285 156.857 613.001 155.78C611.716 154.703 610.527 153.31 609.543 151.732C608.559 150.154 607.812 148.442 607.373 146.755" stroke="#F68AC3" stroke-width="2" stroke-linecap="round" stroke-linejoin="round"/>
</g>
<rect x="1.03923" y="1.8" width="137.6" height="49.6" rx="8.4" transform="matrix(0.866025 0.5 0 1 554.243 146.48)" fill="#FCD5E9" fill-opacity="0.8" stroke="#F68AC3" stroke-width="2.4"/>
<g clip-path="url(#clip3_576_16898)">
<path d="M605.199 194.5V200.5L610.395 203.5" stroke="#F68AC3" stroke-width="2" stroke-linecap="round" stroke-linejoin="round"/>
<path d="M624.252 221.5V215.5L619.056 212.5" stroke="#F68AC3" stroke-width="2" stroke-linecap="round" stroke-linejoin="round"/>
<path d="M622.078 209.245C621.639 207.558 620.892 205.846 619.908 204.268C618.924 202.689 617.735 201.297 616.45 200.22C615.166 199.143 613.829 198.417 612.565 198.109C611.3 197.801 610.148 197.922 609.218 198.46L605.199 200.5M624.252 215.5L620.233 217.54C619.303 218.078 618.151 218.199 616.886 217.891C615.622 217.583 614.285 216.857 613.001 215.78C611.716 214.703 610.527 213.31 609.543 211.732C608.559 210.154 607.812 208.442 607.373 206.755" stroke="#F68AC3" stroke-width="2" stroke-linecap="round" stroke-linejoin="round"/>
</g>
</g>
<g filter="url(#filter1_d_576_16898)">
<rect width="174" height="204" rx="9.6" transform="matrix(0.866025 0.5 0 1 383.414 3)" fill="white"/>
<rect width="174" height="204" rx="9.6" transform="matrix(0.866025 0.5 0 1 383.414 3)" fill="url(#paint0_linear_576_16898)" fill-opacity="0.12"/>
<rect x="1.03923" y="1.8" width="171.6" height="201.6" rx="8.4" transform="matrix(0.866025 0.5 0 1 383.553 2.48038)" stroke="white" stroke-width="2.4" stroke-dasharray="4.8 4.8"/>
<rect x="1.03923" y="1.8" width="171.6" height="201.6" rx="8.4" transform="matrix(0.866025 0.5 0 1 383.553 2.48038)" stroke="url(#paint1_linear_576_16898)" stroke-width="2.4" stroke-dasharray="4.8 4.8"/>
</g>
<path d="M493.569 294.598V281.916L497.535 284.205C500.792 286.086 502.703 289.509 502.703 293.491V293.508C502.703 297.534 500.808 298.777 497.535 296.888L493.569 294.598ZM495.274 293.886L497.344 295.082C499.643 296.409 500.967 295.477 500.967 292.533V292.515C500.967 289.597 499.62 287.105 497.344 285.792L495.274 284.596V293.886ZM507.064 302.548C505.489 301.638 504.324 299.858 504.324 298.127V298.109C504.324 296.404 505.435 296.053 507.407 297.05L509.645 298.193V297.349C509.645 296.303 509.074 295.394 507.955 294.748C507.041 294.22 506.44 294.26 506.242 294.822L506.235 294.853L504.644 293.935L504.651 293.877C504.849 292.427 506.151 292.133 508.031 293.218C510.109 294.418 511.281 296.29 511.281 298.294V304.824L509.645 303.879V302.526L509.515 302.451C509.028 303.137 508.16 303.181 507.064 302.548ZM505.968 298.997C505.968 299.876 506.615 300.768 507.506 301.282C508.739 301.994 509.645 301.585 509.645 300.355V299.538L507.628 298.522C506.486 297.942 505.968 298.118 505.968 298.979V298.997ZM516.731 308.032C514.912 306.982 514.166 305.813 514.166 303.976V298.448L512.872 297.701V296.198L514.166 296.945V294.537L515.848 295.508V297.916L517.622 298.94V300.443L515.848 299.419V304.49C515.848 305.519 516.183 306.134 516.997 306.604C517.249 306.749 517.393 306.824 517.622 306.929V308.45C517.355 308.349 517.051 308.217 516.731 308.032ZM521.816 311.064C520.24 310.155 519.075 308.375 519.075 306.644V306.626C519.075 304.921 520.187 304.569 522.158 305.567L524.396 306.709V305.866C524.396 304.82 523.825 303.91 522.706 303.264C521.793 302.737 521.191 302.776 520.993 303.339L520.986 303.37L519.395 302.451L519.403 302.394C519.601 300.944 520.902 300.649 522.782 301.735C524.86 302.935 526.032 304.807 526.032 306.811V313.341L524.396 312.396V311.042L524.266 310.968C523.779 311.653 522.912 311.697 521.816 311.064ZM520.719 307.514C520.719 308.393 521.366 309.285 522.257 309.799C523.49 310.511 524.396 310.102 524.396 308.872V308.054L522.379 307.039C521.237 306.459 520.719 306.635 520.719 307.496V307.514Z" fill="#4D73E0"/>
<rect x="1.03923" y="1.8" width="139.6" height="79.6" rx="8.4" transform="matrix(0.866025 0.5 0 1 349.553 116.48)" fill="#CCE2FD" fill-opacity="0.8" stroke="#4D73E0" stroke-width="2.4"/>
<rect x="1.03923" y="1.8" width="139.6" height="79.6" rx="8.4" transform="matrix(0.866025 0.5 0 1 349.553 26.4804)" fill="#F3E8FF" fill-opacity="0.8" stroke="#9333EA" stroke-width="2.4"/>
<path d="M406.371 107.884V93.792L411.276 96.624C413.568 97.9473 414.946 100.091 414.946 102.249V102.269C414.946 103.733 414.008 104.51 412.807 104.051V104.217C414.456 105.374 415.555 107.356 415.555 109.192V109.212C415.555 111.683 413.991 112.283 411.386 110.779L406.371 107.884ZM410.836 98.1572L408.265 96.6729V100.882L410.515 102.181C412.189 103.147 413.06 102.928 413.06 101.561V101.541C413.06 100.213 412.24 98.9678 410.836 98.1572ZM410.895 104.07L408.265 102.552V107.19L411.005 108.772C412.714 109.759 413.619 109.471 413.619 107.957V107.938C413.619 106.424 412.68 105.101 410.895 104.07ZM420.3 116.102C418.549 115.091 417.255 113.113 417.255 111.189V111.17C417.255 109.275 418.49 108.885 420.68 109.993L423.167 111.263V110.325C423.167 109.163 422.532 108.152 421.289 107.435C420.274 106.849 419.606 106.893 419.386 107.518L419.378 107.552L417.61 106.531L417.619 106.468C417.839 104.856 419.285 104.529 421.374 105.735C423.683 107.068 424.985 109.148 424.985 111.375V118.631L423.167 117.581V116.077L423.023 115.994C422.482 116.756 421.518 116.805 420.3 116.102ZM419.082 112.156C419.082 113.133 419.801 114.124 420.79 114.695C422.16 115.486 423.167 115.032 423.167 113.665V112.757L420.926 111.629C419.657 110.984 419.082 111.18 419.082 112.137V112.156ZM430.914 122.259C428.698 120.979 427.294 118.968 427.116 117.088V117.078L428.952 118.138L428.96 118.152C429.188 119.085 429.856 120.008 430.947 120.638C432.081 121.292 432.867 121.15 432.867 120.281V120.262C432.867 119.598 432.436 118.899 431.37 118.001L429.907 116.766C428.173 115.306 427.37 113.934 427.37 112.381V112.371C427.37 110.525 428.859 110.057 430.939 111.258C433.036 112.469 434.381 114.456 434.542 116.277V116.287L432.791 115.276V115.257C432.614 114.412 431.962 113.479 430.931 112.884C429.924 112.303 429.197 112.459 429.197 113.309V113.328C429.197 113.992 429.62 114.646 430.651 115.525L432.106 116.746C433.874 118.245 434.719 119.603 434.719 121.136V121.155C434.719 123.118 433.096 123.519 430.914 122.259ZM440.766 127.947C438.077 126.395 436.453 123.338 436.453 119.979V119.969C436.453 116.658 438.111 115.398 440.673 116.878C443.236 118.357 444.809 121.404 444.809 124.588V125.33L438.297 121.57C438.331 123.621 439.295 125.359 440.809 126.233C441.984 126.912 442.686 126.644 442.906 126.224L442.94 126.165L444.707 127.176L444.691 127.254C444.386 128.475 443.117 129.305 440.766 127.947ZM440.682 118.621C439.43 117.898 438.483 118.338 438.322 120.071L442.991 122.767C442.847 120.789 441.925 119.339 440.682 118.621Z" fill="#9333EA"/>
<g clip-path="url(#clip4_576_16898)">
<path d="M389.598 190C389.598 190.637 389.379 191.121 388.989 191.346C388.6 191.571 388.071 191.518 387.52 191.2L370.892 181.6C370.341 181.282 369.812 180.724 369.422 180.049C369.032 179.373 368.813 178.637 368.813 178V161.2C368.813 160.564 369.032 160.08 369.422 159.854C369.812 159.629 370.341 159.682 370.892 160L376.088 163L378.167 167.8L387.52 173.2C388.071 173.518 388.6 174.076 388.989 174.752C389.379 175.427 389.598 176.164 389.598 176.8V190Z" stroke="#4D73E0" stroke-width="2.4" stroke-linecap="round" stroke-linejoin="round"/>
</g>
<path d="M406.371 197.884V183.792L410.777 186.336C414.397 188.426 416.519 192.229 416.519 196.653V196.673C416.519 201.146 414.413 202.527 410.777 200.428L406.371 197.884ZM408.265 197.093L410.565 198.421C413.12 199.896 414.591 198.86 414.591 195.589V195.569C414.591 192.327 413.094 189.559 410.565 188.099L408.265 186.771V197.093ZM418.879 205.105V194.5L420.714 195.56V197.161L420.849 197.239C421.179 196.307 422.033 196.136 423.26 196.844C423.556 197.015 423.877 197.249 424.063 197.405V199.358C423.733 199.09 423.42 198.86 423.074 198.66C421.67 197.85 420.714 198.294 420.714 199.827V206.165L418.879 205.105ZM426.77 197.161C426.135 196.795 425.619 195.901 425.619 195.179C425.619 194.446 426.135 194.148 426.77 194.515C427.395 194.876 427.92 195.774 427.92 196.507C427.92 197.229 427.395 197.522 426.77 197.161ZM425.848 209.129V198.523L427.674 199.578V210.184L425.848 209.129ZM432.876 213.187L429.552 200.662L431.497 201.785L433.789 211.565L433.933 211.648L436.216 204.51L438.145 205.623L434.829 214.314L432.876 213.187ZM443.49 219.52C440.8 217.967 439.176 214.91 439.176 211.551V211.541C439.176 208.23 440.834 206.971 443.397 208.45C445.959 209.93 447.532 212.977 447.532 216.16V216.902L441.02 213.143C441.054 215.193 442.018 216.932 443.532 217.806C444.707 218.484 445.409 218.216 445.629 217.796L445.663 217.737L447.431 218.748L447.414 218.826C447.109 220.047 445.841 220.877 443.49 219.52ZM443.405 210.193C442.153 209.471 441.206 209.91 441.045 211.644L445.714 214.339C445.57 212.361 444.648 210.911 443.405 210.193Z" fill="#4D73E0"/>
<g clip-path="url(#clip5_576_16898)">
<path d="M379.205 79.8C384.37 82.7823 388.558 83.5882 388.558 81.6C388.558 79.6117 384.37 75.5823 379.205 72.6C374.039 69.6176 369.852 68.8117 369.852 70.8C369.852 72.7882 374.039 76.8176 379.205 79.8Z" stroke="#9333EA" stroke-width="2.4" stroke-linecap="round" stroke-linejoin="round"/>
<path d="M388.558 90C388.558 91.992 384.401 91.2 379.205 88.2C374.008 85.2 369.852 81.192 369.852 79.2" stroke="#9333EA" stroke-width="2.4" stroke-linecap="round" stroke-linejoin="round"/>
<path d="M369.852 70.8V87.6C369.852 89.592 374.008 93.6 379.205 96.6C384.401 99.6 388.558 100.392 388.558 98.4V81.6" stroke="#9333EA" stroke-width="2.4" stroke-linecap="round" stroke-linejoin="round"/>
</g>
<rect width="174.221" height="203" rx="10" transform="matrix(0.859406 0.511293 0 1 179.688 3)" fill="#F0EEEA"/>
<path opacity="0.5" d="M193.072 99.435C193.072 73.383 193.072 60.357 197.567 53.1525C201.195 47.3386 206.798 44.1525 213.649 44.0076C222.139 43.828 233.334 50.4881 255.723 63.8083L302.251 91.4897C306.232 93.8577 308.222 95.0418 309.731 96.8696C310.949 98.3446 311.945 100.096 312.59 101.897C313.389 104.129 313.389 106.445 313.389 111.076V225.156C313.389 229.788 313.389 232.103 312.59 233.384C311.945 234.418 310.949 234.984 309.731 235.01C308.222 235.042 306.232 233.858 302.251 231.49L204.21 173.161C200.23 170.793 198.24 169.609 196.73 167.782C195.512 166.306 194.516 164.555 193.871 162.754C193.072 160.522 193.072 158.207 193.072 153.575V99.435Z" fill="url(#paint2_linear_576_16898)"/>
<path d="M197.003 194.113C195.087 192.973 193.859 191.115 193.742 189.384L193.736 189.291L195.029 190.06L195.034 190.139C195.105 191.076 195.922 192.136 197.055 192.811C198.136 193.454 198.906 193.283 198.906 192.367V192.36C198.906 191.601 198.448 190.837 197.326 189.889L196.397 189.104C194.676 187.656 193.936 186.286 193.936 184.83V184.823C193.942 183.125 195.211 182.704 197.008 183.773C198.806 184.843 199.981 186.724 200.075 188.312L200.081 188.411L198.806 187.652L198.794 187.557C198.683 186.683 198.019 185.701 196.991 185.096C195.998 184.505 195.264 184.608 195.264 185.538V185.545C195.264 186.276 195.71 187.02 196.809 187.947L197.731 188.735C199.511 190.239 200.24 191.506 200.24 192.969V192.976C200.24 194.863 198.976 195.287 197.003 194.113ZM201.826 199.217V189.319L203.101 190.077V191.246L203.195 191.302C203.565 190.709 204.264 190.64 205.157 191.171C206.767 192.129 207.801 194.241 207.801 196.579V196.592C207.801 198.944 206.778 199.812 205.157 198.848C204.281 198.327 203.535 197.384 203.195 196.381L203.101 196.326V199.976L201.826 199.217ZM204.798 197.37C205.862 198.002 206.502 197.413 206.502 195.82V195.806C206.502 194.207 205.862 192.862 204.798 192.229C203.735 191.597 203.077 192.183 203.077 193.769V193.782C203.077 195.368 203.735 196.737 204.798 197.37ZM211.085 202.374C209.868 201.651 208.97 200.255 208.97 198.908V198.894C208.97 197.568 209.827 197.306 211.349 198.102L213.076 199.013V198.357C213.076 197.544 212.636 196.83 211.772 196.316C211.067 195.897 210.603 195.922 210.45 196.357L210.444 196.381L209.216 195.65L209.222 195.606C209.375 194.48 210.38 194.264 211.831 195.128C213.434 196.082 214.339 197.55 214.339 199.108V204.188L213.076 203.436V202.383L212.976 202.324C212.6 202.852 211.931 202.878 211.085 202.374ZM210.239 199.601C210.239 200.285 210.738 200.985 211.425 201.394C212.377 201.961 213.076 201.652 213.076 200.695V200.059L211.519 199.249C210.638 198.786 210.239 198.918 210.239 199.588V199.601ZM218.822 206.998C216.959 205.89 215.82 203.735 215.82 201.336V201.322C215.82 198.971 216.954 198.176 218.816 199.283C220.42 200.238 221.377 201.86 221.554 203.407V203.442L220.332 202.721L220.326 202.697C220.185 201.882 219.668 201.028 218.822 200.524C217.758 199.892 217.118 200.495 217.118 202.095V202.108C217.118 203.749 217.77 205.135 218.822 205.761C219.621 206.236 220.114 206.106 220.32 205.428L220.332 205.401L221.554 206.128L221.542 206.183C221.313 207.489 220.402 207.938 218.822 206.998ZM225.678 211.077C223.809 209.965 222.682 207.811 222.682 205.459V205.452C222.682 203.135 223.833 202.268 225.613 203.327C227.393 204.386 228.486 206.534 228.486 208.762V209.282L223.962 206.59C223.986 208.026 224.655 209.252 225.707 209.877C226.524 210.363 227.011 210.182 227.164 209.89L227.188 209.849L228.415 210.573L228.404 210.627C228.192 211.479 227.311 212.048 225.678 211.077ZM225.619 204.548C224.749 204.03 224.091 204.329 223.98 205.541L227.223 207.471C227.123 206.085 226.483 205.061 225.619 204.548ZM232.786 215.162L235.847 207.119L237.269 207.965L240.33 219.65L238.943 218.825L238.179 215.705L234.936 213.776L234.167 215.984L232.786 215.162ZM236.505 209.24L235.289 212.755L237.827 214.265L236.605 209.299L236.505 209.24ZM241.657 222.915V213.016L242.932 213.775V214.944L243.026 215C243.396 214.406 244.095 214.337 244.988 214.868C246.598 215.826 247.632 217.938 247.632 220.276V220.29C247.632 222.641 246.61 223.51 244.988 222.545C244.113 222.024 243.367 221.081 243.026 220.079L242.932 220.023V223.673L241.657 222.915ZM244.63 221.067C245.693 221.7 246.334 221.11 246.334 219.517V219.503C246.334 217.904 245.693 216.559 244.63 215.926C243.567 215.294 242.909 215.88 242.909 217.466V217.479C242.909 219.065 243.567 220.434 244.63 221.067ZM249.165 227.382V217.483L250.44 218.242V219.41L250.534 219.466C250.904 218.873 251.603 218.804 252.496 219.335C254.106 220.293 255.14 222.405 255.14 224.743V224.756C255.14 227.108 254.118 227.976 252.496 227.012C251.621 226.491 250.875 225.548 250.534 224.545L250.44 224.49V228.14L249.165 227.382ZM252.138 225.534C253.201 226.166 253.842 225.577 253.842 223.984V223.97C253.842 222.371 253.201 221.026 252.138 220.393C251.075 219.761 250.417 220.347 250.417 221.933V221.946C250.417 223.532 251.075 224.901 252.138 225.534Z" fill="#494645"/>
<path d="M203.603 244.228V231.545L207.848 234.071C209.986 235.342 211.467 237.893 211.467 240.38V240.398C211.467 242.877 209.986 243.692 207.848 242.42L205.295 240.901V245.234L203.603 244.228ZM207.425 235.48L205.295 234.213V239.249L207.425 240.516C208.891 241.388 209.744 240.973 209.744 239.382V239.365C209.744 237.783 208.891 236.352 207.425 235.48ZM213.461 250.092V240.547L215.1 241.522V242.964L215.221 243.036C215.515 242.2 216.278 242.056 217.373 242.708C217.638 242.865 217.925 243.08 218.091 243.223V244.981C217.796 244.735 217.517 244.525 217.207 244.341C215.953 243.595 215.1 243.983 215.1 245.363V251.067L213.461 250.092ZM220.508 243.035C219.941 242.698 219.481 241.888 219.481 241.237C219.481 240.578 219.941 240.316 220.508 240.653C221.067 240.986 221.535 241.8 221.535 242.46C221.535 243.11 221.067 243.367 220.508 243.035ZM219.685 253.795V244.25L221.316 245.221V254.766L219.685 253.795ZM225.961 257.529L222.993 246.218L224.73 247.252L226.777 256.081L226.906 256.158L228.945 249.76L230.667 250.784L227.706 258.567L225.961 257.529ZM234.278 262.635C232.714 261.705 231.559 259.91 231.559 258.179V258.161C231.559 256.456 232.661 256.119 234.618 257.142L236.838 258.314V257.47C236.838 256.424 236.272 255.507 235.161 254.847C234.255 254.307 233.658 254.339 233.462 254.899L233.454 254.93L231.876 253.99L231.883 253.933C232.08 252.486 233.371 252.208 235.237 253.318C237.299 254.545 238.462 256.432 238.462 258.436V264.967L236.838 264V262.647L236.71 262.571C236.226 263.25 235.365 263.282 234.278 262.635ZM233.19 259.07C233.19 259.949 233.832 260.85 234.716 261.375C235.939 262.103 236.838 261.707 236.838 260.476V259.659L234.837 258.617C233.704 258.022 233.19 258.191 233.19 259.053V259.07ZM243.871 268.246C242.065 267.172 241.325 265.993 241.325 264.156V258.628L240.041 257.864V256.361L241.325 257.125V254.717L242.994 255.71V258.118L244.754 259.165V260.668L242.994 259.621V264.692C242.994 265.721 243.327 266.34 244.135 266.821C244.384 266.969 244.528 267.046 244.754 267.154V268.675C244.49 268.57 244.188 268.434 243.871 268.246ZM250.019 272.027C247.617 270.598 246.167 267.828 246.167 264.804V264.795C246.167 261.816 247.647 260.702 249.936 262.063C252.225 263.425 253.629 266.185 253.629 269.051V269.719L247.813 266.258C247.844 268.105 248.705 269.68 250.057 270.485C251.107 271.109 251.734 270.876 251.93 270.501L251.96 270.448L253.539 271.379L253.524 271.449C253.252 272.544 252.119 273.276 250.019 272.027ZM249.943 263.632C248.826 262.967 247.98 263.351 247.836 264.91L252.006 267.39C251.877 265.609 251.054 264.293 249.943 263.632ZM259.997 277.778V265.096L261.689 266.102V278.785L259.997 277.778ZM264.234 280.299V270.754L265.873 271.73V273.18L265.994 273.252C266.395 272.47 267.18 272.322 268.374 273.033C270.209 274.125 271.221 276.001 271.221 278.277V284.456L269.59 283.486V277.755C269.59 276.173 269.023 275.054 267.822 274.339C266.621 273.625 265.873 274.138 265.873 275.676V281.275L264.234 280.299ZM276.494 287.777C274.515 286.6 273.261 284.773 273.102 283.079V283.07L274.741 284.045L274.749 284.059C274.953 284.901 275.549 285.739 276.524 286.319C277.536 286.921 278.238 286.803 278.238 286.021V286.003C278.238 285.405 277.853 284.772 276.901 283.951L275.595 282.822C274.046 281.487 273.329 280.243 273.329 278.846V278.837C273.329 277.176 274.658 276.771 276.516 277.877C278.389 278.991 279.59 280.796 279.734 282.437V282.445L278.17 281.515V281.498C278.012 280.735 277.43 279.888 276.509 279.34C275.61 278.805 274.96 278.937 274.96 279.702V279.72C274.96 280.317 275.338 280.911 276.259 281.714L277.559 282.83C279.137 284.2 279.893 285.431 279.893 286.811V286.829C279.893 288.596 278.442 288.937 276.494 287.777ZM284.885 292.647C283.08 291.573 282.34 290.394 282.34 288.557V283.029L281.056 282.265V280.762L282.34 281.526V279.118L284.009 280.111V282.519L285.769 283.566V285.069L284.009 284.022V289.093C284.009 290.122 284.342 290.741 285.15 291.222C285.399 291.37 285.542 291.447 285.769 291.556V293.076C285.505 292.971 285.203 292.836 284.885 292.647ZM289.931 295.745C288.367 294.815 287.212 293.02 287.212 291.289V291.271C287.212 289.566 288.315 289.229 290.271 290.252L292.492 291.424V290.58C292.492 289.534 291.925 288.617 290.815 287.957C289.908 287.418 289.312 287.449 289.115 288.009L289.108 288.04L287.529 287.101L287.537 287.044C287.733 285.596 289.025 285.319 290.89 286.428C292.952 287.655 294.116 289.543 294.116 291.547V298.077L292.492 297.111V295.757L292.363 295.681C291.88 296.36 291.019 296.393 289.931 295.745ZM288.843 292.18C288.843 293.059 289.485 293.96 290.369 294.486C291.593 295.214 292.492 294.817 292.492 293.586V292.769L290.49 291.727C289.357 291.132 288.843 291.301 288.843 292.163V292.18ZM296.427 299.452V289.907L298.066 290.882V292.332L298.187 292.404C298.587 291.623 299.373 291.475 300.566 292.185C302.402 293.277 303.414 295.154 303.414 297.43V303.609L301.782 302.638V296.908C301.782 295.326 301.216 294.206 300.015 293.492C298.814 292.777 298.066 293.29 298.066 294.828V300.427L296.427 299.452ZM309.154 307.209C306.76 305.784 305.295 303.014 305.295 299.929V299.911C305.295 296.888 306.752 295.865 309.147 297.29C311.209 298.517 312.44 300.603 312.667 302.592V302.636L311.096 301.71L311.088 301.679C310.907 300.631 310.242 299.532 309.154 298.885C307.787 298.072 306.964 298.848 306.964 300.904V300.922C306.964 303.031 307.802 304.813 309.154 305.618C310.182 306.229 310.816 306.061 311.08 305.19L311.096 305.155L312.667 306.09L312.652 306.16C312.357 307.839 311.186 308.417 309.154 307.209ZM317.969 312.453C315.567 311.024 314.117 308.254 314.117 305.23V305.221C314.117 302.242 315.597 301.128 317.886 302.489C320.175 303.851 321.58 306.612 321.58 309.477V310.145L315.764 306.685C315.794 308.531 316.655 310.106 318.007 310.911C319.057 311.535 319.684 311.302 319.88 310.927L319.91 310.874L321.489 311.805L321.474 311.875C321.202 312.97 320.069 313.702 317.969 312.453ZM317.894 304.058C316.776 303.393 315.93 303.778 315.786 305.336L319.956 307.816C319.827 306.035 319.004 304.719 317.894 304.058Z" fill="#32302F"/>
<g opacity="0.5" filter="url(#filter2_d_576_16898)">
<path opacity="0.5" d="M23.3838 97.435C23.3838 71.383 23.3838 58.357 27.879 51.1525C31.5065 45.3386 37.1094 42.1525 43.9607 42.0076C52.4506 41.828 63.6452 48.4881 86.0345 61.8083L132.563 89.4897C136.543 91.8577 138.533 93.0418 140.043 94.8696C141.261 96.3446 142.257 98.0962 142.902 99.8972C143.701 102.129 143.701 104.445 143.701 109.076V223.156C143.701 227.788 143.701 230.103 142.902 231.384C142.257 232.418 141.261 232.984 140.043 233.01C138.533 233.042 136.543 231.858 132.563 229.49L34.5217 171.161C30.5414 168.793 28.5512 167.609 27.0419 165.782C25.8239 164.306 24.8278 162.555 24.1829 160.754C23.3838 158.522 23.3838 156.207 23.3838 151.575V97.435Z" fill="url(#paint3_linear_576_16898)"/>
<g clip-path="url(#clip6_576_16898)">
<path d="M83.9087 157.638C96.5657 165.168 106.826 159.333 106.826 144.606C106.826 129.878 96.5657 111.835 83.9087 104.304C71.2517 96.7743 60.9912 102.609 60.9912 117.337C60.9912 132.064 71.2517 150.108 83.9087 157.638Z" stroke="white" stroke-width="2.4" stroke-linecap="round" stroke-linejoin="round"/>
<path d="M60.9912 117.337L106.826 144.606" stroke="white" stroke-width="2.4" stroke-linecap="round" stroke-linejoin="round"/>
<path d="M83.9092 104.305C89.6415 115.017 92.8992 126.432 93.0762 136.425C92.8992 146.208 89.6415 153.746 83.9092 157.638C78.1769 146.925 74.9192 135.511 74.7422 125.517C74.9192 115.735 78.1769 108.196 83.9092 104.305Z" stroke="white" stroke-width="2.4" stroke-linecap="round" stroke-linejoin="round"/>
</g>
<path d="M111.392 241.082C109.453 239.929 108.28 237.657 108.28 235.171V235.16C108.28 232.668 109.481 231.819 111.392 232.956C113.307 234.095 114.498 236.372 114.498 238.859V238.87C114.498 241.351 113.316 242.227 111.392 241.082ZM111.392 240.019C112.656 240.771 113.441 240.056 113.441 238.241V238.23C113.441 236.399 112.652 234.769 111.392 234.019C110.131 233.269 109.337 233.957 109.337 235.789V235.8C109.337 237.615 110.108 239.255 111.392 240.019ZM115.786 245.453V237.676L116.788 238.271V239.19L116.861 239.234C117.152 238.768 117.702 238.713 118.403 239.131C119.668 239.883 120.48 241.543 120.48 243.38V243.39C120.48 245.238 119.677 245.92 118.403 245.162C117.715 244.753 117.129 244.012 116.861 243.225L116.788 243.181V246.049L115.786 245.453ZM118.122 244.001C118.957 244.498 119.46 244.035 119.46 242.783V242.773C119.46 241.516 118.957 240.459 118.122 239.962C117.286 239.465 116.769 239.925 116.769 241.172V241.182C116.769 242.428 117.286 243.504 118.122 244.001ZM123.578 248.182C122.474 247.525 122.022 246.805 122.022 245.683V242.304L121.237 241.837V240.919L122.022 241.386V239.914L123.042 240.521V241.993L124.118 242.632V243.551L123.042 242.911V246.01C123.042 246.639 123.245 247.017 123.739 247.311C123.892 247.402 123.979 247.448 124.118 247.515V248.444C123.956 248.38 123.772 248.297 123.578 248.182ZM125.807 242.596C125.461 242.39 125.179 241.894 125.179 241.497C125.179 241.094 125.461 240.934 125.807 241.14C126.149 241.343 126.435 241.841 126.435 242.244C126.435 242.641 126.149 242.799 125.807 242.596ZM125.304 249.171V243.338L126.301 243.931V249.764L125.304 249.171ZM129.883 252.008C128.411 251.132 127.51 249.453 127.51 247.573V247.562C127.51 245.687 128.415 245.076 129.883 245.95C131.346 246.82 132.251 248.502 132.251 250.382V250.393C132.251 252.273 131.351 252.882 129.883 252.008ZM129.883 251.036C130.742 251.547 131.231 251.075 131.231 249.786V249.775C131.231 248.481 130.742 247.433 129.883 246.922C129.02 246.408 128.535 246.877 128.535 248.172V248.182C128.535 249.477 129.02 250.523 129.883 251.036ZM133.447 254.015V248.182L134.448 248.778V249.665L134.522 249.709C134.767 249.231 135.247 249.141 135.976 249.575C137.098 250.242 137.716 251.389 137.716 252.78V256.556L136.719 255.963V252.461C136.719 251.494 136.373 250.81 135.639 250.373C134.905 249.937 134.448 250.25 134.448 251.19V254.611L133.447 254.015ZM140.49 258.303C139.535 257.734 138.829 256.637 138.829 255.579V255.569C138.829 254.527 139.503 254.321 140.698 254.946L142.055 255.662V255.146C142.055 254.507 141.709 253.947 141.031 253.543C140.477 253.214 140.112 253.233 139.992 253.575L139.987 253.594L139.023 253.02L139.027 252.985C139.147 252.1 139.937 251.931 141.077 252.609C142.337 253.359 143.048 254.512 143.048 255.737V259.728L142.055 259.137V258.31L141.977 258.263C141.681 258.678 141.155 258.698 140.49 258.303ZM139.826 256.124C139.826 256.661 140.218 257.212 140.758 257.533C141.506 257.978 142.055 257.735 142.055 256.983V256.484L140.832 255.847C140.14 255.484 139.826 255.587 139.826 256.113V256.124ZM144.506 260.595V252.474L145.508 253.07V261.191L144.506 260.595Z" fill="url(#paint4_linear_576_16898)"/>
<rect x="1.03129" y="1.81355" width="171.821" height="200.6" rx="8.4" transform="matrix(0.859406 0.511293 0 1 10.145 0.47271)" stroke="url(#paint5_linear_576_16898)" stroke-width="2.4" stroke-dasharray="4.8 4.8" shape-rendering="crispEdges"/>
</g>
<path d="M37.2081 244.187V231.504L41.4531 234.03C43.5907 235.302 45.0712 237.852 45.0712 240.34V240.357C45.0712 242.836 43.5907 243.651 41.4531 242.38L38.9001 240.861V245.194L37.2081 244.187ZM41.0301 235.439L38.9001 234.172V239.208L41.0301 240.476C42.4955 241.347 43.349 240.932 43.349 239.341V239.324C43.349 237.742 42.4955 236.311 41.0301 235.439ZM49.7996 251.863C47.949 250.762 46.9898 248.899 46.9898 246.64V240.462L48.6288 241.437V247.167C48.6288 248.749 49.1274 249.828 50.3284 250.543C51.6426 251.325 52.3451 250.784 52.3451 249.246V243.648L53.9766 244.618V254.163L52.3451 253.193V251.751L52.2167 251.675C51.8239 252.469 50.993 252.573 49.7996 251.863ZM60.6991 258.321C59.551 257.638 58.6522 256.488 58.1763 255.159L58.0555 255.087V256.59L56.4164 255.615V242.326L58.0555 243.301V248.557L58.1763 248.629C58.6144 247.861 59.5737 247.781 60.6991 248.451C62.7839 249.691 64.0982 252.38 64.0982 255.404V255.421C64.0982 258.418 62.7688 259.552 60.6991 258.321ZM60.2384 256.421C61.6055 257.234 62.4289 256.476 62.4289 254.428V254.411C62.4289 252.363 61.6055 250.625 60.2384 249.811C58.8712 248.998 58.0252 249.752 58.0252 251.791V251.808C58.0252 253.847 58.8712 255.607 60.2384 256.421ZM66.13 261.394V248.105L67.7691 249.08V262.369L66.13 261.394ZM71.0624 253.078C70.4959 252.741 70.0351 251.931 70.0351 251.281C70.0351 250.621 70.4959 250.359 71.0624 250.696C71.6213 251.029 72.0896 251.844 72.0896 252.503C72.0896 253.153 71.6213 253.411 71.0624 253.078ZM70.239 263.838V254.293L71.8706 255.264V264.809L70.239 263.838ZM77.7093 268.467C75.3149 267.043 73.8496 264.273 73.8496 261.188V261.17C73.8496 258.147 75.3074 257.124 77.7018 258.549C79.7639 259.776 80.9951 261.862 81.2217 263.851V263.895L79.6506 262.969L79.643 262.938C79.4617 261.89 78.797 260.791 77.7093 260.144C76.3422 259.331 75.5189 260.107 75.5189 262.163V262.181C75.5189 264.29 76.3573 266.072 77.7093 266.877C78.7366 267.488 79.3711 267.32 79.6354 266.449L79.6506 266.414L81.2217 267.349L81.2066 267.419C80.912 269.098 79.7412 269.676 77.7093 268.467ZM87.4985 274.107V261.424L94.4174 265.54V267.237L89.1905 264.127V267.836L94.1379 270.779V272.414L89.1905 269.471V273.417L94.4174 276.527V278.223L87.4985 274.107ZM96.6759 279.567V270.022L98.3149 270.997V272.447L98.4358 272.519C98.8361 271.738 99.6217 271.59 100.815 272.3C102.651 273.392 103.663 275.268 103.663 277.545V283.723L102.031 282.753V277.022C102.031 275.44 101.465 274.321 100.264 273.606C99.0627 272.892 98.3149 273.405 98.3149 274.943V280.542L96.6759 279.567ZM108.943 287.023C106.88 285.796 105.544 283.076 105.544 280.079V280.061C105.544 277.038 106.858 275.912 108.943 277.153C110.068 277.822 111.027 279.043 111.465 280.332L111.594 280.409V275.153L113.225 276.123V289.413L111.594 288.442V286.939L111.465 286.863C110.99 287.625 110.091 287.706 108.943 287.023ZM109.411 285.675C110.778 286.489 111.616 285.731 111.616 283.692V283.674C111.616 281.635 110.77 279.875 109.411 279.066C108.036 278.248 107.213 279.006 107.213 281.054V281.072C107.213 283.12 108.036 284.858 109.411 285.675ZM115.665 294.046V281.319L117.304 282.294V283.797L117.425 283.869C117.901 283.106 118.8 283.017 119.948 283.7C122.017 284.931 123.347 287.647 123.347 290.653V290.671C123.347 293.694 122.033 294.81 119.948 293.57C118.822 292.901 117.863 291.688 117.425 290.399L117.304 290.327V295.021L115.665 294.046ZM119.487 291.67C120.854 292.483 121.678 291.725 121.678 289.677V289.66C121.678 287.603 120.854 285.874 119.487 285.061C118.12 284.247 117.274 285.001 117.274 287.04V287.058C117.274 289.097 118.12 290.857 119.487 291.67ZM128.793 298.859C126.383 297.425 124.91 294.677 124.91 291.601V291.583C124.91 288.516 126.391 287.516 128.793 288.945C131.187 290.369 132.668 293.122 132.668 296.198V296.216C132.668 299.292 131.195 300.288 128.793 298.859ZM128.793 297.268C130.198 298.104 130.998 297.332 130.998 295.223V295.205C130.998 293.087 130.198 291.371 128.793 290.536C127.38 289.695 126.587 290.463 126.587 292.581V292.598C126.587 294.717 127.38 296.428 128.793 297.268ZM135.478 291.401C134.911 291.064 134.45 290.254 134.45 289.604C134.45 288.944 134.911 288.682 135.478 289.019C136.037 289.352 136.505 290.167 136.505 290.826C136.505 291.476 136.037 291.734 135.478 291.401ZM134.654 302.161V292.616L136.286 293.587V303.132L134.654 302.161ZM138.673 304.552V295.007L140.312 295.982V297.433L140.433 297.504C140.833 296.723 141.618 296.575 142.812 297.285C144.647 298.377 145.66 300.254 145.66 302.53V308.709L144.028 307.738V302.008C144.028 300.426 143.461 299.306 142.26 298.592C141.06 297.877 140.312 298.391 140.312 299.929V305.527L138.673 304.552ZM151.045 311.974C149.24 310.9 148.5 309.722 148.5 307.885V302.357L147.216 301.593V300.09L148.5 300.854V298.445L150.169 299.439V301.847L151.929 302.894V304.397L150.169 303.35V308.421C150.169 309.449 150.501 310.069 151.309 310.55C151.559 310.698 151.702 310.775 151.929 310.883V312.404C151.664 312.299 151.362 312.163 151.045 311.974Z" fill="url(#paint6_linear_576_16898)"/>
<defs>
<filter id="filter0_d_576_16898" x="578.504" y="2.0031" width="169.888" height="302.594" filterUnits="userSpaceOnUse" color-interpolation-filters="sRGB">
<feFlood flood-opacity="0" result="BackgroundImageFix"/>
<feColorMatrix in="SourceAlpha" type="matrix" values="0 0 0 0 0 0 0 0 0 0 0 0 0 0 0 0 0 0 127 0" result="hardAlpha"/>
<feOffset dy="4.8"/>
<feGaussianBlur stdDeviation="4.8"/>
<feComposite in2="hardAlpha" operator="out"/>
<feColorMatrix type="matrix" values="0 0 0 0 0.8375 0 0 0 0 0.812375 0 0 0 0 0.774688 0 0 0 0.2 0"/>
<feBlend mode="normal" in2="BackgroundImageFix" result="effect1_dropShadow_576_16898"/>
<feBlend mode="normal" in="SourceGraphic" in2="effect1_dropShadow_576_16898" result="shape"/>
</filter>
<filter id="filter1_d_576_16898" x="373.814" y="2.0031" width="169.888" height="302.594" filterUnits="userSpaceOnUse" color-interpolation-filters="sRGB">
<feFlood flood-opacity="0" result="BackgroundImageFix"/>
<feColorMatrix in="SourceAlpha" type="matrix" values="0 0 0 0 0 0 0 0 0 0 0 0 0 0 0 0 0 0 127 0" result="hardAlpha"/>
<feOffset dy="4.8"/>
<feGaussianBlur stdDeviation="4.8"/>
<feComposite in2="hardAlpha" operator="out"/>
<feColorMatrix type="matrix" values="0 0 0 0 0.8375 0 0 0 0 0.812375 0 0 0 0 0.774688 0 0 0 0.2 0"/>
<feBlend mode="normal" in2="BackgroundImageFix" result="effect1_dropShadow_576_16898"/>
<feBlend mode="normal" in="SourceGraphic" in2="effect1_dropShadow_576_16898" result="shape"/>
</filter>
<filter id="filter2_d_576_16898" x="0.4" y="-3.8" width="168.927" height="311.278" filterUnits="userSpaceOnUse" color-interpolation-filters="sRGB">
<feFlood flood-opacity="0" result="BackgroundImageFix"/>
<feColorMatrix in="SourceAlpha" type="matrix" values="0 0 0 0 0 0 0 0 0 0 0 0 0 0 0 0 0 0 127 0" result="hardAlpha"/>
<feOffset dy="4.8"/>
<feGaussianBlur stdDeviation="4.8"/>
<feComposite in2="hardAlpha" operator="out"/>
<feColorMatrix type="matrix" values="0 0 0 0 0.8375 0 0 0 0 0.812375 0 0 0 0 0.774688 0 0 0 0.2 0"/>
<feBlend mode="normal" in2="BackgroundImageFix" result="effect1_dropShadow_576_16898"/>
<feBlend mode="normal" in="SourceGraphic" in2="effect1_dropShadow_576_16898" result="shape"/>
</filter>
<linearGradient id="paint0_linear_576_16898" x1="93.5308" y1="-37.7654" x2="93.5308" y2="240.735" gradientUnits="userSpaceOnUse">
<stop stop-color="#9333EA"/>
<stop offset="1" stop-color="#4D73E0"/>
</linearGradient>
<linearGradient id="paint1_linear_576_16898" x1="87" y1="0" x2="87" y2="204" gradientUnits="userSpaceOnUse">
<stop stop-color="#9333EA"/>
<stop offset="1" stop-color="#4D73E0"/>
</linearGradient>
<linearGradient id="paint2_linear_576_16898" x1="193.072" y1="166.535" x2="313.389" y2="98.1161" gradientUnits="userSpaceOnUse">
<stop offset="0.147298" stop-color="#4D73E0"/>
<stop offset="0.490839" stop-color="#993EEB"/>
<stop offset="0.811666" stop-color="#FC19AD"/>
</linearGradient>
<linearGradient id="paint3_linear_576_16898" x1="23.3838" y1="164.535" x2="143.701" y2="96.1161" gradientUnits="userSpaceOnUse">
<stop offset="0.147298" stop-color="#4D73E0"/>
<stop offset="0.490839" stop-color="#993EEB"/>
<stop offset="0.811666" stop-color="#FC19AD"/>
</linearGradient>
<linearGradient id="paint4_linear_576_16898" x1="23.3838" y1="192.535" x2="38.5915" y2="171.563" gradientUnits="userSpaceOnUse">
<stop offset="0.147298" stop-color="#4D73E0"/>
<stop offset="0.490839" stop-color="#993EEB"/>
<stop offset="0.811666" stop-color="#FC19AD"/>
</linearGradient>
<linearGradient id="paint5_linear_576_16898" x1="0" y1="203" x2="200.65" y2="30.7959" gradientUnits="userSpaceOnUse">
<stop offset="0.147298" stop-color="#4D73E0"/>
<stop offset="0.490839" stop-color="#993EEB"/>
<stop offset="0.811666" stop-color="#FC19AD"/>
</linearGradient>
<linearGradient id="paint6_linear_576_16898" x1="35.7822" y1="245.339" x2="51.0329" y2="224.5" gradientUnits="userSpaceOnUse">
<stop offset="0.147298" stop-color="#4D73E0"/>
<stop offset="0.490839" stop-color="#993EEB"/>
<stop offset="0.811666" stop-color="#FC19AD"/>
</linearGradient>
<clipPath id="clip0_576_16898">
<rect width="140" height="172" fill="white" transform="matrix(0.866025 0.5 0 1 554.104 27)"/>
</clipPath>
<clipPath id="clip1_576_16898">
<rect width="24" height="24" fill="white" transform="matrix(0.866025 0.5 0 1 604.333 70)"/>
</clipPath>
<clipPath id="clip2_576_16898">
<rect width="24" height="24" fill="white" transform="matrix(0.866025 0.5 0 1 604.333 130)"/>
</clipPath>
<clipPath id="clip3_576_16898">
<rect width="24" height="24" fill="white" transform="matrix(0.866025 0.5 0 1 604.333 190)"/>
</clipPath>
<clipPath id="clip4_576_16898">
<rect width="28.8" height="28.8" fill="white" transform="matrix(0.866025 0.5 0 1 366.734 154)"/>
</clipPath>
<clipPath id="clip5_576_16898">
<rect width="28.8" height="28.8" fill="white" transform="matrix(0.866025 0.5 0 1 366.734 63)"/>
</clipPath>
<clipPath id="clip6_576_16898">
<rect width="64" height="64" fill="white" transform="matrix(0.859406 0.511293 0 1 56.4082 82.6099)"/>
</clipPath>
</defs>
</svg>
